<?xml version="1.0" standalone="no"?>
<!DOCTYPE svg PUBLIC "-//W3C//DTD SVG 1.1//EN" "http://www.w3.org/Graphics/SVG/1.1/DTD/svg11.dtd" >
<svg xmlns="http://www.w3.org/2000/svg">
<metadata></metadata>
<defs>
<font id="tungsten_condensedthin" horiz-adv-x="489" >
<font-face units-per-em="2048" ascent="1638" descent="-410" />
<missing-glyph horiz-adv-x="180" />
<glyph horiz-adv-x="2048" />
<glyph horiz-adv-x="2048" />
<glyph unicode="&#xd;" horiz-adv-x="2048" />
<glyph unicode=" "  horiz-adv-x="180" />
<glyph unicode="&#x09;" horiz-adv-x="180" />
<glyph unicode="&#xa0;" horiz-adv-x="180" />
<glyph unicode="!" horiz-adv-x="212" d="M94 0v115h25v-115h-25zM96 672v762h23v-762l-2 -414h-19z" />
<glyph unicode="&#x22;" horiz-adv-x="260" d="M66 1096l16 338h20l-22 -338h-14zM168 1096l16 338h21l-23 -338h-14z" />
<glyph unicode="#" horiz-adv-x="581" d="M47 377v20l123 37v500l-123 -37v23l123 36v480h20v-473l201 61v412h23v-404l123 37v-20l-123 -39v-500l123 39v-21l-123 -39v-493h-23v487l-201 -63v-424h-20v418zM190 440l201 64v500l-201 -64v-500z" />
<glyph unicode="$" horiz-adv-x="520" d="M80 150v391h22v-391q0 -134 138 -134h8v709l-80 66q-88 69 -88 178v315q0 75 41 114.5t119 39.5h8v108h20v-108q160 0 160 -154v-360h-20v360q0 65 -35.5 99t-104.5 34v-680l76 -59q45 -37 66.5 -78t21.5 -100v-350q0 -75 -41 -114.5t-119 -39.5h-4v-123h-20v123h-8 q-78 0 -119 39.5t-41 114.5zM102 969q0 -100 76 -160l70 -55v663h-8q-138 0 -138 -133v-315zM268 16h4q138 0 138 134v348q0 99 -76 159l-66 52v-693z" />
<glyph unicode="%" horiz-adv-x="684" d="M72 911v414q0 63 22 90t78 27h33q57 0 77.5 -26.5t20.5 -90.5v-414q0 -63 -21 -89.5t-77 -26.5h-33q-57 0 -78.5 26.5t-21.5 89.5zM92 911q0 -56 16 -76t64 -20h33q48 0 64 20t16 76v414q0 56 -16 76t-64 20h-33q-48 0 -64 -20t-16 -76v-414zM162 -2l172 727l168 709h20 l-172 -723l-168 -713h-20zM381 111v411q0 64 21 90.5t77 26.5h33q57 0 78.5 -26.5t21.5 -90.5v-411q0 -64 -22 -90.5t-78 -26.5h-33q-57 0 -77.5 26t-20.5 91zM399 111q0 -56 16 -77.5t64 -21.5h33q48 0 64 21.5t16 77.5v411q0 56 -16 77.5t-64 21.5h-33q-48 0 -64 -21.5 t-16 -77.5v-411z" />
<glyph unicode="&#x26;" horiz-adv-x="589" d="M78 117v487q0 55 11 86.5t44 59.5l72 63l-29 76q-23 56 -30 95.5t-7 105.5v213q0 68 37 104.5t107 36.5h28q70 0 107 -36.5t37 -104.5v-299h-21v299q0 120 -123 120h-28q-60 0 -91.5 -30.5t-31.5 -89.5v-213q0 -61 7.5 -100.5t27.5 -92.5l213 -539l96 449h20l-104 -477 l131 -330h-23l-116 297l-41 -188q-27 -117 -140 -117h-26q-61 0 -94 32.5t-33 92.5zM98 117q0 -51 28 -78t79 -27h26q98 0 119 103l47 211l-184 467l-70 -62q-27 -24 -36 -49.5t-9 -77.5v-487z" />
<glyph unicode="'" horiz-adv-x="155" d="M66 1096l16 338h20l-22 -338h-14z" />
<glyph unicode="(" horiz-adv-x="296" d="M113 227v979q0 120 19 168t97 127l13 -10q-74 -79 -91.5 -124.5t-17.5 -160.5v-979q0 -115 17 -160t92 -124l-13 -11q-78 79 -97 127t-19 168z" />
<glyph unicode=")" horiz-adv-x="296" d="M55 -57q75 80 93 125t18 159v979q0 114 -18 159.5t-93 125.5l13 10q55 -56 77 -89.5t31.5 -77.5t9.5 -128v-979q0 -84 -9.5 -128t-31.5 -77.5t-77 -89.5z" />
<glyph unicode="*" horiz-adv-x="385" d="M29 1104v18l149 101l-149 100v20l157 -106l-2 197h17v-197l155 106v-18l-149 -102l149 -101v-18l-155 104v-196h-17l2 198z" />
<glyph unicode="+" horiz-adv-x="479" d="M51 713v20h178v187h21v-187h180v-20h-180v-187h-21v187h-178z" />
<glyph unicode="," horiz-adv-x="137" d="M29 -186q6 21 10.5 37t8 32t5.5 25t4 24t2.5 20t1.5 22t1 21.5t0.5 26t0.5 29.5v64h23v-64q0 -64 -7 -109t-34 -128h-16z" />
<glyph unicode="-" horiz-adv-x="253" d="M27 565v21h200v-21h-200z" />
<glyph unicode="." horiz-adv-x="129" d="M51 0v115h25v-115h-25z" />
<glyph unicode="/" horiz-adv-x="331" d="M57 -47l197 1528h20l-196 -1528h-21z" />
<glyph unicode="0" horiz-adv-x="532" d="M80 145v1143q0 75 41 115.5t119 40.5h53q78 0 119 -40.5t41 -115.5v-1143q0 -75 -41 -115t-119 -40h-53q-78 0 -119 40t-41 115zM102 145q0 -135 138 -135h53q137 0 137 135v1143q0 135 -137 135h-53q-138 0 -138 -135v-1143z" />
<glyph unicode="1" horiz-adv-x="249" d="M29 1362v10l43 8q32 6 41.5 14t15.5 33l2 13h14v-1440h-20v1368z" />
<glyph unicode="2" horiz-adv-x="495" d="M78 0v295q0 67 14.5 111t54.5 98l203 278q32 44 45 81t13 87v348q0 60 -34 92.5t-100 32.5h-34q-67 0 -101.5 -32t-34.5 -93v-370h-20v370q0 70 39 108t113 38h40q74 0 113 -38t39 -108v-346q0 -56 -13.5 -97t-47.5 -87l-203 -279q-37 -52 -50.5 -92t-13.5 -104v-273h334 v-20h-356z" />
<glyph unicode="3" horiz-adv-x="516" d="M78 145v365h22v-365q0 -66 35.5 -100.5t102.5 -34.5h51q137 0 137 135v420q0 158 -158 158h-88v18h86q158 0 158 158v389q0 135 -137 135h-47q-67 0 -102.5 -34.5t-35.5 -100.5v-348h-22v348q0 75 41 115.5t119 40.5h47q78 0 118.5 -40.5t40.5 -115.5v-389 q0 -141 -114 -168q117 -21 117 -166v-420q0 -75 -41 -115t-119 -40h-51q-78 0 -119 40t-41 115z" />
<glyph unicode="4" horiz-adv-x="499" d="M29 240v20l315 1174h31v-1176h110v-18h-110v-240h-23v240h-323zM49 258h303v1137z" />
<glyph unicode="5" horiz-adv-x="503" d="M82 145v369h20v-369q0 -66 35.5 -100.5t102.5 -34.5h34q140 0 140 135v551q0 66 -34 100.5t-97 34.5q-54 0 -92.5 -19t-86.5 -60h-18l4 682h340v-21h-319l-2 -633q43 35 81.5 53.5t92.5 18.5q73 0 112 -40.5t39 -115.5v-551q0 -76 -40.5 -115.5t-119.5 -39.5h-34 q-78 0 -118 40t-40 115z" />
<glyph unicode="6" horiz-adv-x="520" d="M80 145v1143q0 75 41 115.5t119 40.5h43q78 0 118.5 -40.5t40.5 -115.5v-317h-22v317q0 135 -137 135h-43q-138 0 -138 -135v-549q91 56 172 58h13q82 0 120.5 -41t38.5 -105v-506q0 -75 -40.5 -115t-118.5 -40h-47q-78 0 -119 40t-41 115zM102 145q0 -135 138 -135h47 q137 0 137 135v504q0 127 -143 127q-87 0 -179 -57v-574z" />
<glyph unicode="7" horiz-adv-x="403" d="M23 1413v21h331v-21l-239 -1413h-23l242 1413h-311z" />
<glyph unicode="8" horiz-adv-x="516" d="M63 145v430q0 132 111 162q-47 11 -75.5 53.5t-28.5 114.5v383q0 75 40.5 115.5t118.5 40.5h56q78 0 119.5 -40.5t41.5 -115.5v-383q0 -72 -29.5 -114.5t-78.5 -53.5q113 -30 113 -162v-430q0 -76 -40.5 -115.5t-119.5 -39.5h-70q-78 0 -118 40t-40 115zM84 145 q0 -135 137 -135h70q139 0 139 135v430q0 77 -42 114.5t-116 37.5h-30q-74 0 -116 -37.5t-42 -114.5v-430zM92 905q0 -157 150 -157h30q152 0 152 157v383q0 135 -139 135h-56q-137 0 -137 -135v-383z" />
<glyph unicode="9" horiz-adv-x="518" d="M74 768v520q0 75 40.5 115.5t118.5 40.5h46q79 0 119 -40t40 -116v-1143q0 -155 -159 -155h-43q-78 0 -119 40t-41 115v318h22v-318q0 -135 138 -135h43q139 0 139 135v533q-89 -53 -172 -55h-13q-83 0 -121 40t-38 105zM96 770q0 -127 144 -127q82 0 178 57v588 q0 135 -139 135h-46q-137 0 -137 -135v-518z" />
<glyph unicode=":" horiz-adv-x="131" d="M51 0v115h25v-115h-25zM51 1026v115h25v-115h-25z" />
<glyph unicode=";" horiz-adv-x="143" d="M29 -186q6 21 10.5 37t8 32t5.5 25t4 24t2.5 20t1.5 22t1 21.5t0.5 26t0.5 29.5v64h23v-64q0 -64 -7 -109t-34 -128h-16zM59 1026v115h25v-115h-25z" />
<glyph unicode="&#x3c;" horiz-adv-x="428" d="M14 715v20l381 162v-23l-354 -149l354 -145v-23z" />
<glyph unicode="=" horiz-adv-x="481" d="M57 604v21h367v-21h-367zM57 827v21h367v-21h-367z" />
<glyph unicode="&#x3e;" horiz-adv-x="428" d="M31 555v23l354 145l-354 149v23l381 -162v-20z" />
<glyph unicode="?" horiz-adv-x="450" d="M61 928v370q0 71 38.5 108.5t113.5 37.5h27q74 0 113.5 -38.5t39.5 -109.5v-356q0 -49 -13.5 -81.5t-47.5 -76.5l-45 -59q-29 -40 -38 -65.5t-9 -69.5v-332h-23v332q0 51 10.5 79.5t44.5 69.5l45 62q30 38 42 67.5t12 73.5v356q0 62 -33.5 94.5t-97.5 32.5h-27 q-64 0 -97.5 -32.5t-33.5 -92.5v-370h-21zM217 0v115h25v-115h-25z" />
<glyph unicode="@" horiz-adv-x="770" d="M96 135v905q0 135 47 190.5t172 55.5h142q124 0 171.5 -55.5t47.5 -190.5v-897q0 -50 -20.5 -69t-63.5 -19h-21q-44 0 -61.5 15t-17.5 51q-77 -64 -132 -64q-104 0 -104 99v321q0 49 19 75.5t73 49.5l139 55v340q0 48 -21 71.5t-73 23.5h-8q-106 0 -106 -95v-245h-21v245 q0 113 127 113h8q60 0 87.5 -28t27.5 -85v-862q0 -38 12 -49.5t53 -11.5h19q34 0 49.5 14t15.5 55v897q0 127 -42.5 178.5t-157.5 51.5h-142q-116 0 -159 -51.5t-43 -178.5v-905q0 -127 43 -178t159 -51h349v-17h-349q-125 0 -172 55.5t-47 190.5zM274 158q0 -42 21.5 -61 t66.5 -19q49 0 125 61v500l-135 -55q-45 -20 -61.5 -43t-16.5 -64v-319z" />
<glyph unicode="A" horiz-adv-x="524" d="M59 0l191 1444h24l193 -1444h-21l-45 346h-276l-45 -346h-21zM127 367h270l-135 1030z" />
<glyph unicode="B" horiz-adv-x="528" d="M94 0v1434h191q78 0 118.5 -40.5t40.5 -115.5v-385q0 -144 -118 -168q120 -27 120 -168v-401q0 -75 -40.5 -115.5t-118.5 -40.5h-193zM117 20h170q137 0 137 136v401q0 158 -160 158h-147v-695zM117 735h147q158 0 158 158v385q0 135 -137 135h-168v-678z" />
<glyph unicode="C" horiz-adv-x="526" d="M84 145v1143q0 75 41 115.5t119 40.5h45q78 0 119 -40.5t41 -115.5v-405h-23v405q0 135 -137 135h-45q-138 0 -138 -135v-1143q0 -135 138 -135h45q137 0 137 135v406h23v-406q0 -75 -41 -115t-119 -40h-45q-78 0 -119 40t-41 115z" />
<glyph unicode="D" horiz-adv-x="536" d="M94 0v1434h154q205 0 205 -205v-1024q0 -205 -205 -205h-154zM117 20h131q184 0 184 185v1024q0 184 -184 184h-131v-1393z" />
<glyph unicode="E" horiz-adv-x="442" d="M94 0v1434h285v-21h-262v-678h256v-20h-256v-695h266v-20h-289z" />
<glyph unicode="F" horiz-adv-x="417" d="M94 0v1434h281v-21h-258v-678h250v-20h-250v-715h-23z" />
<glyph unicode="G" horiz-adv-x="538" d="M84 145v1143q0 75 41 115.5t119 40.5h53q78 0 119 -40.5t41 -115.5v-377h-23v377q0 135 -137 135h-53q-138 0 -138 -135v-1143q0 -135 138 -135h53q137 0 137 135v547h-172v21h195v-568q0 -75 -41 -115t-119 -40h-53q-78 0 -119 40t-41 115z" />
<glyph unicode="H" horiz-adv-x="548" d="M94 0v1434h23v-699h315v699h23v-1434h-23v715h-315v-715h-23z" />
<glyph unicode="I" horiz-adv-x="219" d="M98 0v1434h23v-1434h-23z" />
<glyph unicode="J" horiz-adv-x="315" d="M47 0v23h8q81 0 113.5 34t32.5 115v1262h20v-1262q0 -91 -37.5 -131.5t-128.5 -40.5h-8z" />
<glyph unicode="K" horiz-adv-x="462" d="M94 0v1434h23v-713l297 713h22l-299 -715l293 -719h-24l-289 721v-721h-23z" />
<glyph unicode="L" horiz-adv-x="401" d="M94 0v1434h23v-1414h252v-20h-275z" />
<glyph unicode="M" horiz-adv-x="720" d="M94 0v1434h31l235 -1387l236 1387h31v-1434h-23v1360l-231 -1360h-25l-233 1372l2 -1116v-256h-23z" />
<glyph unicode="N" horiz-adv-x="555" d="M94 0v1434h35l309 -1389v420l2 969h21v-1434h-33l-311 1386v-1386h-23z" />
<glyph unicode="O" horiz-adv-x="544" d="M84 145v1143q0 75 41 115.5t119 40.5h57q78 0 119 -40.5t41 -115.5v-1143q0 -75 -41 -115t-119 -40h-57q-78 0 -119 40t-41 115zM106 145q0 -135 138 -135h57q137 0 137 135v1143q0 135 -137 135h-57q-138 0 -138 -135v-1143z" />
<glyph unicode="P" d="M94 0v1434h158q79 0 125.5 -41t46.5 -115v-471q0 -86 -46 -132t-134 -46h-127v-629h-23zM117 649h127q78 0 117.5 40.5t39.5 117.5v471q0 65 -39.5 100t-109.5 35h-135v-764z" />
<glyph unicode="Q" horiz-adv-x="544" d="M84 145v1143q0 75 41 115.5t119 40.5h57q78 0 119 -40.5t41 -115.5v-1143q0 -71 -38 -110.5t-108 -42.5l156 -88l-14 -21l-174 109v-2h-39q-78 0 -119 40t-41 115zM106 145q0 -135 138 -135h57q137 0 137 135v1143q0 135 -137 135h-57q-138 0 -138 -135v-1143z" />
<glyph unicode="R" horiz-adv-x="530" d="M94 0v1434h187q78 0 118.5 -40.5t40.5 -115.5v-406q0 -130 -112 -167q114 -29 114 -166v-539h-22v539q0 155 -160 155h-143v-694h-23zM117 715h143q78 0 118 40t40 117v406q0 135 -137 135h-164v-698z" />
<glyph unicode="S" horiz-adv-x="507" d="M80 143v398h22v-398q0 -133 138 -133h32q138 0 138 133v355q0 99 -76 159l-166 134q-88 69 -88 178v321q0 75 41 114.5t119 39.5h28q160 0 160 -154v-366h-20v366q0 65 -35.5 99t-104.5 34h-28q-138 0 -138 -133v-321q0 -100 76 -160l166 -131q45 -37 66.5 -78t21.5 -100 v-357q0 -75 -41 -114t-119 -39h-32q-78 0 -119 39t-41 114z" />
<glyph unicode="T" horiz-adv-x="428" d="M23 1413v21h380v-21h-178v-1413h-22v1413h-180z" />
<glyph unicode="U" horiz-adv-x="546" d="M90 147v1287h21v-1287q0 -137 139 -137h47q139 0 139 137v1287h23v-1287q0 -77 -41.5 -117t-120.5 -40h-47q-160 0 -160 157z" />
<glyph unicode="V" horiz-adv-x="507" d="M55 1434h23l176 -1393l176 1393h21l-183 -1440h-28z" />
<glyph unicode="W" horiz-adv-x="794" d="M59 1434h21l145 -1381l158 1381h27l159 -1381l144 1381h20l-149 -1436h-29l-160 1372l-155 -1372h-29z" />
<glyph unicode="X" horiz-adv-x="475" d="M53 0l172 727l-170 707h23l158 -674l161 674h21l-172 -709l172 -725h-21l-161 692l-162 -692h-21z" />
<glyph unicode="Y" horiz-adv-x="460" d="M39 1434h20l172 -842l172 842h21l-182 -885v-549h-21v541z" />
<glyph unicode="Z" horiz-adv-x="423" d="M55 1413v21h312v-21l-287 -1393h299v-20h-318v20l285 1393h-291z" />
<glyph unicode="[" horiz-adv-x="317" d="M117 -55v1544h188v-16h-170v-1512h170v-16h-188z" />
<glyph unicode="\" horiz-adv-x="331" d="M57 1481h21l196 -1528h-20z" />
<glyph unicode="]" horiz-adv-x="317" d="M10 -39h170v1512h-170v16h189v-1544h-189v16z" />
<glyph unicode="^" horiz-adv-x="471" d="M47 1044l178 390h15l186 -390h-23l-172 361l-161 -361h-23z" />
<glyph unicode="_" horiz-adv-x="667" d="M27 -74h614v-16h-614v16z" />
<glyph unicode="`" horiz-adv-x="749" d="M326 1384h24l72 -139h-16z" />
<glyph unicode="a" horiz-adv-x="468" d="M74 106v326q0 58 26.5 92t92.5 60l172 71v359q0 116 -123 116h-13q-62 0 -94.5 -29.5t-32.5 -86.5v-277h-22v277q0 66 38.5 100.5t110.5 34.5h13q145 0 145 -135v-1014h-22v57q-90 -67 -158 -67h-8q-63 0 -94 28t-31 88zM94 109q0 -99 105 -99h8q65 0 158 70v555 l-168 -70q-57 -25 -80 -54t-23 -79v-323z" />
<glyph unicode="b" d="M86 0v1440h20v-361q55 40 88 55t74 15h13q133 0 133 -115v-928q0 -116 -133 -116h-13q-41 0 -74.5 15.5t-87.5 55.5v-61h-20zM106 84q55 -42 89 -58t71 -16h13q58 0 85 23.5t27 75.5v923q0 52 -27 75t-85 23h-13q-38 0 -71.5 -15.5t-88.5 -57.5v-973z" />
<glyph unicode="c" horiz-adv-x="485" d="M76 143v854q0 152 153 152h23q154 0 154 -152v-297h-23v297q0 133 -131 133h-23q-131 0 -131 -133v-854q0 -133 131 -133h25q131 0 131 133v291h23v-291q0 -153 -154 -153h-25q-153 0 -153 153z" />
<glyph unicode="d" d="M76 106v928q0 115 131 115h12q41 0 75.5 -15.5t88.5 -54.5v361h20v-1440h-20v61q-53 -40 -88 -55.5t-76 -15.5h-12q-131 0 -131 116zM98 109q0 -52 27.5 -75.5t83.5 -23.5h12q38 0 72.5 16t89.5 58v973q-54 41 -89 57t-73 16h-12q-57 0 -84 -23t-27 -75v-923z" />
<glyph unicode="e" horiz-adv-x="479" d="M76 145v850q0 154 157 154h13q157 0 157 -154v-438h-305v-412q0 -135 135 -135h13q135 0 135 135v271h22v-271q0 -76 -40 -115.5t-117 -39.5h-13q-157 0 -157 155zM98 575h283v420q0 135 -135 135h-13q-135 0 -135 -135v-420z" />
<glyph unicode="f" horiz-adv-x="270" d="M41 1120v21h70v186q0 57 23.5 85t76.5 28h47v-19h-47q-80 0 -80 -92v-188h123v-21h-123v-1120h-20v1120h-70z" />
<glyph unicode="g" horiz-adv-x="485" d="M76 160v874q0 115 131 115h12q41 0 75.5 -15.5t84.5 -52.5v60h20v-1209q0 -122 -137 -122h-39q-139 0 -139 122v29h20v-29q0 -104 119 -104h39q117 0 117 104v181q-49 -38 -84 -54t-76 -16h-12q-131 0 -131 117zM98 162q0 -99 111 -99h12q38 0 72 16t86 56v922 q-51 41 -85.5 57t-72.5 16h-12q-57 0 -84 -23t-27 -75v-870z" />
<glyph unicode="h" horiz-adv-x="491" d="M86 0v1440h20v-361q55 39 88 54.5t72 15.5h13q131 0 131 -115v-1034h-23v1032q0 52 -26.5 75t-81.5 23h-13q-38 0 -71.5 -15.5t-88.5 -57.5v-1057h-20z" />
<glyph unicode="i" horiz-adv-x="200" d="M88 1268v96h25v-96h-25zM90 0v1141h21v-1141h-21z" />
<glyph unicode="j" horiz-adv-x="210" d="M31 -168h6q37 0 51 18.5t14 63.5v1227h21v-1225q0 -56 -19 -80t-67 -24h-6v20zM100 1268v96h25v-96h-25z" />
<glyph unicode="k" horiz-adv-x="419" d="M86 0v1440h20v-869l269 566h22l-268 -568l260 -569h-24l-259 567v-567h-20zM106 567l5 2l-5 2v-4z" />
<glyph unicode="l" horiz-adv-x="200" d="M90 0v1440h21v-1440h-21z" />
<glyph unicode="m" horiz-adv-x="768" d="M86 0v1141h20v-62q55 39 88 54.5t72 15.5h8q93 0 117 -68q50 38 84.5 53t75.5 15h8q62 0 94.5 -28.5t32.5 -82.5v-1038h-22v1036q0 94 -107 94h-8q-37 0 -70.5 -13.5t-83.5 -53.5q0 -4 1 -12.5t1 -12.5v-1038h-20v1036q0 94 -103 94h-8q-38 0 -71.5 -15.5t-88.5 -57.5 v-1057h-20z" />
<glyph unicode="n" horiz-adv-x="491" d="M86 0v1141h20v-62q55 39 88 54.5t72 15.5h13q131 0 131 -115v-1034h-23v1032q0 52 -26.5 75t-81.5 23h-13q-38 0 -71.5 -15.5t-88.5 -57.5v-1057h-20z" />
<glyph unicode="o" d="M76 143v854q0 152 153 152h29q156 0 156 -152v-854q0 -153 -156 -153h-29q-153 0 -153 153zM98 143q0 -133 131 -133h29q133 0 133 133v854q0 133 -133 133h-29q-131 0 -131 -133v-854z" />
<glyph unicode="p" d="M86 -186v1327h20v-62q55 40 88 55t74 15h13q133 0 133 -115v-928q0 -116 -133 -116h-13q-41 0 -74.5 15.5t-87.5 55.5v-247h-20zM106 84q55 -42 89 -58t73 -16h11q58 0 85 23.5t27 75.5v923q0 52 -27 75t-85 23h-13q-38 0 -71.5 -15.5t-88.5 -57.5v-973z" />
<glyph unicode="q" d="M76 106v928q0 115 131 115h12q41 0 75.5 -15.5t88.5 -54.5v62h20v-1327h-20v247q-53 -40 -88 -55.5t-76 -15.5h-12q-131 0 -131 116zM98 109q0 -52 27.5 -75.5t83.5 -23.5h12q38 0 72.5 16t89.5 58v973q-54 41 -89 57t-73 16h-12q-57 0 -84 -23t-27 -75v-923z" />
<glyph unicode="r" horiz-adv-x="282" d="M86 0v1141h20v-68q72 71 154 74v-23q-48 -5 -82.5 -21.5t-71.5 -55.5v-1047h-20z" />
<glyph unicode="s" horiz-adv-x="468" d="M76 125v309h22v-309q0 -115 123 -115h27q123 0 123 115v250q0 51 -17.5 83.5t-56.5 59.5l-135 98q-44 30 -64 66t-20 90v244q0 133 143 133h25q145 0 145 -133v-301h-22v301q0 114 -123 114h-25q-61 0 -92 -29.5t-31 -84.5v-238q0 -51 17.5 -83.5t56.5 -59.5l137 -96 q43 -32 63.5 -68.5t20.5 -89.5v-256q0 -135 -145 -135h-27q-145 0 -145 135z" />
<glyph unicode="t" horiz-adv-x="264" d="M41 1120v21h70v135h20v-135h119v-21h-119v-1120h-20v1120h-70z" />
<glyph unicode="u" horiz-adv-x="491" d="M82 106v1035h22v-1032q0 -52 27 -75.5t82 -23.5h12q37 0 71 16t89 58v1057h21v-1141h-21v61q-51 -39 -86.5 -55t-75.5 -16h-12q-129 0 -129 116z" />
<glyph unicode="v" horiz-adv-x="454" d="M47 1141h23l157 -1094l158 1094h21l-168 -1151h-23z" />
<glyph unicode="w" horiz-adv-x="667" d="M39 1141h20l134 -1094l133 1094h20l129 -1084l131 1084h21l-140 -1151h-22l-131 1075l-129 -1075h-23z" />
<glyph unicode="x" horiz-adv-x="419" d="M41 0l160 575l-158 566h23l143 -531l145 531h23l-156 -566l158 -575h-23l-145 545l-148 -545h-22z" />
<glyph unicode="y" horiz-adv-x="448" d="M41 1141h20l164 -1080l158 1080h23l-197 -1327h-23l29 194z" />
<glyph unicode="z" horiz-adv-x="348" d="M33 1120v21h272v-21l-242 -1100h250v-20h-272v20l246 1100h-254z" />
<glyph unicode="{" horiz-adv-x="358" d="M74 709v18l10 2q56 10 72 33.5t16 89.5v354q0 64 3.5 99.5t18.5 69.5t34.5 57.5t62.5 68.5l12 -10q-75 -79 -92.5 -125t-17.5 -160v-354q0 -68 -18 -96t-66 -37q48 -11 66 -39t18 -96v-357q0 -114 17.5 -159.5t92.5 -124.5l-12 -11q-43 45 -62.5 68.5t-34.5 57.5 t-18.5 69.5t-3.5 99.5v357q0 65 -16 89t-72 34z" />
<glyph unicode="|" horiz-adv-x="405" d="M193 -100v1624h20v-1624h-20z" />
<glyph unicode="}" horiz-adv-x="358" d="M55 -57q75 80 93 125t18 159v357q0 68 18 96t66 39q-48 9 -66 37t-18 96v354q0 114 -18 159.5t-93 125.5l13 10q79 -82 98.5 -129t19.5 -166v-354q0 -66 16 -89.5t72 -33.5l11 -2v-18l-11 -2q-56 -10 -72 -34t-16 -89v-357q0 -119 -19.5 -166t-98.5 -129z" />
<glyph unicode="~" horiz-adv-x="471" d="M43 686v25q55 55 102 55h5q26 0 67 -21l45 -22q31 -16 57 -16h7q43 0 102 59v-25q-52 -55 -102 -55h-7q-25 0 -67 19l-45 22q-35 18 -57 18h-5q-43 0 -102 -59z" />
<glyph unicode="&#xa1;" horiz-adv-x="212" d="M94 1319v115h25v-115h-25zM96 0v762l2 414h19l2 -414v-762h-23z" />
<glyph unicode="&#xa2;" horiz-adv-x="477" d="M74 301v840q0 152 153 155v144h23v-144q74 0 112.5 -39.5t38.5 -115.5v-307h-20v307q0 134 -131 137v-1112q131 0 131 135v330h22v-330q0 -75 -39 -115.5t-114 -40.5v-151h-23v151q-75 0 -114 40.5t-39 115.5zM96 301q0 -135 131 -135v1112q-131 -3 -131 -137v-840z" />
<glyph unicode="&#xa3;" horiz-adv-x="542" d="M59 0v20h72v629h-72v21h72v618q0 75 38 115.5t107 40.5h43q71 0 110.5 -40.5t39.5 -115.5v-383h-23v383q0 65 -33 100t-94 35h-43q-60 0 -92 -34.5t-32 -100.5v-618h221v-21h-221v-629h323v-20h-416z" />
<glyph unicode="&#xa5;" horiz-adv-x="505" d="M61 1434h21l172 -809l172 809h20l-182 -842h162v-21h-162v-127h162v-18h-162v-426h-20v426h-166v18h166v127h-166v21h164z" />
<glyph unicode="&#xa7;" horiz-adv-x="497" d="M74 139v312h20v-312q0 -129 137 -129h29q137 0 137 129v312q0 50 -15 74t-58 48l-213 121q-16 9 -20.5 16t-4.5 23l250 -143q46 -26 64 -55t18 -86v-310q0 -72 -40 -110.5t-118 -38.5h-29q-77 0 -117 38t-40 111zM78 985v309q0 73 40.5 111.5t117.5 38.5h30 q77 0 117.5 -38.5t40.5 -111.5v-311h-21v311q0 129 -137 129h-30q-67 0 -102.5 -33t-35.5 -96v-311q0 -49 16.5 -74t59.5 -49l213 -121q15 -9 20 -16.5t5 -22.5l-250 144q-47 26 -65.5 55t-18.5 86z" />
<glyph unicode="&#xa8;" horiz-adv-x="749" d="M291 1245v94h18v-94h-18zM440 1245v94h19v-94h-19z" />
<glyph unicode="&#xa9;" horiz-adv-x="755" d="M96 238v960q0 135 47 190.5t172 55.5h125q124 0 171.5 -55.5t47.5 -190.5v-960q0 -135 -47.5 -190.5t-171.5 -55.5h-125q-125 0 -172 55.5t-47 190.5zM113 238q0 -127 43 -178.5t159 -51.5h125q115 0 158 51.5t43 178.5v960q0 127 -43 178t-158 51h-125q-116 0 -159 -51 t-43 -178v-960zM254 283v870q0 113 113 113h26q111 0 111 -113v-287h-21v287q0 45 -20.5 68.5t-69.5 23.5h-26q-50 0 -71.5 -23.5t-21.5 -68.5v-870q0 -95 93 -95h26q92 0 92 95v276h21v-276q0 -56 -26.5 -84.5t-86.5 -28.5h-26q-60 0 -86.5 28.5t-26.5 84.5z" />
<glyph unicode="&#xaa;" horiz-adv-x="333" d="M61 926v129q0 39 16.5 60t59.5 38l105 41v164q0 67 -72 67h-10q-76 0 -76 -67v-119h-18v119q0 41 25 63.5t69 22.5h10q90 0 90 -86v-504h-18v41q-56 -45 -97 -45h-4q-41 0 -60.5 18t-19.5 58zM82 926q0 -31 14 -44.5t47 -13.5q25 0 45 9.5t54 35.5v261l-97 -37 q-37 -15 -50 -32.5t-13 -49.5v-129z" />
<glyph unicode="&#xab;" horiz-adv-x="317" d="M57 573l76 304h17l-68 -304l68 -303h-17zM178 573l70 304h16l-63 -304l63 -303h-16z" />
<glyph unicode="&#xad;" horiz-adv-x="253" d="M27 565v21h200v-21h-200z" />
<glyph unicode="&#xae;" d="M74 840v454q0 82 25.5 116t99.5 34h82q76 0 105.5 -35t29.5 -115v-454q0 -82 -25.5 -116t-99.5 -34h-92q-74 0 -99.5 34t-25.5 116zM90 840q0 -74 22 -104.5t87 -30.5h92q65 0 86.5 30.5t21.5 104.5v454q0 72 -26 104t-92 32h-82q-65 0 -87 -31t-22 -105v-454zM172 797 v542h47q59 0 83 -15t24 -60v-121q0 -75 -54 -86q54 -10 54 -82v-178h-19v178q0 46 -17.5 60t-66.5 14h-35v-252h-16zM188 1065h33q50 0 68 16t18 62v121q0 36 -20 47.5t-68 11.5h-31v-258z" />
<glyph unicode="&#xaf;" horiz-adv-x="749" d="M260 1294v21h229v-21h-229z" />
<glyph unicode="&#xb0;" horiz-adv-x="399" d="M72 915v416q0 113 102 113h57q50 0 73.5 -27.5t23.5 -85.5v-416q0 -110 -101 -110h-53q-53 0 -77.5 26.5t-24.5 83.5zM92 915q0 -47 19.5 -68.5t62.5 -21.5h51q43 0 62.5 21.5t19.5 68.5v416q0 50 -17.5 71t-58.5 21h-57q-43 0 -62.5 -21.5t-19.5 -70.5v-416z" />
<glyph unicode="&#xb1;" horiz-adv-x="481" d="M51 811v20h178v187h21v-187h180v-20h-180v-186h-21v186h-178zM53 446v21h375v-21h-375z" />
<glyph unicode="&#xb4;" horiz-adv-x="749" d="M360 1245l70 139h25l-78 -139h-17z" />
<glyph unicode="&#xb6;" horiz-adv-x="548" d="M86 227v979q0 104 53 166t152 62h174v-1434h-21v1413h-108v-1413h-45q-99 0 -152 61.5t-53 165.5zM109 227q0 -95 46 -151t136 -56h24v1393h-24q-90 0 -136 -56t-46 -151v-979z" />
<glyph unicode="&#xb7;" horiz-adv-x="131" d="M51 623v114h25v-114h-25z" />
<glyph unicode="&#xb8;" horiz-adv-x="749" d="M330 -162l59 162h17l-52 -162h-24z" />
<glyph unicode="&#xba;" horiz-adv-x="346" d="M66 948v400q0 96 98 96h18q97 0 97 -96v-400q0 -98 -97 -98h-18q-98 0 -98 98zM86 948q0 -80 78 -80h18q78 0 78 80v400q0 79 -78 79h-18q-78 0 -78 -79v-400z" />
<glyph unicode="&#xbb;" horiz-adv-x="317" d="M53 270l64 303l-64 304h17l69 -304l-69 -303h-17zM168 270l68 303l-68 304h16l76 -304l-76 -303h-16z" />
<glyph unicode="&#xbf;" horiz-adv-x="450" d="M55 141v357q0 48 13.5 80.5t48.5 76.5l45 60q29 40 38 65.5t9 69.5v332h22v-332q0 -51 -10.5 -80t-44.5 -70l-45 -61q-29 -37 -41 -67t-12 -74v-357q0 -62 33.5 -94.5t97.5 -32.5h27q64 0 97.5 32.5t33.5 92.5v371h20v-371q0 -145 -151 -145h-27q-75 0 -114.5 38 t-39.5 109zM207 1323v115h24v-115h-24z" />
<glyph unicode="&#xc0;" horiz-adv-x="524" d="M59 0l191 1444h24l193 -1444h-21l-45 346h-276l-45 -346h-21zM127 367h270l-135 1030zM162 1608h28l80 -109h-20z" />
<glyph unicode="&#xc1;" horiz-adv-x="524" d="M59 0l191 1444h24l193 -1444h-21l-45 346h-276l-45 -346h-21zM127 367h270l-135 1030zM256 1499l80 109h29l-91 -109h-18z" />
<glyph unicode="&#xc2;" horiz-adv-x="524" d="M59 0l191 1444h24l193 -1444h-21l-45 346h-276l-45 -346h-21zM127 367h270l-135 1030zM162 1499l90 121h24l91 -121h-15l-88 105l-88 -105h-14z" />
<glyph unicode="&#xc3;" horiz-adv-x="524" d="M59 0l191 1444h24l193 -1444h-21l-45 346h-276l-45 -346h-21zM127 367h270l-135 1030zM139 1499v84q0 37 37 37h8q21 0 47 -21l74 -65q24 -18 37 -18h8q13 0 17 4.5t4 21.5v78h18v-84q0 -18 -10.5 -28.5t-28.5 -10.5h-8q-16 0 -45 23l-76 65q-22 19 -37 19h-8 q-11 0 -15.5 -5.5t-4.5 -21.5v-78h-17z" />
<glyph unicode="&#xc4;" horiz-adv-x="524" d="M59 0l191 1444h24l193 -1444h-21l-45 346h-276l-45 -346h-21zM127 367h270l-135 1030zM182 1499v86h19v-86h-19zM328 1499v86h16v-86h-16z" />
<glyph unicode="&#xc5;" horiz-adv-x="520" d="M55 0l185 1364h-19q-47 0 -68.5 16t-21.5 54v4q0 39 21.5 54t68.5 15h80q47 0 68.5 -15t21.5 -54v-4q0 -38 -21.5 -54t-68.5 -16h-22l184 -1364h-21l-47 346h-274l-45 -346h-21zM125 367h268l-135 997zM150 1434q0 -30 16 -42t55 -12h80q39 0 55.5 12t16.5 42v4 q0 30 -16.5 41.5t-55.5 11.5h-80q-39 0 -55 -11.5t-16 -41.5v-4z" />
<glyph unicode="&#xc6;" horiz-adv-x="684" d="M39 0l280 1434h19l-207 -1067h207v1067h285v-21h-265v-678h256v-18h-256v-697h267v-20h-287v346h-211l-68 -346h-20z" />
<glyph unicode="&#xc7;" horiz-adv-x="526" d="M84 145v1143q0 75 41 115.5t119 40.5h45q78 0 119 -40.5t41 -115.5v-405h-23v405q0 135 -137 135h-45q-138 0 -138 -135v-1143q0 -135 138 -135h45q137 0 137 135v406h23v-406q0 -75 -41 -115t-119 -40h-8l-48 -152h-24l55 152h-20q-78 0 -119 40t-41 115z" />
<glyph unicode="&#xc8;" horiz-adv-x="442" d="M94 0v1434h285v-21h-262v-678h256v-20h-256v-695h266v-20h-289zM137 1608h29l80 -109h-21z" />
<glyph unicode="&#xc9;" horiz-adv-x="442" d="M94 0v1434h285v-21h-262v-678h256v-20h-256v-695h266v-20h-289zM233 1499l80 109h29l-90 -109h-19z" />
<glyph unicode="&#xca;" horiz-adv-x="442" d="M94 0v1434h285v-21h-262v-678h256v-20h-256v-695h266v-20h-289zM137 1499l90 121h25l90 -121h-14l-88 105l-88 -105h-15z" />
<glyph unicode="&#xcb;" horiz-adv-x="442" d="M94 0v1434h285v-21h-262v-678h256v-20h-256v-695h266v-20h-289zM158 1499v86h18v-86h-18zM303 1499v86h16v-86h-16z" />
<glyph unicode="&#xcc;" horiz-adv-x="219" d="M8 1608h29l80 -109h-21zM98 0v1434h23v-1434h-23z" />
<glyph unicode="&#xcd;" horiz-adv-x="219" d="M98 0v1434h23v-1434h-23zM102 1499l80 109h29l-90 -109h-19z" />
<glyph unicode="&#xce;" horiz-adv-x="219" d="M8 1499l90 121h25l90 -121h-14l-88 105l-88 -105h-15zM98 0v1434h23v-1434h-23z" />
<glyph unicode="&#xcf;" horiz-adv-x="219" d="M31 1499v86h18v-86h-18zM98 0v1434h23v-1434h-23zM176 1499v86h17v-86h-17z" />
<glyph unicode="&#xd0;" horiz-adv-x="559" d="M39 717v18h76v699h153q205 0 205 -205v-1024q0 -205 -205 -205h-153v717h-76zM137 20h131q185 0 185 185v1024q0 184 -185 184h-131v-678h148v-18h-148v-697z" />
<glyph unicode="&#xd1;" horiz-adv-x="555" d="M94 0v1434h35l309 -1389v420l2 969h21v-1434h-33l-311 1386v-1386h-23zM154 1499v84q0 37 36 37h9q21 0 47 -21l73 -65q24 -18 37 -18h9q12 0 16 4.5t4 21.5v78h18v-84q0 -39 -38 -39h-9q-16 0 -45 23l-75 65q-22 19 -37 19h-9q-11 0 -15.5 -5.5t-4.5 -21.5v-78h-16z" />
<glyph unicode="&#xd2;" horiz-adv-x="544" d="M84 145v1143q0 75 41 115.5t119 40.5h57q78 0 119 -40.5t41 -115.5v-1143q0 -75 -41 -115t-119 -40h-57q-78 0 -119 40t-41 115zM106 145q0 -135 138 -135h57q137 0 137 135v1143q0 135 -137 135h-57q-138 0 -138 -135v-1143zM170 1608h29l80 -109h-21z" />
<glyph unicode="&#xd3;" horiz-adv-x="544" d="M84 145v1143q0 75 41 115.5t119 40.5h57q78 0 119 -40.5t41 -115.5v-1143q0 -75 -41 -115t-119 -40h-57q-78 0 -119 40t-41 115zM106 145q0 -135 138 -135h57q137 0 137 135v1143q0 135 -137 135h-57q-138 0 -138 -135v-1143zM266 1499l80 109h29l-90 -109h-19z" />
<glyph unicode="&#xd4;" horiz-adv-x="544" d="M84 145v1143q0 75 41 115.5t119 40.5h57q78 0 119 -40.5t41 -115.5v-1143q0 -75 -41 -115t-119 -40h-57q-78 0 -119 40t-41 115zM106 145q0 -135 138 -135h57q137 0 137 135v1143q0 135 -137 135h-57q-138 0 -138 -135v-1143zM170 1499l90 121h25l90 -121h-15l-88 105 l-88 -105h-14z" />
<glyph unicode="&#xd5;" horiz-adv-x="544" d="M84 145v1143q0 75 41 115.5t119 40.5h57q78 0 119 -40.5t41 -115.5v-1143q0 -75 -41 -115t-119 -40h-57q-78 0 -119 40t-41 115zM106 145q0 -135 138 -135h57q137 0 137 135v1143q0 135 -137 135h-57q-138 0 -138 -135v-1143zM147 1499v84q0 37 37 37h9q21 0 47 -21 l73 -65q24 -18 37 -18h8q13 0 17 4.5t4 21.5v78h18v-84q0 -18 -10.5 -28.5t-28.5 -10.5h-8q-16 0 -45 23l-76 65q-22 19 -36 19h-9q-11 0 -15.5 -5.5t-4.5 -21.5v-78h-17z" />
<glyph unicode="&#xd6;" horiz-adv-x="544" d="M84 145v1143q0 75 41 115.5t119 40.5h57q78 0 119 -40.5t41 -115.5v-1143q0 -75 -41 -115t-119 -40h-57q-78 0 -119 40t-41 115zM106 145q0 -135 138 -135h57q137 0 137 135v1143q0 135 -137 135h-57q-138 0 -138 -135v-1143zM190 1499v86h19v-86h-19zM336 1499v86h16 v-86h-16z" />
<glyph unicode="&#xd7;" horiz-adv-x="466" d="M82 569l139 152l-137 151l16 15l136 -150l135 152l16 -17l-139 -149l139 -152l-14 -14l-140 150l-137 -152z" />
<glyph unicode="&#xd8;" horiz-adv-x="544" d="M84 145v1143q0 75 41 115.5t119 40.5h55q79 0 119.5 -40t40.5 -116v-1143q0 -76 -40.5 -115.5t-119.5 -39.5h-55q-78 0 -119 40t-41 115zM104 145q0 -49 21 -84l276 1330q-40 32 -102 32h-55q-140 0 -140 -135v-1143zM141 43q33 -33 103 -33h55q139 0 139 135v1143 q0 51 -20 84z" />
<glyph unicode="&#xd9;" horiz-adv-x="546" d="M90 147v1287h21v-1287q0 -137 139 -137h47q139 0 139 137v1287h23v-1287q0 -77 -41.5 -117t-120.5 -40h-47q-160 0 -160 157zM172 1608h29l80 -109h-21z" />
<glyph unicode="&#xda;" horiz-adv-x="546" d="M90 147v1287h21v-1287q0 -137 139 -137h47q139 0 139 137v1287h23v-1287q0 -77 -41.5 -117t-120.5 -40h-47q-160 0 -160 157zM270 1499l80 109h29l-90 -109h-19z" />
<glyph unicode="&#xdb;" horiz-adv-x="546" d="M90 147v1287h21v-1287q0 -137 139 -137h47q139 0 139 137v1287h23v-1287q0 -77 -41.5 -117t-120.5 -40h-47q-160 0 -160 157zM172 1499l90 121h25l90 -121h-15l-88 105l-88 -105h-14z" />
<glyph unicode="&#xdc;" horiz-adv-x="546" d="M90 147v1287h21v-1287q0 -137 139 -137h47q139 0 139 137v1287h23v-1287q0 -77 -41.5 -117t-120.5 -40h-47q-160 0 -160 157zM193 1499v86h18v-86h-18zM338 1499v86h16v-86h-16z" />
<glyph unicode="&#xdd;" horiz-adv-x="460" d="M39 1434h20l172 -842l172 842h21l-182 -885v-549h-21v541zM225 1499l80 109h29l-90 -109h-19z" />
<glyph unicode="&#xde;" horiz-adv-x="479" d="M94 0v1434h23v-306h125q79 0 124.5 -40.5t45.5 -114.5v-484q0 -46 -13.5 -79.5t-32.5 -51.5t-45.5 -29t-46.5 -13.5t-41 -2.5h-116v-313h-23zM117 334h114q160 0 160 155v484q0 65 -40 100t-109 35h-125v-774z" />
<glyph unicode="&#xdf;" horiz-adv-x="491" d="M92 0v1292q0 76 39.5 116t116.5 40h10q77 0 116.5 -40t39.5 -116v-387q0 -140 -107 -168q109 -22 109 -166v-415q0 -76 -39.5 -116t-116.5 -40h-80v20h80q135 0 135 136v415q0 79 -35.5 117.5t-113.5 38.5h-64v21h62q78 0 113.5 39.5t35.5 117.5v387q0 135 -135 135h-10 q-135 0 -135 -135v-1292h-21z" />
<glyph unicode="&#xe0;" horiz-adv-x="468" d="M74 106v326q0 58 26.5 92t92.5 60l172 71v359q0 116 -123 116h-13q-62 0 -94.5 -29.5t-32.5 -86.5v-277h-22v277q0 66 38.5 100.5t110.5 34.5h13q145 0 145 -135v-1014h-22v57q-90 -67 -158 -67h-8q-63 0 -94 28t-31 88zM94 109q0 -99 105 -99h8q65 0 158 70v555 l-168 -70q-57 -25 -80 -54t-23 -79v-323zM152 1384h24l72 -139h-17z" />
<glyph unicode="&#xe1;" horiz-adv-x="468" d="M74 106v326q0 58 26.5 92t92.5 60l172 71v359q0 116 -123 116h-13q-62 0 -94.5 -29.5t-32.5 -86.5v-277h-22v277q0 66 38.5 100.5t110.5 34.5h13q145 0 145 -135v-1014h-22v57q-90 -67 -158 -67h-8q-63 0 -94 28t-31 88zM94 109q0 -99 105 -99h8q65 0 158 70v555 l-168 -70q-57 -25 -80 -54t-23 -79v-323zM229 1245l70 139h25l-78 -139h-17z" />
<glyph unicode="&#xe2;" horiz-adv-x="468" d="M74 106v326q0 58 26.5 92t92.5 60l172 71v359q0 116 -123 116h-13q-62 0 -94.5 -29.5t-32.5 -86.5v-277h-22v277q0 66 38.5 100.5t110.5 34.5h13q145 0 145 -135v-1014h-22v57q-90 -67 -158 -67h-8q-63 0 -94 28t-31 88zM94 109q0 -99 105 -99h8q65 0 158 70v555 l-168 -70q-57 -25 -80 -54t-23 -79v-323zM139 1245l86 139h25l86 -139h-17l-81 119l-82 -119h-17z" />
<glyph unicode="&#xe3;" horiz-adv-x="468" d="M74 106v326q0 58 26.5 92t92.5 60l172 71v359q0 116 -123 116h-13q-62 0 -94.5 -29.5t-32.5 -86.5v-277h-22v277q0 66 38.5 100.5t110.5 34.5h13q145 0 145 -135v-1014h-22v57q-90 -67 -158 -67h-8q-63 0 -94 28t-31 88zM94 109q0 -99 105 -99h8q65 0 158 70v555 l-168 -70q-57 -25 -80 -54t-23 -79v-323zM123 1245v72q0 43 35 43h10q19 0 43 -21l68 -65q14 -12 30 -12h6q19 0 19 26v72h18v-74q0 -41 -35 -41h-10q-19 0 -43 19l-69 65q-14 12 -29 12h-6q-21 0 -21 -26v-70h-16z" />
<glyph unicode="&#xe4;" horiz-adv-x="468" d="M74 106v326q0 58 26.5 92t92.5 60l172 71v359q0 116 -123 116h-13q-62 0 -94.5 -29.5t-32.5 -86.5v-277h-22v277q0 66 38.5 100.5t110.5 34.5h13q145 0 145 -135v-1014h-22v57q-90 -67 -158 -67h-8q-63 0 -94 28t-31 88zM94 109q0 -99 105 -99h8q65 0 158 70v555 l-168 -70q-57 -25 -80 -54t-23 -79v-323zM154 1245v94h18v-94h-18zM303 1245v94h19v-94h-19z" />
<glyph unicode="&#xe5;" horiz-adv-x="468" d="M74 106v326q0 58 26.5 92t92.5 60l172 71v359q0 116 -123 116h-13q-62 0 -94.5 -29.5t-32.5 -86.5v-277h-22v277q0 66 38.5 100.5t110.5 34.5h13q145 0 145 -135v-1014h-22v57q-90 -67 -158 -67h-8q-63 0 -94 28t-31 88zM94 109q0 -99 105 -99h8q65 0 158 70v555 l-168 -70q-57 -25 -80 -54t-23 -79v-323zM127 1321v4q0 37 20.5 54.5t65.5 17.5h49q45 0 65.5 -17.5t20.5 -54.5v-4q0 -37 -20.5 -54.5t-65.5 -17.5h-49q-45 0 -65.5 17.5t-20.5 54.5zM143 1321q0 -29 16.5 -42t53.5 -13h49q37 0 53.5 13t16.5 42v4q0 31 -16.5 44t-53.5 13 h-49q-37 0 -53.5 -13t-16.5 -44v-4z" />
<glyph unicode="&#xe6;" horiz-adv-x="768" d="M74 106v332q0 54 27 87t92 61l174 73v355q0 116 -123 116h-13q-129 0 -129 -116v-287h-20v287q0 135 149 135h13q113 0 137 -84q25 84 141 84h15q155 0 155 -156v-436h-305v-412q0 -135 135 -135h15q133 0 133 135v277h22v-277q0 -155 -155 -155h-15q-107 0 -141 78 q-60 -45 -97.5 -61.5t-76.5 -16.5h-6q-127 0 -127 116zM96 106q0 -96 105 -96h8q65 0 164 76q-6 48 -6 59v492l-168 -72q-55 -23 -79 -50.5t-24 -76.5v-332zM387 578h283v415q0 137 -133 137h-15q-135 0 -135 -137v-415z" />
<glyph unicode="&#xe7;" horiz-adv-x="485" d="M76 143v854q0 152 153 152h23q154 0 154 -152v-297h-23v297q0 133 -131 133h-23q-131 0 -131 -133v-854q0 -133 131 -133h25q131 0 131 133v291h23v-291q0 -153 -154 -153l-47 -152h-25l56 152h-9q-153 0 -153 153z" />
<glyph unicode="&#xe8;" horiz-adv-x="479" d="M76 145v850q0 154 157 154h13q157 0 157 -154v-438h-305v-412q0 -135 135 -135h13q135 0 135 135v271h22v-271q0 -76 -40 -115.5t-117 -39.5h-13q-157 0 -157 155zM98 575h283v420q0 135 -135 135h-13q-135 0 -135 -135v-420zM150 1384h24l72 -139h-17z" />
<glyph unicode="&#xe9;" horiz-adv-x="479" d="M76 145v850q0 154 157 154h13q157 0 157 -154v-438h-305v-412q0 -135 135 -135h13q135 0 135 135v271h22v-271q0 -76 -40 -115.5t-117 -39.5h-13q-157 0 -157 155zM98 575h283v420q0 135 -135 135h-13q-135 0 -135 -135v-420zM233 1245l70 139h25l-78 -139h-17z" />
<glyph unicode="&#xea;" horiz-adv-x="479" d="M76 145v850q0 154 157 154h13q157 0 157 -154v-438h-305v-412q0 -135 135 -135h13q135 0 135 135v271h22v-271q0 -76 -40 -115.5t-117 -39.5h-13q-157 0 -157 155zM98 575h283v420q0 135 -135 135h-13q-135 0 -135 -135v-420zM143 1245l86 139h25l86 -139h-16l-82 119 l-82 -119h-17z" />
<glyph unicode="&#xeb;" horiz-adv-x="479" d="M76 145v850q0 154 157 154h13q157 0 157 -154v-438h-305v-412q0 -135 135 -135h13q135 0 135 135v271h22v-271q0 -76 -40 -115.5t-117 -39.5h-13q-157 0 -157 155zM98 575h283v420q0 135 -135 135h-13q-135 0 -135 -135v-420zM156 1245v94h18v-94h-18zM305 1245v94h19 v-94h-19z" />
<glyph unicode="&#xec;" horiz-adv-x="198" d="M10 1384h25l71 -139h-16zM90 0v1141h21v-1141h-21z" />
<glyph unicode="&#xed;" horiz-adv-x="198" d="M90 0v1141h21v-1141h-21zM94 1245l70 139h24l-77 -139h-17z" />
<glyph unicode="&#xee;" horiz-adv-x="198" d="M2 1245l86 139h25l86 -139h-17l-82 119l-82 -119h-16zM90 0v1141h21v-1141h-21z" />
<glyph unicode="&#xef;" horiz-adv-x="198" d="M16 1245v94h19v-94h-19zM90 0v1141h21v-1141h-21zM166 1245v94h18v-94h-18z" />
<glyph unicode="&#xf0;" d="M72 145v848q0 156 153 156h8q124 0 154 -70v70q0 74 -17.5 103.5t-82.5 68.5l-45 27l-49 -91h-21l53 99l-100 61l10 17l101 -60l45 84h20l-51 -92l47 -27q74 -45 92.5 -76t18.5 -114v-1004q0 -155 -154 -155h-29q-153 0 -153 155zM92 145q0 -135 133 -135h29 q131 0 131 135v856q0 129 -133 129h-27q-133 0 -133 -137v-848z" />
<glyph unicode="&#xf1;" horiz-adv-x="491" d="M86 0v1141h20v-62q55 39 88 54.5t72 15.5h13q131 0 131 -115v-1034h-23v1032q0 52 -26.5 75t-81.5 23h-13q-38 0 -71.5 -15.5t-88.5 -57.5v-1057h-20zM131 1245v72q0 43 35 43h10q19 0 43 -21l68 -65q14 -12 30 -12h7q18 0 18 26v72h18v-74q0 -41 -34 -41h-11 q-19 0 -43 19l-69 65q-14 12 -29 12h-6q-21 0 -21 -26v-70h-16z" />
<glyph unicode="&#xf2;" d="M76 143v854q0 152 153 152h29q156 0 156 -152v-854q0 -153 -156 -153h-29q-153 0 -153 153zM98 143q0 -133 131 -133h29q133 0 133 133v854q0 133 -133 133h-29q-131 0 -131 -133v-854zM156 1384h24l72 -139h-16z" />
<glyph unicode="&#xf3;" d="M76 143v854q0 152 153 152h29q156 0 156 -152v-854q0 -153 -156 -153h-29q-153 0 -153 153zM98 143q0 -133 131 -133h29q133 0 133 133v854q0 133 -133 133h-29q-131 0 -131 -133v-854zM238 1245l69 139h25l-78 -139h-16z" />
<glyph unicode="&#xf4;" d="M76 143v854q0 152 153 152h29q156 0 156 -152v-854q0 -153 -156 -153h-29q-153 0 -153 153zM98 143q0 -133 131 -133h29q133 0 133 133v854q0 133 -133 133h-29q-131 0 -131 -133v-854zM147 1245l86 139h25l86 -139h-16l-82 119l-82 -119h-17z" />
<glyph unicode="&#xf5;" d="M76 143v854q0 152 153 152h29q156 0 156 -152v-854q0 -153 -156 -153h-29q-153 0 -153 153zM98 143q0 -133 131 -133h29q133 0 133 133v854q0 133 -133 133h-29q-131 0 -131 -133v-854zM131 1245v72q0 43 35 43h10q19 0 43 -21l68 -65q14 -12 30 -12h7q18 0 18 26v72h18 v-74q0 -41 -34 -41h-11q-19 0 -43 19l-69 65q-14 12 -29 12h-6q-21 0 -21 -26v-70h-16z" />
<glyph unicode="&#xf6;" d="M76 143v854q0 152 153 152h29q156 0 156 -152v-854q0 -153 -156 -153h-29q-153 0 -153 153zM98 143q0 -133 131 -133h29q133 0 133 133v854q0 133 -133 133h-29q-131 0 -131 -133v-854zM162 1245v94h18v-94h-18zM311 1245v94h19v-94h-19z" />
<glyph unicode="&#xf7;" horiz-adv-x="481" d="M51 713v20h379v-20h-379zM227 510v90h25v-90h-25zM227 846v90h25v-90h-25z" />
<glyph unicode="&#xf8;" d="M76 143v854q0 152 153 152h29q156 0 156 -152v-854q0 -153 -156 -153h-29q-153 0 -153 153zM98 143q0 -61 25 -92l225 1055q-30 24 -90 24h-29q-131 0 -131 -133v-854zM139 35q36 -25 90 -25h29q133 0 133 133v854q0 59 -24 93z" />
<glyph unicode="&#xf9;" horiz-adv-x="491" d="M82 106v1035h22v-1032q0 -52 27 -75.5t82 -23.5h12q37 0 71 16t89 58v1057h21v-1141h-21v61q-51 -39 -86.5 -55t-75.5 -16h-12q-129 0 -129 116zM152 1384h24l72 -139h-17z" />
<glyph unicode="&#xfa;" horiz-adv-x="491" d="M82 106v1035h22v-1032q0 -52 27 -75.5t82 -23.5h12q37 0 71 16t89 58v1057h21v-1141h-21v61q-51 -39 -86.5 -55t-75.5 -16h-12q-129 0 -129 116zM238 1245l69 139h25l-78 -139h-16z" />
<glyph unicode="&#xfb;" horiz-adv-x="491" d="M82 106v1035h22v-1032q0 -52 27 -75.5t82 -23.5h12q37 0 71 16t89 58v1057h21v-1141h-21v61q-51 -39 -86.5 -55t-75.5 -16h-12q-129 0 -129 116zM145 1245l86 139h25l86 -139h-16l-82 119l-82 -119h-17z" />
<glyph unicode="&#xfc;" horiz-adv-x="491" d="M82 106v1035h22v-1032q0 -52 27 -75.5t82 -23.5h12q37 0 71 16t89 58v1057h21v-1141h-21v61q-51 -39 -86.5 -55t-75.5 -16h-12q-129 0 -129 116zM160 1245v94h18v-94h-18zM309 1245v94h19v-94h-19z" />
<glyph unicode="&#xfd;" horiz-adv-x="448" d="M41 1141h20l164 -1080l158 1080h23l-197 -1327h-23l29 194zM217 1245l70 139h24l-78 -139h-16z" />
<glyph unicode="&#xfe;" d="M86 -186v1626h20v-361q55 40 88 55t74 15h13q133 0 133 -115v-928q0 -116 -133 -116h-13q-41 0 -74.5 15.5t-87.5 55.5v-247h-20zM106 84q56 -43 90.5 -58.5t77.5 -15.5q61 0 89 23.5t28 75.5v923q0 52 -28 75t-89 23q-43 0 -78 -15.5t-90 -57.5v-973z" />
<glyph unicode="&#xff;" horiz-adv-x="448" d="M41 1141h20l164 -1080l158 1080h23l-197 -1327h-23l29 194zM141 1245v94h19v-94h-19zM291 1245v94h18v-94h-18z" />
<glyph unicode="&#x152;" horiz-adv-x="749" d="M84 170v1094q0 74 55.5 122t134.5 48h412v-21h-262v-678h256v-20h-256v-695h266v-20h-416q-79 0 -134.5 48t-55.5 122zM106 170q0 -65 49 -107.5t119 -42.5h127v1393h-127q-70 0 -119 -42t-49 -107v-1094z" />
<glyph unicode="&#x153;" horiz-adv-x="794" d="M76 143v854q0 152 153 152h29q115 0 145 -86q30 86 146 86h12q156 0 156 -156v-436h-303v-412q0 -135 135 -135h12q135 0 135 135v275h21v-275q0 -155 -156 -155h-12q-121 0 -146 88q-28 -88 -145 -88h-29q-153 0 -153 153zM98 143q0 -133 131 -133h29q133 0 133 133v854 q0 131 -133 131h-29q-131 0 -131 -131v-854zM414 575h282v418q0 135 -135 135h-12q-135 0 -135 -135v-418z" />
<glyph unicode="&#x178;" horiz-adv-x="460" d="M39 1434h20l172 -842l172 842h21l-182 -885v-549h-21v541zM152 1499v86h18v-86h-18zM297 1499v86h16v-86h-16z" />
<glyph unicode="&#x2c6;" horiz-adv-x="749" d="M276 1245l86 139h25l86 -139h-16l-82 119l-82 -119h-17z" />
<glyph unicode="&#x2dc;" horiz-adv-x="749" d="M260 1245v72q0 43 35 43h10q19 0 43 -21l68 -65q14 -12 30 -12h7q18 0 18 26v72h18v-74q0 -41 -34 -41h-11q-19 0 -43 19l-69 65q-14 12 -29 12h-6q-21 0 -21 -26v-70h-16z" />
<glyph unicode="&#x2000;" horiz-adv-x="810" />
<glyph unicode="&#x2001;" horiz-adv-x="1620" />
<glyph unicode="&#x2002;" horiz-adv-x="810" />
<glyph unicode="&#x2003;" horiz-adv-x="1620" />
<glyph unicode="&#x2004;" horiz-adv-x="540" />
<glyph unicode="&#x2005;" horiz-adv-x="405" />
<glyph unicode="&#x2006;" horiz-adv-x="270" />
<glyph unicode="&#x2007;" horiz-adv-x="270" />
<glyph unicode="&#x2008;" horiz-adv-x="202" />
<glyph unicode="&#x2009;" horiz-adv-x="324" />
<glyph unicode="&#x200a;" horiz-adv-x="90" />
<glyph unicode="&#x2010;" horiz-adv-x="253" d="M27 565v21h200v-21h-200z" />
<glyph unicode="&#x2011;" horiz-adv-x="253" d="M27 565v21h200v-21h-200z" />
<glyph unicode="&#x2012;" horiz-adv-x="253" d="M27 565v21h200v-21h-200z" />
<glyph unicode="&#x2013;" horiz-adv-x="548" d="M55 561v19h441v-19h-441z" />
<glyph unicode="&#x2014;" horiz-adv-x="845" d="M59 561v19h725v-19h-725z" />
<glyph unicode="&#x2018;" horiz-adv-x="145" d="M55 1135v61q0 62 7.5 108.5t33.5 127.5h15q-23 -86 -28 -123.5t-5 -112.5v-61h-23z" />
<glyph unicode="&#x2019;" horiz-adv-x="145" d="M37 1137q23 86 28 123t5 112v62h22v-62q0 -62 -7.5 -108t-33.5 -127h-14z" />
<glyph unicode="&#x201a;" horiz-adv-x="137" d="M33 -182q23 86 28 123t5 112v62h22v-62q0 -62 -7.5 -108t-33.5 -127h-14z" />
<glyph unicode="&#x201c;" horiz-adv-x="245" d="M57 1135v61q0 65 6.5 110.5t32.5 125.5h15q-22 -83 -26.5 -120t-4.5 -116v-61h-23zM156 1135v61q0 62 7.5 108.5t33.5 127.5h14q-23 -86 -28 -123.5t-5 -112.5v-61h-22z" />
<glyph unicode="&#x201d;" horiz-adv-x="243" d="M37 1137q23 86 28 123t5 112v62h22v-62q0 -62 -7.5 -108t-33.5 -127h-14zM137 1137q22 84 26.5 120.5t4.5 114.5v62h22v-62q0 -66 -6.5 -111t-31.5 -124h-15z" />
<glyph unicode="&#x201e;" horiz-adv-x="237" d="M33 -182q23 86 28 123t5 112v62h22v-62q0 -62 -7.5 -108t-33.5 -127h-14zM133 -182q22 84 26.5 120.5t4.5 114.5v62h22v-62q0 -65 -6.5 -110t-32.5 -125h-14z" />
<glyph unicode="&#x2022;" horiz-adv-x="258" d="M88 676v100q0 21 5 28t22 7h28q15 0 21 -7.5t6 -27.5v-100q0 -35 -27 -35h-28q-27 0 -27 35z" />
<glyph unicode="&#x2026;" horiz-adv-x="393" d="M51 0v115h25v-115h-25zM182 0v115h25v-115h-25zM313 0v115h25v-115h-25z" />
<glyph unicode="&#x202f;" horiz-adv-x="324" />
<glyph unicode="&#x2039;" horiz-adv-x="198" d="M55 573l70 304h16l-61 -304l63 -303h-14z" />
<glyph unicode="&#x203a;" horiz-adv-x="198" d="M53 270l64 303l-62 304h17l69 -304l-73 -303h-15z" />
<glyph unicode="&#x205f;" horiz-adv-x="405" />
<glyph unicode="&#x20ac;" horiz-adv-x="532" d="M47 641v18h68v132h-68v18h68v479q0 75 39.5 115.5t115.5 40.5h43q76 0 117 -40.5t41 -115.5v-327h-22v327q0 66 -35 100.5t-101 34.5h-43q-133 0 -133 -135v-479h250v-18h-250v-132h250v-18h-250v-496q0 -135 133 -135h43q136 0 136 135v342h22v-342q0 -75 -41 -115 t-117 -40h-43q-76 0 -115.5 40t-39.5 115v496h-68z" />
<glyph unicode="&#x2122;" horiz-adv-x="583" d="M37 1415v19h178v-19h-80v-618h-18v618h-80zM264 797v637h31l90 -592l92 592h31v-637h-19v610l-94 -610h-18l-94 598v-598h-19z" />
<glyph unicode="&#x25fc;" horiz-adv-x="1136" d="M0 0v1137h1137v-1137h-1137z" />
<glyph unicode="&#xfb01;" horiz-adv-x="471" d="M41 1120v21h70v186q0 57 23.5 85t76.5 28h47v-19h-47q-80 0 -80 -92v-188h123v-21h-123v-1120h-20v1120h-70zM358 1268v96h25v-96h-25zM360 0v1141h21v-1141h-21z" />
<glyph unicode="&#xfb02;" horiz-adv-x="471" d="M41 1120v21h70v186q0 57 23.5 85t76.5 28h47v-19h-47q-80 0 -80 -92v-188h123v-21h-123v-1120h-20v1120h-70zM360 0v1440h21v-1440h-21z" />
<glyph unicode="&#xfb03;" horiz-adv-x="741" d="M41 1120v21h70v186q0 57 23.5 85t76.5 28h47v-19h-47q-80 0 -80 -92v-188h123v-21h-123v-1120h-20v1120h-70zM311 1120v21h70v186q0 57 23.5 85t76.5 28h47v-19h-47q-80 0 -80 -92v-188h123v-21h-123v-1120h-20v1120h-70zM629 1268v96h24v-96h-24zM631 0v1141h20v-1141 h-20z" />
<glyph unicode="&#xfb04;" horiz-adv-x="741" d="M41 1120v21h70v186q0 57 23.5 85t76.5 28h47v-19h-47q-80 0 -80 -92v-188h123v-21h-123v-1120h-20v1120h-70zM311 1120v21h70v186q0 57 23.5 85t76.5 28h47v-19h-47q-80 0 -80 -92v-188h123v-21h-123v-1120h-20v1120h-70zM631 0v1440h20v-1440h-20z" />
</font>
</defs>
</svg>
