<?xml version="1.0" standalone="no"?>
<!DOCTYPE svg PUBLIC "-//W3C//DTD SVG 1.1//EN" "http://www.w3.org/Graphics/SVG/1.1/DTD/svg11.dtd" >
<svg xmlns="http://www.w3.org/2000/svg">
<metadata></metadata>
<defs>
<font id="tungstenthin" horiz-adv-x="663" >
<font-face units-per-em="2048" ascent="1638" descent="-410" />
<missing-glyph horiz-adv-x="245" />
<glyph horiz-adv-x="2048" />
<glyph horiz-adv-x="2048" />
<glyph unicode="&#xd;" horiz-adv-x="2048" />
<glyph unicode=" "  horiz-adv-x="245" />
<glyph unicode="&#x09;" horiz-adv-x="245" />
<glyph unicode="&#xa0;" horiz-adv-x="245" />
<glyph unicode="!" horiz-adv-x="299" d="M133 0v125h33v-125h-33zM135 655v779h29v-779l-4 -356h-21z" />
<glyph unicode="&#x22;" horiz-adv-x="370" d="M94 1049l23 385h28l-32 -385h-19zM236 1049l22 385h29l-33 -385h-18z" />
<glyph unicode="#" horiz-adv-x="782" d="M57 322v28l170 45v572l-170 -45v28l170 45v443h27v-437l276 74v363h27v-355l168 45v-26l-168 -47v-572l168 45v-26l-168 -45v-461h-27v453l-276 -74v-379h-27v371zM254 403l276 72v574l-276 -76v-570z" />
<glyph unicode="$" horiz-adv-x="712" d="M111 201v276h28v-276q0 -87 48 -132.5t141 -45.5h8v706l-109 86q-60 47 -88 101.5t-28 134.5v182q0 100 55 152.5t162 52.5h8v110h26v-110h5q107 0 162 -52.5t55 -152.5v-234h-29v234q0 87 -47.5 132.5t-140.5 45.5h-5v-666l109 -83q61 -47 89 -102t28 -134v-225 q0 -100 -55 -152.5t-162 -52.5h-9v-121h-26v121h-8q-107 0 -162 52.5t-55 152.5zM139 1053q0 -71 26 -121.5t79 -91.5l92 -74v645h-8q-93 0 -141 -45.5t-48 -132.5v-180zM362 23h9q93 0 140.5 45.5t47.5 132.5v223q0 71 -25.5 121.5t-78.5 91.5l-93 72v-686z" />
<glyph unicode="%" horiz-adv-x="933" d="M102 948v318q0 98 28 138t108 40h45q80 0 107.5 -40t27.5 -138v-318q0 -98 -27.5 -138t-107.5 -40h-45q-80 0 -108 40t-28 138zM129 948q0 -86 20.5 -118.5t88.5 -32.5h45q67 0 87.5 32t20.5 119v318q0 87 -20.5 119t-87.5 32h-45q-68 0 -88.5 -32.5t-20.5 -118.5v-318z M221 0l238 733l225 701h29l-236 -721l-227 -713h-29zM516 170v317q0 98 27.5 138.5t107.5 40.5h45q80 0 107.5 -40.5t27.5 -138.5v-317q0 -98 -27.5 -138t-107.5 -40h-45q-80 0 -107.5 40t-27.5 138zM543 170q0 -87 20.5 -119.5t87.5 -32.5h45q67 0 88 32.5t21 119.5v317 q0 87 -21 119.5t-88 32.5h-45q-67 0 -87.5 -32.5t-20.5 -119.5v-317z" />
<glyph unicode="&#x26;" horiz-adv-x="763" d="M90 160v366q0 74 15 116.5t59 80.5l112 98l-53 103q-28 54 -38.5 100t-10.5 111v116q0 93 50 143t145 50h41q96 0 146 -50t50 -143v-241h-28v241q0 80 -42.5 123t-125.5 43h-41q-81 0 -123.5 -43t-42.5 -123v-116q0 -60 10 -103t37 -96l287 -559l133 424h30l-147 -455 l182 -346h-30l-164 311l-54 -170q-24 -75 -69 -113t-119 -38h-35q-84 0 -129 44t-45 126zM119 160q0 -69 38 -106.5t107 -37.5h35q117 0 162 134l61 192l-233 453l-109 -97q-36 -33 -48.5 -68.5t-12.5 -103.5v-366z" />
<glyph unicode="'" horiz-adv-x="229" d="M94 1049l23 385h28l-32 -385h-19z" />
<glyph unicode="(" horiz-adv-x="399" d="M147 330v774q0 115 12 174.5t42 105.5t106 125l21 -12q-104 -112 -128 -174.5t-24 -218.5v-774q0 -156 24 -218.5t128 -174.5l-21 -13q-76 79 -106 125.5t-42 106t-12 174.5z" />
<glyph unicode=")" horiz-adv-x="399" d="M72 -63q104 112 127.5 174.5t23.5 218.5v774q0 156 -23.5 218.5t-127.5 174.5l20 12q76 -79 106 -125t42 -105.5t12 -174.5v-774q0 -115 -12 -174.5t-42 -106t-106 -125.5z" />
<glyph unicode="*" horiz-adv-x="548" d="M37 956v27l217 145l-217 148v27h2l225 -154l-2 285h25v-285l223 154h2v-27l-217 -148l217 -145v-27h-2l-223 152v-285h-25l2 289l-225 -156h-2z" />
<glyph unicode="+" horiz-adv-x="638" d="M61 713v28h246v246h29v-246h246v-28h-246v-246h-29v246h-246z" />
<glyph unicode="," horiz-adv-x="172" d="M33 -129l16 35q29 69 31 94h-10v125h32v-90q0 -67 -36 -135l-19 -35z" />
<glyph unicode="-" horiz-adv-x="356" d="M41 559v29h274v-29h-274z" />
<glyph unicode="." horiz-adv-x="172" d="M70 0v125h32v-125h-32z" />
<glyph unicode="/" horiz-adv-x="454" d="M80 -66l266 1565h27l-267 -1565h-26z" />
<glyph unicode="0" horiz-adv-x="733" d="M115 203v1028q0 103 55 158t162 55h69q107 0 162 -55t55 -158v-1028q0 -103 -55 -158t-162 -55h-69q-107 0 -162 55t-55 158zM143 203q0 -91 48 -139t141 -48h69q93 0 141 48t48 139v1028q0 91 -48 138.5t-141 47.5h-69q-93 0 -141 -47.5t-48 -138.5v-1028z" />
<glyph unicode="1" horiz-adv-x="354" d="M41 1333v17l61 14q47 12 61.5 24.5t20.5 43.5l2 10h19v-1442h-29v1350z" />
<glyph unicode="2" horiz-adv-x="681" d="M113 0v166q0 103 21 170t81 141l268 338q76 95 76 215v217q0 83 -45 126.5t-135 43.5h-49q-91 0 -137 -43.5t-46 -126.5v-280h-28v280q0 95 52.5 146t154.5 51h55q102 0 154.5 -51t52.5 -146v-213q0 -131 -82 -235l-268 -340q-55 -69 -76 -134t-21 -165v-133h457v-27 h-485z" />
<glyph unicode="3" horiz-adv-x="708" d="M111 203v235h28v-235q0 -91 48 -139t141 -48h69q93 0 141 48t48 139v307q0 215 -217 215h-121v27h119q215 0 215 215v264q0 91 -48 138.5t-141 47.5h-63q-93 0 -141 -47.5t-48 -138.5v-209h-28v209q0 103 55 158t162 55h63q107 0 162 -55t55 -158v-264q0 -192 -153 -230 q157 -39 157 -227v-307q0 -103 -55 -158t-162 -55h-69q-107 0 -162 55t-55 158z" />
<glyph unicode="4" horiz-adv-x="679" d="M37 328v26l430 1080h39v-1082h156v-24h-156v-328h-27v328h-442zM63 352h416v1045z" />
<glyph unicode="5" horiz-adv-x="700" d="M117 203v274h28v-274q0 -91 48 -139t141 -48h47q93 0 140.5 48t47.5 139v452q0 91 -46 139t-134 48q-73 0 -125 -27.5t-117 -85.5h-22l4 705h465v-27h-436l-4 -637q38 32 64 49.5t72 33t99 15.5q101 0 155 -55t54 -158v-452q0 -103 -55 -158t-162 -55h-47q-107 0 -162 55 t-55 158z" />
<glyph unicode="6" horiz-adv-x="720" d="M117 203v1028q0 103 55 158t162 55h61q107 0 162 -55t55 -158v-197h-28v197q0 91 -48 138.5t-141 47.5h-61q-93 0 -141 -47.5t-48 -138.5v-475q41 21 67.5 32.5t75 23.5t97.5 13h12q113 0 165 -54.5t52 -143.5v-424q0 -103 -55 -158t-162 -55h-63q-107 0 -162 55t-55 158 zM145 203q0 -91 48 -139t141 -48h63q93 0 141 48t48 139v422q0 172 -197 172q-122 0 -244 -72v-522z" />
<glyph unicode="7" horiz-adv-x="555" d="M41 1407v27h453v-27l-328 -1407h-29l330 1407h-426z" />
<glyph unicode="8" horiz-adv-x="716" d="M94 203v321q0 96 42 150t110 71q-65 16 -104.5 73t-39.5 155v256q0 103 57 159t163 56h71q106 0 163.5 -56t57.5 -159v-256q0 -98 -39.5 -155t-105.5 -73q69 -16 111.5 -70.5t42.5 -150.5v-321q0 -103 -55 -158t-162 -55h-95q-107 0 -162 55t-55 158zM123 203 q0 -91 48 -139t140 -48h95q92 0 140 48t48 139v321q0 105 -55.5 156t-157.5 51h-45q-102 0 -157.5 -51t-55.5 -156v-321zM131 973q0 -107 52.5 -161t152.5 -54h43q101 0 154 54.5t53 160.5v256q0 91 -50.5 139.5t-142.5 48.5h-71q-92 0 -141.5 -48.5t-49.5 -139.5v-256z" />
<glyph unicode="9" horiz-adv-x="718" d="M106 203v196h29v-196q0 -91 48 -139t141 -48h61q93 0 140.5 48t47.5 139v454q-115 -64 -229 -69h-20q-113 0 -165.5 54.5t-52.5 143.5v445q0 103 55.5 158t162.5 55h61q107 0 162 -55t55 -158v-1028q0 -103 -55 -158t-162 -55h-61q-107 0 -162.5 55t-55.5 158zM135 788 q0 -172 197 -172q115 0 241 72v543q0 186 -188 186h-61q-93 0 -141 -47.5t-48 -138.5v-443z" />
<glyph unicode=":" horiz-adv-x="172" d="M70 0v125h32v-125h-32zM70 961v124h32v-124h-32z" />
<glyph unicode=";" horiz-adv-x="172" d="M33 -129l16 35q29 69 31 94h-10v125h32v-90q0 -67 -36 -135l-19 -35zM70 961v124h32v-124h-32z" />
<glyph unicode="&#x3c;" horiz-adv-x="643" d="M31 713v30l557 215v-30l-520 -201l520 -188v-33z" />
<glyph unicode="=" horiz-adv-x="643" d="M72 561v29h499v-29h-499zM72 866v29h499v-29h-499z" />
<glyph unicode="&#x3e;" horiz-adv-x="643" d="M55 504v33l520 188l-520 201v30l557 -215v-30z" />
<glyph unicode="?" horiz-adv-x="612" d="M76 965v282q0 96 53.5 146.5t155.5 50.5h34q102 0 155.5 -52.5t53.5 -152.5v-221q0 -60 -17.5 -98t-68.5 -103l-63 -80q-38 -48 -49 -76.5t-11 -78.5v-285h-28v285q0 57 14 92.5t57 89.5l64 78q43 53 58.5 88.5t15.5 87.5v221q0 87 -46 132.5t-135 45.5h-34 q-89 0 -135 -44t-46 -126v-282h-28zM289 0v125h33v-125h-33z" />
<glyph unicode="@" horiz-adv-x="1038" d="M123 225v701q0 184 65 260t234 76h194q169 0 234 -76t65 -260v-721q0 -68 -28 -94.5t-86 -26.5h-29q-59 0 -83.5 20t-24.5 68q-107 -84 -179 -84t-107.5 32t-35.5 101v193q0 67 26.5 104.5t98.5 67.5l192 78v225q0 65 -29.5 97t-99.5 32h-12q-145 0 -145 -129v-127h-27 v127q0 76 44 115.5t128 39.5h12q81 0 118.5 -39t37.5 -116v-694q0 -54 16.5 -70t71.5 -16h27q47 0 68.5 19t21.5 77v721q0 172 -59 242.5t-216 70.5h-194q-157 0 -216 -70.5t-59 -242.5v-701q0 -172 59 -242.5t216 -70.5h477v-23h-477q-169 0 -234 76t-65 260zM369 223 q0 -58 28.5 -83t89.5 -25q66 0 172 84v438l-186 -76q-61 -27 -82.5 -58.5t-21.5 -88.5v-191z" />
<glyph unicode="A" horiz-adv-x="724" d="M78 0l266 1442h37l266 -1442h-29l-63 346h-385l-64 -346h-28zM174 373h375l-187 1024z" />
<glyph unicode="B" horiz-adv-x="720" d="M129 0v1434h258q107 0 162 -55t55 -158v-265q0 -190 -155 -229q157 -39 157 -227v-287q0 -103 -55 -158t-162 -55h-260zM158 27h231q93 0 141 47.5t48 138.5v287q0 215 -218 215h-202v-688zM158 741h200q217 0 217 215v265q0 186 -188 186h-229v-666z" />
<glyph unicode="C" horiz-adv-x="712" d="M115 203v1028q0 103 55 158t162 55h59q107 0 162 -55t55 -158v-275h-28v275q0 91 -48 138.5t-141 47.5h-59q-93 0 -141 -47.5t-48 -138.5v-1028q0 -91 48 -139t141 -48h61q93 0 141 48t48 139v317h28v-317q0 -103 -55 -158t-162 -55h-61q-107 0 -162 55t-55 158z" />
<glyph unicode="D" horiz-adv-x="731" d="M129 0v1434h209q278 0 278 -279v-876q0 -279 -278 -279h-209zM158 29h180q250 0 250 250v876q0 250 -250 250h-180v-1376z" />
<glyph unicode="E" horiz-adv-x="622" d="M129 0v1434h389v-27h-360v-666h350v-26h-350v-688h364v-27h-393z" />
<glyph unicode="F" horiz-adv-x="579" d="M129 0v1434h381v-27h-352v-666h342v-26h-342v-715h-29z" />
<glyph unicode="G" horiz-adv-x="729" d="M115 203v1028q0 103 55 158t162 55h65q107 0 162 -55t55 -158v-248h-28v248q0 91 -48 138.5t-141 47.5h-65q-93 0 -141 -47.5t-48 -138.5v-1028q0 -91 48 -139t141 -48h65q93 0 141 48t48 139v481h-230v27h258v-508q0 -103 -55 -158t-162 -55h-65q-107 0 -162 55t-55 158 z" />
<glyph unicode="H" horiz-adv-x="747" d="M129 0v1434h29v-693h432v693h28v-1434h-28v715h-432v-715h-29z" />
<glyph unicode="I" horiz-adv-x="294" d="M133 0v1434h29v-1434h-29z" />
<glyph unicode="J" horiz-adv-x="423" d="M61 0v29h9q114 0 157 48t43 163v1194h29v-1194q0 -129 -50.5 -184.5t-178.5 -55.5h-9z" />
<glyph unicode="K" horiz-adv-x="634" d="M129 0v1434h29v-709l403 709h33l-408 -709l400 -725h-33l-395 721v-721h-29z" />
<glyph unicode="L" horiz-adv-x="544" d="M129 0v1434h29v-1407h344v-27h-373z" />
<glyph unicode="M" horiz-adv-x="983" d="M129 0v1434h41l322 -1381l321 1381h41v-1434h-29v1362l-317 -1362h-33l-319 1370l2 -1061v-309h-29z" />
<glyph unicode="N" horiz-adv-x="755" d="M129 0v1434h43l426 -1387v416l2 971h27v-1434h-43l-426 1380v-442l-2 -938h-27z" />
<glyph unicode="O" horiz-adv-x="741" d="M115 203v1028q0 103 55 158t162 55h78q107 0 162 -55t55 -158v-1028q0 -103 -55 -158t-162 -55h-78q-107 0 -162 55t-55 158zM143 203q0 -91 48 -139t141 -48h78q93 0 140.5 48t47.5 139v1028q0 186 -188 186h-78q-93 0 -141 -47.5t-48 -138.5v-1028z" />
<glyph unicode="P" horiz-adv-x="653" d="M129 0v1434h213q109 0 171 -55.5t62 -157.5v-381q0 -118 -62 -180t-181 -62h-174v-598h-29zM158 625h172q217 0 217 215v381q0 89 -55 137.5t-150 48.5h-184v-782z" />
<glyph unicode="Q" horiz-adv-x="741" d="M115 203v1028q0 103 55 158t162 55h78q107 0 162 -55t55 -158v-1028q0 -98 -52.5 -153.5t-146.5 -55.5l213 -121l-18 -29l-238 146h-53q-107 0 -162 55t-55 158zM143 203q0 -91 48 -139t141 -48h78q93 0 140.5 48t47.5 139v1028q0 186 -188 186h-78q-93 0 -141 -47.5 t-48 -138.5v-1028z" />
<glyph unicode="R" horiz-adv-x="722" d="M129 0v1434h242q107 0 162 -55t55 -158v-291q0 -182 -154 -230q156 -41 156 -227v-473h-29v473q0 215 -217 215h-186v-688h-29zM158 715h184q217 0 217 215v291q0 186 -188 186h-213v-692z" />
<glyph unicode="S" horiz-adv-x="692" d="M111 195v282h28v-282q0 -87 48 -133t141 -46h43q93 0 140.5 46t47.5 133v229q0 71 -25.5 121.5t-78.5 91.5l-228 178q-60 47 -88 101.5t-28 134.5v188q0 100 55 152.5t162 52.5h39q107 0 162 -52.5t55 -152.5v-240h-29v240q0 87 -47.5 132.5t-140.5 45.5h-39 q-93 0 -141 -45.5t-48 -132.5v-186q0 -71 26 -121.5t79 -91.5l227 -178q61 -47 89 -102t28 -134v-231q0 -100 -55 -152.5t-162 -52.5h-43q-107 0 -162 52.5t-55 152.5z" />
<glyph unicode="T" horiz-adv-x="593" d="M37 1407v27h520v-27h-246v-1407h-28v1407h-246z" />
<glyph unicode="U" horiz-adv-x="747" d="M125 209v1225h29v-1225q0 -193 192 -193h55q193 0 193 193v1225h29v-1225q0 -107 -56.5 -163t-165.5 -56h-55q-109 0 -165 56t-56 163z" />
<glyph unicode="V" horiz-adv-x="679" d="M70 1434h28l242 -1395l242 1395h28l-252 -1442h-36z" />
<glyph unicode="W" horiz-adv-x="1079" d="M78 1434h28l220 -1381l194 1381h37l199 -1381l215 1381h28l-225 -1434h-37l-198 1376l-195 -1376h-37z" />
<glyph unicode="X" horiz-adv-x="624" d="M61 0l238 725l-233 709h30l215 -672l219 672h29l-233 -709l235 -725h-31l-219 690l-219 -690h-31z" />
<glyph unicode="Y" horiz-adv-x="608" d="M41 1434h29l235 -885l234 885h28l-248 -922v-512h-28v506z" />
<glyph unicode="Z" horiz-adv-x="571" d="M76 0v27l387 1380h-387v27h413v-27l-387 -1380h408v-27h-434z" />
<glyph unicode="[" horiz-adv-x="428" d="M152 -66v1565h258v-24h-232v-1516h232v-25h-258z" />
<glyph unicode="\" horiz-adv-x="454" d="M80 1499h29l266 -1565h-29z" />
<glyph unicode="]" horiz-adv-x="428" d="M18 -41h232v1516h-232v24h258v-1565h-258v25z" />
<glyph unicode="^" horiz-adv-x="643" d="M63 901l244 533h21l254 -533h-31l-234 490l-223 -490h-31z" />
<glyph unicode="_" horiz-adv-x="911" d="M37 -100h837v-23h-837v23z" />
<glyph unicode="`" horiz-adv-x="1024" d="M444 1389h35l96 -191h-22z" />
<glyph unicode="a" horiz-adv-x="638" d="M100 152v202q0 79 35.5 124.5t124.5 82.5l238 98v248q0 160 -168 160h-17q-86 0 -131 -41.5t-45 -118.5v-151h-28v151q0 91 52 139t152 48h17q196 0 196 -187v-907h-28v84q-69 -50 -117 -71t-100 -21h-11q-85 0 -127.5 38.5t-42.5 121.5zM129 154q0 -136 143 -136h11 q47 0 95.5 22t119.5 75v516l-230 -96q-77 -33 -108 -72t-31 -109v-200z" />
<glyph unicode="b" d="M117 0v1454h28v-457q71 54 118.5 75.5t103.5 21.5h16q178 0 178 -160v-782q0 -160 -178 -160h-16q-56 0 -103.5 21.5t-118.5 74.5v-88h-28zM145 121q74 -58 120.5 -80.5t99.5 -22.5h16q151 0 151 136v778q0 70 -37.5 102.5t-113.5 32.5h-16q-53 0 -99.5 -21.5 t-120.5 -78.5v-846z" />
<glyph unicode="c" horiz-adv-x="655" d="M102 201v684q0 209 209 209h31q209 0 209 -209v-156h-29v156q0 182 -180 182h-31q-180 0 -180 -182v-684q0 -183 180 -183h33q180 0 180 183v186h29v-186q0 -209 -209 -209h-33q-209 0 -209 209z" />
<glyph unicode="d" d="M102 152v782q0 160 179 160h16q56 0 103 -21.5t118 -75.5v457h29v-1454h-29v88q-71 -54 -118 -75t-103 -21h-16q-179 0 -179 160zM131 154q0 -136 152 -136h16q53 0 99 22t120 79v846q-73 58 -119.5 80t-99.5 22h-16q-152 0 -152 -135v-778z" />
<glyph unicode="e" horiz-adv-x="649" d="M102 205v676q0 213 213 213h19q213 0 213 -213v-357h-416v-319q0 -187 184 -187h19q184 0 184 187v127h29v-127q0 -213 -213 -213h-19q-213 0 -213 213zM131 551h387v330q0 186 -184 186h-19q-184 0 -184 -186v-330z" />
<glyph unicode="f" horiz-adv-x="368" d="M55 1061v24h95v215q0 154 139 154h63v-27h-63q-58 0 -84.5 -30t-26.5 -94v-218h168v-24h-168v-1061h-28v1061h-95z" />
<glyph unicode="g" horiz-adv-x="655" d="M102 238v696q0 160 179 160h16q56 0 102.5 -21.5t114.5 -73.5v86h29v-1146q0 -168 -187 -168h-55q-190 0 -190 168v28h28v-28q0 -142 162 -142h55q158 0 158 142v233q-68 -52 -114.5 -73t-102.5 -21h-16q-179 0 -179 160zM131 240q0 -136 152 -136h16q53 0 98.5 21.5 t116.5 77.5v764q-70 57 -116 78.5t-99 21.5h-16q-152 0 -152 -135v-692z" />
<glyph unicode="h" horiz-adv-x="669" d="M117 0v1454h28v-457q71 54 118 75.5t102 21.5h16q176 0 176 -160v-934h-29v932q0 135 -149 135h-17q-51 0 -97 -21.5t-120 -78.5v-967h-28z" />
<glyph unicode="i" horiz-adv-x="270" d="M119 1260v112h33v-112h-33zM121 0v1085h29v-1085h-29z" />
<glyph unicode="j" horiz-adv-x="290" d="M45 -201h8q55 0 71.5 28t16.5 97v1161h29v-1159q0 -81 -23.5 -117t-93.5 -36h-8v26zM139 1260v112h33v-112h-33z" />
<glyph unicode="k" horiz-adv-x="567" d="M117 0v1454h28v-899l357 530h35l-363 -532l350 -553h-32l-347 549v-549h-28zM145 549l9 2l-9 4v-6z" />
<glyph unicode="l" horiz-adv-x="270" d="M121 0v1454h29v-1454h-29z" />
<glyph unicode="m" horiz-adv-x="1048" d="M117 0v1085h28v-88q71 54 118 75.5t102 21.5h10q126 0 155 -95q70 54 119 74.5t103 20.5h10q85 0 129.5 -40t44.5 -114v-940h-29v938q0 129 -147 129h-10q-47 0 -93.5 -18.5t-117.5 -75.5q2 -10 2 -33v-940h-29v938q0 129 -139 129h-11q-51 0 -97 -21.5t-120 -78.5v-967 h-28z" />
<glyph unicode="n" horiz-adv-x="669" d="M117 0v1085h28v-88q71 54 118 75.5t102 21.5h16q176 0 176 -160v-934h-29v932q0 135 -149 135h-17q-51 0 -97 -21.5t-120 -78.5v-967h-28z" />
<glyph unicode="o" d="M102 201v684q0 209 209 209h41q209 0 209 -209v-684q0 -209 -209 -209h-41q-209 0 -209 209zM131 201q0 -183 180 -183h41q180 0 180 183v684q0 182 -180 182h-41q-180 0 -180 -182v-684z" />
<glyph unicode="p" d="M117 -225v1310h28v-88q71 54 118.5 75.5t103.5 21.5h16q178 0 178 -160v-782q0 -160 -178 -160h-16q-56 0 -103.5 21.5t-118.5 74.5v-313h-28zM145 121q74 -58 120.5 -80.5t99.5 -22.5h16q151 0 151 136v778q0 70 -37.5 102.5t-113.5 32.5h-16q-53 0 -99.5 -21.5 t-120.5 -78.5v-846z" />
<glyph unicode="q" d="M102 152v782q0 160 179 160h16q56 0 103 -21.5t118 -75.5v88h29v-1310h-29v313q-71 -54 -118 -75t-103 -21h-16q-179 0 -179 160zM131 154q0 -136 152 -136h16q53 0 99 22t120 79v846q-73 58 -119.5 80t-99.5 22h-16q-152 0 -152 -135v-778z" />
<glyph unicode="r" horiz-adv-x="393" d="M117 0v1085h28v-94q95 98 209 103v-33q-66 -5 -113 -27.5t-96 -77.5v-956h-28z" />
<glyph unicode="s" horiz-adv-x="636" d="M102 176v180h29v-180q0 -75 42 -116.5t126 -41.5h39q84 0 126 41.5t42 116.5v129q0 113 -98 174l-191 123q-57 37 -85 82.5t-28 114.5v110q0 88 49 136.5t148 48.5h33q99 0 147.5 -48t48.5 -137v-170h-28v170q0 75 -42 116.5t-126 41.5h-33q-84 0 -126 -41.5t-42 -116.5 v-108q0 -113 98 -174l191 -123q56 -36 84.5 -82t28.5 -115v-131q0 -88 -49 -136t-148 -48h-39q-99 0 -148 48t-49 136z" />
<glyph unicode="t" horiz-adv-x="358" d="M55 1061v24h95v185h28v-185h162v-24h-162v-1061h-28v1061h-95z" />
<glyph unicode="u" horiz-adv-x="669" d="M113 152v933h28v-931q0 -136 150 -136h16q51 0 97 22t120 79v966h29v-1085h-29v88q-71 -53 -117.5 -74.5t-101.5 -21.5h-16q-176 0 -176 160z" />
<glyph unicode="v" horiz-adv-x="610" d="M61 1085h29l215 -1034l215 1034h29l-230 -1093h-28z" />
<glyph unicode="w" horiz-adv-x="907" d="M49 1085h29l184 -1024l178 1024h29l176 -1028l180 1028h29l-192 -1093h-29l-178 1034l-179 -1034h-28z" />
<glyph unicode="x" horiz-adv-x="565" d="M53 0l213 547l-209 538h29l197 -510l196 510h29l-211 -536l215 -549h-29l-200 520l-201 -520h-29z" />
<glyph unicode="y" horiz-adv-x="606" d="M55 1085h29l225 -1036l213 1036h29l-275 -1310h-28l47 219z" />
<glyph unicode="z" horiz-adv-x="475" d="M51 0v27l334 1032h-334v26h361v-26l-334 -1032h346v-27h-373z" />
<glyph unicode="{" horiz-adv-x="471" d="M84 705v24l14 2q77 15 100 47.5t23 120.5v209q0 88 4 134.5t24 93t46 78t86 93.5l20 -12q-57 -62 -83 -94.5t-44 -78t-21 -87.5t-3 -127v-209q0 -92 -25.5 -130t-91.5 -52q66 -14 91.5 -51.5t25.5 -130.5v-209q0 -85 3 -127t21 -87.5t44 -78t83 -94.5l-20 -13 q-59 62 -85.5 94t-46.5 78t-24 93t-4 135v209q0 88 -23 120t-100 47z" />
<glyph unicode="|" horiz-adv-x="552" d="M262 -137v1700h29v-1700h-29z" />
<glyph unicode="}" horiz-adv-x="471" d="M70 -61q57 62 83 94.5t44 78t21 87.5t3 127v209q0 93 25.5 130.5t91.5 51.5q-66 14 -91.5 52t-25.5 130v209q0 85 -3 127t-21 87.5t-44 78t-83 94.5l20 12q60 -62 86 -93.5t46 -78t24 -93t4 -134.5v-209q0 -88 23 -120.5t100 -47.5l14 -2v-24l-14 -3q-77 -15 -100 -47 t-23 -120v-209q0 -88 -4 -135t-24 -93t-46.5 -78t-85.5 -94z" />
<glyph unicode="~" horiz-adv-x="643" d="M59 672v33q72 75 140 75h6q43 0 94 -26l59 -31q47 -23 80 -23h6q60 0 140 80v-32q-73 -76 -140 -76h-6q-41 0 -94 26l-59 31q-47 23 -80 23h-6q-60 0 -140 -80z" />
<glyph unicode="&#xa1;" horiz-adv-x="299" d="M133 1309v125h33v-125h-33zM135 0v778l4 357h21l4 -357v-778h-29z" />
<glyph unicode="&#xa2;" horiz-adv-x="661" d="M109 414v614q0 210 208 213v199h29v-199q102 -1 154.5 -56t52.5 -157v-151h-29v151q0 86 -44 135.5t-134 50.5v-987q180 0 180 187v182h29v-182q0 -213 -209 -213v-207h-29v207h-2q-102 0 -154 54.5t-52 158.5zM137 414q0 -187 180 -187v987q-180 -3 -180 -186v-614z" />
<glyph unicode="&#xa3;" horiz-adv-x="755" d="M90 0v27h96v604h-96v26h96v574q0 102 52.5 157.5t148.5 55.5h59q96 0 148.5 -55.5t52.5 -157.5v-275h-29v275q0 90 -45 138t-127 48h-59q-83 0 -127.5 -47.5t-44.5 -138.5v-574h303v-26h-303v-604h442v-27h-567z" />
<glyph unicode="&#xa5;" horiz-adv-x="694" d="M84 1434h29l235 -838l234 838h28l-248 -881v-4h222v-25h-222v-178h222v-24h-222v-322h-28v322h-225v24h225v178h-225v25h225v4z" />
<glyph unicode="&#xa7;" horiz-adv-x="690" d="M106 195v157h27v-157q0 -87 48 -133t141 -46h38q93 0 141 46t48 133v176q0 70 -20.5 100.5t-79.5 58.5l-285 136q-22 9 -28.5 18t-6.5 31l336 -160q63 -29 88 -66.5t25 -115.5v-178q0 -100 -55.5 -152.5t-162.5 -52.5h-38q-107 0 -161.5 52.5t-54.5 152.5zM113 1061v178 q0 100 55 152.5t162 52.5h39q107 0 161 -52.5t54 -152.5v-158h-27v158q0 87 -47.5 132.5t-140.5 45.5h-39q-93 0 -141 -45.5t-48 -132.5v-176q0 -70 21 -101t80 -59l284 -135q22 -11 28.5 -20t6.5 -29l-336 160q-63 29 -87.5 66t-24.5 116z" />
<glyph unicode="&#xa8;" horiz-adv-x="1024" d="M397 1198v131h27v-131h-27zM600 1198v131h27v-131h-27z" />
<glyph unicode="&#xa9;" horiz-adv-x="1015" d="M123 328v780q0 184 65 260t234 76h172q169 0 234 -76t65 -260v-780q0 -184 -65 -260t-234 -76h-172q-169 0 -234 76t-65 260zM147 328q0 -172 59 -243t216 -71h172q157 0 215.5 70.5t58.5 243.5v780q0 172 -58.5 242.5t-215.5 70.5h-172q-157 0 -216 -70.5t-59 -242.5 v-780zM340 350v733q0 75 36 114.5t118 39.5h34q81 0 116.5 -39t35.5 -115v-180h-27v180q0 62 -29 94.5t-96 32.5h-34q-127 0 -127 -127v-733q0 -127 127 -127h36q67 0 96 32.5t29 94.5v182h27v-182q0 -76 -35 -114.5t-117 -38.5h-36q-82 0 -118 39t-36 114z" />
<glyph unicode="&#xaa;" horiz-adv-x="468" d="M92 961v65q0 53 22 80t79 51l143 57v113q0 92 -98 92h-13q-104 0 -104 -92v-59h-25v59q0 57 33.5 87t95.5 30h13q122 0 122 -117v-463h-24v54q-45 -34 -72 -47t-59 -13h-6q-55 0 -81 24t-26 79zM117 961q0 -41 20 -59.5t64 -18.5q34 0 61 12.5t74 46.5v248l-135 -55 q-49 -20 -66.5 -43t-17.5 -66v-65z" />
<glyph unicode="&#xab;" horiz-adv-x="436" d="M80 573l104 293h21l-92 -293l92 -292h-21zM246 573l96 293h20l-83 -293l83 -292h-20z" />
<glyph unicode="&#xad;" horiz-adv-x="356" d="M41 559v29h274v-29h-274z" />
<glyph unicode="&#xae;" horiz-adv-x="647" d="M90 895v344q0 114 34 159.5t136 45.5h115q103 0 142.5 -46.5t39.5 -158.5v-344q0 -114 -34 -159.5t-136 -45.5h-127q-102 0 -136 45.5t-34 159.5zM113 895q0 -103 29 -143.5t118 -40.5h127q89 0 118.5 40.5t29.5 143.5v344q0 100 -35 142t-125 42h-115q-89 0 -118 -40.5 t-29 -143.5v-344zM223 815v508h66q79 0 112 -21t33 -81v-50q0 -58 -20.5 -83.5t-57.5 -32.5q39 -5 58.5 -29t19.5 -84v-127h-24v127q0 62 -24 81t-91 19h-47v-227h-25zM248 1067h45q67 0 92 21t25 83v50q0 48 -28 63.5t-93 15.5h-41v-233z" />
<glyph unicode="&#xaf;" horiz-adv-x="1024" d="M354 1268v24h316v-24h-316z" />
<glyph unicode="&#xb0;" horiz-adv-x="552" d="M102 956v334q0 154 140 154h77q69 0 100.5 -38t31.5 -116v-334q0 -151 -138 -151h-71q-140 0 -140 151zM129 956q0 -66 27 -95.5t86 -29.5h69q59 0 86 29.5t27 95.5v334q0 67 -24 97t-81 30h-77q-59 0 -86 -30.5t-27 -96.5v-334z" />
<glyph unicode="&#xb1;" horiz-adv-x="643" d="M61 844v28h246v246h29v-246h246v-28h-246v-246h-29v246h-246zM66 365v26h512v-26h-512z" />
<glyph unicode="&#xb4;" horiz-adv-x="1024" d="M492 1198l96 191h35l-109 -191h-22z" />
<glyph unicode="&#xb6;" horiz-adv-x="757" d="M123 311v811q0 144 71 228t207 84h238v-1434h-29v1405h-147v-1405h-62q-136 0 -207 83.5t-71 227.5zM152 311q0 -130 63 -206t186 -76h33v1376h-33q-122 0 -185.5 -76.5t-63.5 -206.5v-811z" />
<glyph unicode="&#xb7;" horiz-adv-x="172" d="M70 541v125h32v-125h-32z" />
<glyph unicode="&#xb8;" horiz-adv-x="1024" d="M473 -168l72 168h22l-61 -168h-33z" />
<glyph unicode="&#xba;" horiz-adv-x="485" d="M96 991v322q0 131 131 131h27q131 0 131 -131v-322q0 -133 -131 -133h-27q-131 0 -131 133zM121 991q0 -57 26 -82.5t80 -25.5h27q54 0 80 25.5t26 82.5v322q0 108 -106 108h-27q-106 0 -106 -108v-322z" />
<glyph unicode="&#xbb;" horiz-adv-x="436" d="M74 281l84 292l-84 293h20l96 -293l-96 -292h-20zM231 281l93 292l-93 293h21l104 -293l-104 -292h-21z" />
<glyph unicode="&#xbf;" horiz-adv-x="612" d="M84 205v221q0 60 17.5 98t68.5 103l63 80q38 48 49 76.5t11 78.5v285h29v-285q0 -56 -14.5 -91.5t-57.5 -90.5l-64 -78q-43 -53 -58 -88t-15 -88v-221q0 -87 45.5 -132.5t134.5 -45.5h35q89 0 134.5 44t45.5 126v282h29v-282q0 -96 -53.5 -146.5t-155.5 -50.5h-35 q-102 0 -155.5 52.5t-53.5 152.5zM291 1319v125h33v-125h-33z" />
<glyph unicode="&#xc0;" horiz-adv-x="724" d="M78 0l266 1442h37l266 -1442h-29l-63 346h-385l-64 -346h-28zM174 373h375l-187 1024zM225 1675h37l109 -149h-25z" />
<glyph unicode="&#xc1;" horiz-adv-x="724" d="M78 0l266 1442h37l266 -1442h-29l-63 346h-385l-64 -346h-28zM174 373h375l-187 1024zM354 1526l109 149h37l-121 -149h-25z" />
<glyph unicode="&#xc2;" horiz-adv-x="724" d="M78 0l266 1442h37l266 -1442h-29l-63 346h-385l-64 -346h-28zM174 373h375l-187 1024zM221 1526l125 166h35l123 -166h-21l-121 143l-118 -143h-23z" />
<glyph unicode="&#xc3;" horiz-adv-x="724" d="M78 0l266 1442h37l266 -1442h-29l-63 346h-385l-64 -346h-28zM174 373h375l-187 1024zM190 1526v116q0 24 14 38t38 14h12q25 0 61 -31l107 -90q34 -27 49 -27h10q18 0 24.5 8t6.5 31v107h23v-117q0 -24 -14 -37.5t-38 -13.5h-12q-26 0 -61 30l-107 91q-32 26 -49 26h-10 q-18 0 -24.5 -8t-6.5 -31v-106h-23z" />
<glyph unicode="&#xc4;" horiz-adv-x="724" d="M78 0l266 1442h37l266 -1442h-29l-63 346h-385l-64 -346h-28zM174 373h375l-187 1024zM252 1526v119h24v-119h-24zM449 1526v119h24v-119h-24z" />
<glyph unicode="&#xc5;" horiz-adv-x="708" d="M70 0l258 1323h-29q-64 0 -92.5 21t-28.5 73v6q0 52 28.5 73.5t92.5 21.5h111q64 0 92 -21.5t28 -73.5v-6q0 -52 -28 -73t-92 -21h-31l260 -1323h-29l-67 346h-377l-68 -346h-28zM170 373h367l-183 944zM201 1417q0 -40 22.5 -55.5t77.5 -15.5h107q55 0 77.5 15.5 t22.5 55.5v6q0 41 -22.5 56.5t-77.5 15.5h-107q-55 0 -77.5 -15.5t-22.5 -56.5v-6z" />
<glyph unicode="&#xc6;" horiz-adv-x="964" d="M61 0l385 1434h414v-27h-360v-666h350v-26h-350v-688h364v-27h-393v346h-289l-92 -346h-29zM188 373h283v1052z" />
<glyph unicode="&#xc7;" horiz-adv-x="712" d="M115 203v1028q0 103 55 158t162 55h59q107 0 162 -55t55 -158v-275h-28v275q0 91 -48 138.5t-141 47.5h-59q-93 0 -141 -47.5t-48 -138.5v-1028q0 -91 48 -139t141 -48h61q93 0 141 48t48 139v317h28v-317q0 -103 -55 -158t-162 -55h-10l-57 -158h-33l67 158h-28 q-107 0 -162 55t-55 158z" />
<glyph unicode="&#xc8;" horiz-adv-x="622" d="M129 0v1434h389v-27h-360v-666h350v-26h-350v-688h364v-27h-393zM188 1675h37l109 -149h-25z" />
<glyph unicode="&#xc9;" horiz-adv-x="622" d="M129 0v1434h389v-27h-360v-666h350v-26h-350v-688h364v-27h-393zM317 1526l109 149h37l-121 -149h-25z" />
<glyph unicode="&#xca;" horiz-adv-x="622" d="M129 0v1434h389v-27h-360v-666h350v-26h-350v-688h364v-27h-393zM184 1526l125 166h35l123 -166h-21l-120 143l-119 -143h-23z" />
<glyph unicode="&#xcb;" horiz-adv-x="622" d="M129 0v1434h389v-27h-360v-666h350v-26h-350v-688h364v-27h-393zM215 1526v119h25v-119h-25zM412 1526v119h24v-119h-24z" />
<glyph unicode="&#xcc;" horiz-adv-x="294" d="M10 1675h37l109 -149h-25zM133 0v1434h29v-1434h-29z" />
<glyph unicode="&#xcd;" horiz-adv-x="294" d="M133 0v1434h29v-1434h-29zM139 1526l109 149h37l-121 -149h-25z" />
<glyph unicode="&#xce;" horiz-adv-x="294" d="M6 1526l125 166h35l123 -166h-21l-121 143l-118 -143h-23zM133 0v1434h29v-1434h-29z" />
<glyph unicode="&#xcf;" horiz-adv-x="294" d="M37 1526v119h24v-119h-24zM133 0v1434h29v-1434h-29zM233 1526v119h25v-119h-25z" />
<glyph unicode="&#xd0;" horiz-adv-x="757" d="M49 713v28h107v693h209q278 0 278 -279v-876q0 -279 -278 -279h-209v713h-107zM184 29h181q249 0 249 250v876q0 250 -249 250h-181v-664h201v-28h-201v-684z" />
<glyph unicode="&#xd1;" horiz-adv-x="755" d="M129 0v1434h43l426 -1387v416l2 971h27v-1434h-43l-426 1380v-442l-2 -938h-27zM205 1526v116q0 24 13.5 38t37.5 14h12q26 0 62 -31l106 -90q34 -27 49 -27h11q17 0 23.5 8t6.5 31v107h23v-117q0 -24 -13.5 -37.5t-37.5 -13.5h-13q-26 0 -61 30l-107 91q-33 26 -49 26 h-10q-18 0 -24.5 -8t-6.5 -31v-106h-22z" />
<glyph unicode="&#xd2;" horiz-adv-x="741" d="M115 203v1028q0 103 55 158t162 55h78q107 0 162 -55t55 -158v-1028q0 -103 -55 -158t-162 -55h-78q-107 0 -162 55t-55 158zM143 203q0 -91 48 -139t141 -48h78q93 0 140.5 48t47.5 139v1028q0 186 -188 186h-78q-93 0 -141 -47.5t-48 -138.5v-1028zM233 1675h37 l109 -149h-25z" />
<glyph unicode="&#xd3;" horiz-adv-x="741" d="M115 203v1028q0 103 55 158t162 55h78q107 0 162 -55t55 -158v-1028q0 -103 -55 -158t-162 -55h-78q-107 0 -162 55t-55 158zM143 203q0 -91 48 -139t141 -48h78q93 0 140.5 48t47.5 139v1028q0 186 -188 186h-78q-93 0 -141 -47.5t-48 -138.5v-1028zM362 1526l109 149 h37l-121 -149h-25z" />
<glyph unicode="&#xd4;" horiz-adv-x="741" d="M115 203v1028q0 103 55 158t162 55h78q107 0 162 -55t55 -158v-1028q0 -103 -55 -158t-162 -55h-78q-107 0 -162 55t-55 158zM143 203q0 -91 48 -139t141 -48h78q93 0 140.5 48t47.5 139v1028q0 186 -188 186h-78q-93 0 -141 -47.5t-48 -138.5v-1028zM229 1526l125 166 h35l123 -166h-20l-121 143l-119 -143h-23z" />
<glyph unicode="&#xd5;" horiz-adv-x="741" d="M115 203v1028q0 103 55 158t162 55h78q107 0 162 -55t55 -158v-1028q0 -103 -55 -158t-162 -55h-78q-107 0 -162 55t-55 158zM143 203q0 -91 48 -139t141 -48h78q93 0 140.5 48t47.5 139v1028q0 186 -188 186h-78q-93 0 -141 -47.5t-48 -138.5v-1028zM199 1526v116 q0 24 13.5 38t37.5 14h12q26 0 62 -31l106 -90q34 -27 49 -27h10q18 0 24.5 8t6.5 31v107h23v-117q0 -24 -13.5 -37.5t-37.5 -13.5h-13q-26 0 -61 30l-107 91q-33 26 -49 26h-10q-18 0 -24.5 -8t-6.5 -31v-106h-22z" />
<glyph unicode="&#xd6;" horiz-adv-x="741" d="M115 203v1028q0 103 55 158t162 55h78q107 0 162 -55t55 -158v-1028q0 -103 -55 -158t-162 -55h-78q-107 0 -162 55t-55 158zM143 203q0 -91 48 -139t141 -48h78q93 0 140.5 48t47.5 139v1028q0 186 -188 186h-78q-93 0 -141 -47.5t-48 -138.5v-1028zM260 1526v119h25 v-119h-25zM457 1526v119h24v-119h-24z" />
<glyph unicode="&#xd7;" horiz-adv-x="643" d="M115 539l188 188l-184 186l20 21l185 -186l186 188l20 -21l-186 -186l186 -186l-20 -21l-186 187l-189 -191z" />
<glyph unicode="&#xd8;" horiz-adv-x="741" d="M115 203v1028q0 103 55 158t162 55h78q107 0 162 -55t55 -158v-1028q0 -103 -55 -158t-162 -55h-78q-107 0 -162 55t-55 158zM143 203q0 -48 17 -94l403 1245q-48 63 -153 63h-78q-93 0 -141 -47.5t-48 -138.5v-1028zM176 80q48 -64 156 -64h78q93 0 140.5 48t47.5 139 v1028q0 53 -18 94z" />
<glyph unicode="&#xd9;" horiz-adv-x="747" d="M125 209v1225h29v-1225q0 -193 192 -193h55q193 0 193 193v1225h29v-1225q0 -107 -56.5 -163t-165.5 -56h-55q-109 0 -165 56t-56 163zM236 1675h36l109 -149h-25z" />
<glyph unicode="&#xda;" horiz-adv-x="747" d="M125 209v1225h29v-1225q0 -193 192 -193h55q193 0 193 193v1225h29v-1225q0 -107 -56.5 -163t-165.5 -56h-55q-109 0 -165 56t-56 163zM365 1526l108 149h37l-121 -149h-24z" />
<glyph unicode="&#xdb;" horiz-adv-x="747" d="M125 209v1225h29v-1225q0 -193 192 -193h55q193 0 193 193v1225h29v-1225q0 -107 -56.5 -163t-165.5 -56h-55q-109 0 -165 56t-56 163zM231 1526l125 166h35l123 -166h-20l-121 143l-119 -143h-23z" />
<glyph unicode="&#xdc;" horiz-adv-x="747" d="M125 209v1225h29v-1225q0 -193 192 -193h55q193 0 193 193v1225h29v-1225q0 -107 -56.5 -163t-165.5 -56h-55q-109 0 -165 56t-56 163zM262 1526v119h25v-119h-25zM459 1526v119h24v-119h-24z" />
<glyph unicode="&#xdd;" horiz-adv-x="608" d="M41 1434h29l235 -885l234 885h28l-248 -922v-512h-28v506zM295 1526l108 149h37l-121 -149h-24z" />
<glyph unicode="&#xde;" horiz-adv-x="641" d="M129 0v1434h29v-324h172q109 0 171 -55.5t62 -157.5v-322q0 -62 -18.5 -108.5t-44.5 -71t-62 -39.5t-63 -18.5t-56 -3.5h-161v-334h-29zM158 360h159q218 0 218 215v322q0 89 -55 137.5t-150 48.5h-172v-723z" />
<glyph unicode="&#xdf;" horiz-adv-x="679" d="M125 0v1241q0 104 53.5 158.5t159.5 54.5h20q106 0 159.5 -54.5t53.5 -158.5v-264q0 -193 -145 -229q147 -31 147 -228v-307q0 -104 -53.5 -158.5t-159.5 -54.5h-116v27h116q187 0 187 186v307q0 107 -50 160t-157 53h-92v27h90q107 0 157 54.5t50 162.5v264 q0 186 -187 186h-20q-186 0 -186 -186v-1241h-27z" />
<glyph unicode="&#xe0;" horiz-adv-x="638" d="M100 152v202q0 79 35.5 124.5t124.5 82.5l238 98v248q0 160 -168 160h-17q-86 0 -131 -41.5t-45 -118.5v-151h-28v151q0 91 52 139t152 48h17q196 0 196 -187v-907h-28v84q-69 -50 -117 -71t-100 -21h-11q-85 0 -127.5 38.5t-42.5 121.5zM129 154q0 -136 143 -136h11 q47 0 95.5 22t119.5 75v516l-230 -96q-77 -33 -108 -72t-31 -109v-200zM201 1389h35l96 -191h-23z" />
<glyph unicode="&#xe1;" horiz-adv-x="638" d="M100 152v202q0 79 35.5 124.5t124.5 82.5l238 98v248q0 160 -168 160h-17q-86 0 -131 -41.5t-45 -118.5v-151h-28v151q0 91 52 139t152 48h17q196 0 196 -187v-907h-28v84q-69 -50 -117 -71t-100 -21h-11q-85 0 -127.5 38.5t-42.5 121.5zM129 154q0 -136 143 -136h11 q47 0 95.5 22t119.5 75v516l-230 -96q-77 -33 -108 -72t-31 -109v-200zM313 1198l97 191h34l-108 -191h-23z" />
<glyph unicode="&#xe2;" horiz-adv-x="638" d="M100 152v202q0 79 35.5 124.5t124.5 82.5l238 98v248q0 160 -168 160h-17q-86 0 -131 -41.5t-45 -118.5v-151h-28v151q0 91 52 139t152 48h17q196 0 196 -187v-907h-28v84q-69 -50 -117 -71t-100 -21h-11q-85 0 -127.5 38.5t-42.5 121.5zM129 154q0 -136 143 -136h11 q47 0 95.5 22t119.5 75v516l-230 -96q-77 -33 -108 -72t-31 -109v-200zM190 1198l117 191h35l115 -191h-21l-112 164l-111 -164h-23z" />
<glyph unicode="&#xe3;" horiz-adv-x="638" d="M100 152v202q0 79 35.5 124.5t124.5 82.5l238 98v248q0 160 -168 160h-17q-86 0 -131 -41.5t-45 -118.5v-151h-28v151q0 91 52 139t152 48h17q196 0 196 -187v-907h-28v84q-69 -50 -117 -71t-100 -21h-11q-85 0 -127.5 38.5t-42.5 121.5zM129 154q0 -136 143 -136h11 q47 0 95.5 22t119.5 75v516l-230 -96q-77 -33 -108 -72t-31 -109v-200zM168 1198v100q0 56 47 56h12q31 0 60 -27l96 -90q18 -16 41 -16h8q27 0 27 36v97h22v-103q0 -53 -47 -53h-12q-31 0 -60 27l-96 90q-18 16 -41 16h-8q-27 0 -27 -37v-96h-22z" />
<glyph unicode="&#xe4;" horiz-adv-x="638" d="M100 152v202q0 79 35.5 124.5t124.5 82.5l238 98v248q0 160 -168 160h-17q-86 0 -131 -41.5t-45 -118.5v-151h-28v151q0 91 52 139t152 48h17q196 0 196 -187v-907h-28v84q-69 -50 -117 -71t-100 -21h-11q-85 0 -127.5 38.5t-42.5 121.5zM129 154q0 -136 143 -136h11 q47 0 95.5 22t119.5 75v516l-230 -96q-77 -33 -108 -72t-31 -109v-200zM209 1198v131h27v-131h-27zM412 1198v131h26v-131h-26z" />
<glyph unicode="&#xe5;" horiz-adv-x="638" d="M100 152v202q0 79 35.5 124.5t124.5 82.5l238 98v248q0 160 -168 160h-17q-86 0 -131 -41.5t-45 -118.5v-151h-28v151q0 91 52 139t152 48h17q196 0 196 -187v-907h-28v84q-69 -50 -117 -71t-100 -21h-11q-85 0 -127.5 38.5t-42.5 121.5zM129 154q0 -136 143 -136h11 q47 0 95.5 22t119.5 75v516l-230 -96q-77 -33 -108 -72t-31 -109v-200zM172 1303v6q0 53 27.5 75.5t93.5 22.5h61q66 0 93.5 -22.5t27.5 -75.5v-6q0 -53 -27.5 -76t-93.5 -23h-61q-66 0 -93.5 23t-27.5 76zM195 1303q0 -42 21.5 -59t76.5 -17h61q54 0 76.5 17.5t22.5 58.5v6 q0 41 -22.5 58t-76.5 17h-61q-54 0 -76 -17t-22 -58v-6z" />
<glyph unicode="&#xe6;" horiz-adv-x="1044" d="M100 152v215q0 76 36 119t124 79l238 99v243q0 160 -168 160h-17q-86 0 -131 -41.5t-45 -118.5v-151h-28v151q0 91 52 139t152 48h17q49 0 85 -11t55.5 -30.5t29 -36.5t16.5 -39q41 117 195 117h18q213 0 213 -213v-357h-416v-319q0 -187 185 -187h18q184 0 184 187v143 h29v-143q0 -213 -213 -213h-18q-151 0 -193 104q-82 -61 -132 -82.5t-105 -21.5h-11q-85 0 -127.5 38.5t-42.5 121.5zM129 154q0 -136 143 -136h11q47 0 98.5 23.5t126.5 79.5q-10 42 -10 84v430l-230 -96q-76 -32 -107.5 -69t-31.5 -103v-213zM526 551h387v330 q0 186 -184 186h-18q-185 0 -185 -186v-330z" />
<glyph unicode="&#xe7;" horiz-adv-x="655" d="M102 201v684q0 209 209 209h31q209 0 209 -209v-156h-29v156q0 182 -180 182h-31q-180 0 -180 -182v-684q0 -183 180 -183h33q180 0 180 183v186h29v-186q0 -206 -207 -209l-57 -160h-33l68 160h-13q-209 0 -209 209z" />
<glyph unicode="&#xe8;" horiz-adv-x="649" d="M102 205v676q0 213 213 213h19q213 0 213 -213v-357h-416v-319q0 -187 184 -187h19q184 0 184 187v127h29v-127q0 -213 -213 -213h-19q-213 0 -213 213zM131 551h387v330q0 186 -184 186h-19q-184 0 -184 -186v-330zM201 1389h35l96 -191h-23z" />
<glyph unicode="&#xe9;" horiz-adv-x="649" d="M102 205v676q0 213 213 213h19q213 0 213 -213v-357h-416v-319q0 -187 184 -187h19q184 0 184 187v127h29v-127q0 -213 -213 -213h-19q-213 0 -213 213zM131 551h387v330q0 186 -184 186h-19q-184 0 -184 -186v-330zM313 1198l97 191h34l-108 -191h-23z" />
<glyph unicode="&#xea;" horiz-adv-x="649" d="M102 205v676q0 213 213 213h19q213 0 213 -213v-357h-416v-319q0 -187 184 -187h19q184 0 184 187v127h29v-127q0 -213 -213 -213h-19q-213 0 -213 213zM131 551h387v330q0 186 -184 186h-19q-184 0 -184 -186v-330zM190 1198l117 191h35l115 -191h-21l-112 164 l-111 -164h-23z" />
<glyph unicode="&#xeb;" horiz-adv-x="649" d="M102 205v676q0 213 213 213h19q213 0 213 -213v-357h-416v-319q0 -187 184 -187h19q184 0 184 187v127h29v-127q0 -213 -213 -213h-19q-213 0 -213 213zM131 551h387v330q0 186 -184 186h-19q-184 0 -184 -186v-330zM209 1198v131h27v-131h-27zM412 1198v131h26v-131h-26 z" />
<glyph unicode="&#xec;" horiz-adv-x="270" d="M12 1389h35l96 -191h-22zM121 0v1085h29v-1085h-29z" />
<glyph unicode="&#xed;" horiz-adv-x="270" d="M121 0v1085h29v-1085h-29zM125 1198l96 191h35l-109 -191h-22z" />
<glyph unicode="&#xee;" horiz-adv-x="270" d="M2 1198l117 191h35l114 -191h-20l-113 164l-110 -164h-23zM121 0v1085h29v-1085h-29z" />
<glyph unicode="&#xef;" horiz-adv-x="270" d="M20 1198v131h27v-131h-27zM121 0v1085h29v-1085h-29zM223 1198v131h27v-131h-27z" />
<glyph unicode="&#xf0;" horiz-adv-x="677" d="M102 201v680q0 105 51 159t166 54h11q153 0 202 -93v91q0 103 -23 140t-112 77l-75 32l-62 -100h-29l68 111l-131 59l12 25l133 -60l62 101h28l-67 -111l72 -33q70 -31 100 -56.5t41.5 -65t11.5 -119.5v-891q0 -209 -209 -209h-41q-209 0 -209 209zM131 201 q0 -183 180 -183h41q180 0 180 183v682q0 184 -184 184h-33q-184 0 -184 -186v-680z" />
<glyph unicode="&#xf1;" horiz-adv-x="669" d="M117 0v1085h28v-88q71 54 118 75.5t102 21.5h16q176 0 176 -160v-934h-29v932q0 135 -149 135h-17q-51 0 -97 -21.5t-120 -78.5v-967h-28zM176 1198v100q0 56 47 56h13q30 0 59 -27l96 -90q18 -16 41 -16h8q27 0 27 36v97h22v-103q0 -53 -47 -53h-12q-30 0 -59 27l-97 90 q-18 16 -41 16h-8q-26 0 -26 -37v-96h-23z" />
<glyph unicode="&#xf2;" d="M102 201v684q0 209 209 209h41q209 0 209 -209v-684q0 -209 -209 -209h-41q-209 0 -209 209zM131 201q0 -183 180 -183h41q180 0 180 183v684q0 182 -180 182h-41q-180 0 -180 -182v-684zM209 1389h35l96 -191h-23z" />
<glyph unicode="&#xf3;" d="M102 201v684q0 209 209 209h41q209 0 209 -209v-684q0 -209 -209 -209h-41q-209 0 -209 209zM131 201q0 -183 180 -183h41q180 0 180 183v684q0 182 -180 182h-41q-180 0 -180 -182v-684zM322 1198l96 191h35l-109 -191h-22z" />
<glyph unicode="&#xf4;" d="M102 201v684q0 209 209 209h41q209 0 209 -209v-684q0 -209 -209 -209h-41q-209 0 -209 209zM131 201q0 -183 180 -183h41q180 0 180 183v684q0 182 -180 182h-41q-180 0 -180 -182v-684zM199 1198l116 191h35l115 -191h-21l-112 164l-111 -164h-22z" />
<glyph unicode="&#xf5;" d="M102 201v684q0 209 209 209h41q209 0 209 -209v-684q0 -209 -209 -209h-41q-209 0 -209 209zM131 201q0 -183 180 -183h41q180 0 180 183v684q0 182 -180 182h-41q-180 0 -180 -182v-684zM176 1198v100q0 56 47 56h13q30 0 59 -27l96 -90q18 -16 41 -16h8q27 0 27 36v97 h22v-103q0 -53 -47 -53h-12q-30 0 -59 27l-97 90q-18 16 -41 16h-8q-26 0 -26 -37v-96h-23z" />
<glyph unicode="&#xf6;" d="M102 201v684q0 209 209 209h41q209 0 209 -209v-684q0 -209 -209 -209h-41q-209 0 -209 209zM131 201q0 -183 180 -183h41q180 0 180 183v684q0 182 -180 182h-41q-180 0 -180 -182v-684zM217 1198v131h27v-131h-27zM420 1198v131h26v-131h-26z" />
<glyph unicode="&#xf7;" horiz-adv-x="643" d="M61 713v28h521v-28h-521zM305 416v125h33v-125h-33zM305 913v125h33v-125h-33z" />
<glyph unicode="&#xf8;" d="M102 201v684q0 209 209 209h41q209 0 209 -209v-684q0 -209 -209 -209h-41q-209 0 -209 209zM131 201q0 -75 29 -117l325 940q-46 43 -133 43h-41q-180 0 -180 -182v-684zM178 61q43 -43 133 -43h41q180 0 180 183v684q0 69 -28 114z" />
<glyph unicode="&#xf9;" horiz-adv-x="669" d="M113 152v933h28v-931q0 -136 150 -136h16q51 0 97 22t120 79v966h29v-1085h-29v88q-71 -53 -117.5 -74.5t-101.5 -21.5h-16q-176 0 -176 160zM207 1389h35l96 -191h-23z" />
<glyph unicode="&#xfa;" horiz-adv-x="669" d="M113 152v933h28v-931q0 -136 150 -136h16q51 0 97 22t120 79v966h29v-1085h-29v88q-71 -53 -117.5 -74.5t-101.5 -21.5h-16q-176 0 -176 160zM319 1198l97 191h35l-109 -191h-23z" />
<glyph unicode="&#xfb;" horiz-adv-x="669" d="M113 152v933h28v-931q0 -136 150 -136h16q51 0 97 22t120 79v966h29v-1085h-29v88q-71 -53 -117.5 -74.5t-101.5 -21.5h-16q-176 0 -176 160zM197 1198l116 191h35l115 -191h-21l-112 164l-111 -164h-22z" />
<glyph unicode="&#xfc;" horiz-adv-x="669" d="M113 152v933h28v-931q0 -136 150 -136h16q51 0 97 22t120 79v966h29v-1085h-29v88q-71 -53 -117.5 -74.5t-101.5 -21.5h-16q-176 0 -176 160zM215 1198v131h27v-131h-27zM418 1198v131h26v-131h-26z" />
<glyph unicode="&#xfd;" horiz-adv-x="606" d="M55 1085h29l225 -1036l213 1036h29l-275 -1310h-28l47 219zM295 1198l96 191h35l-109 -191h-22z" />
<glyph unicode="&#xfe;" d="M117 -225v1677h28v-455q71 54 118.5 75.5t103.5 21.5h16q178 0 178 -160v-782q0 -160 -178 -160h-16q-56 0 -103.5 21.5t-118.5 74.5v-313h-28zM145 121q74 -59 122 -81t106 -22q82 0 120.5 33t38.5 103v778q0 70 -38.5 102.5t-120.5 32.5q-59 0 -106.5 -21.5 t-121.5 -78.5v-846z" />
<glyph unicode="&#xff;" horiz-adv-x="606" d="M55 1085h29l225 -1036l213 1036h29l-275 -1310h-28l47 219zM190 1198v131h27v-131h-27zM393 1198v131h27v-131h-27z" />
<glyph unicode="&#x152;" horiz-adv-x="1042" d="M115 233v967q0 101 74.5 167.5t183.5 66.5h565v-27h-360v-666h350v-26h-350v-688h364v-27h-569q-109 0 -183.5 66t-74.5 167zM143 233q0 -89 67 -147.5t163 -58.5h176v1380h-176q-95 0 -162.5 -59t-67.5 -148v-967z" />
<glyph unicode="&#x153;" horiz-adv-x="1079" d="M102 199v684q0 209 209 209h41q163 0 197 -125q32 125 196 125h19q213 0 213 -213v-357h-416v-319q0 -187 184 -187h19q184 0 184 187v143h29v-143q0 -213 -213 -213h-19q-163 0 -196 125q-20 -62 -66.5 -93.5t-130.5 -31.5h-41q-209 0 -209 209zM131 199 q0 -183 180 -183h41q180 0 180 183v684q0 182 -180 182h-41q-180 0 -180 -182v-684zM561 549h387v330q0 186 -184 186h-19q-184 0 -184 -186v-330z" />
<glyph unicode="&#x178;" horiz-adv-x="608" d="M41 1434h29l235 -885l234 885h28l-248 -922v-512h-28v506zM193 1526v119h24v-119h-24zM389 1526v119h25v-119h-25z" />
<glyph unicode="&#x2c6;" horiz-adv-x="1024" d="M379 1198l117 191h34l115 -191h-20l-113 164l-111 -164h-22z" />
<glyph unicode="&#x2dc;" horiz-adv-x="1024" d="M356 1198v100q0 56 47 56h13q30 0 59 -27l96 -90q18 -16 41 -16h9q26 0 26 36v97h23v-103q0 -53 -47 -53h-13q-30 0 -59 27l-96 90q-18 16 -41 16h-8q-27 0 -27 -37v-96h-23z" />
<glyph unicode="&#x2000;" horiz-adv-x="847" />
<glyph unicode="&#x2001;" horiz-adv-x="1694" />
<glyph unicode="&#x2002;" horiz-adv-x="847" />
<glyph unicode="&#x2003;" horiz-adv-x="1694" />
<glyph unicode="&#x2004;" horiz-adv-x="564" />
<glyph unicode="&#x2005;" horiz-adv-x="423" />
<glyph unicode="&#x2006;" horiz-adv-x="282" />
<glyph unicode="&#x2007;" horiz-adv-x="282" />
<glyph unicode="&#x2008;" horiz-adv-x="211" />
<glyph unicode="&#x2009;" horiz-adv-x="338" />
<glyph unicode="&#x200a;" horiz-adv-x="94" />
<glyph unicode="&#x2010;" horiz-adv-x="356" d="M41 559v29h274v-29h-274z" />
<glyph unicode="&#x2011;" horiz-adv-x="356" d="M41 559v29h274v-29h-274z" />
<glyph unicode="&#x2012;" horiz-adv-x="356" d="M41 559v29h274v-29h-274z" />
<glyph unicode="&#x2013;" horiz-adv-x="749" d="M74 555v27h602v-27h-602z" />
<glyph unicode="&#x2014;" horiz-adv-x="1138" d="M74 555v27h991v-27h-991z" />
<glyph unicode="&#x2018;" horiz-adv-x="172" d="M61 1184v90q0 40 8.5 68.5t28.5 66.5l19 35l14 -6l-16 -35q-28 -59 -31 -94h10v-125h-33z" />
<glyph unicode="&#x2019;" horiz-adv-x="172" d="M41 1180l16 34q29 63 31 95h-10v125h33v-91q0 -40 -8.5 -68.5t-28.5 -66.5l-19 -34z" />
<glyph unicode="&#x201a;" horiz-adv-x="172" d="M33 -129l16 35q29 69 31 94h-10v125h32v-90q0 -67 -36 -135l-19 -35z" />
<glyph unicode="&#x201c;" horiz-adv-x="294" d="M61 1184v90q0 40 8.5 68.5t28.5 66.5l19 35l14 -6l-16 -35q-31 -69 -31 -94h10v-125h-33zM184 1184v90q0 40 8.5 68.5t28.5 66.5l19 35l14 -6l-16 -35q-31 -73 -31 -94h10v-125h-33z" />
<glyph unicode="&#x201d;" horiz-adv-x="294" d="M41 1180l16 34q3 7 12 30.5t13.5 38t5.5 26.5h-10v125h33v-91q0 -40 -8.5 -68.5t-28.5 -66.5l-19 -34zM164 1180l16 34q30 77 31 95h-10v125h32v-91q0 -67 -36 -135l-19 -34z" />
<glyph unicode="&#x201e;" horiz-adv-x="294" d="M33 -129l16 35q3 8 12 30.5t13.5 37t5.5 26.5h-10v125h32v-90q0 -67 -36 -135l-19 -35zM156 -129l16 35q30 77 31 94h-10v125h32v-90q0 -40 -8.5 -68.5t-28.5 -66.5l-18 -35z" />
<glyph unicode="&#x2022;" horiz-adv-x="352" d="M119 653v135q0 28 8 39t29 11h39q22 0 30 -11t8 -39v-135q0 -28 -8 -38.5t-30 -10.5h-39q-20 0 -28.5 10.5t-8.5 38.5z" />
<glyph unicode="&#x2026;" horiz-adv-x="516" d="M70 0v125h32v-125h-32zM242 0v125h32v-125h-32zM414 0v125h32v-125h-32z" />
<glyph unicode="&#x202f;" horiz-adv-x="338" />
<glyph unicode="&#x2039;" horiz-adv-x="272" d="M76 573l96 293h21l-84 -293l86 -292h-19z" />
<glyph unicode="&#x203a;" horiz-adv-x="272" d="M78 281l86 292l-84 293h20l97 -293l-101 -292h-18z" />
<glyph unicode="&#x205f;" horiz-adv-x="423" />
<glyph unicode="&#x20ac;" horiz-adv-x="739" d="M74 612v25h94v182h-94v25h94v387q0 103 54.5 158t158.5 55h57q104 0 158.5 -55t54.5 -158v-193h-28v193q0 91 -47 138.5t-138 47.5h-57q-91 0 -137.5 -47.5t-46.5 -138.5v-387h342v-25h-342v-182h342v-25h-342v-409q0 -91 47 -139t137 -48h59q91 0 138 48t47 139v207h28 v-207q0 -103 -54.5 -158t-158.5 -55h-59q-104 0 -158.5 55t-54.5 158v409h-94z" />
<glyph unicode="&#x2122;" horiz-adv-x="782" d="M47 1409v23h242v-23h-109v-594h-24v594h-109zM356 815v617h43l123 -570l123 570h43v-617h-24v588l-132 -588h-20l-131 588v-588h-25z" />
<glyph unicode="&#x25fc;" horiz-adv-x="1085" d="M0 0v1085h1085v-1085h-1085z" />
<glyph unicode="&#xfb01;" horiz-adv-x="638" d="M55 1061v24h95v215q0 154 139 154h63v-27h-63q-58 0 -84.5 -30t-26.5 -94v-218h168v-24h-168v-1061h-28v1061h-95zM487 1260v112h33v-112h-33zM489 0v1085h29v-1085h-29z" />
<glyph unicode="&#xfb02;" horiz-adv-x="638" d="M55 1061v24h95v215q0 154 139 154h63v-27h-63q-58 0 -84.5 -30t-26.5 -94v-218h168v-24h-168v-1061h-28v1061h-95zM489 0v1454h29v-1454h-29z" />
<glyph unicode="&#xfb03;" horiz-adv-x="1007" d="M55 1061v24h95v215q0 154 139 154h63v-27h-63q-58 0 -84.5 -30t-26.5 -94v-218h168v-24h-168v-1061h-28v1061h-95zM424 1061v24h94v215q0 154 139 154h64v-27h-64q-58 0 -84 -30t-26 -94v-218h168v-24h-168v-1061h-29v1061h-94zM856 1260v112h33v-112h-33zM858 0v1085h29 v-1085h-29z" />
<glyph unicode="&#xfb04;" horiz-adv-x="1007" d="M55 1061v24h95v215q0 154 139 154h63v-27h-63q-58 0 -84.5 -30t-26.5 -94v-218h168v-24h-168v-1061h-28v1061h-95zM424 1061v24h94v215q0 154 139 154h64v-27h-64q-58 0 -84 -30t-26 -94v-218h168v-24h-168v-1061h-29v1061h-94zM858 0v1454h29v-1454h-29z" />
</font>
</defs>
</svg>
