<?xml version="1.0" standalone="no"?>
<!DOCTYPE svg PUBLIC "-//W3C//DTD SVG 1.1//EN" "http://www.w3.org/Graphics/SVG/1.1/DTD/svg11.dtd" >
<svg xmlns="http://www.w3.org/2000/svg">
<metadata></metadata>
<defs>
<font id="tungsten_narrowbold" horiz-adv-x="624" >
<font-face units-per-em="2048" ascent="1638" descent="-410" />
<missing-glyph horiz-adv-x="227" />
<glyph horiz-adv-x="2048" />
<glyph horiz-adv-x="2048" />
<glyph unicode="&#xd;" horiz-adv-x="2048" />
<glyph unicode=" "  horiz-adv-x="227" />
<glyph unicode="&#x09;" horiz-adv-x="227" />
<glyph unicode="&#xa0;" horiz-adv-x="227" />
<glyph unicode="!" horiz-adv-x="327" d="M45 1018v416h238v-416l-52 -656h-135zM57 0v274h213v-274h-213z" />
<glyph unicode="&#x22;" horiz-adv-x="514" d="M25 926l26 508h203l-74 -508h-155zM272 926l27 508h201l-72 -508h-156z" />
<glyph unicode="#" horiz-adv-x="600" d="M20 233v259l74 20v303l-74 -20v258l74 20v365h160v-318l92 27v291h160v-246l74 22v-258l-74 -22v-303l74 20v-258l-74 -22v-375h-160v330l-92 -27v-303h-160v258zM254 557l92 27v303l-92 -27v-303z" />
<glyph unicode="$" horiz-adv-x="659" d="M37 225v346h239v-321q0 -45 43 -45h21q43 0 43 45v229q0 33 -10 53.5t-37 42.5l-195 148q-59 44 -81.5 91.5t-22.5 125.5v268q0 224 221 230v121h141v-121q222 -6 222 -230v-309h-238v285q0 45 -43 45h-18q-43 0 -43 -45v-197q0 -33 10.5 -53.5t38.5 -42.5l192 -148 q60 -44 82.5 -91.5t22.5 -125.5v-301q0 -228 -224 -231v-127h-141v127q-223 6 -223 231z" />
<glyph unicode="%" horiz-adv-x="808" d="M37 713v600q0 60 34 96.5t91 36.5h133q58 0 91.5 -36t33.5 -97v-127l-2 -238l123 492h143l-170 -586h14h119q58 0 91.5 -36t33.5 -97v-600q0 -60 -34 -96.5t-91 -36.5h-133q-58 0 -91.5 36t-33.5 97v123v233l-121 -483h-143l170 586h-14h-119q-58 0 -91.5 36t-33.5 97z M190 754q0 -11 6 -19t13 -8h43q8 0 14 8.5t6 18.5v514q0 10 -6 18t-14 8h-43q-8 0 -13.5 -8t-5.5 -18v-514zM539 168q0 -12 5.5 -20.5t12.5 -8.5h43q8 0 14.5 8.5t6.5 20.5v512q0 12 -6.5 20.5t-14.5 8.5h-43q-7 0 -12.5 -8.5t-5.5 -20.5v-512z" />
<glyph unicode="&#x26;" horiz-adv-x="833" d="M29 205v348q0 136 84 209l65 57l-39 80q-25 50 -33 88t-8 94v133q0 232 232 232h108q232 0 232 -232v-249h-230v225q0 45 -43 45h-22q-43 0 -43 -45v-115q0 -57 33 -119l155 -325l58 203h237l-149 -465l184 -369h-250l-57 115q-31 -70 -76 -98.5t-131 -28.5h-90 q-217 0 -217 217zM262 233q0 -38 39 -38h29q41 0 51 38l35 107l-131 268q-23 -23 -23 -73v-302z" />
<glyph unicode="'" horiz-adv-x="272" d="M25 926l26 508h207l-72 -508h-161z" />
<glyph unicode="(" horiz-adv-x="358" d="M43 477v479q0 224 39 332.5t162 231.5l108 -47q-62 -86 -90.5 -147.5t-40.5 -144t-12 -223.5v-483q0 -204 27 -298t116 -216l-108 -47q-85 85 -126 155.5t-58 162t-17 245.5z" />
<glyph unicode=")" horiz-adv-x="358" d="M6 -39q90 123 117 217t27 297v483q0 203 -27 297t-117 218l109 47q123 -123 161.5 -231.5t38.5 -332.5v-479q0 -224 -38.5 -332t-161.5 -231z" />
<glyph unicode="*" horiz-adv-x="479" d="M27 1001v119l123 62l-123 63v119h6l153 -90l-2 162h113l-6 -162l155 90h7v-119l-125 -63l125 -62v-119h-7l-153 89l4 -162h-113l2 162l-153 -89h-6z" />
<glyph unicode="+" horiz-adv-x="563" d="M20 647v158h179v182h166v-182h178v-158h-178v-182h-166v182h-179z" />
<glyph unicode="," horiz-adv-x="280" d="M31 -201l22 49q52 111 60 152h-80v274h219v-174q0 -91 -16.5 -138.5t-77.5 -133.5l-41 -55z" />
<glyph unicode="-" horiz-adv-x="399" d="M18 481v211h363v-211h-363z" />
<glyph unicode="." horiz-adv-x="282" d="M31 0v274h221v-274h-221z" />
<glyph unicode="/" horiz-adv-x="395" d="M4 -66l232 1565h155l-231 -1565h-156z" />
<glyph unicode="0" horiz-adv-x="696" d="M41 219v995q0 232 231 232h152q231 0 231 -232v-995q0 -117 -57 -174t-174 -57h-152q-117 0 -174 57t-57 174zM289 246q0 -45 43 -45h33q45 0 45 45v942q0 45 -45 45h-33q-43 0 -43 -45v-942z" />
<glyph unicode="1" horiz-adv-x="415" d="M10 1149v172l15 2q48 6 77.5 25.5t61.5 62.5l20 29h183v-1440h-244v1149h-113z" />
<glyph unicode="2" horiz-adv-x="649" d="M31 0v293q0 72 20 127.5t74 128.5l209 293q41 61 41 110v234q0 45 -45 45h-17q-43 0 -43 -45v-293h-237v319q0 232 231 232h123q231 0 231 -232v-254q0 -74 -20 -133t-74 -133l-209 -293q-39 -55 -39 -108v-68h342v-223h-587z" />
<glyph unicode="3" horiz-adv-x="663" d="M31 219v289h233v-262q0 -45 45 -45h27q45 0 45 45v327q0 43 -45 43h-189v220h185q45 0 45 45v307q0 45 -45 45h-19q-45 0 -45 -45v-240h-235v266q0 232 231 232h129q232 0 232 -232v-290q0 -144 -105 -187q57 -15 82 -52.5t25 -106.5v-359q0 -231 -230 -231h-135 q-117 0 -174 57t-57 174z" />
<glyph unicode="4" horiz-adv-x="659" d="M20 223v250l205 961h338v-998h90v-213h-90v-223h-223v223h-320zM207 436h133v531v120z" />
<glyph unicode="5" horiz-adv-x="669" d="M39 219v305h240v-278q0 -45 45 -45h22q45 0 45 45v405q0 51 -45 51q-20 0 -35.5 -11.5t-38.5 -39.5h-225v783h571v-222h-339l-5 -354q39 36 76.5 53t93.5 17h5q87 0 137.5 -54t50.5 -147v-508q0 -231 -231 -231h-136q-117 0 -174 57t-57 174z" />
<glyph unicode="6" horiz-adv-x="681" d="M41 219v995q0 232 231 232h138q229 0 229 -232v-253h-240v227q0 45 -43 45h-24q-43 0 -43 -45v-350q69 32 147 32h8q94 0 147.5 -56t53.5 -150v-445q0 -117 -57 -174t-174 -57h-142q-117 0 -174 57t-57 174zM289 246q0 -45 43 -45h24q43 0 43 45v368q0 23 -9 32t-34 9 q-32 0 -67 -10v-399z" />
<glyph unicode="7" horiz-adv-x="561" d="M16 1212v222h525v-258l-217 -1176h-248l227 1212h-287z" />
<glyph unicode="8" horiz-adv-x="675" d="M35 219v363q0 68 25.5 106t80.5 53q-102 39 -102 185v288q0 232 231 232h136q231 0 231 -232v-288q0 -145 -105 -185q57 -15 82 -53t25 -106v-363q0 -231 -229 -231h-144q-231 0 -231 231zM279 242q0 -45 45 -45h28q45 0 45 45v342q0 45 -45 45h-28q-45 0 -45 -45v-342z M281 879q0 -45 45 -45h24q45 0 45 45v313q0 45 -45 45h-24q-45 0 -45 -45v-313z" />
<glyph unicode="9" horiz-adv-x="681" d="M39 766v448q0 230 231 230h142q229 0 229 -230v-993q0 -231 -229 -231h-140q-117 0 -174 57t-57 174v242h240v-215q0 -45 45 -45h24q45 0 45 45v344q-71 -33 -145 -33h-10q-94 0 -147.5 56.5t-53.5 150.5zM285 815q0 -23 9 -32t36 -9q30 0 65 10v402q0 45 -45 45h-20 q-45 0 -45 -45v-371z" />
<glyph unicode=":" horiz-adv-x="282" d="M31 0v274h221v-274h-221zM31 889v274h221v-274h-221z" />
<glyph unicode=";" horiz-adv-x="282" d="M31 -201l22 49q52 111 60 152h-80v274h219v-174q0 -91 -16.5 -138.5t-77.5 -133.5l-41 -55zM31 889v274h221v-274h-221z" />
<glyph unicode="&#x3c;" horiz-adv-x="567" d="M31 621v208l501 172v-174l-360 -100l360 -98v-178z" />
<glyph unicode="=" horiz-adv-x="565" d="M31 522v158h504v-158h-504zM31 770v160h504v-160h-504z" />
<glyph unicode="&#x3e;" horiz-adv-x="567" d="M35 451v178l360 98l-360 100v174l502 -172v-208z" />
<glyph unicode="?" horiz-adv-x="622" d="M27 899v315q0 230 229 230h113q229 0 229 -230v-264q0 -67 -18.5 -116.5t-67.5 -106.5l-96 -125q-33 -40 -33 -108v-146h-182v242q0 69 12.5 107.5t54.5 86.5l49 68q39 44 39 102v232q0 45 -45 45h-16q-43 0 -43 -45v-287h-225zM184 0v274h215v-274h-215z" />
<glyph unicode="@" horiz-adv-x="903" d="M55 152v860q0 154 67.5 222.5t211.5 68.5h237q143 0 210 -69t67 -222v-809q0 -77 -34 -114.5t-105 -37.5h-82q-89 0 -129 66q-37 -36 -69 -52t-73 -16q-60 0 -95.5 37.5t-35.5 106.5v278q0 75 26.5 116t92.5 64l141 47v224q0 28 -28 28h-15q-28 0 -28 -28v-177h-178v209 q0 160 172 160h94q168 0 168 -160v-804q0 -20 8.5 -28.5t28.5 -8.5h6q37 0 54 20.5t17 69.5v809q0 123 -51.5 177t-161.5 54h-237q-112 0 -163.5 -54t-51.5 -177v-860q0 -123 51.5 -177.5t163.5 -54.5h446v-59h-446q-144 0 -211.5 68.5t-67.5 222.5zM406 260q0 -20 9 -28.5 t31 -8.5q15 0 39 8v306l-45 -21q-34 -13 -34 -57v-199z" />
<glyph unicode="A" horiz-adv-x="684" d="M8 0l164 1434h340l164 -1434h-248l-20 209h-154l-18 -209h-228zM272 426h117l-59 661z" />
<glyph unicode="B" horiz-adv-x="681" d="M45 0v1434h367q229 0 229 -232v-278q0 -77 -25.5 -121.5t-76.5 -65.5q56 -15 81 -52.5t25 -106.5v-347q0 -117 -57 -174t-174 -57h-369zM291 213h63q43 0 43 45v320q0 45 -43 45h-63v-410zM291 829h59q45 0 45 45v302q0 45 -45 45h-59v-392z" />
<glyph unicode="C" horiz-adv-x="696" d="M41 219v995q0 232 231 232h150q229 0 229 -232v-380h-243v354q0 45 -46 45h-28q-43 0 -43 -45v-942q0 -45 43 -45h33q45 0 45 45v391h243v-418q0 -117 -57 -174t-174 -57h-152q-117 0 -174 57t-57 174z" />
<glyph unicode="D" horiz-adv-x="702" d="M45 0v1434h350q267 0 267 -267v-901q0 -266 -267 -266h-350zM293 213h51q68 0 68 70v868q0 70 -68 70h-51v-1008z" />
<glyph unicode="E" horiz-adv-x="542" d="M45 0v1434h461v-222h-213v-374h205v-222h-205v-393h217v-223h-465z" />
<glyph unicode="F" horiz-adv-x="522" d="M45 0v1434h453v-222h-205v-387h196v-221h-196v-604h-248z" />
<glyph unicode="G" horiz-adv-x="704" d="M41 219v995q0 232 231 232h156q231 0 231 -232v-327h-245v301q0 45 -43 45h-37q-43 0 -43 -45v-942q0 -45 43 -45h41q45 0 45 45v336h-78v209h322v-572q0 -231 -232 -231h-160q-117 0 -174 57t-57 174z" />
<glyph unicode="H" horiz-adv-x="710" d="M45 0v1434h248v-596h125v596h250v-1434h-250v616h-125v-616h-248z" />
<glyph unicode="I" horiz-adv-x="342" d="M47 0v1434h248v-1434h-248z" />
<glyph unicode="J" horiz-adv-x="448" d="M23 0v223h90q45 0 45 43v1168h250v-1203q0 -231 -232 -231h-153z" />
<glyph unicode="K" horiz-adv-x="686" d="M45 0v1434h248v-676l139 676h258l-166 -705l158 -729h-262l-127 676v-676h-248z" />
<glyph unicode="L" horiz-adv-x="493" d="M45 0v1434h248v-1211h180v-223h-428z" />
<glyph unicode="M" horiz-adv-x="956" d="M45 0v1434h358l72 -869l76 869h360v-1434h-243v319l2 654l-99 -973h-233l-96 979l2 -666v-313h-199z" />
<glyph unicode="N" horiz-adv-x="696" d="M45 0v1434h254l150 -742l-9 406l-2 336h213v-1434h-239l-164 801l8 -381l4 -420h-215z" />
<glyph unicode="O" horiz-adv-x="704" d="M41 221v993q0 232 231 232h160q232 0 232 -232v-993q0 -233 -232 -233h-160q-231 0 -231 233zM291 248q0 -45 43 -45h37q43 0 43 45v940q0 45 -43 45h-37q-43 0 -43 -45v-940z" />
<glyph unicode="P" horiz-adv-x="665" d="M45 0v1434h365q229 0 229 -232v-454q0 -230 -229 -230h-117v-518h-248zM293 731h53q45 0 45 43v402q0 45 -45 45h-53v-490z" />
<glyph unicode="Q" horiz-adv-x="704" d="M41 221v993q0 232 231 232h160q232 0 232 -232v-976q0 -129 -78 -179l110 -47l-118 -182l-263 160h-43q-117 0 -174 57t-57 174zM291 248q0 -45 43 -45h37q43 0 43 45v940q0 45 -43 45h-37q-43 0 -43 -45v-940z" />
<glyph unicode="R" horiz-adv-x="688" d="M45 0v1434h371q231 0 231 -232v-340q0 -145 -106 -184q57 -17 82.5 -55t25.5 -105v-518h-250v516q0 45 -43 45h-63v-561h-248zM293 772h61q43 0 43 43v356q0 46 -43 46h-61v-445z" />
<glyph unicode="S" horiz-adv-x="669" d="M37 219v352h246v-327q0 -45 43 -45h22q43 0 43 45v229q0 34 -10.5 55t-36.5 41l-201 154q-60 43 -83 91.5t-23 125.5v274q0 232 231 232h135q232 0 232 -232v-315h-244v291q0 45 -43 45h-20q-43 0 -43 -45v-199q0 -34 10.5 -55t36.5 -41l200 -154q60 -44 83.5 -91.5 t23.5 -125.5v-305q0 -231 -231 -231h-140q-117 0 -174 57t-57 174z" />
<glyph unicode="T" horiz-adv-x="585" d="M18 1212v222h551v-222h-151v-1212h-250v1212h-150z" />
<glyph unicode="U" horiz-adv-x="698" d="M43 221v1213h248v-1186q0 -45 45 -45h26q46 0 46 45v1186h247v-1213q0 -117 -57 -174t-174 -57h-150q-117 0 -174 57t-57 174z" />
<glyph unicode="V" horiz-adv-x="679" d="M8 1434h254l88 -1012l88 1012h232l-166 -1434h-328z" />
<glyph unicode="W" horiz-adv-x="1001" d="M12 1434h252l64 -789l71 789h236l70 -783l65 783h219l-149 -1434h-275l-63 649l-64 -649h-274z" />
<glyph unicode="X" horiz-adv-x="675" d="M10 0l156 696l-152 738h260l68 -447l82 447h238l-156 -697l160 -737h-260l-74 453l-84 -453h-238z" />
<glyph unicode="Y" horiz-adv-x="659" d="M-2 1434h260l82 -529l90 529h236l-209 -936v-498h-250v473z" />
<glyph unicode="Z" horiz-adv-x="557" d="M29 0v258l262 954h-254v222h493v-258l-264 -953h264v-223h-501z" />
<glyph unicode="[" horiz-adv-x="356" d="M53 -66v1565h289v-113h-131v-1339h131v-113h-289z" />
<glyph unicode="\" horiz-adv-x="395" d="M4 1499h156l231 -1565h-155z" />
<glyph unicode="]" horiz-adv-x="356" d="M12 47h131v1339h-131v113h289v-1565h-289v113z" />
<glyph unicode="^" horiz-adv-x="671" d="M76 1069l196 365h125l199 -365h-156l-104 199l-105 -199h-155z" />
<glyph unicode="_" horiz-adv-x="843" d="M-4 -39h852v-160h-852v160z" />
<glyph unicode="`" horiz-adv-x="888" d="M313 1438h230l67 -205h-168z" />
<glyph unicode="a" d="M33 150v317q0 82 28.5 122.5t102.5 67.5l192 66v217q0 39 -39 39h-14q-43 0 -43 -39v-186h-217v204q0 220 217 220h111q215 0 215 -220v-958h-228v63q-45 -38 -83.5 -56.5t-88.5 -18.5h-4q-72 0 -110.5 42t-38.5 120zM256 229q0 -21 10.5 -30t34.5 -9q23 0 55 9v336 l-65 -29q-21 -9 -28 -20t-7 -35v-222z" />
<glyph unicode="b" horiz-adv-x="647" d="M39 0v1448h235v-350q45 39 83.5 59.5t86.5 20.5h5q77 0 119 -44.5t42 -129.5v-844q0 -84 -42 -128t-119 -44h-5q-88 0 -174 69v-57h-231zM274 205q23 -10 58 -10q25 0 35 9t10 29v699q0 21 -10.5 30t-34.5 9q-28 0 -58 -13v-753z" />
<glyph unicode="c" horiz-adv-x="628" d="M35 205v753q0 220 217 220h127q217 0 217 -220v-286h-229v260q0 39 -39 39h-19q-39 0 -39 -39v-699q0 -38 39 -38h21q39 0 39 38v285h227v-313q0 -217 -215 -217h-129q-217 0 -217 217z" />
<glyph unicode="d" horiz-adv-x="647" d="M35 160v844q0 85 43 129.5t121 44.5h4q83 0 170 -70v340h235v-1448h-231v68q-91 -80 -174 -80h-4q-78 0 -121 44t-43 128zM270 233q0 -21 10.5 -29.5t36.5 -8.5q33 0 56 10v753q-30 13 -56 13t-36.5 -9t-10.5 -30v-699z" />
<glyph unicode="e" d="M35 205v753q0 220 217 220h121q217 0 217 -220v-466h-324v-263q0 -39 39 -39h23q39 0 39 39v170h223v-194q0 -217 -217 -217h-121q-217 0 -217 217zM266 672h96v266q0 39 -38 39h-19q-39 0 -39 -39v-266z" />
<glyph unicode="f" horiz-adv-x="423" d="M16 969v196h56v88q0 195 192 195h156v-193h-80q-35 0 -35 -32v-58h109v-196h-109v-969h-233v969h-56z" />
<glyph unicode="g" horiz-adv-x="647" d="M35 258v746q0 85 43 129.5t121 44.5h4q87 0 174 -70v57h231v-1169q0 -107 -51.5 -158t-159.5 -51h-172q-96 0 -142 45.5t-46 140.5v66h211v-39q0 -39 39 -39h51q39 0 39 39v154q-85 -68 -174 -68h-4q-78 0 -121 43.5t-43 128.5zM270 322q0 -21 10.5 -30t36.5 -9 q21 0 56 10v665q-30 13 -56 13t-36.5 -9t-10.5 -30v-610z" />
<glyph unicode="h" horiz-adv-x="645" d="M39 0v1448h235v-348q45 40 81.5 59t84.5 19h19q72 0 110.5 -41t38.5 -123v-1014h-235v932q0 21 -10.5 30t-34.5 9t-54 -13v-958h-235z" />
<glyph unicode="i" horiz-adv-x="317" d="M37 1229v203h242v-203h-242zM41 0v1165h235v-1165h-235z" />
<glyph unicode="j" horiz-adv-x="319" d="M-20 -20h30q35 0 35 32v1153h234v-1181q0 -193 -193 -193h-106v189zM41 1229v203h242v-203h-242z" />
<glyph unicode="k" d="M39 0v1448h235v-832l109 549h242l-129 -571l125 -594h-250l-97 549v-549h-235z" />
<glyph unicode="l" horiz-adv-x="317" d="M41 0v1448h235v-1448h-235z" />
<glyph unicode="m" horiz-adv-x="976" d="M39 0v1165h231v-65q88 78 172 78h15q102 0 137 -86q83 86 182 86h12q72 0 111 -41t39 -123v-1014h-233v932q0 21 -9.5 30t-33.5 9q-26 0 -56 -13v-958h-235v932q0 21 -9 30t-32 9q-26 0 -56 -13v-958h-235z" />
<glyph unicode="n" horiz-adv-x="645" d="M39 0v1165h231v-65q44 39 83 58.5t87 19.5h19q72 0 110.5 -41t38.5 -123v-1014h-235v932q0 21 -10.5 30t-34.5 9t-54 -13v-958h-235z" />
<glyph unicode="o" horiz-adv-x="643" d="M35 205v753q0 220 217 220h139q217 0 217 -220v-753q0 -217 -217 -217h-139q-217 0 -217 217zM270 233q0 -38 39 -38h25q39 0 39 38v699q0 39 -39 39h-25q-39 0 -39 -39v-699z" />
<glyph unicode="p" horiz-adv-x="647" d="M39 -205v1370h231v-67q91 80 174 80h5q77 0 119 -44.5t42 -129.5v-844q0 -84 -42 -128t-119 -44h-5q-84 0 -170 69v-262h-235zM274 205q23 -10 58 -10q25 0 35 9t10 29v699q0 21 -10.5 30t-34.5 9q-28 0 -58 -13v-753z" />
<glyph unicode="q" horiz-adv-x="647" d="M35 160v844q0 85 43 129.5t121 44.5h4q87 0 174 -70v57h231v-1370h-235v273q-45 -39 -83.5 -59.5t-86.5 -20.5h-4q-78 0 -121 44t-43 128zM270 233q0 -21 10.5 -29.5t36.5 -8.5q33 0 56 10v753q-30 13 -56 13t-36.5 -9t-10.5 -30v-699z" />
<glyph unicode="r" horiz-adv-x="432" d="M39 0v1165h231v-108q31 63 63 91t81 28v-256q-89 -6 -140 -54v-866h-235z" />
<glyph unicode="s" horiz-adv-x="610" d="M35 205v235h225v-213q0 -39 39 -39h18q39 0 39 39v144q0 29 -8 43.5t-33 31.5l-165 105q-63 42 -89 87t-26 120v200q0 220 217 220h108q107 0 162.5 -55.5t55.5 -164.5v-223h-226v203q0 39 -39 39h-16q-37 0 -37 -39v-137q0 -30 8 -45.5t31 -30.5l166 -104 q64 -44 89.5 -88t25.5 -119v-209q0 -107 -55.5 -162t-162.5 -55h-110q-217 0 -217 217z" />
<glyph unicode="t" horiz-adv-x="413" d="M12 969v196h64v172h235v-172h92v-196h-92v-969h-235v969h-64z" />
<glyph unicode="u" horiz-adv-x="645" d="M37 150v1015h235v-932q0 -20 10 -29t35 -9q34 0 54 10v960h235v-1165h-231v63q-44 -37 -83 -56t-87 -19h-19q-72 0 -110.5 40.5t-38.5 121.5z" />
<glyph unicode="v" horiz-adv-x="612" d="M6 1165h232l75 -727l74 727h219l-149 -1165h-303z" />
<glyph unicode="w" horiz-adv-x="901" d="M8 1165h230l53 -649l67 649h203l66 -643l55 643h211l-141 -1165h-240l-61 532l-62 -532h-239z" />
<glyph unicode="x" horiz-adv-x="600" d="M2 0l141 557l-137 608h244l55 -348l68 348h223l-139 -563l141 -602h-242l-59 354l-72 -354h-223z" />
<glyph unicode="y" horiz-adv-x="608" d="M0 1165h233l68 -579l86 579h223l-260 -1370h-221l57 260z" />
<glyph unicode="z" horiz-adv-x="526" d="M23 0v195l241 772h-233v198h475v-196l-242 -770h242v-199h-483z" />
<glyph unicode="{" horiz-adv-x="458" d="M16 645v121l60 10q35 8 50 21.5t15 44.5v225q0 92 6.5 145.5t30.5 104t59 89.5t105 101l109 -47q-99 -122 -121.5 -183t-22.5 -208v-178q0 -144 -106 -184q57 -17 81.5 -54.5t24.5 -105.5v-207q0 -147 22.5 -208t121.5 -183l-109 -47q-70 62 -105 101t-59 89.5 t-30.5 103.5t-6.5 144v229q0 31 -15.5 44t-49.5 20z" />
<glyph unicode="|" horiz-adv-x="393" d="M121 -137v1700h153v-1700h-153z" />
<glyph unicode="}" horiz-adv-x="458" d="M6 -51q99 122 121.5 183t22.5 208v207q0 68 24.5 105.5t81.5 54.5q-106 40 -106 184v178q0 147 -22.5 208t-121.5 183l109 47q91 -82 130 -134.5t54.5 -118.5t15.5 -187v-225q0 -30 15.5 -44t50.5 -22l59 -10v-121l-59 -12q-35 -7 -50.5 -20t-15.5 -44v-229 q0 -120 -15.5 -185.5t-54.5 -118t-130 -134.5z" />
<glyph unicode="~" horiz-adv-x="665" d="M92 600v178q58 66 133 66h4q24 0 90 -17l31 -10q62 -22 94 -22h5q65 0 126 61v-178q-56 -66 -133 -66h-4q-39 0 -94 19l-31 10q-58 21 -90 21h-4q-65 0 -127 -62z" />
<glyph unicode="&#xa1;" horiz-adv-x="327" d="M45 0v416l51 655h135l52 -655v-416h-238zM57 1159v275h213v-275h-213z" />
<glyph unicode="&#xa2;" horiz-adv-x="620" d="M39 322v792q0 208 203 217v109h143v-111q197 -9 197 -215v-309h-224v287q0 38 -39 38h-14q-39 0 -39 -38v-748q0 -39 39 -39h17q38 0 38 39v324h224v-346q0 -103 -50.5 -158.5t-148.5 -59.5v-110h-141v110q-101 3 -153 58.5t-52 159.5z" />
<glyph unicode="&#xa3;" horiz-adv-x="704" d="M20 0v223h70v338h-70v217h70v436q0 230 232 230h120q232 0 232 -230v-286h-236v258q0 45 -43 45h-14q-45 0 -45 -45v-408h221v-217h-221v-338h342v-223h-658z" />
<glyph unicode="&#xa5;" horiz-adv-x="651" d="M-2 1434h256l80 -529l86 529h231l-188 -828h149v-125h-166v-61h166v-125h-166v-295h-241v295h-168v125h168v61h-168v125h145z" />
<glyph unicode="&#xa7;" horiz-adv-x="669" d="M47 219v234h236v-213q0 -45 43 -45h20q45 0 45 45v180q0 25 -9 40t-32 25l-198 88q-49 22 -72 49t-28 54.5t-5 83.5v43l449 -199q71 -34 100 -74.5t29 -121.5v-189q0 -231 -232 -231h-114q-232 0 -232 231zM47 1024v190q0 232 232 232h114q232 0 232 -232v-233h-234v215 q0 45 -45 45h-20q-43 0 -43 -45v-184q0 -45 39 -64l198 -90q70 -32 87.5 -68t17.5 -118v-41l-449 198q-71 32 -100 73t-29 122z" />
<glyph unicode="&#xa8;" horiz-adv-x="888" d="M236 1233v205h180v-205h-180zM473 1233v205h180v-205h-180z" />
<glyph unicode="&#xa9;" horiz-adv-x="886" d="M55 276v881q0 155 67.5 224t211.5 69h219q143 0 210.5 -69t67.5 -224v-881q0 -155 -67.5 -223.5t-210.5 -68.5h-219q-144 0 -211.5 68.5t-67.5 223.5zM102 276q0 -132 56 -190.5t176 -58.5h219q119 0 175 58.5t56 190.5v881q0 132 -56 191t-175 59h-219q-120 0 -176 -59 t-56 -191v-881zM223 319v797q0 160 170 160h99q172 0 172 -160v-321h-183v288q0 29 -28 29h-15q-28 0 -28 -29v-733q0 -28 28 -28h17q30 0 30 28v314h181v-345q0 -161 -170 -161h-103q-170 0 -170 161z" />
<glyph unicode="&#xaa;" horiz-adv-x="403" d="M39 936v135q0 46 15.5 72t54.5 39l124 35v96q0 26 -26 26h-14q-14 0 -22.5 -7t-8.5 -19v-80h-117v96q0 117 115 117h86q116 0 116 -117v-479h-124v45q-3 -3 -13 -12t-13 -11.5t-11.5 -8.5t-14 -8t-14.5 -5.5t-19 -4.5t-22 -1h-4q-40 0 -64 25t-24 67zM162 981 q0 -25 28 -25q26 0 43 11v149l-53 -18q-18 -9 -18 -37v-80z" />
<glyph unicode="&#xab;" horiz-adv-x="518" d="M10 588l117 327h160l-92 -327l92 -328h-160zM240 588l104 327h160l-80 -327l80 -328h-160z" />
<glyph unicode="&#xad;" horiz-adv-x="399" d="M18 481v211h363v-211h-363z" />
<glyph unicode="&#xae;" horiz-adv-x="536" d="M37 856v420q0 91 42 130.5t134 39.5h111q92 0 134 -39.5t42 -130.5v-420q0 -92 -42 -131t-134 -39h-111q-92 0 -134 39t-42 131zM72 856q0 -73 34 -105t107 -32h111q73 0 106 32t33 105v420q0 73 -33 104t-106 31h-111q-73 0 -107 -31.5t-34 -103.5v-420zM139 799v536 h172q95 0 95 -82v-137q0 -51 -46 -65q46 -8 46 -58v-194h-107v186q0 16 -18 16h-33v-202h-109zM248 1087h31q20 0 20 17v129q0 14 -20 14h-31v-160z" />
<glyph unicode="&#xaf;" horiz-adv-x="888" d="M238 1245v158h413v-158h-413z" />
<glyph unicode="&#xb0;" horiz-adv-x="462" d="M31 836v477q0 59 35 96t90 37h149q58 0 92.5 -37t34.5 -96v-477q0 -60 -35 -99t-92 -39h-149q-55 0 -90 39.5t-35 98.5zM182 870q0 -13 8 -22.5t19 -9.5h43q11 0 19 9.5t8 22.5v404q0 13 -8 23t-19 10h-43q-11 0 -19 -10t-8 -23v-404z" />
<glyph unicode="&#xb1;" horiz-adv-x="563" d="M20 356v158h523v-158h-523zM20 758v157h179v183h166v-183h178v-157h-178v-183h-166v183h-179z" />
<glyph unicode="&#xb4;" horiz-adv-x="888" d="M313 1233l68 205h229l-129 -205h-168z" />
<glyph unicode="&#xb6;" horiz-adv-x="636" d="M41 305v823q0 154 75 230t230 76h248v-1434h-135v1309h-101v-1309h-12q-155 0 -230 75.5t-75 229.5z" />
<glyph unicode="&#xb7;" horiz-adv-x="282" d="M31 520v275h221v-275h-221z" />
<glyph unicode="&#xb8;" horiz-adv-x="888" d="M326 -201l96 201h145l-43 -201h-198z" />
<glyph unicode="&#xba;" horiz-adv-x="413" d="M41 963v364q0 55 31.5 87t87.5 32h94q58 0 88.5 -31.5t30.5 -87.5v-364q0 -56 -30.5 -87.5t-88.5 -31.5h-94q-56 0 -87.5 32t-31.5 87zM168 983q0 -11 7.5 -19t17.5 -8h28q11 0 18 8t7 19v326q0 10 -7 17t-18 7h-28q-10 0 -17.5 -7.5t-7.5 -16.5v-326z" />
<glyph unicode="&#xbb;" horiz-adv-x="518" d="M12 260l80 328l-80 327h160l104 -327l-104 -328h-160zM229 260l93 328l-93 327h160l117 -327l-117 -328h-160z" />
<glyph unicode="&#xbf;" horiz-adv-x="622" d="M25 219v264q0 67 18.5 117t67.5 107l96 124q33 40 33 109v145h182v-241q0 -69 -13 -108t-55 -87l-49 -67q-39 -44 -39 -103v-231q0 -45 45 -45h17q43 0 43 45v287h225v-316q0 -229 -229 -229h-113q-229 0 -229 229zM223 1159v275h215v-275h-215z" />
<glyph unicode="&#xc0;" horiz-adv-x="684" d="M8 0l164 1434h340l164 -1434h-248l-20 209h-154l-18 -209h-228zM115 1667h235l84 -170h-176zM272 426h117l-59 661z" />
<glyph unicode="&#xc1;" horiz-adv-x="684" d="M8 0l164 1434h340l164 -1434h-248l-20 209h-154l-18 -209h-228zM256 1497l80 170h229l-141 -170h-168zM272 426h117l-59 661z" />
<glyph unicode="&#xc2;" horiz-adv-x="684" d="M8 0l164 1434h340l164 -1434h-248l-20 209h-154l-18 -209h-228zM125 1497l129 184h176l129 -184h-143l-74 62l-74 -62h-143zM272 426h117l-59 661z" />
<glyph unicode="&#xc3;" horiz-adv-x="684" d="M8 0l164 1434h340l164 -1434h-248l-20 209h-154l-18 -209h-228zM123 1497v90q0 99 90 99h29q29 0 44 -4t38 -17l51 -29q29 -14 47 -14t18 20v44h123v-91q0 -98 -92 -98h-29q-29 0 -43.5 4t-36.5 17l-53 28q-31 15 -47 15q-18 0 -18 -23v-41h-121zM272 426h117l-59 661z " />
<glyph unicode="&#xc4;" horiz-adv-x="684" d="M8 0l164 1434h340l164 -1434h-248l-20 209h-154l-18 -209h-228zM129 1497v170h184v-170h-184zM272 426h117l-59 661zM371 1497v170h184v-170h-184z" />
<glyph unicode="&#xc5;" horiz-adv-x="677" d="M6 -2l162 1374q-23 23 -23 66v8q0 46 31.5 73t93.5 27h138q62 0 92 -27t30 -73v-8q0 -38 -18 -62l160 -1376h-246l-18 209h-158l-19 -209zM195 1438q0 -58 75 -58h138q75 0 75 58v8q0 57 -75 57h-138q-75 0 -75 -57v-8zM268 426h119l-57 670z" />
<glyph unicode="&#xc6;" horiz-adv-x="874" d="M8 0l205 1434h625v-222h-213v-374h204v-222h-204v-393h217v-223h-467v209h-115l-27 -209h-225zM287 426h88v772z" />
<glyph unicode="&#xc7;" horiz-adv-x="696" d="M41 219v995q0 232 231 232h150q229 0 229 -232v-380h-243v354q0 45 -46 45h-28q-43 0 -43 -45v-942q0 -45 43 -45h33q45 0 45 45v391h243v-418q0 -117 -57 -174t-174 -57l-39 -189h-199l90 189h-4q-117 0 -174 57t-57 174z" />
<glyph unicode="&#xc8;" horiz-adv-x="542" d="M45 0v1434h461v-222h-213v-374h205v-222h-205v-393h217v-223h-465zM47 1667h236l84 -170h-177z" />
<glyph unicode="&#xc9;" horiz-adv-x="542" d="M45 0v1434h461v-222h-213v-374h205v-222h-205v-393h217v-223h-465zM190 1497l80 170h230l-142 -170h-168z" />
<glyph unicode="&#xca;" horiz-adv-x="542" d="M45 0v1434h461v-222h-213v-374h205v-222h-205v-393h217v-223h-465zM59 1497l129 184h177l129 -184h-144l-74 62l-73 -62h-144z" />
<glyph unicode="&#xcb;" horiz-adv-x="542" d="M45 0v1434h461v-222h-213v-374h205v-222h-205v-393h217v-223h-465zM63 1497v170h185v-170h-185zM305 1497v170h184v-170h-184z" />
<glyph unicode="&#xcc;" horiz-adv-x="342" d="M-57 1667h235l84 -170h-176zM47 0v1434h248v-1434h-248z" />
<glyph unicode="&#xcd;" horiz-adv-x="342" d="M47 0v1434h248v-1434h-248zM86 1497l80 170h229l-141 -170h-168z" />
<glyph unicode="&#xce;" horiz-adv-x="342" d="M-45 1497l129 184h176l129 -184h-143l-74 62l-74 -62h-143zM47 0v1434h248v-1434h-248z" />
<glyph unicode="&#xcf;" horiz-adv-x="342" d="M-41 1497v170h184v-170h-184zM47 0v1434h248v-1434h-248zM201 1497v170h184v-170h-184z" />
<glyph unicode="&#xd0;" horiz-adv-x="718" d="M0 633v188h61v613h351q266 0 266 -267v-901q0 -266 -266 -266h-351v633h-61zM309 213h51q68 0 68 70v868q0 70 -68 70h-51v-400h74v-188h-74v-420z" />
<glyph unicode="&#xd1;" horiz-adv-x="696" d="M45 0v1434h254l150 -742l-9 406l-2 336h213v-1434h-239l-164 801l8 -381l4 -420h-215zM137 1497v90q0 99 90 99h29q29 0 44 -4t38 -17l51 -29q29 -14 47 -14q19 0 19 20v44h123v-91q0 -98 -93 -98h-28q-29 0 -43.5 4t-36.5 17l-53 28q-31 15 -48 15q-18 0 -18 -23v-41 h-121z" />
<glyph unicode="&#xd2;" horiz-adv-x="704" d="M41 221v993q0 232 231 232h160q232 0 232 -232v-993q0 -233 -232 -233h-160q-231 0 -231 233zM125 1667h235l84 -170h-176zM291 248q0 -45 43 -45h37q43 0 43 45v940q0 45 -43 45h-37q-43 0 -43 -45v-940z" />
<glyph unicode="&#xd3;" horiz-adv-x="704" d="M41 221v993q0 232 231 232h160q232 0 232 -232v-993q0 -233 -232 -233h-160q-231 0 -231 233zM266 1497l80 170h229l-141 -170h-168zM291 248q0 -45 43 -45h37q43 0 43 45v940q0 45 -43 45h-37q-43 0 -43 -45v-940z" />
<glyph unicode="&#xd4;" horiz-adv-x="704" d="M41 221v993q0 232 231 232h160q232 0 232 -232v-993q0 -233 -232 -233h-160q-231 0 -231 233zM135 1497l129 184h176l129 -184h-143l-74 62l-73 -62h-144zM291 248q0 -45 43 -45h37q43 0 43 45v940q0 45 -43 45h-37q-43 0 -43 -45v-940z" />
<glyph unicode="&#xd5;" horiz-adv-x="704" d="M41 221v993q0 232 231 232h160q232 0 232 -232v-993q0 -233 -232 -233h-160q-231 0 -231 233zM133 1497v90q0 99 90 99h29q29 0 44 -4t38 -17l51 -29q29 -14 47 -14q19 0 19 20v44h122v-91q0 -98 -92 -98h-28q-29 0 -43.5 4t-36.5 17l-54 28q-31 15 -47 15q-18 0 -18 -23 v-41h-121zM291 248q0 -45 43 -45h37q43 0 43 45v940q0 45 -43 45h-37q-43 0 -43 -45v-940z" />
<glyph unicode="&#xd6;" horiz-adv-x="704" d="M41 221v993q0 232 231 232h160q232 0 232 -232v-993q0 -233 -232 -233h-160q-231 0 -231 233zM139 1497v170h185v-170h-185zM291 248q0 -45 43 -45h37q43 0 43 45v940q0 45 -43 45h-37q-43 0 -43 -45v-940zM381 1497v170h184v-170h-184z" />
<glyph unicode="&#xd7;" horiz-adv-x="565" d="M27 584l141 139l-141 141l116 117l142 -141l139 141l113 -113l-140 -139l140 -141l-117 -117l-141 139l-140 -139z" />
<glyph unicode="&#xd8;" horiz-adv-x="704" d="M41 219v995q0 232 231 232h160q232 0 232 -232v-995q0 -231 -232 -231h-160q-117 0 -174 57t-57 174zM283 604l135 565v15q0 49 -47 49h-35q-47 0 -47 -49l-2 -178zM287 250q0 -49 47 -49h35q47 0 47 49l2 223l2 363l-133 -568v-18z" />
<glyph unicode="&#xd9;" horiz-adv-x="698" d="M43 221v1213h248v-1186q0 -45 45 -45h26q46 0 46 45v1186h247v-1213q0 -117 -57 -174t-174 -57h-150q-117 0 -174 57t-57 174zM121 1667h235l84 -170h-176z" />
<glyph unicode="&#xda;" horiz-adv-x="698" d="M43 221v1213h248v-1186q0 -45 45 -45h26q46 0 46 45v1186h247v-1213q0 -117 -57 -174t-174 -57h-150q-117 0 -174 57t-57 174zM264 1497l80 170h229l-141 -170h-168z" />
<glyph unicode="&#xdb;" horiz-adv-x="698" d="M43 221v1213h248v-1186q0 -45 45 -45h26q46 0 46 45v1186h247v-1213q0 -117 -57 -174t-174 -57h-150q-117 0 -174 57t-57 174zM133 1497l129 184h176l129 -184h-143l-74 62l-74 -62h-143z" />
<glyph unicode="&#xdc;" horiz-adv-x="698" d="M43 221v1213h248v-1186q0 -45 45 -45h26q46 0 46 45v1186h247v-1213q0 -117 -57 -174t-174 -57h-150q-117 0 -174 57t-57 174zM137 1497v170h185v-170h-185zM379 1497v170h184v-170h-184z" />
<glyph unicode="&#xdd;" horiz-adv-x="659" d="M-2 1434h260l82 -529l90 529h236l-209 -936v-498h-250v473zM254 1497l80 170h229l-141 -170h-168z" />
<glyph unicode="&#xde;" horiz-adv-x="665" d="M45 0v1434h248v-244h117q229 0 229 -232v-473q0 -231 -229 -231h-117v-254h-248zM293 467h53q45 0 45 45v420q0 45 -45 45h-53v-510z" />
<glyph unicode="&#xdf;" horiz-adv-x="651" d="M39 0v1221q0 231 231 231h111q231 0 231 -231v-283q0 -77 -25.5 -121t-76.5 -63q55 -15 80.5 -53.5t25.5 -106.5v-377q0 -217 -217 -217h-80v207h25q39 0 39 39v352q0 41 -39 41h-25v207h21q22 0 31.5 9.5t9.5 31.5v311q0 25 -10 36t-33 11h-21q-43 0 -43 -47v-1198h-235 z" />
<glyph unicode="&#xe0;" d="M33 150v317q0 82 28.5 122.5t102.5 67.5l192 66v217q0 39 -39 39h-14q-43 0 -43 -39v-186h-217v204q0 220 217 220h111q215 0 215 -220v-958h-228v63q-45 -38 -83.5 -56.5t-88.5 -18.5h-4q-72 0 -110.5 42t-38.5 120zM96 1438h230l67 -205h-168zM256 229q0 -21 10.5 -30 t34.5 -9q23 0 55 9v336l-65 -29q-21 -9 -28 -20t-7 -35v-222z" />
<glyph unicode="&#xe1;" d="M33 150v317q0 82 28.5 122.5t102.5 67.5l192 66v217q0 39 -39 39h-14q-43 0 -43 -39v-186h-217v204q0 220 217 220h111q215 0 215 -220v-958h-228v63q-45 -38 -83.5 -56.5t-88.5 -18.5h-4q-72 0 -110.5 42t-38.5 120zM229 1233l68 205h229l-129 -205h-168zM256 229 q0 -21 10.5 -30t34.5 -9q23 0 55 9v336l-65 -29q-21 -9 -28 -20t-7 -35v-222z" />
<glyph unicode="&#xe2;" d="M33 150v317q0 82 28.5 122.5t102.5 67.5l192 66v217q0 39 -39 39h-14q-43 0 -43 -39v-186h-217v204q0 220 217 220h111q215 0 215 -220v-958h-228v63q-45 -38 -83.5 -56.5t-88.5 -18.5h-4q-72 0 -110.5 42t-38.5 120zM111 1233l120 205h177l120 -205h-143l-66 78l-65 -78 h-143zM256 229q0 -21 10.5 -30t34.5 -9q23 0 55 9v336l-65 -29q-21 -9 -28 -20t-7 -35v-222z" />
<glyph unicode="&#xe3;" d="M33 150v317q0 82 28.5 122.5t102.5 67.5l192 66v217q0 39 -39 39h-14q-43 0 -43 -39v-186h-217v204q0 220 217 220h111q215 0 215 -220v-958h-228v63q-45 -38 -83.5 -56.5t-88.5 -18.5h-4q-72 0 -110.5 42t-38.5 120zM102 1233v106q0 99 91 99h26q31 0 45.5 -4t34.5 -17 l55 -37q26 -16 41 -16q19 0 19 22v52h123v-107q0 -98 -91 -98h-26q-32 0 -46 3.5t-34 16.5l-55 37q-6 3 -13.5 7.5l-10 6t-7 2.5t-10.5 1q-19 0 -19 -23v-51h-123zM256 229q0 -21 10.5 -30t34.5 -9q23 0 55 9v336l-65 -29q-21 -9 -28 -20t-7 -35v-222z" />
<glyph unicode="&#xe4;" d="M33 150v317q0 82 28.5 122.5t102.5 67.5l192 66v217q0 39 -39 39h-14q-43 0 -43 -39v-186h-217v204q0 220 217 220h111q215 0 215 -220v-958h-228v63q-45 -38 -83.5 -56.5t-88.5 -18.5h-4q-72 0 -110.5 42t-38.5 120zM111 1233v205h180v-205h-180zM256 229 q0 -21 10.5 -30t34.5 -9q23 0 55 9v336l-65 -29q-21 -9 -28 -20t-7 -35v-222zM348 1233v205h180v-205h-180z" />
<glyph unicode="&#xe5;" d="M33 150v317q0 82 28.5 122.5t102.5 67.5l192 66v217q0 39 -39 39h-14q-43 0 -43 -39v-186h-217v204q0 220 217 220h111q215 0 215 -220v-958h-228v63q-45 -38 -83.5 -56.5t-88.5 -18.5h-4q-72 0 -110.5 42t-38.5 120zM162 1329v12q0 47 29 75t90 28h77q61 0 90 -28 t29 -75v-12q0 -46 -29 -73t-90 -27h-77q-61 0 -90 27t-29 73zM207 1329q0 -61 74 -61h77q74 0 74 61v12q0 64 -74 64h-77q-74 0 -74 -64v-12zM256 229q0 -21 10.5 -30t34.5 -9q23 0 55 9v336l-65 -29q-21 -9 -28 -20t-7 -35v-222z" />
<glyph unicode="&#xe6;" horiz-adv-x="946" d="M33 150v317q0 82 28.5 122.5t102.5 67.5l192 66v217q0 39 -39 39h-14q-43 0 -43 -39v-186h-217v204q0 220 217 220h74q88 0 137 -60q24 29 53.5 44.5t81.5 15.5h88q215 0 215 -220v-466h-323v-263q0 -39 39 -39h22q39 0 39 39v170h223v-194q0 -217 -215 -217h-123 q-132 0 -186 86q-67 -47 -108 -66.5t-91 -19.5h-4q-72 0 -110.5 42t-38.5 120zM256 229q0 -21 10.5 -30t34.5 -9q23 0 55 9v338l-65 -31q-21 -9 -28 -20t-7 -35v-222zM586 672h96v266q0 39 -39 39h-18q-39 0 -39 -39v-266z" />
<glyph unicode="&#xe7;" horiz-adv-x="628" d="M35 205v753q0 220 217 220h127q217 0 217 -220v-286h-229v260q0 39 -39 39h-19q-39 0 -39 -39v-699q0 -38 39 -38h21q39 0 39 38v285h227v-313q0 -211 -205 -217l-39 -189h-198l90 189q-209 6 -209 217z" />
<glyph unicode="&#xe8;" d="M35 205v753q0 220 217 220h121q217 0 217 -220v-466h-324v-263q0 -39 39 -39h23q39 0 39 39v170h223v-194q0 -217 -217 -217h-121q-217 0 -217 217zM102 1438h230l67 -205h-168zM266 672h96v266q0 39 -38 39h-19q-39 0 -39 -39v-266z" />
<glyph unicode="&#xe9;" d="M35 205v753q0 220 217 220h121q217 0 217 -220v-466h-324v-263q0 -39 39 -39h23q39 0 39 39v170h223v-194q0 -217 -217 -217h-121q-217 0 -217 217zM229 1233l68 205h229l-129 -205h-168zM266 672h96v266q0 39 -38 39h-19q-39 0 -39 -39v-266z" />
<glyph unicode="&#xea;" d="M35 205v753q0 220 217 220h121q217 0 217 -220v-466h-324v-263q0 -39 39 -39h23q39 0 39 39v170h223v-194q0 -217 -217 -217h-121q-217 0 -217 217zM104 1233l121 205h176l121 -205h-143l-66 78l-65 -78h-144zM266 672h96v266q0 39 -38 39h-19q-39 0 -39 -39v-266z" />
<glyph unicode="&#xeb;" d="M35 205v753q0 220 217 220h121q217 0 217 -220v-466h-324v-263q0 -39 39 -39h23q39 0 39 39v170h223v-194q0 -217 -217 -217h-121q-217 0 -217 217zM104 1233v205h181v-205h-181zM266 672h96v266q0 39 -38 39h-19q-39 0 -39 -39v-266zM342 1233v205h180v-205h-180z" />
<glyph unicode="&#xec;" horiz-adv-x="317" d="M-51 1438h229l68 -205h-168zM41 0v1165h235v-1165h-235z" />
<glyph unicode="&#xed;" horiz-adv-x="317" d="M41 0v1165h235v-1165h-235zM74 1233l67 205h230l-129 -205h-168z" />
<glyph unicode="&#xee;" horiz-adv-x="317" d="M-49 1233l121 205h176l121 -205h-144l-65 78l-66 -78h-143zM41 0v1165h235v-1165h-235z" />
<glyph unicode="&#xef;" horiz-adv-x="317" d="M-49 1233v205h180v-205h-180zM41 0v1165h235v-1165h-235zM188 1233v205h181v-205h-181z" />
<glyph unicode="&#xf0;" horiz-adv-x="645" d="M35 205v792q0 85 43 129.5t121 44.5h4q105 0 184 -79v32q0 33 -12.5 48.5t-46.5 29.5l-183 76l86 174l168 -74l39 70h160l-74 -127q84 -51 84 -164v-952q0 -217 -217 -217h-139q-217 0 -217 217zM270 233q0 -38 39 -38h25q39 0 39 38v699q0 39 -39 39h-25q-39 0 -39 -39 v-699z" />
<glyph unicode="&#xf1;" horiz-adv-x="645" d="M39 0v1165h231v-65q44 39 83 58.5t87 19.5h19q72 0 110.5 -41t38.5 -123v-1014h-235v932q0 21 -10.5 30t-34.5 9t-54 -13v-958h-235zM109 1233v106q0 99 90 99h26q31 0 45.5 -4t34.5 -17l55 -37q26 -16 41 -16q19 0 19 22v52h123v-107q0 -98 -90 -98h-27q-32 0 -46 3.5 t-34 16.5l-55 37q-6 3 -13.5 7.5l-10 6t-7 2.5t-10.5 1q-19 0 -19 -23v-51h-122z" />
<glyph unicode="&#xf2;" horiz-adv-x="643" d="M35 205v753q0 220 217 220h139q217 0 217 -220v-753q0 -217 -217 -217h-139q-217 0 -217 217zM111 1438h229l68 -205h-168zM270 233q0 -38 39 -38h25q39 0 39 38v699q0 39 -39 39h-25q-39 0 -39 -39v-699z" />
<glyph unicode="&#xf3;" horiz-adv-x="643" d="M35 205v753q0 220 217 220h139q217 0 217 -220v-753q0 -217 -217 -217h-139q-217 0 -217 217zM238 1233l67 205h230l-129 -205h-168zM270 233q0 -38 39 -38h25q39 0 39 38v699q0 39 -39 39h-25q-39 0 -39 -39v-699z" />
<glyph unicode="&#xf4;" horiz-adv-x="643" d="M35 205v753q0 220 217 220h139q217 0 217 -220v-753q0 -217 -217 -217h-139q-217 0 -217 217zM115 1233l121 205h176l120 -205h-143l-65 78l-66 -78h-143zM270 233q0 -38 39 -38h25q39 0 39 38v699q0 39 -39 39h-25q-39 0 -39 -39v-699z" />
<glyph unicode="&#xf5;" horiz-adv-x="643" d="M35 205v753q0 220 217 220h139q217 0 217 -220v-753q0 -217 -217 -217h-139q-217 0 -217 217zM106 1233v106q0 99 91 99h26q31 0 45.5 -4t34.5 -17l55 -37q26 -16 41 -16q19 0 19 22v52h123v-107q0 -98 -90 -98h-27q-32 0 -46 3.5t-34 16.5l-55 37q-6 3 -13.5 7.5l-10 6 t-7 2.5t-10.5 1q-19 0 -19 -23v-51h-123zM270 233q0 -38 39 -38h25q39 0 39 38v699q0 39 -39 39h-25q-39 0 -39 -39v-699z" />
<glyph unicode="&#xf6;" horiz-adv-x="643" d="M35 205v753q0 220 217 220h139q217 0 217 -220v-753q0 -217 -217 -217h-139q-217 0 -217 217zM113 1233v205h180v-205h-180zM270 233q0 -38 39 -38h25q39 0 39 38v699q0 39 -39 39h-25q-39 0 -39 -39v-699zM350 1233v205h180v-205h-180z" />
<glyph unicode="&#xf7;" horiz-adv-x="563" d="M20 647v158h523v-158h-523zM199 430v164h166v-164h-166zM199 858v164h166v-164h-166z" />
<glyph unicode="&#xf8;" horiz-adv-x="643" d="M35 205v753q0 218 217 218h139q217 0 217 -218v-753q0 -217 -217 -217h-139q-217 0 -217 217zM266 496l109 407v27q0 41 -41 41h-25q-41 0 -41 -41v-86zM268 233q0 -38 41 -38h25q41 0 41 38v107v326l-107 -408v-25z" />
<glyph unicode="&#xf9;" horiz-adv-x="645" d="M37 150v1015h235v-932q0 -20 10 -29t35 -9q34 0 54 10v960h235v-1165h-231v63q-44 -37 -83 -56t-87 -19h-19q-72 0 -110.5 40.5t-38.5 121.5zM111 1438h229l68 -205h-168z" />
<glyph unicode="&#xfa;" horiz-adv-x="645" d="M37 150v1015h235v-932q0 -20 10 -29t35 -9q34 0 54 10v960h235v-1165h-231v63q-44 -37 -83 -56t-87 -19h-19q-72 0 -110.5 40.5t-38.5 121.5zM238 1233l67 205h230l-129 -205h-168z" />
<glyph unicode="&#xfb;" horiz-adv-x="645" d="M37 150v1015h235v-932q0 -20 10 -29t35 -9q34 0 54 10v960h235v-1165h-231v63q-44 -37 -83 -56t-87 -19h-19q-72 0 -110.5 40.5t-38.5 121.5zM115 1233l121 205h176l120 -205h-143l-65 78l-66 -78h-143z" />
<glyph unicode="&#xfc;" horiz-adv-x="645" d="M37 150v1015h235v-932q0 -20 10 -29t35 -9q34 0 54 10v960h235v-1165h-231v63q-44 -37 -83 -56t-87 -19h-19q-72 0 -110.5 40.5t-38.5 121.5zM113 1233v205h180v-205h-180zM350 1233v205h180v-205h-180z" />
<glyph unicode="&#xfd;" horiz-adv-x="608" d="M0 1165h233l68 -579l86 579h223l-260 -1370h-221l57 260zM221 1233l68 205h229l-129 -205h-168z" />
<glyph unicode="&#xfe;" horiz-adv-x="647" d="M39 -205v1653h235v-350q45 39 83.5 59.5t86.5 20.5h5q77 0 119 -44.5t42 -129.5v-844q0 -85 -41.5 -128.5t-119.5 -43.5h-5q-84 0 -170 69v-262h-235zM274 205q28 -12 56 -12q26 0 36.5 9.5t10.5 30.5v699q0 21 -10.5 30t-36.5 9t-56 -13v-753z" />
<glyph unicode="&#xff;" horiz-adv-x="608" d="M0 1165h233l68 -579l86 579h223l-260 -1370h-221l57 260zM96 1233v205h180v-205h-180zM334 1233v205h180v-205h-180z" />
<glyph unicode="&#x152;" horiz-adv-x="909" d="M41 266v901q0 135 65.5 201t200.5 66h563v-222h-213v-354h205v-223h-205v-412h217v-223h-567q-135 0 -200.5 65.5t-65.5 200.5zM291 283q0 -70 67 -70h52v1008h-52q-67 0 -67 -70v-868z" />
<glyph unicode="&#x153;" horiz-adv-x="962" d="M35 205v753q0 220 217 220h104q90 0 133 -56q46 56 136 56h86q217 0 217 -220v-466h-324v-263q0 -39 39 -39h23q39 0 39 39v170h223v-194q0 -217 -217 -217h-86q-52 0 -82 12.5t-51 40.5q-23 -28 -53.5 -40.5t-82.5 -12.5h-104q-217 0 -217 217zM270 233q0 -38 39 -38h25 q39 0 39 32v705q0 39 -39 39h-25q-39 0 -39 -39v-699zM604 672h96v266q0 39 -38 39h-19q-39 0 -39 -39v-266z" />
<glyph unicode="&#x178;" horiz-adv-x="659" d="M-2 1434h260l82 -529l90 529h236l-209 -936v-498h-250v473zM129 1497v170h184v-170h-184zM371 1497v170h184v-170h-184z" />
<glyph unicode="&#x2c6;" horiz-adv-x="888" d="M236 1233l120 205h176l121 -205h-143l-66 78l-65 -78h-143z" />
<glyph unicode="&#x2dc;" horiz-adv-x="888" d="M227 1233v106q0 99 90 99h27q31 0 45.5 -4t34.5 -17l55 -37q26 -16 41 -16q19 0 19 22v52h123v-107q0 -98 -91 -98h-26q-32 0 -46 3.5t-34 16.5l-55 37q-6 3 -13.5 7.5l-10 6t-7 2.5t-10.5 1q-19 0 -19 -23v-51h-123z" />
<glyph unicode="&#x2000;" horiz-adv-x="843" />
<glyph unicode="&#x2001;" horiz-adv-x="1686" />
<glyph unicode="&#x2002;" horiz-adv-x="843" />
<glyph unicode="&#x2003;" horiz-adv-x="1686" />
<glyph unicode="&#x2004;" horiz-adv-x="562" />
<glyph unicode="&#x2005;" horiz-adv-x="421" />
<glyph unicode="&#x2006;" horiz-adv-x="281" />
<glyph unicode="&#x2007;" horiz-adv-x="281" />
<glyph unicode="&#x2008;" horiz-adv-x="210" />
<glyph unicode="&#x2009;" horiz-adv-x="337" />
<glyph unicode="&#x200a;" horiz-adv-x="93" />
<glyph unicode="&#x2010;" horiz-adv-x="399" d="M18 481v211h363v-211h-363z" />
<glyph unicode="&#x2011;" horiz-adv-x="399" d="M18 481v211h363v-211h-363z" />
<glyph unicode="&#x2012;" horiz-adv-x="399" d="M18 481v211h363v-211h-363z" />
<glyph unicode="&#x2013;" horiz-adv-x="681" d="M18 506v164h648v-164h-648z" />
<glyph unicode="&#x2014;" horiz-adv-x="1019" d="M18 506v164h986v-164h-986z" />
<glyph unicode="&#x2018;" horiz-adv-x="290" d="M31 911v201q0 91 16.5 138.5t75.5 131.5l41 56l86 -27l-23 -47q-33 -70 -45.5 -104t-15.5 -74h82v-275h-217z" />
<glyph unicode="&#x2019;" horiz-adv-x="290" d="M41 934l22 47q33 69 45 103t15 75h-80v275h217v-201q0 -91 -16.5 -138.5t-75.5 -131.5l-41 -56z" />
<glyph unicode="&#x201a;" horiz-adv-x="278" d="M33 -225l22 47q32 68 44.5 103t15.5 75h-80v274h217v-200q0 -91 -16.5 -139t-75.5 -132l-41 -55z" />
<glyph unicode="&#x201c;" horiz-adv-x="552" d="M29 911v201q0 92 16 139.5t74 130.5l41 56l84 -27l-23 -47q-33 -70 -46 -104t-17 -74h84v-275h-213zM295 911v201q0 92 16 139.5t76 130.5l39 56l84 -27l-23 -47q-33 -70 -45.5 -104t-15.5 -74h82v-275h-213z" />
<glyph unicode="&#x201d;" horiz-adv-x="552" d="M41 934l22 47q33 69 45 103t15 75h-80v275h213v-201q0 -92 -16 -139.5t-76 -130.5l-39 -56zM307 934l23 47q24 51 33.5 72t17.5 49.5t10 56.5h-82v275h213v-201q0 -92 -16 -139.5t-74 -130.5l-41 -56z" />
<glyph unicode="&#x201e;" horiz-adv-x="540" d="M33 -225l22 47q32 68 44.5 103t15.5 75h-80v274h213v-200q0 -93 -16 -140.5t-76 -130.5l-39 -55zM299 -225l23 47q33 70 45.5 104t15.5 74h-82v274h213v-200q0 -92 -16 -140t-74 -131l-41 -55z" />
<glyph unicode="&#x2022;" horiz-adv-x="438" d="M55 639v166q0 119 131 119h64q133 0 133 -119v-166q0 -119 -133 -119h-64q-131 0 -131 119z" />
<glyph unicode="&#x2026;" horiz-adv-x="843" d="M31 0v274h221v-274h-221zM309 0v274h221v-274h-221zM590 0v274h221v-274h-221z" />
<glyph unicode="&#x202f;" horiz-adv-x="337" />
<glyph unicode="&#x2039;" horiz-adv-x="354" d="M10 588l144 327h186l-119 -327l119 -328h-186z" />
<glyph unicode="&#x203a;" horiz-adv-x="354" d="M12 260l119 328l-119 327h187l143 -327l-143 -328h-187z" />
<glyph unicode="&#x205f;" horiz-adv-x="421" />
<glyph unicode="&#x20ac;" horiz-adv-x="700" d="M16 571v125h66v58h-66v125h66v335q0 232 231 232h121q232 0 232 -232v-266h-238v240q0 45 -43 45h-14q-45 0 -45 -45v-309h252v-125h-252v-58h252v-125h-252v-325q0 -45 45 -45h16q45 0 45 45v250h238v-277q0 -231 -232 -231h-125q-117 0 -174 57t-57 174v352h-66z" />
<glyph unicode="&#x2122;" horiz-adv-x="833" d="M45 1331v103h283v-103h-82v-522h-119v522h-82zM358 809v625h162l39 -424l39 424h166v-625h-115v455l-49 -455h-100l-49 455v-455h-93z" />
<glyph unicode="&#x25fc;" horiz-adv-x="1167" d="M0 0v1167h1167v-1167h-1167z" />
<glyph unicode="&#xfb01;" horiz-adv-x="741" d="M16 969v196h56v88q0 195 192 195h156v-193h-80q-35 0 -35 -32v-58h109v-196h-109v-969h-233v969h-56zM461 1229v203h241v-203h-241zM465 0v1165h235v-1165h-235z" />
<glyph unicode="&#xfb02;" horiz-adv-x="741" d="M16 969v196h56v88q0 195 192 195h156v-193h-80q-35 0 -35 -32v-58h109v-196h-109v-969h-233v969h-56zM465 0v1448h235v-1448h-235z" />
<glyph unicode="&#xfb03;" horiz-adv-x="1165" d="M16 969v196h56v88q0 195 192 195h156v-193h-80q-35 0 -35 -32v-58h109v-196h-109v-969h-233v969h-56zM440 969v196h56v88q0 195 192 195h156v-193h-80q-35 0 -35 -32v-58h109v-196h-109v-969h-233v969h-56zM885 1229v203h241v-203h-241zM889 0v1165h235v-1165h-235z" />
<glyph unicode="&#xfb04;" horiz-adv-x="1165" d="M16 969v196h56v88q0 195 192 195h156v-193h-80q-35 0 -35 -32v-58h109v-196h-109v-969h-233v969h-56zM440 969v196h56v88q0 195 192 195h156v-193h-80q-35 0 -35 -32v-58h109v-196h-109v-969h-233v969h-56zM889 0v1448h235v-1448h-235z" />
</font>
</defs>
</svg>
