<?xml version="1.0" standalone="no"?>
<!DOCTYPE svg PUBLIC "-//W3C//DTD SVG 1.1//EN" "http://www.w3.org/Graphics/SVG/1.1/DTD/svg11.dtd" >
<svg xmlns="http://www.w3.org/2000/svg">
<metadata></metadata>
<defs>
<font id="tungsten_compressedblack" horiz-adv-x="464" >
<font-face units-per-em="2048" ascent="1638" descent="-410" />
<missing-glyph horiz-adv-x="110" />
<glyph horiz-adv-x="2048" />
<glyph horiz-adv-x="2048" />
<glyph unicode="&#xd;" horiz-adv-x="2048" />
<glyph unicode=" "  horiz-adv-x="110" />
<glyph unicode="&#x09;" horiz-adv-x="110" />
<glyph unicode="&#xa0;" horiz-adv-x="110" />
<glyph unicode="!" horiz-adv-x="233" d="M16 1071v363h201v-363l-37 -797h-127zM33 0v223h168v-223h-168z" />
<glyph unicode="&#x22;" horiz-adv-x="401" d="M25 1018l10 416h172l-41 -416h-141zM213 1018l10 416h172l-41 -416h-141z" />
<glyph unicode="#" horiz-adv-x="448" d="M8 299v203l51 18v291l-51 -18v202l51 17v424h148v-375l35 12v363h147v-314l51 19v-191l-51 -18v-293l51 18v-202l-51 -19v-438h-147v385l-35 -12v-373h-148v319zM207 567l35 13v299l-35 -13v-299z" />
<glyph unicode="$" horiz-adv-x="468" d="M14 180v414h197v-412q0 -16 16 -16h15q14 0 14 16v379q0 22 -16 33l-150 117q-42 33 -59 70.5t-17 92.5v381q0 172 156 181v75h133v-75q152 -12 152 -181v-395h-199v393q0 15 -14 15h-13q-14 0 -14 -15v-362q0 -22 16 -33l152 -117q41 -33 57.5 -70.5t16.5 -92.5v-398 q0 -173 -154 -182v-80h-133v80q-156 9 -156 182z" />
<glyph unicode="%" horiz-adv-x="587" d="M12 727v602q0 113 115 113h59q113 0 113 -113v-352l80 459h117l-125 -605q21 9 45 9h45q114 0 114 -113v-623q0 -112 -114 -112h-60q-114 0 -114 112v357l-80 -463h-115l125 625q-21 -9 -47 -9h-43q-115 0 -115 113zM143 741q0 -10 11 -10h14q10 0 10 10v572q0 10 -10 10 h-14q-11 0 -11 -10v-572zM410 121q0 -10 10 -10h14q10 0 10 10v592q0 10 -10 10h-14q-10 0 -10 -10v-592z" />
<glyph unicode="&#x26;" horiz-adv-x="620" d="M12 162v459q0 56 16.5 90.5t61.5 76.5l19 17l-21 53q-31 85 -31 162v237q0 185 185 185h67q185 0 185 -185v-323h-189v317q0 19 -16 19h-19q-16 0 -16 -19v-223q0 -58 20 -117l84 -247l41 194h189v-4l-113 -465l141 -385v-4h-198l-45 119q-22 -69 -55 -98t-95 -29h-51 q-160 0 -160 170zM197 203q0 -15 12 -15h4q9 0 12 13l39 168l-63 217q-4 -8 -4 -29v-354z" />
<glyph unicode="'" horiz-adv-x="223" d="M25 1018l10 416h182l-45 -416h-147z" />
<glyph unicode="(" horiz-adv-x="274" d="M23 358v717q0 157 28.5 242.5t110.5 167.5l102 -43q-53 -74 -71.5 -149t-18.5 -216v-721q0 -140 18.5 -215t71.5 -149l-102 -43q-82 82 -110.5 167t-28.5 242z" />
<glyph unicode=")" horiz-adv-x="274" d="M10 2q53 74 71.5 149t18.5 216v720q0 141 -18.5 216t-71.5 149l103 43q82 -82 110.5 -167.5t28.5 -242.5v-716q0 -157 -28.5 -242.5t-110.5 -167.5z" />
<glyph unicode="*" horiz-adv-x="331" d="M25 1128v84l79 33l-79 33v86h2l100 -51l-2 121h82l-4 -121l100 51h4v-86l-82 -33l82 -33v-84h-4l-100 50l4 -119h-82l2 119l-100 -50h-2z" />
<glyph unicode="+" horiz-adv-x="411" d="M8 657v144h123v127h150v-127h122v-144h-122v-125h-150v125h-123z" />
<glyph unicode="," horiz-adv-x="225" d="M4 -193q14 76 20.5 142.5t7.5 105.5t1 111v57h162v-49q0 -99 -9.5 -175.5t-40.5 -191.5h-141z" />
<glyph unicode="-" horiz-adv-x="311" d="M12 524v181h287v-181h-287z" />
<glyph unicode="." horiz-adv-x="225" d="M29 0v223h168v-223h-168z" />
<glyph unicode="/" horiz-adv-x="307" d="M2 -39l160 1512h143l-160 -1512h-143z" />
<glyph unicode="0" horiz-adv-x="493" d="M16 176v1081q0 185 185 185h92q184 0 184 -185v-1081q0 -184 -184 -184h-92q-185 0 -185 184zM223 180q0 -16 17 -16h14q16 0 16 16v1073q0 17 -16 17h-14q-17 0 -17 -17v-1073z" />
<glyph unicode="1" horiz-adv-x="309" d="M4 1217v139q40 4 63 17t46 44l14 21h164v-1438h-207v1217h-80z" />
<glyph unicode="2" d="M14 0v322q0 62 9 106.5t36 93.5l166 299q25 46 25 84v348q0 17 -17 17h-8q-16 0 -16 -17v-364h-193v368q0 185 185 185h67q185 0 185 -185v-309q0 -67 -9.5 -106.5t-40.5 -96.5l-170 -323q-18 -38 -18 -92v-146h238v-184h-439z" />
<glyph unicode="3" horiz-adv-x="475" d="M14 176v381h197v-377q0 -16 16 -16h11q16 0 16 16v443q0 16 -16 16h-140v182h138q16 0 16 17v415q0 17 -16 17h-7q-16 0 -16 -17v-350h-197v354q0 185 185 185h71q185 0 185 -185v-364q0 -66 -16 -98t-56 -56q43 -20 58.5 -48t15.5 -87v-428q0 -184 -185 -184h-75 q-185 0 -185 184z" />
<glyph unicode="4" horiz-adv-x="479" d="M14 246v180l121 1008h279v-1008h63v-180h-63v-246h-193v246h-207zM160 426h63v567z" />
<glyph unicode="5" horiz-adv-x="475" d="M14 176v365h199v-361q0 -16 16 -16h11q16 0 16 16v502q0 35 -23 35q-22 0 -22 -47h-195v764h430v-187h-229l-4 -379q50 31 111 31q135 0 135 -164v-559q0 -184 -185 -184h-75q-185 0 -185 184z" />
<glyph unicode="6" horiz-adv-x="483" d="M16 176v1081q0 185 185 185h80q184 0 184 -185v-358h-201v354q0 17 -16 17h-10q-17 0 -17 -17v-411q61 22 109 22q139 0 139 -149v-539q0 -184 -184 -184h-84q-185 0 -185 184zM221 180q0 -16 17 -16h10q16 0 16 16v496q0 18 -18 18q-15 0 -25 -2v-512z" />
<glyph unicode="7" horiz-adv-x="415" d="M6 1241v193h400v-187l-150 -1247h-209l152 1241h-193z" />
<glyph unicode="8" horiz-adv-x="483" d="M16 176v432q0 100 80 123q-78 29 -78 141v385q0 185 185 185h78q184 0 184 -185v-385q0 -113 -78 -141q43 -12 62.5 -41.5t19.5 -81.5v-432q0 -184 -184 -184h-84q-185 0 -185 184zM219 178q0 -16 17 -16h14q16 0 16 16v453q0 16 -16 16h-14q-17 0 -17 -16v-453zM219 821 q0 -16 17 -16h12q16 0 16 16v434q0 17 -16 17h-12q-17 0 -17 -17v-434z" />
<glyph unicode="9" horiz-adv-x="483" d="M14 694v563q0 185 185 185h84q184 0 184 -185v-1081q0 -184 -184 -184h-82q-185 0 -185 184v324h201v-320q0 -16 14 -16h15q16 0 16 16v387q-50 -20 -108 -20q-140 0 -140 147zM219 733q0 -18 19 -18q14 0 24 4v534q0 17 -16 17h-10q-17 0 -17 -17v-520z" />
<glyph unicode=":" horiz-adv-x="225" d="M29 0v223h168v-223h-168zM29 985v223h168v-223h-168z" />
<glyph unicode=";" horiz-adv-x="225" d="M6 -193q14 76 20.5 142.5t7.5 105.5t1 111v57h162v-49q0 -99 -9.5 -175.5t-40.5 -191.5h-141zM29 985v223h168v-223h-168z" />
<glyph unicode="&#x3c;" horiz-adv-x="395" d="M12 641v178l371 129v-155l-225 -62l225 -61v-158z" />
<glyph unicode="=" horiz-adv-x="411" d="M8 567v142h395v-142h-395zM8 752v141h395v-141h-395z" />
<glyph unicode="&#x3e;" horiz-adv-x="395" d="M12 512v156l226 61l-226 62v157l371 -129v-178z" />
<glyph unicode="?" horiz-adv-x="450" d="M10 842v415q0 185 185 185h61q184 0 184 -185v-376q0 -78 -61 -174l-64 -103q-13 -24 -17.5 -39.5t-4.5 -48.5v-242h-162v301q0 54 6.5 79.5t30.5 64.5l41 65q29 52 29 76v393q0 17 -15 17h-10q-16 0 -16 -17v-411h-187zM129 0v223h168v-223h-168z" />
<glyph unicode="@" horiz-adv-x="655" d="M27 135v1006q0 121 50 174t169 53h164q120 0 170.5 -52t50.5 -175v-1039q0 -75 -76 -75h-102q-36 0 -57 13.5t-40 43.5q-23 -29 -48 -43t-66 -14q-103 0 -103 110v457q0 51 19 76.5t73 44.5l109 37v352q0 12 -10 12h-13q-12 0 -12 -12v-338h-160v346q0 143 146 143h76 q145 0 145 -143v-1010q0 -24 23 -24h20q11 0 18 7t7 17v1039q0 98 -37 138t-133 40h-164q-94 0 -131 -40t-37 -138v-1006q0 -97 37 -137.5t131 -40.5h321v-49h-321q-119 0 -169 53t-50 174zM301 182q0 -14 21 -14q14 0 18 2v446l-16 -6q-23 -8 -23 -37v-391z" />
<glyph unicode="A" horiz-adv-x="497" d="M2 0l113 1434h268l113 -1434h-205l-12 236h-84l-13 -236h-180zM203 410h65l-32 616z" />
<glyph unicode="B" horiz-adv-x="493" d="M18 0v1434h275q184 0 184 -185v-375q0 -112 -94 -141q50 -12 73 -41.5t23 -81.5v-426q0 -184 -184 -184h-277zM227 170h29q16 0 16 14v451q0 14 -16 14h-29v-479zM227 807h29q14 0 14 14v426q0 17 -14 17h-29v-457z" />
<glyph unicode="C" horiz-adv-x="495" d="M16 176v1081q0 185 185 185h94q182 0 182 -185v-454h-207v450q0 17 -16 17h-12q-17 0 -17 -17v-1073q0 -16 17 -16h14q16 0 16 16v492h207v-496q0 -184 -184 -184h-94q-185 0 -185 184z" />
<glyph unicode="D" horiz-adv-x="497" d="M18 0v1434h254q209 0 209 -209v-1016q0 -209 -209 -209h-254zM227 172h23q22 0 22 25v1042q0 23 -22 23h-23v-1090z" />
<glyph unicode="E" horiz-adv-x="401" d="M18 0v1434h369v-179h-160v-440h154v-178h-154v-459h162v-178h-371z" />
<glyph unicode="F" horiz-adv-x="389" d="M18 0v1434h363v-179h-154v-464h148v-179h-148v-612h-209z" />
<glyph unicode="G" horiz-adv-x="499" d="M16 176v1081q0 185 185 185h96q184 0 184 -185v-372h-207v368q0 17 -18 17h-14q-17 0 -17 -17v-1071q0 -18 17 -18h18q16 0 16 16v461h-28v168h235v-633q0 -184 -184 -184h-98q-185 0 -185 184z" />
<glyph unicode="H" horiz-adv-x="501" d="M18 0v1434h209v-619h47v619h209v-1434h-209v637h-47v-637h-209z" />
<glyph unicode="I" horiz-adv-x="245" d="M18 0v1434h209v-1434h-209z" />
<glyph unicode="J" horiz-adv-x="335" d="M4 0v178h78q15 0 21 6t6 23v1227h208v-1250q0 -94 -45 -139t-139 -45h-129z" />
<glyph unicode="K" horiz-adv-x="491" d="M18 0v1434h209v-592l60 592h209l-80 -697l78 -737h-215l-52 586v-586h-209z" />
<glyph unicode="L" horiz-adv-x="378" d="M18 0v1434h209v-1256h144v-178h-353z" />
<glyph unicode="M" horiz-adv-x="686" d="M18 0v1434h291l25 -791l41 791h293v-1434h-207l10 1065l-63 -1065h-175l-55 1065l2 -1065h-162z" />
<glyph unicode="N" horiz-adv-x="481" d="M18 0v1434h199l88 -670l-16 670h174v-1434h-189l-96 698l15 -698h-175z" />
<glyph unicode="O" horiz-adv-x="499" d="M16 176v1081q0 185 185 185h98q184 0 184 -185v-1081q0 -184 -184 -184h-98q-185 0 -185 184zM225 180q0 -16 17 -16h16q16 0 16 16v1073q0 17 -16 17h-16q-17 0 -17 -17v-1073z" />
<glyph unicode="P" horiz-adv-x="497" d="M18 0v1434h279q94 0 139 -45.5t45 -139.5v-587q0 -94 -45 -139.5t-139 -45.5h-70v-477h-209zM227 649h29q16 0 16 17v579q0 17 -16 17h-29v-613z" />
<glyph unicode="Q" horiz-adv-x="499" d="M16 176v1081q0 185 185 185h98q184 0 184 -185v-1062q0 -99 -53 -146l76 -29l-82 -139l-213 111h-10q-185 0 -185 184zM225 180q0 -16 17 -16h16q16 0 16 16v1073q0 17 -16 17h-16q-17 0 -17 -17v-1073z" />
<glyph unicode="R" horiz-adv-x="497" d="M18 0v1434h277q94 0 139 -45.5t45 -139.5v-424q0 -112 -94 -141q51 -12 73.5 -41t22.5 -82v-561h-209v580q0 16 -16 16h-29v-596h-209zM227 766h27q16 0 16 16v461q0 17 -16 17h-27v-494z" />
<glyph unicode="S" horiz-adv-x="487" d="M16 176v418h203v-418q0 -14 17 -14h14q16 0 16 14v385q0 21 -18 33l-154 117q-43 33 -60.5 70.5t-17.5 92.5v383q0 185 185 185h84q184 0 184 -185v-397h-203v397q0 15 -16 15h-12q-15 0 -15 -15v-366q0 -22 17 -33l155 -117q43 -33 59.5 -70.5t16.5 -92.5v-402 q0 -184 -184 -184h-86q-185 0 -185 184z" />
<glyph unicode="T" horiz-adv-x="442" d="M8 1255v179h426v-179h-108v-1255h-209v1255h-109z" />
<glyph unicode="U" horiz-adv-x="499" d="M18 176v1258h209v-1254q0 -16 17 -16h12q16 0 16 16v1254h209v-1258q0 -184 -184 -184h-94q-185 0 -185 184z" />
<glyph unicode="V" horiz-adv-x="487" d="M-2 1434h209l47 -930l51 930h184l-116 -1434h-260z" />
<glyph unicode="W" horiz-adv-x="712" d="M0 1434h217l27 -707l37 707h188l31 -707l32 707h181l-105 -1434h-215l-39 575l-37 -575h-213z" />
<glyph unicode="X" horiz-adv-x="483" d="M-4 0l117 709l-115 725h217l35 -375l45 375h186l-114 -695l118 -739h-217l-39 391l-45 -391h-188z" />
<glyph unicode="Y" horiz-adv-x="475" d="M-6 1434h217l37 -527l45 527h188l-139 -977v-457h-209v457z" />
<glyph unicode="Z" horiz-adv-x="407" d="M8 0v178l174 1077h-168v179h383v-179l-174 -1077h174v-178h-389z" />
<glyph unicode="[" horiz-adv-x="268" d="M25 -39v1512h237v-103h-96v-1307h96v-102h-237z" />
<glyph unicode="\" horiz-adv-x="307" d="M2 1473h143l160 -1512h-143z" />
<glyph unicode="]" horiz-adv-x="268" d="M6 -39v102h96v1307h-96v103h238v-1512h-238z" />
<glyph unicode="^" horiz-adv-x="409" d="M4 1104l127 330h148l129 -330h-148l-55 151l-53 -151h-148z" />
<glyph unicode="_" horiz-adv-x="583" d="M-2 -27h588v-145h-588v145z" />
<glyph unicode="`" horiz-adv-x="614" d="M182 1413h203l55 -164h-153z" />
<glyph unicode="a" horiz-adv-x="452" d="M16 109v430q0 59 21.5 88t79.5 49l125 45v321q0 15 -13 15h-12q-12 0 -12 -15v-313h-180v324q0 164 161 164h88q162 0 162 -164v-1053h-190v45q-56 -53 -123 -53q-107 0 -107 117zM201 170q0 -18 20 -18q9 0 21 4v411l-21 -8q-20 -11 -20 -37v-352z" />
<glyph unicode="b" d="M16 0v1434h197v-267q64 50 123 50q55 0 84 -34t29 -96v-966q0 -62 -29 -95.5t-84 -33.5q-62 0 -125 47v-39h-195zM213 166q16 -4 20 -4q19 0 19 18v848q0 19 -19 19l-20 -5v-876z" />
<glyph unicode="c" horiz-adv-x="460" d="M16 162v885q0 170 170 170h88q170 0 170 -170v-363h-192v354q0 13 -12 13h-13q-14 0 -14 -13v-868q0 -12 14 -12h13q12 0 12 12v371h192v-379q0 -170 -170 -170h-88q-170 0 -170 170z" />
<glyph unicode="d" d="M16 121v966q0 62 29.5 96t85.5 34q60 0 121 -48v265h197v-1434h-193v41q-63 -49 -125 -49q-56 0 -85.5 33.5t-29.5 95.5zM213 180q0 -18 18 -18q9 0 21 4v876q-15 5 -21 5q-18 0 -18 -19v-848z" />
<glyph unicode="e" horiz-adv-x="458" d="M16 162v885q0 170 170 170h86q170 0 170 -170v-525h-231v-354q0 -14 14 -14h15q12 0 12 14v264h190v-270q0 -170 -170 -170h-86q-170 0 -170 170zM211 670h39v370q0 15 -12 15h-13q-14 0 -14 -15v-370z" />
<glyph unicode="f" horiz-adv-x="309" d="M6 1036v172h39v82q0 144 141 144h119v-144h-49q-27 0 -27 -26v-56h76v-172h-63v-1036h-197v1036h-39z" />
<glyph unicode="g" d="M16 193v894q0 62 29.5 96t85.5 34q60 0 125 -48v39h193v-1231q0 -149 -150 -149h-133q-76 0 -111 33.5t-35 107.5v74h181v-59q0 -19 18 -19h19q18 0 18 19v127q-60 -48 -125 -48q-56 0 -85.5 34t-29.5 96zM213 248q0 -19 18 -19q9 0 21 4v809q-15 5 -21 5q-18 0 -18 -19 v-780z" />
<glyph unicode="h" d="M16 0v1434h197v-267q64 50 123 50q55 0 84 -34t29 -96v-1087h-197v1028q0 19 -19 19l-20 -5v-1042h-197z" />
<glyph unicode="i" horiz-adv-x="233" d="M16 1235v145h201v-145h-201zM18 0v1208h197v-1208h-197z" />
<glyph unicode="j" horiz-adv-x="231" d="M-23 -27h25q14 0 14 17v1218h197v-1245q0 -131 -135 -131h-101v141zM14 1235v145h201v-145h-201z" />
<glyph unicode="k" horiz-adv-x="479" d="M16 0v1434h197v-803l61 577h199l-80 -616l86 -592h-205l-61 539v-539h-197z" />
<glyph unicode="l" horiz-adv-x="229" d="M16 0v1434h197v-1434h-197z" />
<glyph unicode="m" horiz-adv-x="698" d="M16 0v1208h195v-41q64 50 125 50q70 0 96 -56q69 56 137 56q113 0 113 -130v-1087h-197v1028q0 19 -16 19q-5 0 -20 -5v-1042h-197v1028q0 19 -19 19l-20 -5v-1042h-197z" />
<glyph unicode="n" d="M16 0v1208h195v-41q64 50 125 50q55 0 84 -34t29 -96v-1087h-197v1028q0 19 -19 19l-20 -5v-1042h-197z" />
<glyph unicode="o" d="M16 162v885q0 170 170 170h95q168 0 168 -170v-885q0 -170 -168 -170h-95q-170 0 -170 170zM213 170q0 -12 14 -12h13q12 0 12 12v868q0 13 -12 13h-13q-14 0 -14 -13v-868z" />
<glyph unicode="p" d="M16 -166v1374h195v-41q64 50 125 50q55 0 84 -34t29 -96v-966q0 -62 -29 -95.5t-84 -33.5q-60 0 -123 47v-205h-197zM213 166q16 -4 20 -4q19 0 19 18v848q0 19 -19 19l-20 -5v-876z" />
<glyph unicode="q" d="M16 121v966q0 62 29.5 96t85.5 34q60 0 125 -48v39h193v-1374h-197v207q-59 -49 -121 -49q-56 0 -85.5 33.5t-29.5 95.5zM213 180q0 -18 18 -18q9 0 21 4v876q-15 5 -21 5q-18 0 -18 -19v-848z" />
<glyph unicode="r" horiz-adv-x="317" d="M16 0v1208h195v-75q21 43 43.5 62t56.5 19v-219q-60 -6 -98 -30v-965h-197z" />
<glyph unicode="s" horiz-adv-x="446" d="M16 162v327h187v-321q0 -14 12 -14h14q15 0 15 14v295q0 20 -23 37l-92 61q-64 39 -87.5 75.5t-23.5 92.5v318q0 170 170 170h76q170 0 170 -170v-314h-186v307q0 15 -12 15h-17q-12 0 -12 -15v-284q0 -20 20 -35l92 -59q64 -41 87.5 -77.5t23.5 -95.5v-327 q0 -170 -168 -170h-76q-170 0 -170 170z" />
<glyph unicode="t" horiz-adv-x="315" d="M6 1036v172h45v111h197v-111h63v-172h-63v-1036h-197v1036h-45z" />
<glyph unicode="u" d="M16 121v1087h197v-1028q0 -18 18 -18q9 0 21 4v1042h197v-1208h-193v41q-63 -49 -125 -49q-56 0 -85.5 33.5t-29.5 95.5z" />
<glyph unicode="v" horiz-adv-x="475" d="M6 1208h195l41 -729l43 729h184l-104 -1208h-254z" />
<glyph unicode="w" horiz-adv-x="708" d="M6 1208h189l28 -655l37 655h201l35 -645l30 645h176l-94 -1208h-219l-35 526l-35 -526h-219z" />
<glyph unicode="x" horiz-adv-x="462" d="M2 0l102 598l-98 610h197l30 -340l43 340h181l-99 -579l103 -629h-199l-35 358l-43 -358h-182z" />
<glyph unicode="y" horiz-adv-x="471" d="M2 1208h197l16 -241q13 -153 25 -392h4q9 189 22 392l17 241h188l-160 -1374h-186l29 229z" />
<glyph unicode="z" horiz-adv-x="374" d="M8 0v172l168 864h-162v172h353v-172l-168 -864h168v-172h-359z" />
<glyph unicode="{" horiz-adv-x="339" d="M8 674v108l41 9q24 5 34.5 14t10.5 29v337q0 118 25 179t112 135l105 -43q-59 -71 -74.5 -120t-15.5 -148v-318q0 -101 -74 -127q74 -23 74 -111v-358q0 -99 15.5 -148t74.5 -120l-105 -43q-87 74 -112 134.5t-25 178.5v359q0 22 -10.5 31t-34.5 14z" />
<glyph unicode="|" horiz-adv-x="247" d="M59 -82v1593h129v-1593h-129z" />
<glyph unicode="}" horiz-adv-x="339" d="M4 -8q59 71 74.5 120t15.5 148v358q0 88 74 111q-74 26 -74 127v318q0 99 -15.5 148t-74.5 120l105 43q87 -74 112 -135t25 -179v-337q0 -20 10.5 -29t34.5 -14l41 -9v-108l-41 -8q-24 -5 -34.5 -14t-10.5 -31v-359q0 -118 -25 -178.5t-112 -134.5z" />
<glyph unicode="~" horiz-adv-x="409" d="M8 614v148q48 51 107 51h2q29 0 78 -18l41 -13q40 -12 61 -12h2q50 0 104 47v-147q-52 -52 -106 -52h-4q-13 0 -24 2t-27 7.5t-25 7.5l-43 14q-34 10 -59 10h-2q-56 0 -105 -45z" />
<glyph unicode="&#xa1;" horiz-adv-x="233" d="M16 0v362l37 797h127l37 -797v-362h-201zM33 1210v224h168v-224h-168z" />
<glyph unicode="&#xa2;" horiz-adv-x="446" d="M16 256v930q0 156 146 168v84h131v-84q139 -15 139 -168v-398h-186v394q0 12 -15 12h-8q-14 0 -14 -12v-920q0 -14 14 -14h8q15 0 15 14v402h186v-408q0 -153 -137 -168v-92h-133v90q-146 12 -146 170z" />
<glyph unicode="&#xa3;" horiz-adv-x="512" d="M4 0v178h53v410h-53v174h53v495q0 185 185 185h67q185 0 185 -185v-413h-191v409q0 17 -16 17h-8q-17 0 -17 -17v-491h150v-174h-150v-410h234v-178h-492z" />
<glyph unicode="&#xa5;" horiz-adv-x="456" d="M-10 1434h215l37 -529l41 529h186l-127 -744h98v-110h-108v-23h108v-111h-108v-446h-205v446h-111v111h111v23h-111v110h97z" />
<glyph unicode="&#xa7;" horiz-adv-x="479" d="M20 176v346h197v-348q0 -16 14 -16h13q16 0 16 16v334q0 28 -16 33l-150 75q-48 23 -61 51t-13 83v59l349 -170q51 -25 70.5 -57.5t19.5 -81.5v-324q0 -184 -185 -184h-69q-185 0 -185 184zM20 944v313q0 185 185 185h69q185 0 185 -185v-329h-197v332q0 16 -14 16h-12 q-17 0 -17 -16v-324q0 -27 17 -33l149 -76q48 -23 61 -51t13 -82v-59l-348 170q-52 25 -71.5 57.5t-19.5 81.5z" />
<glyph unicode="&#xa8;" horiz-adv-x="614" d="M147 1249v164h148v-164h-148zM319 1249v164h148v-164h-148z" />
<glyph unicode="&#xa9;" horiz-adv-x="643" d="M41 225v983q0 125 53 179.5t168 54.5h119q115 0 168 -54.5t53 -179.5v-983q0 -125 -53 -179t-168 -54h-119q-115 0 -168 54t-53 179zM72 225q0 -111 44 -156.5t146 -45.5h119q102 0 146 45.5t44 156.5v983q0 111 -44 157t-146 46h-119q-102 0 -146 -46t-44 -157v-983z M145 236v962q0 141 142 141h67q142 0 142 -139v-424h-160v412q0 12 -12 12h-5q-12 0 -12 -12v-940q0 -12 12 -12h7q12 0 12 12v428h160v-440q0 -142 -142 -142h-69q-142 0 -142 142z" />
<glyph unicode="&#xaa;" horiz-adv-x="292" d="M27 874v216q0 34 12.5 50.5t48.5 28.5l72 19v164q0 8 -10 8h-13q-10 0 -10 -8v-150h-96v156q0 90 94 90h45q94 0 94 -90v-543h-102v23q-49 -27 -74 -27q-61 0 -61 63zM125 911q0 -14 14 -14q3 0 11 2t10 2v207l-19 -2q-16 -5 -16 -25v-170z" />
<glyph unicode="&#xab;" horiz-adv-x="407" d="M10 614l82 308h127l-59 -308l59 -307h-127zM193 614l69 308h127l-47 -308l47 -307h-127z" />
<glyph unicode="&#xad;" horiz-adv-x="311" d="M12 524v181h287v-181h-287z" />
<glyph unicode="&#xae;" horiz-adv-x="425" d="M25 733v570q0 139 135 139h106q135 0 135 -139v-570q0 -137 -135 -137h-106q-135 0 -135 137zM49 733q0 -59 26.5 -87t84.5 -28h106q59 0 85 28t26 87v570q0 60 -25.5 87t-85.5 27h-106q-58 0 -84.5 -27t-26.5 -87v-570zM100 674v690h148q86 0 86 -86v-205q0 -54 -47 -67 q47 -9 47 -60v-272h-105v284q0 7 -8 7h-16v-291h-105zM205 1044h14q8 0 8 9v227q0 8 -8 8h-14v-244z" />
<glyph unicode="&#xaf;" horiz-adv-x="614" d="M152 1257v132h311v-132h-311z" />
<glyph unicode="&#xb0;" horiz-adv-x="380" d="M20 827v486q0 61 34 95t96 34h81q61 0 95 -34t34 -95v-486q0 -61 -34 -95t-95 -34h-81q-62 0 -96 34t-34 95zM166 842q0 -13 12 -13h23q12 0 12 13v456q0 13 -12 13h-23q-12 0 -12 -13v-456z" />
<glyph unicode="&#xb1;" horiz-adv-x="411" d="M8 449v141h395v-141h-395zM8 745v146h123v125h150v-125h122v-146h-122v-124h-150v124h-123z" />
<glyph unicode="&#xb4;" horiz-adv-x="614" d="M199 1249l55 164h203l-105 -164h-153z" />
<glyph unicode="&#xb6;" horiz-adv-x="452" d="M16 238v958q0 122 58 180t180 58h180v-1434h-125v1323h-37v-1323h-18q-122 0 -180 58t-58 180z" />
<glyph unicode="&#xb7;" horiz-adv-x="225" d="M29 616v224h168v-224h-168z" />
<glyph unicode="&#xb8;" horiz-adv-x="614" d="M197 -150l75 150h119l-26 -150h-168z" />
<glyph unicode="&#xba;" horiz-adv-x="299" d="M27 905v449q0 94 98 94h51q46 0 71 -25t25 -69v-449q0 -46 -25 -70t-71 -24h-51q-98 0 -98 94zM133 909q0 -8 10 -8h13q10 0 10 8v441q0 8 -10 8h-13q-10 0 -10 -8v-441z" />
<glyph unicode="&#xbb;" horiz-adv-x="407" d="M18 307l48 307l-48 308h127l70 -308l-70 -307h-127zM188 307l60 307l-60 308h127l82 -308l-82 -307h-127z" />
<glyph unicode="&#xbf;" horiz-adv-x="450" d="M12 184v377q0 77 62 174l63 103q10 18 13.5 26t6.5 23.5t3 38.5v241h162v-301q0 -54 -6.5 -79t-30.5 -64l-41 -66q-29 -52 -29 -75v-394q0 -16 14 -16h11q16 0 16 16v412h186v-416q0 -184 -184 -184h-61q-185 0 -185 184zM156 1219v223h168v-223h-168z" />
<glyph unicode="&#xc0;" horiz-adv-x="497" d="M2 0l113 1434h268l113 -1434h-205l-12 236h-84l-13 -236h-180zM63 1614h203l62 -139h-154zM203 410h65l-32 616z" />
<glyph unicode="&#xc1;" horiz-adv-x="497" d="M2 0l113 1434h268l113 -1434h-205l-12 236h-84l-13 -236h-180zM172 1475l61 139h203l-110 -139h-154zM203 410h65l-32 616z" />
<glyph unicode="&#xc2;" horiz-adv-x="497" d="M2 0l113 1434h268l113 -1434h-205l-12 236h-84l-13 -236h-180zM76 1475l86 149h176l86 -149h-129l-45 41l-45 -41h-129zM203 410h65l-32 616z" />
<glyph unicode="&#xc3;" horiz-adv-x="497" d="M2 0l113 1434h268l113 -1434h-205l-12 236h-84l-13 -236h-180zM76 1475v75q0 76 74 76h26q33 0 66 -16l18 -11q29 -16 37 -16h2q8 0 8 10v33h117v-76q0 -75 -74 -75h-26q-33 0 -66 16l-18 10q-30 17 -37 17h-2q-8 0 -8 -11v-32h-117zM203 410h65l-32 616z" />
<glyph unicode="&#xc4;" horiz-adv-x="497" d="M2 0l113 1434h268l113 -1434h-205l-12 236h-84l-13 -236h-180zM88 1475v139h150v-139h-150zM203 410h65l-32 616zM262 1475v139h150v-139h-150z" />
<glyph unicode="&#xc5;" horiz-adv-x="497" d="M2 0l109 1389q-15 21 -15 51v6q0 80 94 80h119q94 0 94 -80v-6q0 -35 -16 -54l109 -1386h-205l-12 236h-84l-13 -236h-180zM129 1442q0 -53 61 -53h119q62 0 62 53v2q0 53 -62 53h-119q-61 0 -61 -53v-2zM203 410h65l-32 606z" />
<glyph unicode="&#xc6;" horiz-adv-x="643" d="M-4 0l143 1434h490v-179h-160v-440h154v-178h-154v-459h162v-178h-371v236h-65l-19 -236h-180zM203 410h57v712z" />
<glyph unicode="&#xc7;" horiz-adv-x="495" d="M16 176v1081q0 185 185 185h94q182 0 182 -185v-454h-207v450q0 17 -16 17h-12q-17 0 -17 -17v-1073q0 -16 17 -16h14q16 0 16 16v492h207v-496q0 -178 -174 -184l-24 -142h-168l71 142q-86 4 -127 49.5t-41 134.5z" />
<glyph unicode="&#xc8;" horiz-adv-x="401" d="M18 0v1434h369v-179h-160v-440h154v-178h-154v-459h162v-178h-371zM18 1614h203l62 -139h-154z" />
<glyph unicode="&#xc9;" horiz-adv-x="401" d="M18 0v1434h369v-179h-160v-440h154v-178h-154v-459h162v-178h-371zM127 1475l61 139h203l-110 -139h-154z" />
<glyph unicode="&#xca;" horiz-adv-x="401" d="M18 0v1434h369v-179h-160v-440h154v-178h-154v-459h162v-178h-371zM31 1475l86 149h176l86 -149h-129l-45 41l-45 -41h-129z" />
<glyph unicode="&#xcb;" horiz-adv-x="401" d="M18 0v1434h369v-179h-160v-440h154v-178h-154v-459h162v-178h-371zM43 1475v139h150v-139h-150zM217 1475v139h150v-139h-150z" />
<glyph unicode="&#xcc;" horiz-adv-x="245" d="M-63 1614h202l62 -139h-154zM18 0v1434h209v-1434h-209z" />
<glyph unicode="&#xcd;" horiz-adv-x="245" d="M18 0v1434h209v-1434h-209zM45 1475l61 139h203l-110 -139h-154z" />
<glyph unicode="&#xce;" horiz-adv-x="245" d="M-51 1475l86 149h176l86 -149h-129l-45 41l-45 -41h-129zM18 0v1434h209v-1434h-209z" />
<glyph unicode="&#xcf;" horiz-adv-x="245" d="M-39 1475v139h150v-139h-150zM18 0v1434h209v-1434h-209zM135 1475v139h150v-139h-150z" />
<glyph unicode="&#xd0;" horiz-adv-x="509" d="M0 647v160h31v627h254q209 0 209 -209v-1016q0 -209 -209 -209h-254v647h-31zM240 172h22q23 0 23 25v1042q0 23 -23 23h-22v-455h28v-160h-28v-475z" />
<glyph unicode="&#xd1;" horiz-adv-x="481" d="M18 0v1434h199l88 -670l-16 670h174v-1434h-189l-96 698l15 -698h-175zM68 1475v75q0 76 73 76h27q32 0 65 -16l19 -11q29 -16 37 -16h2q8 0 8 10v33h117v-76q0 -75 -74 -75h-27q-32 0 -65 16l-19 10q-30 17 -36 17h-2q-9 0 -9 -11v-32h-116z" />
<glyph unicode="&#xd2;" horiz-adv-x="499" d="M16 176v1081q0 185 185 185h98q184 0 184 -185v-1081q0 -184 -184 -184h-98q-185 0 -185 184zM63 1614h203l62 -139h-154zM225 180q0 -16 17 -16h16q16 0 16 16v1073q0 17 -16 17h-16q-17 0 -17 -17v-1073z" />
<glyph unicode="&#xd3;" horiz-adv-x="499" d="M16 176v1081q0 185 185 185h98q184 0 184 -185v-1081q0 -184 -184 -184h-98q-185 0 -185 184zM172 1475l61 139h203l-110 -139h-154zM225 180q0 -16 17 -16h16q16 0 16 16v1073q0 17 -16 17h-16q-17 0 -17 -17v-1073z" />
<glyph unicode="&#xd4;" horiz-adv-x="499" d="M16 176v1081q0 185 185 185h98q184 0 184 -185v-1081q0 -184 -184 -184h-98q-185 0 -185 184zM76 1475l86 149h176l86 -149h-129l-45 41l-45 -41h-129zM225 180q0 -16 17 -16h16q16 0 16 16v1073q0 17 -16 17h-16q-17 0 -17 -17v-1073z" />
<glyph unicode="&#xd5;" horiz-adv-x="499" d="M16 176v1081q0 185 185 185h98q184 0 184 -185v-1081q0 -184 -184 -184h-98q-185 0 -185 184zM76 1475v75q0 76 74 76h26q33 0 66 -16l18 -11q29 -16 37 -16h2q8 0 8 10v33h117v-76q0 -75 -74 -75h-26q-33 0 -66 16l-18 10q-30 17 -37 17h-2q-8 0 -8 -11v-32h-117z M225 180q0 -16 17 -16h16q16 0 16 16v1073q0 17 -16 17h-16q-17 0 -17 -17v-1073z" />
<glyph unicode="&#xd6;" horiz-adv-x="499" d="M16 176v1081q0 185 185 185h98q184 0 184 -185v-1081q0 -184 -184 -184h-98q-185 0 -185 184zM88 1475v139h150v-139h-150zM225 180q0 -16 17 -16h16q16 0 16 16v1073q0 17 -16 17h-16q-17 0 -17 -17v-1073zM262 1475v139h150v-139h-150z" />
<glyph unicode="&#xd7;" horiz-adv-x="419" d="M8 631l96 96l-96 98l107 105l96 -96l98 96l103 -101l-99 -98l99 -96l-109 -107l-96 97l-96 -97z" />
<glyph unicode="&#xd8;" horiz-adv-x="499" d="M16 176v1086q0 184 185 184h98q184 0 184 -184v-1086q0 -184 -184 -184h-98q-185 0 -185 184zM221 682l55 461v114q0 17 -16 17h-20q-17 0 -17 -17zM223 180q0 -16 17 -16h18q16 0 16 16l5 572l-56 -455v-117z" />
<glyph unicode="&#xd9;" horiz-adv-x="499" d="M18 176v1258h209v-1254q0 -16 17 -16h12q16 0 16 16v1254h209v-1258q0 -184 -184 -184h-94q-185 0 -185 184zM63 1614h203l62 -139h-154z" />
<glyph unicode="&#xda;" horiz-adv-x="499" d="M18 176v1258h209v-1254q0 -16 17 -16h12q16 0 16 16v1254h209v-1258q0 -184 -184 -184h-94q-185 0 -185 184zM172 1475l61 139h203l-110 -139h-154z" />
<glyph unicode="&#xdb;" horiz-adv-x="499" d="M18 176v1258h209v-1254q0 -16 17 -16h12q16 0 16 16v1254h209v-1258q0 -184 -184 -184h-94q-185 0 -185 184zM76 1475l86 149h176l86 -149h-129l-45 41l-45 -41h-129z" />
<glyph unicode="&#xdc;" horiz-adv-x="499" d="M18 176v1258h209v-1254q0 -16 17 -16h12q16 0 16 16v1254h209v-1258q0 -184 -184 -184h-94q-185 0 -185 184zM88 1475v139h150v-139h-150zM262 1475v139h150v-139h-150z" />
<glyph unicode="&#xdd;" horiz-adv-x="475" d="M-6 1434h217l37 -527l45 527h188l-139 -977v-457h-209v457zM174 1475l62 139h202l-110 -139h-154z" />
<glyph unicode="&#xde;" horiz-adv-x="487" d="M18 0v1434h209v-154h64q184 0 184 -184v-758q0 -184 -184 -184h-64v-154h-209zM227 326h27q16 0 16 16v750q0 16 -16 16h-27v-782z" />
<glyph unicode="&#xdf;" d="M14 0v1264q0 182 183 182h69q180 0 180 -182v-371q0 -64 -15.5 -95.5t-53.5 -52.5q42 -19 58 -47t16 -84v-444q0 -170 -170 -170h-58v164h21q14 0 14 16v459q0 14 -16 14h-19v166h17q16 0 16 17v430q0 16 -16 16h-17q-16 0 -16 -16v-1266h-193z" />
<glyph unicode="&#xe0;" horiz-adv-x="452" d="M16 109v430q0 59 21.5 88t79.5 49l125 45v321q0 15 -13 15h-12q-12 0 -12 -15v-313h-180v324q0 164 161 164h88q162 0 162 -164v-1053h-190v45q-56 -53 -123 -53q-107 0 -107 117zM57 1413h203l55 -164h-153zM201 170q0 -18 20 -18q9 0 21 4v411l-21 -8q-20 -11 -20 -37 v-352z" />
<glyph unicode="&#xe1;" horiz-adv-x="452" d="M16 109v430q0 59 21.5 88t79.5 49l125 45v321q0 15 -13 15h-12q-12 0 -12 -15v-313h-180v324q0 164 161 164h88q162 0 162 -164v-1053h-190v45q-56 -53 -123 -53q-107 0 -107 117zM160 1249l55 164h203l-105 -164h-153zM201 170q0 -18 20 -18q9 0 21 4v411l-21 -8 q-20 -11 -20 -37v-352z" />
<glyph unicode="&#xe2;" horiz-adv-x="452" d="M16 109v430q0 59 21.5 88t79.5 49l125 45v321q0 15 -13 15h-12q-12 0 -12 -15v-313h-180v324q0 164 161 164h88q162 0 162 -164v-1053h-190v45q-56 -53 -123 -53q-107 0 -107 117zM63 1249l87 164h176l86 -164h-129l-45 54l-45 -54h-130zM201 170q0 -18 20 -18q9 0 21 4 v411l-21 -8q-20 -11 -20 -37v-352z" />
<glyph unicode="&#xe3;" horiz-adv-x="452" d="M16 109v430q0 59 21.5 88t79.5 49l125 45v321q0 15 -13 15h-12q-12 0 -12 -15v-313h-180v324q0 164 161 164h88q162 0 162 -164v-1053h-190v45q-56 -53 -123 -53q-107 0 -107 117zM66 1249v88q0 76 73 76h8q44 0 76 -14l41 -23q16 -8 21 -8q8 0 8 10v35h117v-88 q0 -37 -19.5 -56.5t-54.5 -19.5h-8q-45 0 -76 15l-41 22q-16 8 -21 8q-8 0 -8 -10v-35h-116zM201 170q0 -18 20 -18q9 0 21 4v411l-21 -8q-20 -11 -20 -37v-352z" />
<glyph unicode="&#xe4;" horiz-adv-x="452" d="M16 109v430q0 59 21.5 88t79.5 49l125 45v321q0 15 -13 15h-12q-12 0 -12 -15v-313h-180v324q0 164 161 164h88q162 0 162 -164v-1053h-190v45q-56 -53 -123 -53q-107 0 -107 117zM78 1249v164h147v-164h-147zM201 170q0 -18 20 -18q9 0 21 4v411l-21 -8q-20 -11 -20 -37 v-352zM250 1249v164h147v-164h-147z" />
<glyph unicode="&#xe5;" horiz-adv-x="452" d="M16 109v430q0 59 21.5 88t79.5 49l125 45v321q0 15 -13 15h-12q-12 0 -12 -15v-313h-180v324q0 164 161 164h88q162 0 162 -164v-1053h-190v45q-56 -53 -123 -53q-107 0 -107 117zM111 1325v12q0 36 23 58t71 22h65q48 0 71.5 -22t23.5 -58v-12q0 -36 -23.5 -58 t-71.5 -22h-65q-48 0 -71 22t-23 58zM141 1325q0 -23 16 -38t48 -15h65q32 0 48 15t16 38v12q0 23 -16 37.5t-48 14.5h-65q-32 0 -48 -14.5t-16 -37.5v-12zM201 170q0 -18 20 -18q9 0 21 4v411l-21 -8q-20 -11 -20 -37v-352z" />
<glyph unicode="&#xe6;" horiz-adv-x="684" d="M16 109v430q0 59 21.5 88t79.5 49l125 45v321q0 15 -13 15h-12q-12 0 -12 -15v-313h-180v324q0 164 161 164h66q60 0 90 -33q26 33 90 33h66q170 0 170 -170v-525h-232v-354q0 -14 15 -14h14q12 0 12 14v264h191v-270q0 -170 -170 -170h-86q-97 0 -142 59l-14 -12 q-31 -26 -59 -36.5t-74 -10.5q-107 0 -107 117zM201 170q0 -18 20 -18q9 0 21 4v411l-21 -8q-20 -11 -20 -37v-352zM436 670h39v370q0 15 -12 15h-12q-15 0 -15 -15v-370z" />
<glyph unicode="&#xe7;" horiz-adv-x="460" d="M16 162v885q0 170 170 170h88q170 0 170 -170v-363h-192v354q0 13 -12 13h-13q-14 0 -14 -13v-868q0 -12 14 -12h13q12 0 12 12v371h192v-379q0 -161 -153 -170l-25 -142h-168l72 142q-154 9 -154 170z" />
<glyph unicode="&#xe8;" horiz-adv-x="458" d="M16 162v885q0 170 170 170h86q170 0 170 -170v-525h-231v-354q0 -14 14 -14h15q12 0 12 14v264h190v-270q0 -170 -170 -170h-86q-170 0 -170 170zM49 1413h203l55 -164h-153zM211 670h39v370q0 15 -12 15h-13q-14 0 -14 -15v-370z" />
<glyph unicode="&#xe9;" horiz-adv-x="458" d="M16 162v885q0 170 170 170h86q170 0 170 -170v-525h-231v-354q0 -14 14 -14h15q12 0 12 14v264h190v-270q0 -170 -170 -170h-86q-170 0 -170 170zM152 1249l55 164h203l-105 -164h-153zM211 670h39v370q0 15 -12 15h-13q-14 0 -14 -15v-370z" />
<glyph unicode="&#xea;" horiz-adv-x="458" d="M16 162v885q0 170 170 170h86q170 0 170 -170v-525h-231v-354q0 -14 14 -14h15q12 0 12 14v264h190v-270q0 -170 -170 -170h-86q-170 0 -170 170zM55 1249l86 164h176l86 -164h-129l-45 54l-45 -54h-129zM211 670h39v370q0 15 -12 15h-13q-14 0 -14 -15v-370z" />
<glyph unicode="&#xeb;" horiz-adv-x="458" d="M16 162v885q0 170 170 170h86q170 0 170 -170v-525h-231v-354q0 -14 14 -14h15q12 0 12 14v264h190v-270q0 -170 -170 -170h-86q-170 0 -170 170zM70 1249v164h147v-164h-147zM211 670h39v370q0 15 -12 15h-13q-14 0 -14 -15v-370zM242 1249v164h147v-164h-147z" />
<glyph unicode="&#xec;" horiz-adv-x="229" d="M-66 1413h203l56 -164h-154zM16 0v1210h197v-1210h-197z" />
<glyph unicode="&#xed;" horiz-adv-x="229" d="M16 0v1210h197v-1210h-197zM37 1249l55 164h203l-105 -164h-153z" />
<glyph unicode="&#xee;" horiz-adv-x="229" d="M-59 1249l86 164h176l86 -164h-129l-45 54l-45 -54h-129zM16 0v1210h197v-1210h-197z" />
<glyph unicode="&#xef;" horiz-adv-x="229" d="M-45 1249v164h147v-164h-147zM16 0v1210h197v-1210h-197zM127 1249v164h147v-164h-147z" />
<glyph unicode="&#xf0;" horiz-adv-x="462" d="M14 162v917q0 62 29.5 95.5t85.5 33.5h2q77 0 135 -65v43q0 41 -43 59l-106 45l76 150l96 -41l20 35h137l-51 -84q51 -37 51 -113v-1075q0 -170 -167 -170h-95q-170 0 -170 170zM211 170q0 -12 14 -12h13q12 0 12 12v862q0 15 -12 15h-13q-14 0 -14 -15v-862z" />
<glyph unicode="&#xf1;" d="M16 0v1208h195v-41q64 50 125 50q55 0 84 -34t29 -96v-1087h-197v1028q0 19 -19 19l-20 -5v-1042h-197zM61 1249v88q0 37 19.5 56.5t54.5 19.5h8q45 0 76 -14l41 -23q16 -8 21 -8q8 0 8 10v35h117v-88q0 -37 -19.5 -56.5t-54.5 -19.5h-8q-45 0 -76 15l-41 22q-16 8 -21 8 q-8 0 -8 -10v-35h-117z" />
<glyph unicode="&#xf2;" d="M16 162v885q0 170 170 170h95q168 0 168 -170v-885q0 -170 -168 -170h-95q-170 0 -170 170zM53 1413h203l55 -164h-153zM213 170q0 -12 14 -12h13q12 0 12 12v868q0 13 -12 13h-13q-14 0 -14 -13v-868z" />
<glyph unicode="&#xf3;" d="M16 162v885q0 170 170 170h95q168 0 168 -170v-885q0 -170 -168 -170h-95q-170 0 -170 170zM156 1249l55 164h203l-105 -164h-153zM213 170q0 -12 14 -12h13q12 0 12 12v868q0 13 -12 13h-13q-14 0 -14 -13v-868z" />
<glyph unicode="&#xf4;" d="M16 162v885q0 170 170 170h95q168 0 168 -170v-885q0 -170 -168 -170h-95q-170 0 -170 170zM59 1249l86 164h177l86 -164h-129l-46 54l-45 -54h-129zM213 170q0 -12 14 -12h13q12 0 12 12v868q0 13 -12 13h-13q-14 0 -14 -13v-868z" />
<glyph unicode="&#xf5;" d="M16 162v885q0 170 170 170h95q168 0 168 -170v-885q0 -170 -168 -170h-95q-170 0 -170 170zM61 1249v88q0 37 19.5 56.5t54.5 19.5h8q45 0 76 -14l41 -23q16 -8 21 -8q8 0 8 10v35h117v-88q0 -37 -19.5 -56.5t-54.5 -19.5h-8q-45 0 -76 15l-41 22q-16 8 -21 8 q-8 0 -8 -10v-35h-117zM213 170q0 -12 14 -12h13q12 0 12 12v868q0 13 -12 13h-13q-14 0 -14 -13v-868z" />
<glyph unicode="&#xf6;" d="M16 162v885q0 170 170 170h95q168 0 168 -170v-885q0 -170 -168 -170h-95q-170 0 -170 170zM74 1249v164h147v-164h-147zM213 170q0 -12 14 -12h13q12 0 12 12v868q0 13 -12 13h-13q-14 0 -14 -13v-868zM246 1249v164h147v-164h-147z" />
<glyph unicode="&#xf7;" horiz-adv-x="411" d="M8 657v144h395v-144h-395zM133 498v133h146v-133h-146zM133 829v132h146v-132h-146z" />
<glyph unicode="&#xf8;" d="M16 162v885q0 170 170 170h95q168 0 168 -170v-885q0 -170 -168 -170h-95q-170 0 -170 170zM209 588l45 334v116q0 15 -14 15h-15q-12 0 -12 -15zM213 170q0 -14 14 -14h15q14 0 14 14l2 453l-45 -334v-119z" />
<glyph unicode="&#xf9;" d="M16 121v1087h197v-1028q0 -18 18 -18q9 0 21 4v1042h197v-1208h-193v41q-63 -49 -125 -49q-56 0 -85.5 33.5t-29.5 95.5zM53 1413h203l55 -164h-153z" />
<glyph unicode="&#xfa;" d="M16 121v1087h197v-1028q0 -18 18 -18q9 0 21 4v1042h197v-1208h-193v41q-63 -49 -125 -49q-56 0 -85.5 33.5t-29.5 95.5zM156 1249l55 164h203l-105 -164h-153z" />
<glyph unicode="&#xfb;" d="M16 121v1087h197v-1028q0 -18 18 -18q9 0 21 4v1042h197v-1208h-193v41q-63 -49 -125 -49q-56 0 -85.5 33.5t-29.5 95.5zM59 1249l86 164h177l86 -164h-129l-46 54l-45 -54h-129z" />
<glyph unicode="&#xfc;" d="M16 121v1087h197v-1028q0 -18 18 -18q9 0 21 4v1042h197v-1208h-193v41q-63 -49 -125 -49q-56 0 -85.5 33.5t-29.5 95.5zM74 1249v164h147v-164h-147zM246 1249v164h147v-164h-147z" />
<glyph unicode="&#xfd;" horiz-adv-x="471" d="M2 1208h197l16 -241q13 -153 25 -392h4q9 189 22 392l17 241h188l-160 -1374h-186l29 229zM162 1249l55 164h203l-105 -164h-153z" />
<glyph unicode="&#xfe;" d="M16 -135v1569h197v-275q63 49 123 49q55 0 84 -33.5t29 -95.5v-958q0 -62 -29 -95.5t-84 -33.5q-60 0 -123 47v-174h-197zM213 166q16 -4 20 -4q19 0 19 18v840q0 18 -19 18q-4 0 -20 -4v-868z" />
<glyph unicode="&#xff;" horiz-adv-x="471" d="M2 1208h197l16 -241q13 -153 25 -392h4q9 189 22 392l17 241h188l-160 -1374h-186l29 229zM80 1249v164h147v-164h-147zM252 1249v164h147v-164h-147z" />
<glyph unicode="&#x152;" horiz-adv-x="653" d="M16 184v1065q0 185 185 185h438v-179h-160v-440h154v-178h-154v-459h162v-178h-440q-185 0 -185 184zM225 188q0 -16 17 -16h32v1090h-32q-17 0 -17 -17v-1057z" />
<glyph unicode="&#x153;" horiz-adv-x="692" d="M14 162v885q0 170 170 170h74q60 0 90 -33q26 33 90 33h68q170 0 170 -170v-525h-232v-354q0 -14 15 -14h14q12 0 12 14v264h191v-270q0 -170 -170 -170h-68q-64 0 -90 33q-30 -33 -90 -33h-74q-170 0 -170 170zM211 170q0 -12 14 -12h13q12 0 12 12v868q0 13 -12 13h-13 q-14 0 -14 -13v-868zM444 670h39v370q0 15 -12 15h-12q-15 0 -15 -15v-370z" />
<glyph unicode="&#x178;" horiz-adv-x="475" d="M-6 1434h217l37 -527l45 527h188l-139 -977v-457h-209v457zM90 1475v139h150v-139h-150zM264 1475v139h150v-139h-150z" />
<glyph unicode="&#x2c6;" horiz-adv-x="614" d="M133 1249l86 164h176l86 -164h-129l-45 54l-45 -54h-129z" />
<glyph unicode="&#x2dc;" horiz-adv-x="614" d="M135 1249v88q0 37 19.5 56.5t54.5 19.5h8q45 0 76 -14l41 -23q16 -8 20 -8q8 0 8 10v35h117v-88q0 -76 -73 -76h-9q-44 0 -75 15l-41 22q-16 8 -21 8q-8 0 -8 -10v-35h-117z" />
<glyph unicode="&#x2000;" horiz-adv-x="813" />
<glyph unicode="&#x2001;" horiz-adv-x="1626" />
<glyph unicode="&#x2002;" horiz-adv-x="813" />
<glyph unicode="&#x2003;" horiz-adv-x="1626" />
<glyph unicode="&#x2004;" horiz-adv-x="542" />
<glyph unicode="&#x2005;" horiz-adv-x="406" />
<glyph unicode="&#x2006;" horiz-adv-x="271" />
<glyph unicode="&#x2007;" horiz-adv-x="271" />
<glyph unicode="&#x2008;" horiz-adv-x="203" />
<glyph unicode="&#x2009;" horiz-adv-x="325" />
<glyph unicode="&#x200a;" horiz-adv-x="90" />
<glyph unicode="&#x2010;" horiz-adv-x="311" d="M12 524v181h287v-181h-287z" />
<glyph unicode="&#x2011;" horiz-adv-x="311" d="M12 524v181h287v-181h-287z" />
<glyph unicode="&#x2012;" horiz-adv-x="311" d="M12 524v181h287v-181h-287z" />
<glyph unicode="&#x2013;" horiz-adv-x="471" d="M12 545v143h447v-143h-447z" />
<glyph unicode="&#x2014;" horiz-adv-x="704" d="M12 543v143h680v-143h-680z" />
<glyph unicode="&#x2018;" horiz-adv-x="247" d="M35 1018v49q0 101 9.5 177t39.5 190h141q-14 -75 -20.5 -143.5t-7 -103.5t-0.5 -112v-57h-162z" />
<glyph unicode="&#x2019;" horiz-adv-x="247" d="M23 1018q14 75 20.5 143t7 103.5t0.5 111.5v58h162v-50q0 -100 -9.5 -175.5t-39.5 -190.5h-141z" />
<glyph unicode="&#x201a;" horiz-adv-x="225" d="M6 -193q14 76 20.5 142.5t7.5 105.5t1 111v57h162v-49q0 -99 -9.5 -175.5t-40.5 -191.5h-141z" />
<glyph unicode="&#x201c;" horiz-adv-x="434" d="M35 1018v49q0 101 9.5 177t39.5 190h141q-14 -75 -20.5 -143.5t-7 -103.5t-0.5 -112v-57h-162zM221 1018v49q0 101 9.5 177t39.5 190h142q-14 -76 -20.5 -142.5t-7.5 -105.5t-1 -111v-57h-162z" />
<glyph unicode="&#x201d;" horiz-adv-x="434" d="M23 1018q14 75 20.5 143t7 103.5t0.5 111.5v58h162v-50q0 -100 -9.5 -175.5t-39.5 -190.5h-141zM209 1018q14 76 20.5 142.5t7.5 105t1 110.5v58h161v-50q0 -100 -9.5 -175.5t-39.5 -190.5h-141z" />
<glyph unicode="&#x201e;" horiz-adv-x="434" d="M4 -195q14 76 20.5 142.5t7.5 105.5t1 111v57h162v-49q0 -99 -9.5 -175.5t-40.5 -191.5h-141zM190 -195q14 76 20.5 142.5t7.5 105.5t1 111v57h162v-49q0 -101 -9.5 -177t-39.5 -190h-142z" />
<glyph unicode="&#x2022;" horiz-adv-x="335" d="M29 664v137q0 110 110 110h58q110 0 110 -110v-137q0 -111 -110 -111h-58q-110 0 -110 111z" />
<glyph unicode="&#x2026;" horiz-adv-x="636" d="M29 0v223h168v-223h-168zM233 0v223h168v-223h-168zM440 0v223h168v-223h-168z" />
<glyph unicode="&#x202f;" horiz-adv-x="325" />
<glyph unicode="&#x2039;" horiz-adv-x="286" d="M10 614l101 308h157l-73 -308l73 -307h-157z" />
<glyph unicode="&#x203a;" horiz-adv-x="286" d="M18 307l74 307l-74 308h158l100 -308l-100 -307h-158z" />
<glyph unicode="&#x205f;" horiz-adv-x="406" />
<glyph unicode="&#x20ac;" horiz-adv-x="505" d="M6 606v111h45v24h-45v111h45v405q0 185 185 185h73q185 0 185 -185v-370h-199v366q0 17 -16 17h-9q-16 0 -16 -17v-401h178v-111h-178v-24h178v-111h-178v-426q0 -16 16 -16h11q16 0 16 16v391h199v-395q0 -184 -185 -184h-75q-185 0 -185 184v430h-45z" />
<glyph unicode="&#x2122;" horiz-adv-x="659" d="M18 1331v103h246v-103h-69v-602h-107v602h-70zM289 729v705h149l21 -488l20 488h150v-705h-105v531h-2l-30 -531h-89l-28 531h-2v-531h-84z" />
<glyph unicode="&#x25fc;" horiz-adv-x="1208" d="M0 0v1208h1208v-1208h-1208z" />
<glyph unicode="&#xfb01;" horiz-adv-x="542" d="M6 1036v172h39v82q0 144 141 144h119v-144h-49q-27 0 -27 -26v-56h76v-172h-63v-1036h-197v1036h-39zM326 1235v145h200v-145h-200zM328 0v1208h196v-1208h-196z" />
<glyph unicode="&#xfb02;" horiz-adv-x="538" d="M6 1036v172h39v82q0 144 141 144h119v-144h-49q-27 0 -27 -26v-56h76v-172h-63v-1036h-197v1036h-39zM326 0v1434h196v-1434h-196z" />
<glyph unicode="&#xfb03;" horiz-adv-x="858" d="M6 1036v172h39v82q0 144 141 144h119v-144h-49q-27 0 -27 -26v-56h76v-172h-63v-1036h-197v1036h-39zM322 1036v172h38v82q0 144 142 144h119v-144h-50q-14 0 -20 -5.5t-6 -20.5v-56h76v-172h-64v-1036h-197v1036h-38zM641 1235v145h201v-145h-201zM643 0v1208h197v-1208 h-197z" />
<glyph unicode="&#xfb04;" horiz-adv-x="854" d="M6 1036v172h39v82q0 144 141 144h119v-144h-49q-27 0 -27 -26v-56h76v-172h-63v-1036h-197v1036h-39zM322 1036v172h38v82q0 144 142 144h119v-144h-50q-14 0 -20 -5.5t-6 -20.5v-56h76v-172h-64v-1036h-197v1036h-38zM641 0v1434h197v-1434h-197z" />
</font>
</defs>
</svg>
