<?xml version="1.0" standalone="no"?>
<!DOCTYPE svg PUBLIC "-//W3C//DTD SVG 1.1//EN" "http://www.w3.org/Graphics/SVG/1.1/DTD/svg11.dtd" >
<svg xmlns="http://www.w3.org/2000/svg">
<metadata></metadata>
<defs>
<font id="tungsten_narrowsemibold" horiz-adv-x="616" >
<font-face units-per-em="2048" ascent="1638" descent="-410" />
<missing-glyph horiz-adv-x="219" />
<glyph horiz-adv-x="2048" />
<glyph horiz-adv-x="2048" />
<glyph unicode="&#xd;" horiz-adv-x="2048" />
<glyph unicode=" "  horiz-adv-x="219" />
<glyph unicode="&#x09;" horiz-adv-x="219" />
<glyph unicode="&#xa0;" horiz-adv-x="219" />
<glyph unicode="!" horiz-adv-x="303" d="M59 1079v355h183v-355l-45 -710h-93zM66 0v244h170v-244h-170z" />
<glyph unicode="&#x22;" horiz-adv-x="458" d="M33 946l24 488h160l-67 -488h-117zM252 946l24 488h162l-67 -488h-119z" />
<glyph unicode="#" horiz-adv-x="624" d="M27 262v195l86 24v367l-86 -25v197l86 24v394h141v-353l117 33v320h141v-279l86 25v-195l-86 -24v-367l86 25v-195l-86 -27v-405h-141v364l-117 -32v-332h-141v291zM254 522l117 35v365l-117 -33v-367z" />
<glyph unicode="$" horiz-adv-x="636" d="M51 223v342h185v-334q0 -71 69 -71h27q71 0 71 71v246q0 43 -12.5 68t-44.5 49l-184 139q-63 46 -87 97.5t-24 132.5v245q0 218 203 230v127h129v-127q203 -12 203 -228v-309h-185v301q0 37 -16.5 54.5t-52.5 17.5h-25q-69 0 -69 -72v-215q0 -43 12.5 -68t44.5 -49 l180 -137q66 -49 90.5 -98t24.5 -131v-279q0 -220 -207 -229v-135h-127v135q-205 9 -205 227z" />
<glyph unicode="%" horiz-adv-x="808" d="M45 748v542q0 75 39.5 115.5t112.5 40.5h75q75 0 114.5 -40.5t39.5 -115.5v-125l-2 -219l125 492h127l-174 -600q24 4 41 4h69q75 0 114.5 -40.5t39.5 -115.5v-543q0 -75 -39.5 -115t-114.5 -40h-75q-74 0 -113 40t-39 115v123v223l-125 -493h-125l170 600q-24 -4 -39 -4 h-69q-75 0 -113.5 40.5t-38.5 115.5zM178 770q0 -51 45 -51h29q43 0 43 51v494q0 51 -45 51h-27q-45 0 -45 -51v-494zM514 170q0 -51 47 -51h27q45 0 45 51v494q0 51 -45 51h-29q-45 0 -45 -51v-494z" />
<glyph unicode="&#x26;" horiz-adv-x="776" d="M35 205v346q0 138 84 211l63 55l-37 78q-25 48 -33 88t-8 98v140q0 225 224 225h69q221 0 221 -221v-262h-178v249q0 66 -67 66h-21q-67 0 -67 -66v-135q0 -64 28 -127l191 -393l71 272h179l-140 -471l179 -358h-195l-70 145q-32 -89 -78.5 -123t-146.5 -34h-51 q-217 0 -217 217zM215 217q0 -63 64 -63h36q30 0 46 15t28 54l35 111l-160 321q-28 -21 -38.5 -45t-10.5 -63v-330z" />
<glyph unicode="'" horiz-adv-x="243" d="M33 946l24 488h164l-67 -488h-121z" />
<glyph unicode="(" horiz-adv-x="362" d="M55 483v467q0 225 38.5 332t162.5 231l96 -40q-95 -131 -123 -225t-28 -296v-471q0 -202 28 -295.5t123 -224.5l-96 -41q-85 85 -126 155.5t-58 162t-17 245.5z" />
<glyph unicode=")" horiz-adv-x="362" d="M10 -39q95 131 123.5 224.5t28.5 295.5v471q0 202 -28.5 296t-123.5 225l96 40q124 -124 162.5 -231t38.5 -332v-467q0 -154 -17 -245.5t-58 -162t-126 -155.5z" />
<glyph unicode="*" horiz-adv-x="477" d="M27 1008v108l129 68l-129 65v111h6l160 -94l-5 170h101l-6 -168l161 92h7v-111l-134 -65l134 -68v-108h-7l-159 92l4 -170h-101l5 170l-160 -92h-6z" />
<glyph unicode="+" horiz-adv-x="559" d="M18 655v140h189v192h145v-192h189v-140h-189v-192h-145v192h-189z" />
<glyph unicode="," horiz-adv-x="253" d="M41 -174l20 45q36 82 41 129h-59v244h170v-162q0 -74 -13.5 -116t-56.5 -107l-34 -54z" />
<glyph unicode="-" horiz-adv-x="380" d="M25 504v166h331v-166h-331z" />
<glyph unicode="." horiz-adv-x="253" d="M41 0v244h172v-244h-172z" />
<glyph unicode="/" horiz-adv-x="378" d="M6 -61l232 1556h135l-232 -1556h-135z" />
<glyph unicode="0" horiz-adv-x="663" d="M55 219v995q0 232 230 232h94q231 0 231 -232v-995q0 -117 -57 -174t-174 -57h-94q-230 0 -230 231zM242 227q0 -71 71 -71h37q72 0 72 71v979q0 72 -72 72h-37q-71 0 -71 -72v-979z" />
<glyph unicode="1" horiz-adv-x="382" d="M14 1184v137l15 2q48 6 78.5 25.5t62.5 62.5l20 29h123v-1440h-184v1184h-115z" />
<glyph unicode="2" horiz-adv-x="622" d="M43 0v287q0 70 20 124t74 126l207 288q47 65 47 129v250q0 72 -69 72h-23q-70 0 -70 -72v-303h-182v311q0 232 229 232h74q230 0 230 -232v-245q0 -70 -19.5 -126.5t-73.5 -127.5l-206 -287q-29 -41 -39.5 -71t-10.5 -72v-111h349v-172h-537z" />
<glyph unicode="3" horiz-adv-x="636" d="M41 217v287h182v-277q0 -71 72 -71h31q71 0 71 71v342q0 72 -69 72h-164v172h160q71 0 71 72v321q0 72 -71 72h-27q-72 0 -72 -72v-254h-180v262q0 232 231 232h76q232 0 232 -232v-290q0 -145 -103 -187q56 -15 81.5 -52.5t25.5 -106.5v-359q0 -231 -232 -231h-86 q-229 0 -229 229z" />
<glyph unicode="4" horiz-adv-x="620" d="M25 248v182l249 1004h250v-1020h88v-166h-88v-248h-172v248h-327zM176 414h176v579v158z" />
<glyph unicode="5" horiz-adv-x="636" d="M53 217v301h185v-291q0 -71 67 -71h27q69 0 69 71v432q0 78 -65 78q-52 0 -109 -63h-168v760h512v-172h-333l-5 -414q38 31 75.5 47t88.5 16h2q87 0 139 -54.5t52 -147.5v-490q0 -231 -230 -231h-79q-228 0 -228 229z" />
<glyph unicode="6" horiz-adv-x="649" d="M53 219v995q0 232 232 232h82q117 0 172 -55.5t55 -171.5v-248h-182v235q0 72 -72 72h-29q-69 0 -69 -72v-393q69 37 147 37h10q93 0 147 -57t54 -150v-424q0 -231 -231 -231h-84q-232 0 -232 231zM242 227q0 -71 69 -71h31q72 0 72 71v379q0 74 -74 74q-57 0 -98 -18 v-435z" />
<glyph unicode="7" horiz-adv-x="526" d="M20 1262v172h476v-187l-234 -1247h-186l237 1262h-293z" />
<glyph unicode="8" horiz-adv-x="647" d="M51 219v363q0 68 25 106t82 53q-105 40 -105 185v288q0 232 232 232h75q232 0 232 -232v-288q0 -146 -103 -185q56 -15 81.5 -53.5t25.5 -105.5v-363q0 -117 -57 -174t-174 -57h-84q-230 0 -230 231zM236 225q0 -71 71 -71h33q72 0 72 71v353q0 71 -72 71h-33 q-71 0 -71 -71v-353zM238 885q0 -74 71 -74h29q72 0 72 74v323q0 72 -72 72h-29q-71 0 -71 -72v-323z" />
<glyph unicode="9" horiz-adv-x="647" d="M51 780v434q0 230 232 230h79q232 0 232 -230v-993q0 -231 -232 -231h-79q-117 0 -173.5 55t-56.5 172v229h183v-217q0 -73 69 -73h31q70 0 70 73v381q-69 -37 -148 -37h-6q-94 0 -147.5 56.5t-53.5 150.5zM238 817q0 -74 71 -74q49 0 97 21v440q0 74 -70 74h-29 q-69 0 -69 -74v-387z" />
<glyph unicode=":" horiz-adv-x="251" d="M41 0v244h172v-244h-172zM41 901v244h172v-244h-172z" />
<glyph unicode=";" horiz-adv-x="253" d="M41 -174l20 45q36 82 41 129h-59v244h170v-162q0 -74 -13.5 -116t-56.5 -107l-34 -54zM41 901v244h172v-244h-172z" />
<glyph unicode="&#x3c;" horiz-adv-x="561" d="M29 631v188l491 170v-151l-366 -111l366 -109v-155z" />
<glyph unicode="=" horiz-adv-x="561" d="M29 526v140h503v-140h-503zM29 784v138h503v-138h-503z" />
<glyph unicode="&#x3e;" horiz-adv-x="561" d="M41 463v155l367 109l-367 111v151l491 -170v-188z" />
<glyph unicode="?" horiz-adv-x="585" d="M33 903v311q0 230 229 230h64q116 0 172.5 -57t56.5 -173v-266q0 -64 -18 -107t-70 -104l-82 -100q-21 -28 -27 -51.5t-6 -65.5v-162h-147v224q0 68 14.5 104t59.5 88l51 66q39 47 39 102v262q0 74 -70 74h-23q-71 0 -71 -74v-301h-172zM195 0v244h167v-244h-167z" />
<glyph unicode="@" horiz-adv-x="890" d="M63 152v843q0 159 65.5 226t213.5 67h209q148 0 212 -66.5t64 -226.5v-792q0 -76 -31.5 -112t-99.5 -36h-59q-51 0 -79 16.5t-42 53.5q-66 -72 -147 -72q-60 0 -94.5 37t-34.5 103v284q0 71 24.5 107.5t85.5 58.5l152 49v217q0 54 -49 54h-11q-51 0 -51 -54v-170h-141 v189q0 168 172 168h53q170 0 170 -168v-768q0 -23 10 -33t33 -10h10q66 0 66 88v790q0 129 -48.5 180.5t-164.5 51.5h-209q-116 0 -164.5 -51.5t-48.5 -180.5v-843q0 -128 49 -180t164 -52h428v-59h-428q-151 0 -215 65t-64 226zM383 238q0 -48 47 -48q24 0 72 25v346 l-78 -29q-23 -9 -32 -23.5t-9 -41.5v-229z" />
<glyph unicode="A" horiz-adv-x="649" d="M20 0l179 1436h252l178 -1436h-189l-24 223h-195l-22 -223h-179zM240 391h157l-80 746z" />
<glyph unicode="B" horiz-adv-x="649" d="M57 0v1434h308q118 0 174.5 -57t56.5 -175v-278q0 -151 -107 -189q57 -21 84 -63.5t27 -116.5v-324q0 -231 -231 -231h-312zM246 166h92q74 0 74 72v331q0 78 -78 78h-88v-481zM246 811h84q78 0 78 76v309q0 72 -72 72h-90v-457z" />
<glyph unicode="C" horiz-adv-x="659" d="M53 219v995q0 232 232 232h92q229 0 229 -229v-345h-186v334q0 72 -72 72h-33q-71 0 -71 -72v-979q0 -71 71 -71h37q72 0 72 71v371h186v-379q0 -117 -57 -174t-174 -57h-94q-232 0 -232 231z" />
<glyph unicode="D" horiz-adv-x="669" d="M57 0v1434h287q139 0 204.5 -66.5t65.5 -206.5v-889q0 -138 -66.5 -205t-203.5 -67h-287zM248 168h69q109 0 109 108v881q0 109 -109 109h-69v-1098z" />
<glyph unicode="E" horiz-adv-x="524" d="M57 0v1434h424v-172h-233v-447h223v-172h-223v-471h235v-172h-426z" />
<glyph unicode="F" horiz-adv-x="505" d="M57 0v1434h414v-172h-223v-455h215v-172h-215v-635h-191z" />
<glyph unicode="G" horiz-adv-x="669" d="M53 219v995q0 232 232 232h100q229 0 229 -229v-291h-188v280q0 72 -72 72h-39q-71 0 -71 -72v-979q0 -71 71 -71h45q70 0 70 71v375h-98v166h284v-549q0 -231 -229 -231h-102q-232 0 -232 231z" />
<glyph unicode="H" horiz-adv-x="677" d="M57 0v1434h191v-619h182v619h191v-1434h-191v641h-182v-641h-191z" />
<glyph unicode="I" horiz-adv-x="309" d="M59 0v1434h191v-1434h-191z" />
<glyph unicode="J" horiz-adv-x="425" d="M29 0v172h77q74 0 74 74v1188h191v-1203q0 -231 -232 -231h-110z" />
<glyph unicode="K" horiz-adv-x="643" d="M57 0v1434h191v-689l194 689h197l-211 -707l205 -727h-205l-180 690v-690h-191z" />
<glyph unicode="L" horiz-adv-x="483" d="M57 0v1434h191v-1262h205v-172h-396z" />
<glyph unicode="M" horiz-adv-x="923" d="M57 0v1434h285l119 -1043l121 1043h284v-1434h-186v416l2 710l-139 -1126h-187l-139 1122l4 -710v-412h-164z" />
<glyph unicode="N" horiz-adv-x="684" d="M57 0v1434h222l182 -906l-4 258l-2 648h172v-1434h-207l-199 987l6 -293v-694h-170z" />
<glyph unicode="O" horiz-adv-x="671" d="M53 219v995q0 232 232 232h102q229 0 229 -232v-995q0 -231 -229 -231h-102q-232 0 -232 231zM244 227q0 -71 71 -71h39q74 0 74 71v979q0 72 -74 72h-39q-71 0 -71 -72v-979z" />
<glyph unicode="P" horiz-adv-x="624" d="M57 0v1434h299q118 0 175 -57t57 -175v-436q0 -231 -232 -231h-108v-535h-191zM248 702h78q71 0 71 72v420q0 72 -71 72h-78v-564z" />
<glyph unicode="Q" horiz-adv-x="671" d="M53 221v993q0 232 232 232h102q229 0 229 -232v-974q0 -145 -94 -197l127 -51l-92 -144l-231 142h-41q-232 0 -232 231zM244 229q0 -73 71 -73h39q74 0 74 73v977q0 72 -74 72h-39q-71 0 -71 -72v-977z" />
<glyph unicode="R" horiz-adv-x="655" d="M57 0v1434h314q118 0 173.5 -57t55.5 -175v-332q0 -81 -26.5 -125t-81.5 -65q58 -17 84 -56t26 -108v-516h-188v512q0 80 -80 80h-86v-592h-191zM248 756h86q78 0 78 78v358q0 72 -74 72h-90v-508z" />
<glyph unicode="S" horiz-adv-x="641" d="M51 217v348h187v-340q0 -71 71 -71h25q72 0 72 71v250q0 43 -12.5 68t-43.5 49l-188 141q-63 49 -87 99.5t-24 130.5v251q0 232 232 232h79q230 0 230 -229v-314h-186v305q0 72 -72 72h-23q-71 0 -71 -72v-219q0 -43 12.5 -68t44.5 -49l184 -139q66 -49 90.5 -99 t24.5 -132v-283q0 -231 -231 -231h-84q-230 0 -230 229z" />
<glyph unicode="T" horiz-adv-x="559" d="M18 1262v172h525v-172h-168v-1262h-191v1262h-166z" />
<glyph unicode="U" horiz-adv-x="665" d="M55 221v1213h191v-1205q0 -73 71 -73h31q72 0 72 73v1205h190v-1213q0 -117 -57 -174t-174 -57h-92q-232 0 -232 231z" />
<glyph unicode="V" horiz-adv-x="641" d="M20 1434h193l113 -1069l114 1069h181l-183 -1436h-235z" />
<glyph unicode="W" horiz-adv-x="980" d="M31 1434h192l86 -1033l99 1033h182l96 -1033l88 1033h176l-151 -1434h-226l-84 854l-81 -854h-226z" />
<glyph unicode="X" horiz-adv-x="638" d="M23 0l174 713l-170 721h194l101 -516l108 516h184l-174 -709l176 -725h-194l-105 518l-112 -518h-182z" />
<glyph unicode="Y" horiz-adv-x="612" d="M8 1434h197l106 -625l113 625h184l-205 -918v-516h-190v494z" />
<glyph unicode="Z" horiz-adv-x="526" d="M35 0v188l270 1074h-264v172h451v-189l-273 -1073h275v-172h-459z" />
<glyph unicode="[" horiz-adv-x="364" d="M68 -61v1556h282v-113h-141v-1331h141v-112h-282z" />
<glyph unicode="\" horiz-adv-x="378" d="M6 1495h135l232 -1556h-135z" />
<glyph unicode="]" horiz-adv-x="364" d="M12 51h142v1331h-142v113h283v-1556h-283v112z" />
<glyph unicode="^" horiz-adv-x="673" d="M94 1059l180 375h125l181 -375h-136l-106 231l-109 -231h-135z" />
<glyph unicode="_" horiz-adv-x="815" d="M-4 -39h823v-139h-823v139z" />
<glyph unicode="`" horiz-adv-x="888" d="M346 1419h178l68 -196h-127z" />
<glyph unicode="a" horiz-adv-x="593" d="M41 154v286q0 85 30.5 127.5t108.5 69.5l185 63v236q0 65 -64 65h-12q-66 0 -66 -65v-195h-172v201q0 217 219 217h58q217 0 217 -217v-942h-178v61q-39 -36 -77.5 -54.5t-90.5 -18.5h-2q-76 0 -116 43t-40 123zM217 205q0 -55 55 -55q45 0 93 28v369l-97 -35 q-29 -12 -40 -29t-11 -51v-227z" />
<glyph unicode="b" d="M51 0v1448h180v-365q80 76 168 76h2q81 0 124.5 -48t43.5 -134v-807q0 -87 -43.5 -134.5t-124.5 -47.5h-2q-94 0 -170 69v-57h-178zM231 184q43 -32 95 -32q63 0 63 59v723q0 61 -63 61q-52 0 -95 -32v-779z" />
<glyph unicode="c" horiz-adv-x="600" d="M47 205v737q0 217 217 217h76q215 0 215 -215v-260h-178v248q0 63 -64 63h-22q-64 0 -64 -63v-717q0 -65 64 -65h24q64 0 64 65v277h176v-287q0 -217 -215 -217h-76q-217 0 -217 217z" />
<glyph unicode="d" horiz-adv-x="618" d="M47 170v807q0 86 44 134t126 48h2q87 0 168 -69v358h178v-1448h-178v63q-79 -75 -168 -75h-2q-83 0 -126.5 47.5t-43.5 134.5zM227 211q0 -59 66 -59q48 0 94 32v779q-46 32 -94 32q-66 0 -66 -61v-723z" />
<glyph unicode="e" horiz-adv-x="598" d="M47 205v737q0 217 217 217h70q217 0 217 -217v-438h-326v-291q0 -63 66 -63h22q64 0 64 63v184h174v-192q0 -217 -217 -217h-70q-217 0 -217 217zM225 657h150v277q0 65 -66 65h-18q-66 0 -66 -65v-277z" />
<glyph unicode="f" horiz-adv-x="382" d="M29 989v158h53v106q0 195 194 195h101v-156h-64q-51 0 -51 -51v-94h109v-158h-109v-989h-180v989h-53z" />
<glyph unicode="g" d="M47 274v703q0 86 44 134t126 48h2q87 0 168 -69v57h178v-1151q0 -107 -51.5 -158t-157.5 -51h-116q-97 0 -143 45t-46 141v64h164v-49q0 -58 55 -58h62q55 0 55 58v172q-78 -68 -168 -68h-2q-83 0 -126.5 47.5t-43.5 134.5zM227 311q0 -59 66 -59q44 0 94 31v680 q-46 32 -94 32q-66 0 -66 -61v-623z" />
<glyph unicode="h" d="M51 0v1448h180v-365q83 76 170 76h9q76 0 115.5 -43t39.5 -125v-991h-178v938q0 57 -59 57q-48 0 -97 -30v-965h-180z" />
<glyph unicode="i" horiz-adv-x="290" d="M53 1233v174h187v-174h-187zM55 0v1147h181v-1147h-181z" />
<glyph unicode="j" horiz-adv-x="292" d="M-8 -57h14q51 0 51 51v1153h181v-1170q0 -186 -189 -186h-57v152zM53 1233v174h187v-174h-187z" />
<glyph unicode="k" horiz-adv-x="583" d="M51 0v1448h180v-860l162 559h189l-181 -561l174 -586h-192l-152 565v-565h-180z" />
<glyph unicode="l" horiz-adv-x="290" d="M55 0v1448h181v-1448h-181z" />
<glyph unicode="m" horiz-adv-x="937" d="M51 0v1147h178v-64q83 76 170 76h7q101 0 137 -82q89 82 184 82h6q75 0 114.5 -43t39.5 -123v-993h-180v940q0 55 -54 55q-45 0 -94 -30v-965h-180v940q0 55 -53 55q-46 0 -95 -30v-965h-180z" />
<glyph unicode="n" d="M51 0v1147h178v-64q83 76 172 76h9q76 0 115.5 -43t39.5 -125v-991h-178v938q0 57 -59 57q-48 0 -97 -30v-965h-180z" />
<glyph unicode="o" horiz-adv-x="612" d="M47 205v737q0 217 217 217h84q217 0 217 -217v-737q0 -217 -217 -217h-84q-217 0 -217 217zM227 215q0 -65 64 -65h28q66 0 66 65v717q0 63 -66 63h-28q-64 0 -64 -63v-717z" />
<glyph unicode="p" d="M51 -205v1352h178v-64q80 76 170 76h2q81 0 124.5 -48t43.5 -134v-807q0 -87 -43.5 -134.5t-124.5 -47.5h-2q-92 0 -168 69v-262h-180zM231 184q43 -32 95 -32q63 0 63 59v723q0 61 -63 61q-52 0 -95 -32v-779z" />
<glyph unicode="q" horiz-adv-x="618" d="M47 170v807q0 86 44 134t126 48h2q87 0 168 -69v57h178v-1352h-178v268q-79 -75 -168 -75h-2q-83 0 -126.5 47.5t-43.5 134.5zM227 211q0 -59 66 -59q48 0 94 32v779q-46 32 -94 32q-66 0 -66 -61v-723z" />
<glyph unicode="r" horiz-adv-x="401" d="M51 0v1147h178v-105q32 61 66 88t86 27v-199q-96 -8 -150 -57v-901h-180z" />
<glyph unicode="s" horiz-adv-x="585" d="M45 203v227h176v-221q0 -64 62 -64h24q62 0 62 64v153q0 33 -11 52.5t-39 40.5l-157 102q-64 43 -89.5 86t-25.5 117v182q0 217 217 217h62q215 0 215 -215v-219h-174v213q0 63 -64 63h-20q-62 0 -62 -63v-147q0 -36 10 -55t39 -38l158 -102q64 -42 89.5 -86t25.5 -119 v-186q0 -217 -217 -217h-64q-107 0 -162 54.5t-55 160.5z" />
<glyph unicode="t" horiz-adv-x="382" d="M25 989v158h63v166h180v-166h97v-158h-97v-989h-180v989h-63z" />
<glyph unicode="u" d="M49 156v991h180v-938q0 -57 60 -57q47 0 96 30v965h180v-1147h-180v61q-80 -73 -170 -73h-8q-78 0 -118 43t-40 125z" />
<glyph unicode="v" horiz-adv-x="583" d="M20 1147h181l94 -823l98 823h172l-164 -1147h-219z" />
<glyph unicode="w" horiz-adv-x="860" d="M23 1147h176l69 -752l86 752h162l86 -752l70 752h166l-144 -1147h-184l-80 678l-80 -678h-184z" />
<glyph unicode="x" horiz-adv-x="559" d="M4 0l162 559l-158 588h187l88 -389l94 389h174l-160 -559l164 -588h-186l-90 391l-99 -391h-176z" />
<glyph unicode="y" horiz-adv-x="581" d="M16 1147h181l92 -711l106 711h172l-243 -1352h-172l51 240z" />
<glyph unicode="z" horiz-adv-x="489" d="M27 0v156l249 833h-241v158h428v-158l-252 -831h252v-158h-436z" />
<glyph unicode="{" horiz-adv-x="454" d="M20 659v107l60 10q34 6 48.5 19.5t14.5 44.5v215q0 95 6.5 151t31 108t60 91.5t105.5 101.5l96 -39q-73 -89 -102.5 -140.5t-39 -106t-9.5 -164.5v-160q0 -143 -107 -184q55 -15 81 -53.5t26 -106.5v-184q0 -157 24 -223t127 -189l-96 -41q-91 82 -131 136t-56 123.5 t-16 193.5v215q0 32 -14.5 44t-48.5 19z" />
<glyph unicode="|" horiz-adv-x="436" d="M152 -127v1679h133v-1679h-133z" />
<glyph unicode="}" horiz-adv-x="454" d="M10 -43q104 124 128 190t24 222v184q0 68 25.5 106.5t80.5 53.5q-106 40 -106 184v160q0 154 -24 220t-128 191l96 39q70 -62 105.5 -101.5t60 -91.5t31 -108t6.5 -151v-215q0 -31 15 -44.5t49 -19.5l59 -10v-107l-59 -12q-34 -7 -49 -19.5t-15 -43.5v-215 q0 -124 -16 -193.5t-56 -123.5t-131 -136z" />
<glyph unicode="~" horiz-adv-x="671" d="M96 616v144q57 63 135 63h7q27 0 88 -18l32 -12q62 -19 88 -19h7q74 0 131 57v-143q-57 -63 -135 -63h-5q-41 0 -96 20l-26 10q-59 19 -89 19h-4q-75 0 -133 -58z" />
<glyph unicode="&#xa1;" horiz-adv-x="303" d="M59 0v354l45 711h93l45 -711v-354h-183zM66 1190v244h170v-244h-170z" />
<glyph unicode="&#xa2;" horiz-adv-x="593" d="M51 334v772q0 198 185 213v121h129v-121q180 -18 180 -213v-270h-172v262q0 63 -66 63h-16q-66 0 -66 -63v-756q0 -66 66 -66h18q66 0 66 66v295h172v-303q0 -197 -180 -215v-125h-131v123q-185 15 -185 217z" />
<glyph unicode="&#xa3;" horiz-adv-x="677" d="M33 0v172h71v406h-71v167h71v469q0 230 232 230h70q229 0 229 -230v-288h-182v278q0 74 -70 74h-21q-69 0 -69 -74v-459h225v-167h-225v-406h346v-172h-606z" />
<glyph unicode="&#xa5;" horiz-adv-x="608" d="M10 1434h193l104 -609l111 609h180l-186 -826h149v-108h-164v-76h164v-109h-164v-315h-186v315h-164v109h164v76h-164v108h148z" />
<glyph unicode="&#xa7;" horiz-adv-x="643" d="M57 217v240h179v-234q0 -71 71 -71h23q71 0 71 71v213q0 29 -12.5 45t-40.5 27l-178 76q-69 29 -90 63.5t-21 102.5v32l396 -168q73 -32 101 -71t28 -121v-203q0 -231 -232 -231h-65q-230 0 -230 229zM59 1012v202q0 232 232 232h65q230 0 230 -229v-240h-178v233 q0 72 -72 72h-23q-71 0 -71 -72v-213q0 -29 12.5 -44.5t40.5 -26.5l178 -76q69 -29 90 -63.5t21 -104.5v-31l-396 168q-73 30 -101 70t-28 123z" />
<glyph unicode="&#xa8;" horiz-adv-x="888" d="M264 1223v184h146v-184h-146zM481 1223v184h148v-184h-148z" />
<glyph unicode="&#xa9;" horiz-adv-x="884" d="M63 276v881q0 153 68 222t211 69h201q143 0 209.5 -68.5t66.5 -222.5v-881q0 -155 -66.5 -222.5t-209.5 -67.5h-201q-144 0 -211.5 68t-67.5 222zM111 276q0 -132 55.5 -190.5t175.5 -58.5h201q119 0 175 58.5t56 190.5v881q0 132 -56 190t-175 58h-201 q-120 0 -175.5 -58t-55.5 -190v-881zM244 319v797q0 160 170 160h57q86 0 128 -39t42 -121v-282h-141v262q0 47 -45 47h-19q-25 0 -36 -11t-11 -36v-756q0 -25 11 -36t36 -11h19q26 0 37.5 11t11.5 36v287h141v-308q0 -161 -170 -161h-61q-170 0 -170 161z" />
<glyph unicode="&#xaa;" horiz-adv-x="405" d="M51 942v123q0 46 17 72t57 39l123 36v103q0 39 -39 39h-12q-41 0 -41 -39v-84h-99v96q0 119 123 119h47q125 0 125 -119v-479h-102v41q-29 -25 -50 -36t-55 -11h-4q-42 0 -66 25t-24 75zM154 973q0 -35 34 -35q30 0 60 23v161l-68 -20q-26 -10 -26 -45v-84z" />
<glyph unicode="&#xab;" horiz-adv-x="471" d="M12 580l111 319h131l-90 -319l90 -320h-127zM221 580l98 319h132l-78 -319l78 -320h-127z" />
<glyph unicode="&#xad;" horiz-adv-x="380" d="M25 504v166h331v-166h-331z" />
<glyph unicode="&#xae;" horiz-adv-x="530" d="M39 856v418q0 91 41 131.5t131 40.5h108q90 0 130 -40t40 -132v-418q0 -91 -40 -130.5t-130 -39.5h-108q-90 0 -131 39.5t-41 130.5zM76 856q0 -73 32 -105t103 -32h108q71 0 103.5 32t32.5 105v418q0 73 -32 105t-104 32h-108q-71 0 -103 -32t-32 -105v-418zM150 797 v538h141q98 0 98 -80v-141q0 -28 -11.5 -42.5t-35.5 -22.5q26 -6 36.5 -19.5t10.5 -38.5v-194h-84v186q0 27 -35 27h-34v-213h-86zM236 1081h36q33 0 33 27v131q0 23 -29 23h-40v-181z" />
<glyph unicode="&#xaf;" horiz-adv-x="888" d="M258 1235v135h377v-135h-377z" />
<glyph unicode="&#xb0;" horiz-adv-x="458" d="M37 848v448q0 71 38.5 110.5t106.5 39.5h97q68 0 105.5 -39t37.5 -111v-448q0 -71 -38 -110.5t-105 -39.5h-97q-68 0 -106.5 40t-38.5 110zM166 872q0 -51 47 -51h35q47 0 47 51v398q0 51 -47 51h-35q-47 0 -47 -51v-398z" />
<glyph unicode="&#xb1;" horiz-adv-x="561" d="M18 358v140h523v-140h-523zM20 768v139h189v193h145v-193h189v-139h-189v-190h-145v190h-189z" />
<glyph unicode="&#xb4;" horiz-adv-x="888" d="M334 1223l65 196h181l-121 -196h-125z" />
<glyph unicode="&#xb6;" horiz-adv-x="614" d="M53 305v823q0 306 299 306h205v-1434h-121v1309h-100v-1309h-8q-135 6 -205 79.5t-70 225.5z" />
<glyph unicode="&#xb7;" horiz-adv-x="251" d="M41 526v244h172v-244h-172z" />
<glyph unicode="&#xb8;" horiz-adv-x="888" d="M346 -190l88 190h111l-41 -190h-158z" />
<glyph unicode="&#xba;" horiz-adv-x="417" d="M51 969v350q0 127 127 127h64q60 0 92.5 -32t32.5 -95v-350q0 -61 -32.5 -94t-92.5 -33h-64q-62 0 -94.5 33t-32.5 94zM158 979q0 -41 39 -41h26q39 0 39 41v330q0 43 -39 43h-26q-39 0 -39 -43v-330z" />
<glyph unicode="&#xbb;" horiz-adv-x="471" d="M20 260l78 320l-78 319h132l98 -319l-103 -320h-127zM217 260l90 320l-90 319h131l111 -319l-115 -320h-127z" />
<glyph unicode="&#xbf;" horiz-adv-x="585" d="M31 219v266q0 64 18 107t70 104l82 101q21 28 26.5 50.5t5.5 65.5v162h148v-223q0 -68 -14.5 -104.5t-59.5 -88.5l-51 -65q-39 -47 -39 -102v-263q0 -73 70 -73h22q72 0 72 73v301h172v-311q0 -229 -229 -229h-64q-117 0 -173 56.5t-56 172.5zM223 1190v244h168v-244 h-168z" />
<glyph unicode="&#xc0;" horiz-adv-x="649" d="M20 0l179 1436h252l178 -1436h-189l-24 223h-195l-22 -223h-179zM133 1665h180l80 -158h-129zM240 391h157l-80 746z" />
<glyph unicode="&#xc1;" horiz-adv-x="649" d="M20 0l179 1436h252l178 -1436h-189l-24 223h-195l-22 -223h-179zM240 391h157l-80 746zM260 1507l78 158h178l-129 -158h-127z" />
<glyph unicode="&#xc2;" horiz-adv-x="649" d="M20 0l179 1436h252l178 -1436h-189l-24 223h-195l-22 -223h-179zM129 1507l123 172h147l123 -172h-116l-80 70l-80 -70h-117zM240 391h157l-80 746z" />
<glyph unicode="&#xc3;" horiz-adv-x="649" d="M20 0l179 1436h252l178 -1436h-189l-24 223h-195l-22 -223h-179zM125 1507v86q0 90 84 90h16q49 0 84 -22l56 -33q22 -12 38 -12h3q16 0 16 22v45h104v-88q0 -88 -84 -88h-16q-47 0 -82 21l-57 33q-22 12 -39 12h-2q-17 0 -17 -21v-45h-104zM240 391h157l-80 746z" />
<glyph unicode="&#xc4;" horiz-adv-x="649" d="M20 0l179 1436h252l178 -1436h-189l-24 223h-195l-22 -223h-179zM139 1507v148h150v-148h-150zM240 391h157l-80 746zM362 1507v148h150v-148h-150z" />
<glyph unicode="&#xc5;" horiz-adv-x="647" d="M20 -2l168 1362q-45 23 -45 84v8q0 44 29 69t86 25h129q57 0 86 -25t29 -69v-8q0 -59 -45 -82l170 -1362h-187l-24 223h-197l-22 -223zM190 1442q0 -53 72 -53h123q72 0 72 53v10q0 53 -72 53h-123q-72 0 -72 -53v-10zM238 391h159l-80 762z" />
<glyph unicode="&#xc6;" horiz-adv-x="845" d="M23 0l227 1434h553v-172h-234v-447h224v-172h-224v-471h236v-172h-426v223h-148l-32 -223h-176zM256 391h123v881z" />
<glyph unicode="&#xc7;" horiz-adv-x="659" d="M53 219v995q0 232 232 232h92q229 0 229 -229v-345h-186v334q0 72 -72 72h-33q-71 0 -71 -72v-979q0 -71 71 -71h37q72 0 72 71v371h186v-379q0 -113 -54 -169.5t-163 -61.5l-37 -178h-157l82 178q-116 2 -172 58t-56 173z" />
<glyph unicode="&#xc8;" horiz-adv-x="524" d="M57 0v1434h424v-172h-233v-447h223v-172h-223v-471h235v-172h-426zM78 1665h180l80 -158h-129z" />
<glyph unicode="&#xc9;" horiz-adv-x="524" d="M57 0v1434h424v-172h-233v-447h223v-172h-223v-471h235v-172h-426zM205 1507l78 158h178l-129 -158h-127z" />
<glyph unicode="&#xca;" horiz-adv-x="524" d="M57 0v1434h424v-172h-233v-447h223v-172h-223v-471h235v-172h-426zM74 1507l123 172h147l123 -172h-117l-80 70l-80 -70h-116z" />
<glyph unicode="&#xcb;" horiz-adv-x="524" d="M57 0v1434h424v-172h-233v-447h223v-172h-223v-471h235v-172h-426zM84 1507v148h149v-148h-149zM307 1507v148h150v-148h-150z" />
<glyph unicode="&#xcc;" horiz-adv-x="309" d="M-37 1665h180l80 -158h-129zM59 0v1434h191v-1434h-191z" />
<glyph unicode="&#xcd;" horiz-adv-x="309" d="M59 0v1434h191v-1434h-191zM90 1507l78 158h178l-129 -158h-127z" />
<glyph unicode="&#xce;" horiz-adv-x="309" d="M-41 1507l123 172h147l123 -172h-116l-80 70l-80 -70h-117zM59 0v1434h191v-1434h-191z" />
<glyph unicode="&#xcf;" horiz-adv-x="309" d="M-31 1507v148h150v-148h-150zM59 0v1434h191v-1434h-191zM193 1507v148h149v-148h-149z" />
<glyph unicode="&#xd0;" horiz-adv-x="688" d="M6 651v152h70v631h286q139 0 205 -66.5t66 -206.5v-889q0 -138 -67 -205t-204 -67h-286v651h-70zM266 168h70q56 0 82 26t26 82v881q0 109 -108 109h-70v-463h109v-152h-109v-483z" />
<glyph unicode="&#xd1;" horiz-adv-x="684" d="M57 0v1434h222l182 -906l-4 258l-2 648h172v-1434h-207l-199 987l6 -293v-694h-170zM145 1507v86q0 90 84 90h17q49 0 84 -22l55 -33q22 -12 39 -12h2q16 0 16 22v45h105v-88q0 -88 -84 -88h-17q-46 0 -81 21l-58 33q-22 12 -39 12h-2q-16 0 -16 -21v-45h-105z" />
<glyph unicode="&#xd2;" horiz-adv-x="671" d="M53 219v995q0 232 232 232h102q229 0 229 -232v-995q0 -231 -229 -231h-102q-232 0 -232 231zM143 1665h181l79 -158h-129zM244 227q0 -71 71 -71h39q74 0 74 71v979q0 72 -74 72h-39q-71 0 -71 -72v-979z" />
<glyph unicode="&#xd3;" horiz-adv-x="671" d="M53 219v995q0 232 232 232h102q229 0 229 -232v-995q0 -231 -229 -231h-102q-232 0 -232 231zM244 227q0 -71 71 -71h39q74 0 74 71v979q0 72 -74 72h-39q-71 0 -71 -72v-979zM270 1507l78 158h178l-129 -158h-127z" />
<glyph unicode="&#xd4;" horiz-adv-x="671" d="M53 219v995q0 232 232 232h102q229 0 229 -232v-995q0 -231 -229 -231h-102q-232 0 -232 231zM139 1507l123 172h148l122 -172h-116l-80 70l-80 -70h-117zM244 227q0 -71 71 -71h39q74 0 74 71v979q0 72 -74 72h-39q-71 0 -71 -72v-979z" />
<glyph unicode="&#xd5;" horiz-adv-x="671" d="M53 219v995q0 232 232 232h102q229 0 229 -232v-995q0 -231 -229 -231h-102q-232 0 -232 231zM135 1507v86q0 90 84 90h17q48 0 83 -22l56 -33q22 -12 39 -12h2q16 0 16 22v45h105v-88q0 -88 -84 -88h-17q-47 0 -82 21l-57 33q-22 12 -39 12h-2q-16 0 -16 -21v-45h-105z M244 227q0 -71 71 -71h39q74 0 74 71v979q0 72 -74 72h-39q-71 0 -71 -72v-979z" />
<glyph unicode="&#xd6;" horiz-adv-x="671" d="M53 219v995q0 232 232 232h102q229 0 229 -232v-995q0 -231 -229 -231h-102q-232 0 -232 231zM150 1507v148h149v-148h-149zM244 227q0 -71 71 -71h39q74 0 74 71v979q0 72 -74 72h-39q-71 0 -71 -72v-979zM373 1507v148h149v-148h-149z" />
<glyph unicode="&#xd7;" horiz-adv-x="561" d="M33 575l149 150l-147 147l100 101l148 -148l147 148l96 -99l-145 -147l147 -147l-100 -101l-147 148l-150 -150z" />
<glyph unicode="&#xd8;" horiz-adv-x="671" d="M53 219v995q0 232 232 232h102q229 0 229 -232v-995q0 -231 -229 -231h-102q-232 0 -232 231zM238 471l180 778q-16 29 -64 29h-37q-38 0 -55.5 -18t-17.5 -56l-2 -237zM252 184q14 -28 63 -28h39q74 0 74 73l2 234l2 504z" />
<glyph unicode="&#xd9;" horiz-adv-x="665" d="M55 221v1213h191v-1205q0 -73 71 -73h31q72 0 72 73v1205h190v-1213q0 -117 -57 -174t-174 -57h-92q-232 0 -232 231zM141 1665h181l79 -158h-129z" />
<glyph unicode="&#xda;" horiz-adv-x="665" d="M55 221v1213h191v-1205q0 -73 71 -73h31q72 0 72 73v1205h190v-1213q0 -117 -57 -174t-174 -57h-92q-232 0 -232 231zM268 1507l78 158h178l-129 -158h-127z" />
<glyph unicode="&#xdb;" horiz-adv-x="665" d="M55 221v1213h191v-1205q0 -73 71 -73h31q72 0 72 73v1205h190v-1213q0 -117 -57 -174t-174 -57h-92q-232 0 -232 231zM135 1507l123 172h148l122 -172h-116l-80 70l-80 -70h-117z" />
<glyph unicode="&#xdc;" horiz-adv-x="665" d="M55 221v1213h191v-1205q0 -73 71 -73h31q72 0 72 73v1205h190v-1213q0 -117 -57 -174t-174 -57h-92q-232 0 -232 231zM145 1507v148h150v-148h-150zM369 1507v148h149v-148h-149z" />
<glyph unicode="&#xdd;" horiz-adv-x="612" d="M8 1434h197l106 -625l113 625h184l-205 -918v-516h-190v494zM248 1507l78 158h178l-129 -158h-127z" />
<glyph unicode="&#xde;" horiz-adv-x="624" d="M57 0v1434h191v-254h108q232 0 232 -232v-452q0 -230 -232 -230h-108v-266h-191zM248 432h78q71 0 71 72v436q0 72 -71 72h-78v-580z" />
<glyph unicode="&#xdf;" horiz-adv-x="620" d="M51 0v1227q0 110 57.5 167.5t167.5 57.5h70q225 0 225 -225v-291q0 -78 -26 -121.5t-78 -62.5q57 -17 82.5 -55t25.5 -105v-375q0 -217 -217 -217h-73v162h47q65 0 65 65v363q0 67 -69 67h-43v164h41q67 0 67 70v328q0 69 -67 69h-25q-70 0 -70 -69v-1219h-180z" />
<glyph unicode="&#xe0;" horiz-adv-x="591" d="M41 154v286q0 85 30.5 127.5t108.5 69.5l185 63v236q0 65 -64 65h-12q-66 0 -66 -65v-195h-172v201q0 217 219 217h58q217 0 217 -217v-942h-178v61q-39 -36 -77.5 -54.5t-90.5 -18.5h-2q-76 0 -116 43t-40 123zM121 1419h178l68 -196h-127zM217 205q0 -55 55 -55 q45 0 93 28v369l-97 -35q-29 -12 -40 -29t-11 -51v-227z" />
<glyph unicode="&#xe1;" horiz-adv-x="591" d="M41 154v286q0 85 30.5 127.5t108.5 69.5l185 63v236q0 65 -64 65h-12q-66 0 -66 -65v-195h-172v201q0 217 219 217h58q217 0 217 -217v-942h-178v61q-39 -36 -77.5 -54.5t-90.5 -18.5h-2q-76 0 -116 43t-40 123zM217 205q0 -55 55 -55q45 0 93 28v369l-97 -35 q-29 -12 -40 -29t-11 -51v-227zM240 1223l65 196h180l-120 -196h-125z" />
<glyph unicode="&#xe2;" horiz-adv-x="591" d="M41 154v286q0 85 30.5 127.5t108.5 69.5l185 63v236q0 65 -64 65h-12q-66 0 -66 -65v-195h-172v201q0 217 219 217h58q217 0 217 -217v-942h-178v61q-39 -36 -77.5 -54.5t-90.5 -18.5h-2q-76 0 -116 43t-40 123zM117 1223l116 196h146l119 -196h-117l-74 88l-74 -88h-116 zM217 205q0 -55 55 -55q45 0 93 28v369l-97 -35q-29 -12 -40 -29t-11 -51v-227z" />
<glyph unicode="&#xe3;" horiz-adv-x="591" d="M41 154v286q0 85 30.5 127.5t108.5 69.5l185 63v236q0 65 -64 65h-12q-66 0 -66 -65v-195h-172v201q0 217 219 217h58q217 0 217 -217v-942h-178v61q-39 -36 -77.5 -54.5t-90.5 -18.5h-2q-76 0 -116 43t-40 123zM106 1223v106q0 44 22.5 67t64.5 23h14q28 0 44 -5t42 -21 l47 -35q27 -19 39 -19h2q16 0 16 21v59h105v-106q0 -90 -86 -90h-13q-46 0 -86 26l-49 35q-5 3 -10.5 7.5t-8 6t-6 4t-7 3t-7.5 0.5q-16 0 -16 -23v-59h-107zM217 205q0 -55 55 -55q45 0 93 28v369l-97 -35q-29 -12 -40 -29t-11 -51v-227z" />
<glyph unicode="&#xe4;" horiz-adv-x="591" d="M41 154v286q0 85 30.5 127.5t108.5 69.5l185 63v236q0 65 -64 65h-12q-66 0 -66 -65v-195h-172v201q0 217 219 217h58q217 0 217 -217v-942h-178v61q-39 -36 -77.5 -54.5t-90.5 -18.5h-2q-76 0 -116 43t-40 123zM125 1223v184h145v-184h-145zM217 205q0 -55 55 -55 q45 0 93 28v369l-97 -35q-29 -12 -40 -29t-11 -51v-227zM342 1223v184h147v-184h-147z" />
<glyph unicode="&#xe5;" horiz-adv-x="591" d="M41 154v286q0 85 30.5 127.5t108.5 69.5l185 63v236q0 65 -64 65h-12q-66 0 -66 -65v-195h-172v201q0 217 219 217h58q217 0 217 -217v-942h-178v61q-39 -36 -77.5 -54.5t-90.5 -18.5h-2q-76 0 -116 43t-40 123zM154 1315v12q0 96 116 96h74q115 0 115 -96v-12 q0 -96 -115 -96h-74q-116 0 -116 96zM199 1315q0 -58 75 -58h66q74 0 74 58v12q0 57 -74 57h-68q-73 0 -73 -57v-12zM217 205q0 -55 55 -55q45 0 93 28v369l-97 -35q-29 -12 -40 -29t-11 -51v-227z" />
<glyph unicode="&#xe6;" horiz-adv-x="927" d="M53 154v290q0 86 30.5 129t106.5 70l187 64v229q0 65 -64 65h-14q-66 0 -66 -65v-195h-170v201q0 107 55.5 162t162.5 55h41q57 0 88.5 -15t54.5 -44q25 30 56.5 44.5t88.5 14.5h54q217 0 217 -217v-438h-326v-291q0 -63 66 -63h22q64 0 64 63v190h174v-198 q0 -217 -217 -217h-70q-133 0 -186 84q-68 -47 -108 -65.5t-89 -18.5h-2q-77 0 -116.5 43t-39.5 123zM227 205q0 -55 58 -55q44 0 92 28v375l-96 -37q-29 -11 -41.5 -28.5t-12.5 -51.5v-231zM555 657h150v277q0 65 -66 65h-18q-66 0 -66 -65v-277z" />
<glyph unicode="&#xe7;" horiz-adv-x="600" d="M47 205v737q0 217 217 217h76q215 0 215 -215v-260h-178v248q0 63 -64 63h-22q-64 0 -64 -63v-717q0 -65 64 -65h24q64 0 64 65v277h176v-287q0 -205 -195 -217l-38 -178h-158l82 178q-199 9 -199 217z" />
<glyph unicode="&#xe8;" horiz-adv-x="598" d="M47 205v737q0 217 217 217h70q217 0 217 -217v-438h-326v-291q0 -63 66 -63h22q64 0 64 63v184h174v-192q0 -217 -217 -217h-70q-217 0 -217 217zM121 1419h178l68 -196h-127zM225 657h150v277q0 65 -66 65h-18q-66 0 -66 -65v-277z" />
<glyph unicode="&#xe9;" horiz-adv-x="598" d="M47 205v737q0 217 217 217h70q217 0 217 -217v-438h-326v-291q0 -63 66 -63h22q64 0 64 63v184h174v-192q0 -217 -217 -217h-70q-217 0 -217 217zM225 657h150v277q0 65 -66 65h-18q-66 0 -66 -65v-277zM238 1223l65 196h180l-121 -196h-124z" />
<glyph unicode="&#xea;" horiz-adv-x="598" d="M47 205v737q0 217 217 217h70q217 0 217 -217v-438h-326v-291q0 -63 66 -63h22q64 0 64 63v184h174v-192q0 -217 -217 -217h-70q-217 0 -217 217zM111 1223l116 196h146l119 -196h-117l-74 88l-74 -88h-116zM225 657h150v277q0 65 -66 65h-18q-66 0 -66 -65v-277z" />
<glyph unicode="&#xeb;" horiz-adv-x="598" d="M47 205v737q0 217 217 217h70q217 0 217 -217v-438h-326v-291q0 -63 66 -63h22q64 0 64 63v184h174v-192q0 -217 -217 -217h-70q-217 0 -217 217zM119 1223v184h145v-184h-145zM225 657h150v277q0 65 -66 65h-18q-66 0 -66 -65v-277zM336 1223v184h147v-184h-147z" />
<glyph unicode="&#xec;" horiz-adv-x="290" d="M-35 1419h178l68 -196h-127zM55 0v1147h181v-1147h-181z" />
<glyph unicode="&#xed;" horiz-adv-x="290" d="M55 0v1147h181v-1147h-181zM82 1223l65 196h181l-121 -196h-125z" />
<glyph unicode="&#xee;" horiz-adv-x="290" d="M-43 1223l117 196h145l119 -196h-117l-74 88l-73 -88h-117zM55 0v1147h181v-1147h-181z" />
<glyph unicode="&#xef;" horiz-adv-x="290" d="M-35 1223v184h146v-184h-146zM55 0v1147h181v-1147h-181zM182 1223v184h148v-184h-148z" />
<glyph unicode="&#xf0;" horiz-adv-x="614" d="M47 205v768q0 86 43.5 134t124.5 48h2q101 0 178 -70v48q0 38 -14 56t-55 36l-185 78l72 141l162 -70l41 74h141l-74 -125q44 -29 63 -68t19 -98v-952q0 -217 -217 -217h-84q-217 0 -217 217zM227 215q0 -63 64 -63h28q66 0 66 63v717q0 65 -66 65h-28q-64 0 -64 -65 v-717z" />
<glyph unicode="&#xf1;" d="M51 0v1147h178v-64q83 76 172 76h9q76 0 115.5 -43t39.5 -125v-991h-178v938q0 57 -59 57q-48 0 -97 -30v-965h-180zM113 1223v106q0 90 86 90h14q28 0 44 -5t42 -21l47 -35q27 -19 39 -19h2q16 0 16 21v59h105v-106q0 -90 -86 -90h-12q-46 0 -86 26l-50 35q-5 4 -12 9 t-9.5 7t-7 3.5t-9.5 1.5q-17 0 -17 -23v-59h-106z" />
<glyph unicode="&#xf2;" horiz-adv-x="612" d="M47 205v737q0 217 217 217h84q217 0 217 -217v-737q0 -217 -217 -217h-84q-217 0 -217 217zM127 1419h178l68 -196h-127zM227 215q0 -65 64 -65h28q66 0 66 65v717q0 63 -66 63h-28q-64 0 -64 -63v-717z" />
<glyph unicode="&#xf3;" horiz-adv-x="612" d="M47 205v737q0 217 217 217h84q217 0 217 -217v-737q0 -217 -217 -217h-84q-217 0 -217 217zM227 215q0 -65 64 -65h28q66 0 66 65v717q0 63 -66 63h-28q-64 0 -64 -63v-717zM244 1223l65 196h180l-120 -196h-125z" />
<glyph unicode="&#xf4;" horiz-adv-x="612" d="M47 205v737q0 217 217 217h84q217 0 217 -217v-737q0 -217 -217 -217h-84q-217 0 -217 217zM117 1223l116 196h146l119 -196h-117l-74 88l-74 -88h-116zM227 215q0 -65 64 -65h28q66 0 66 65v717q0 63 -66 63h-28q-64 0 -64 -63v-717z" />
<glyph unicode="&#xf5;" horiz-adv-x="612" d="M47 205v737q0 217 217 217h84q217 0 217 -217v-737q0 -217 -217 -217h-84q-217 0 -217 217zM109 1223v106q0 90 86 90h14q28 0 44 -5t42 -21l47 -35q27 -19 39 -19h2q16 0 16 21v59h105v-106q0 -90 -86 -90h-12q-47 0 -87 26l-49 35q-5 3 -10.5 7.5t-8 6t-6 4t-7 3 t-7.5 0.5q-16 0 -16 -23v-59h-106zM227 215q0 -65 64 -65h28q66 0 66 65v717q0 63 -66 63h-28q-64 0 -64 -63v-717z" />
<glyph unicode="&#xf6;" horiz-adv-x="612" d="M47 205v737q0 217 217 217h84q217 0 217 -217v-737q0 -217 -217 -217h-84q-217 0 -217 217zM125 1223v184h145v-184h-145zM227 215q0 -65 64 -65h28q66 0 66 65v717q0 63 -66 63h-28q-64 0 -64 -63v-717zM342 1223v184h147v-184h-147z" />
<glyph unicode="&#xf7;" horiz-adv-x="561" d="M18 655v140h523v-140h-523zM205 432v152h149v-152h-149zM205 864v154h149v-154h-149z" />
<glyph unicode="&#xf8;" horiz-adv-x="612" d="M47 205v737q0 217 217 217h84q217 0 217 -217v-737q0 -217 -217 -217h-84q-217 0 -217 217zM223 379l150 596q-14 20 -54 20h-28q-64 0 -64 -63v-96zM238 170q14 -20 53 -20h28q66 0 66 65v109l2 440z" />
<glyph unicode="&#xf9;" d="M49 156v991h180v-938q0 -57 60 -57q47 0 96 30v965h180v-1147h-180v61q-80 -73 -170 -73h-8q-78 0 -118 43t-40 125zM129 1419h178l68 -196h-127z" />
<glyph unicode="&#xfa;" d="M49 156v991h180v-938q0 -57 60 -57q47 0 96 30v965h180v-1147h-180v61q-80 -73 -170 -73h-8q-78 0 -118 43t-40 125zM246 1223l65 196h181l-121 -196h-125z" />
<glyph unicode="&#xfb;" d="M49 156v991h180v-938q0 -57 60 -57q47 0 96 30v965h180v-1147h-180v61q-80 -73 -170 -73h-8q-78 0 -118 43t-40 125zM119 1223l117 196h145l119 -196h-117l-74 88l-73 -88h-117z" />
<glyph unicode="&#xfc;" d="M49 156v991h180v-938q0 -57 60 -57q47 0 96 30v965h180v-1147h-180v61q-80 -73 -170 -73h-8q-78 0 -118 43t-40 125zM127 1223v184h145v-184h-145zM344 1223v184h148v-184h-148z" />
<glyph unicode="&#xfd;" horiz-adv-x="581" d="M16 1147h181l92 -711l106 711h172l-243 -1352h-172l51 240zM231 1223l66 196h180l-121 -196h-125z" />
<glyph unicode="&#xfe;" d="M51 -205v1653h180v-365q80 76 168 76h2q81 0 124.5 -48t43.5 -134v-807q0 -87 -43.5 -134.5t-124.5 -47.5h-2q-93 0 -168 71v-264h-180zM231 182q45 -30 95 -30q63 0 63 59v723q0 61 -63 61q-52 0 -95 -32v-781z" />
<glyph unicode="&#xff;" horiz-adv-x="581" d="M16 1147h181l92 -711l106 711h172l-243 -1352h-172l51 240zM113 1223v184h145v-184h-145zM330 1223v184h147v-184h-147z" />
<glyph unicode="&#x152;" horiz-adv-x="888" d="M53 272v889q0 138 67.5 205.5t205.5 67.5h518v-172h-232v-439h224v-172h-224v-479h236v-172h-522q-138 0 -205.5 67t-67.5 205zM244 276q0 -56 26 -82t82 -26h70v1098h-70q-108 0 -108 -109v-881z" />
<glyph unicode="&#x153;" horiz-adv-x="935" d="M47 205v737q0 217 217 217h68q99 0 143 -57q22 29 53.5 43t89.5 14h54q217 0 217 -217v-438h-326v-291q0 -63 66 -63h22q66 0 66 63v184h172v-192q0 -217 -217 -217h-54q-58 0 -89.5 13.5t-53.5 41.5q-42 -55 -143 -55h-68q-217 0 -217 217zM227 213q0 -61 62 -61h35 q61 0 61 59v721q0 63 -61 63h-35q-62 0 -62 -63v-719zM563 657h150v277q0 65 -66 65h-18q-66 0 -66 -65v-277z" />
<glyph unicode="&#x178;" horiz-adv-x="612" d="M8 1434h197l106 -625l113 625h184l-205 -918v-516h-190v494zM127 1507v148h149v-148h-149zM350 1507v148h150v-148h-150z" />
<glyph unicode="&#x2c6;" horiz-adv-x="888" d="M256 1223l117 196h145l119 -196h-117l-74 88l-73 -88h-117z" />
<glyph unicode="&#x2dc;" horiz-adv-x="888" d="M248 1223v106q0 90 86 90h14q28 0 44 -5t42 -21l47 -35q27 -19 39 -19h2q17 0 17 21v59h104v-106q0 -90 -86 -90h-12q-46 0 -86 26l-49 35q-5 3 -10.5 7.5t-8 6t-6 4t-7 3t-7.5 0.5q-17 0 -17 -23v-59h-106z" />
<glyph unicode="&#x2000;" horiz-adv-x="841" />
<glyph unicode="&#x2001;" horiz-adv-x="1683" />
<glyph unicode="&#x2002;" horiz-adv-x="841" />
<glyph unicode="&#x2003;" horiz-adv-x="1683" />
<glyph unicode="&#x2004;" horiz-adv-x="561" />
<glyph unicode="&#x2005;" horiz-adv-x="420" />
<glyph unicode="&#x2006;" horiz-adv-x="280" />
<glyph unicode="&#x2007;" horiz-adv-x="280" />
<glyph unicode="&#x2008;" horiz-adv-x="210" />
<glyph unicode="&#x2009;" horiz-adv-x="336" />
<glyph unicode="&#x200a;" horiz-adv-x="93" />
<glyph unicode="&#x2010;" horiz-adv-x="380" d="M25 504v166h331v-166h-331z" />
<glyph unicode="&#x2011;" horiz-adv-x="380" d="M25 504v166h331v-166h-331z" />
<glyph unicode="&#x2012;" horiz-adv-x="380" d="M25 504v166h331v-166h-331z" />
<glyph unicode="&#x2013;" horiz-adv-x="665" d="M25 516v141h616v-141h-616z" />
<glyph unicode="&#x2014;" horiz-adv-x="1017" d="M25 516v141h954v-141h-954z" />
<glyph unicode="&#x2018;" horiz-adv-x="260" d="M41 975v174q0 76 13.5 121.5t56.5 113.5l34 56l68 -21l-18 -47q-42 -90 -48 -153h64v-244h-170z" />
<glyph unicode="&#x2019;" horiz-adv-x="260" d="M47 989l19 47q39 85 45 154h-62v244h170v-174q0 -77 -13.5 -123t-55.5 -113l-35 -55z" />
<glyph unicode="&#x201a;" horiz-adv-x="251" d="M43 -199l18 47q39 89 45 154h-61v244h170v-174q0 -77 -13.5 -123t-56.5 -113l-34 -55z" />
<glyph unicode="&#x201c;" horiz-adv-x="493" d="M41 975v174q0 76 13.5 121.5t54.5 113.5l34 56l68 -21l-21 -47q-42 -95 -47 -153h66v-244h-168zM276 975v174q0 76 13.5 121.5t54.5 113.5l37 56l65 -21l-18 -47q-41 -88 -47 -153h63v-244h-168z" />
<glyph unicode="&#x201d;" horiz-adv-x="493" d="M47 989l19 47q39 85 45 154h-62v244h168v-174q0 -77 -13 -123t-54 -113l-37 -55zM283 989l20 47q39 85 45 154h-63v244h168v-174q0 -76 -13.5 -122t-54.5 -114l-35 -55z" />
<glyph unicode="&#x201e;" horiz-adv-x="485" d="M43 -199l18 47q39 89 45 154h-61v244h168v-174q0 -76 -13.5 -122t-54.5 -114l-36 -55zM279 -199l20 47q39 89 45 154h-63v244h168v-174q0 -76 -13.5 -122t-54.5 -114l-35 -55z" />
<glyph unicode="&#x2022;" horiz-adv-x="430" d="M78 645v154q0 98 110 98h54q108 0 108 -98v-154q0 -98 -108 -98h-54q-110 0 -110 98z" />
<glyph unicode="&#x2026;" horiz-adv-x="761" d="M41 0v244h172v-244h-172zM295 0v244h172v-244h-172zM549 0v244h172v-244h-172z" />
<glyph unicode="&#x202f;" horiz-adv-x="336" />
<glyph unicode="&#x2039;" horiz-adv-x="317" d="M12 580l135 319h150l-115 -319l115 -320h-147z" />
<glyph unicode="&#x203a;" horiz-adv-x="317" d="M18 260l115 320l-115 319h150l135 -319l-137 -320h-148z" />
<glyph unicode="&#x205f;" horiz-adv-x="420" />
<glyph unicode="&#x20ac;" horiz-adv-x="667" d="M29 580v108h65v74h-65v108h65v344q0 232 232 232h71q230 0 230 -229v-252h-183v241q0 72 -69 72h-23q-69 0 -69 -72v-336h258v-108h-258v-74h258v-108h-258v-353q0 -71 69 -71h27q70 0 70 71v254h182v-262q0 -231 -232 -231h-73q-232 0 -232 231v361h-65z" />
<glyph unicode="&#x2122;" horiz-adv-x="802" d="M33 1343v91h274v-91h-88v-534h-98v534h-88zM346 809v625h135l58 -467l57 467h135v-625h-94v457l-62 -457h-86l-61 457v-457h-82z" />
<glyph unicode="&#x25fc;" horiz-adv-x="1146" d="M0 0v1147h1147v-1147h-1147z" />
<glyph unicode="&#xfb01;" horiz-adv-x="673" d="M29 989v158h53v106q0 195 194 195h101v-156h-64q-51 0 -51 -51v-94h109v-158h-109v-989h-180v989h-53zM436 1233v174h187v-174h-187zM438 0v1147h180v-1147h-180z" />
<glyph unicode="&#xfb02;" horiz-adv-x="673" d="M29 989v158h53v106q0 195 194 195h101v-156h-64q-51 0 -51 -51v-94h109v-158h-109v-989h-180v989h-53zM438 0v1448h180v-1448h-180z" />
<glyph unicode="&#xfb03;" horiz-adv-x="1056" d="M29 989v158h53v106q0 195 194 195h101v-156h-64q-51 0 -51 -51v-94h109v-158h-109v-989h-180v989h-53zM412 989v158h53v106q0 195 194 195h101v-156h-64q-51 0 -51 -51v-94h109v-158h-109v-989h-180v989h-53zM819 1233v174h187v-174h-187zM821 0v1147h180v-1147h-180z " />
<glyph unicode="&#xfb04;" horiz-adv-x="1056" d="M29 989v158h53v106q0 195 194 195h101v-156h-64q-51 0 -51 -51v-94h109v-158h-109v-989h-180v989h-53zM412 989v158h53v106q0 195 194 195h101v-156h-64q-51 0 -51 -51v-94h109v-158h-109v-989h-180v989h-53zM821 0v1448h180v-1448h-180z" />
</font>
</defs>
</svg>
