<?xml version="1.0" standalone="no"?>
<!DOCTYPE svg PUBLIC "-//W3C//DTD SVG 1.1//EN" "http://www.w3.org/Graphics/SVG/1.1/DTD/svg11.dtd" >
<svg xmlns="http://www.w3.org/2000/svg">
<metadata></metadata>
<defs>
<font id="tungsten_narrowmedium" horiz-adv-x="591" >
<font-face units-per-em="2048" ascent="1638" descent="-410" />
<missing-glyph horiz-adv-x="212" />
<glyph horiz-adv-x="2048" />
<glyph horiz-adv-x="2048" />
<glyph unicode="&#xd;" horiz-adv-x="2048" />
<glyph unicode=" "  horiz-adv-x="212" />
<glyph unicode="&#x09;" horiz-adv-x="212" />
<glyph unicode="&#xa0;" horiz-adv-x="212" />
<glyph unicode="!" horiz-adv-x="280" d="M72 1130v304h137v-304l-39 -757h-59zM74 0v219h133v-219h-133z" />
<glyph unicode="&#x22;" horiz-adv-x="413" d="M37 963l24 471h127l-63 -471h-88zM236 963l24 471h127l-63 -471h-88z" />
<glyph unicode="#" horiz-adv-x="643" d="M33 285v145l94 27v417l-94 -26v143l94 27v420h127v-381l135 39v342h127v-305l94 28v-145l-94 -29v-416l94 27v-143l-94 -29v-430h-127v393l-135 -39v-354h-127v315zM254 494l135 38v418l-135 -39v-417z" />
<glyph unicode="$" horiz-adv-x="618" d="M61 221v338h140v-342q0 -50 22.5 -73t71.5 -23h31q94 0 94 96v260q0 50 -14.5 77t-49.5 54l-178 135q-66 49 -91.5 102t-25.5 136v227q0 212 191 230v131h117v-131q188 -18 188 -226v-307h-139v314q0 94 -92 94h-29q-94 0 -94 -94v-234q0 -49 15 -76.5t50 -54.5l172 -129 q69 -52 94 -103.5t25 -138.5v-258q0 -211 -190 -229v-139h-117v139q-191 18 -191 225z" />
<glyph unicode="%" horiz-adv-x="878" d="M49 940v332q0 90 37.5 132t124.5 42h29q86 0 123.5 -42t37.5 -132v-332q0 -90 -37.5 -132t-123.5 -42h-29q-86 0 -124 42.5t-38 131.5zM152 -4l245 741l219 701h113l-246 -752l-219 -690h-112zM164 950q0 -37 11.5 -53t45.5 -16h12q32 0 43 15.5t11 53.5v312q0 39 -11 55 t-43 16h-12q-34 0 -45.5 -16t-11.5 -55v-312zM479 162v317q0 89 37.5 131.5t122.5 42.5h29q87 0 124 -42t37 -132v-317q0 -90 -37.5 -132t-123.5 -42h-29q-86 0 -123 42t-37 132zM592 172q0 -39 10.5 -55.5t42.5 -16.5h14q32 0 44 16.5t12 55.5v297q0 39 -12 55.5t-44 16.5 h-14q-31 0 -42 -16.5t-11 -55.5v-297z" />
<glyph unicode="&#x26;" horiz-adv-x="731" d="M39 207v344q0 138 84 211l63 55l-34 74q-26 50 -34.5 90t-8.5 98v148q0 217 217 217h39q213 0 213 -213v-270h-138v268q0 86 -86 86h-20q-86 0 -86 -86v-150q0 -80 26 -133l215 -450l84 329h132l-134 -477l174 -348h-147l-84 174q-32 -106 -79.5 -145t-158.5 -39h-20 q-217 0 -217 217zM176 205q0 -86 86 -86h41q39 0 57.5 20.5t36.5 77.5l33 111l-184 368l-17 -14q-29 -26 -41 -54t-12 -71v-352z" />
<glyph unicode="'" horiz-adv-x="219" d="M37 963l24 471h132l-66 -471h-90z" />
<glyph unicode="(" horiz-adv-x="366" d="M63 489v457q0 154 17.5 246t58.5 161.5t127 155.5l88 -36q-70 -96 -100.5 -156t-45.5 -144t-15 -225v-461q0 -107 6 -174t27 -127.5t48 -105t80 -117.5l-88 -37q-86 86 -127 155.5t-58.5 161.5t-17.5 246z" />
<glyph unicode=")" horiz-adv-x="366" d="M12 -37q53 74 79.5 118t48 104.5t28 128t6.5 173.5v461q0 140 -15.5 225t-46 144t-100.5 156l86 36q86 -86 127 -155.5t58.5 -161.5t17.5 -246v-457q0 -154 -17.5 -246t-58.5 -161.5t-127 -155.5z" />
<glyph unicode="*" horiz-adv-x="475" d="M27 1014v100l137 70l-137 71v101h6l162 -94l-5 174h93l-4 -174l163 94h7v-101l-138 -71l138 -70v-100h-7l-166 94l7 -176h-93l5 174l-162 -92h-6z" />
<glyph unicode="+" horiz-adv-x="555" d="M18 664v120h197v203h129v-203h197v-120h-197v-205h-129v205h-197z" />
<glyph unicode="," horiz-adv-x="229" d="M47 -152l19 41q22 56 30 111h-47v219h133v-153q0 -58 -10 -95t-39 -88l-33 -51z" />
<glyph unicode="-" horiz-adv-x="366" d="M29 522v129h309v-129h-309z" />
<glyph unicode="." horiz-adv-x="231" d="M49 0v219h133v-219h-133z" />
<glyph unicode="/" horiz-adv-x="366" d="M6 -57l234 1548h118l-233 -1548h-119z" />
<glyph unicode="0" horiz-adv-x="636" d="M66 219v995q0 232 231 232h45q229 0 229 -232v-995q0 -231 -229 -231h-45q-117 0 -174 57t-57 174zM205 213q0 -96 94 -96h39q49 0 71.5 23t22.5 73v1010q0 48 -22.5 71t-71.5 23h-39q-94 0 -94 -94v-1010z" />
<glyph unicode="1" horiz-adv-x="354" d="M16 1212v109l17 2q49 7 79.5 26.5t61.5 61.5l21 29h73v-1440h-135v1212h-117z" />
<glyph unicode="2" horiz-adv-x="600" d="M53 0v281q0 69 19 121.5t73 125.5l207 283q31 43 42.5 74.5t11.5 70.5v265q0 94 -91 94h-28q-92 0 -92 -94v-314h-138v307q0 230 228 230h34q228 0 228 -230v-239q0 -69 -18.5 -122.5t-71.5 -125.5l-205 -281q-35 -49 -46 -83t-11 -89v-143h352v-131h-494z" />
<glyph unicode="3" horiz-adv-x="616" d="M49 215v287h139v-289q0 -96 95 -96h34q97 0 97 96v354q0 95 -92 95h-144v131h139q93 0 93 94v336q0 94 -93 94h-34q-93 0 -93 -94v-269h-137v260q0 232 232 232h34q232 0 232 -232v-290q0 -77 -25.5 -121.5t-76.5 -65.5q55 -15 79.5 -52.5t24.5 -106.5v-359 q0 -231 -229 -231h-45q-230 0 -230 227z" />
<glyph unicode="4" horiz-adv-x="589" d="M31 268v127l284 1039h177v-1041h86v-125h-86v-268h-130v268h-331zM152 393h210v623l3 172z" />
<glyph unicode="5" horiz-adv-x="610" d="M63 215v299h140v-301q0 -96 90 -96h26q91 0 91 96v453q0 51 -19.5 75.5t-62.5 24.5q-69 0 -138 -72h-118v740h460v-131h-329l-2 -465q72 59 157 59q87 0 140 -54.5t53 -150.5v-473q0 -231 -227 -231h-35q-226 0 -226 227z" />
<glyph unicode="6" horiz-adv-x="622" d="M66 219v995q0 117 56 174.5t173 57.5h37q117 0 171 -53.5t54 -169.5v-244h-137v244q0 94 -90 94h-35q-90 0 -90 -94v-430q65 38 147 38h8q94 0 147.5 -55.5t53.5 -148.5v-408q0 -231 -229 -231h-37q-117 0 -173 57t-56 174zM205 213q0 -96 90 -96h37q92 0 92 96v387 q0 100 -96 100q-69 0 -123 -26v-461z" />
<glyph unicode="7" horiz-adv-x="497" d="M23 1303v131h436v-127l-246 -1307h-135l246 1303h-301z" />
<glyph unicode="8" horiz-adv-x="622" d="M61 219v363q0 67 25.5 105.5t81.5 53.5q-102 39 -102 185v288q0 232 231 232h29q231 0 231 -232v-288q0 -146 -104 -185q56 -15 81 -53t25 -106v-363q0 -231 -229 -231h-37q-232 0 -232 231zM199 211q0 -49 23 -71.5t71 -22.5h37q48 0 71 22.5t23 71.5v362q0 95 -94 95 h-37q-94 0 -94 -95v-362zM201 887q0 -94 94 -94h33q94 0 94 94v338q0 92 -94 92h-33q-94 0 -94 -92v-338z" />
<glyph unicode="9" horiz-adv-x="618" d="M61 213v221h138v-221q0 -94 92 -94h33q90 0 90 94v412q-69 -37 -148 -37h-4q-94 0 -147.5 56t-53.5 149v421q0 230 230 230h33q229 0 229 -230v-993q0 -231 -229 -231h-33q-119 0 -174.5 53.5t-55.5 169.5zM199 819q0 -100 94 -100q67 0 121 26v476q0 94 -90 94h-33 q-92 0 -92 -94v-402z" />
<glyph unicode=":" horiz-adv-x="229" d="M49 0v219h133v-219h-133zM49 909v219h133v-219h-133z" />
<glyph unicode=";" horiz-adv-x="231" d="M47 -152l19 41q22 56 30 111h-47v219h133v-153q0 -58 -10 -95t-39 -88l-33 -51zM49 911v219h133v-219h-133z" />
<glyph unicode="&#x3c;" horiz-adv-x="557" d="M27 639v172l483 168v-133l-375 -121l375 -115v-135z" />
<glyph unicode="=" horiz-adv-x="557" d="M27 530v123h503v-123h-503zM27 795v123h503v-123h-503z" />
<glyph unicode="&#x3e;" horiz-adv-x="557" d="M47 475v135l375 115l-375 121v133l483 -168v-172z" />
<glyph unicode="?" horiz-adv-x="557" d="M37 905v309q0 230 231 230h23q116 0 172.5 -57t56.5 -173v-266q0 -64 -17.5 -99.5t-72.5 -100.5l-70 -84q-16 -20 -23 -39.5t-8 -33t-1 -48.5v-178h-121v210q0 67 15.5 101t66.5 92l49 61q41 49 41 105v287q0 94 -90 94h-29q-92 0 -92 -94v-316h-131zM201 0v219h133v-219 h-133z" />
<glyph unicode="@" horiz-adv-x="882" d="M72 152v831q0 163 62.5 228t213.5 65h184q152 0 215.5 -65t63.5 -228v-780q0 -77 -30.5 -111.5t-94.5 -34.5h-43q-53 0 -77.5 17.5t-35.5 58.5q-61 -76 -149 -76q-62 0 -95.5 36.5t-33.5 99.5v288q0 67 23 100.5t83 53.5l156 53v213q0 70 -65 70h-9q-69 0 -69 -70v-166 h-109v170q0 174 172 174h19q172 0 172 -174v-737q0 -49 47 -49h14q62 0 62 86v778q0 132 -48 181.5t-168 49.5h-184q-119 0 -166 -49.5t-47 -181.5v-831q0 -132 47 -182t166 -50h414v-59h-414q-155 0 -215.5 62.5t-60.5 228.5zM365 221q0 -57 51 -57q45 0 98 39v377 l-102 -35q-26 -9 -36.5 -25t-10.5 -47v-252z" />
<glyph unicode="A" horiz-adv-x="620" d="M31 0l190 1438h180l189 -1438h-139l-29 236h-225l-29 -236h-137zM211 362h195l-99 812z" />
<glyph unicode="B" horiz-adv-x="624" d="M68 0v1434h260q118 0 174.5 -56.5t56.5 -175.5v-278q0 -151 -108 -193q112 -45 112 -194v-306q0 -231 -231 -231h-264zM207 127h121q94 0 94 96v340q0 105 -105 105h-110v-541zM207 793h106q105 0 105 104v315q0 95 -94 95h-117v-514z" />
<glyph unicode="C" horiz-adv-x="628" d="M63 219v995q0 232 232 232h47q227 0 227 -227v-314h-139v318q0 94 -94 94h-35q-94 0 -94 -94v-1010q0 -96 94 -96h39q94 0 94 96v352h137v-346q0 -231 -229 -231h-47q-232 0 -232 231z" />
<glyph unicode="D" horiz-adv-x="641" d="M68 0v1434h235q142 0 208.5 -67t66.5 -210v-881q0 -141 -67.5 -208.5t-207.5 -67.5h-235zM209 129h86q141 0 141 145v885q0 146 -141 146h-86v-1176z" />
<glyph unicode="E" horiz-adv-x="507" d="M68 0v1434h391v-131h-250v-508h242v-129h-242v-535h254v-131h-395z" />
<glyph unicode="F" horiz-adv-x="491" d="M68 0v1434h383v-131h-242v-512h231v-129h-231v-662h-141z" />
<glyph unicode="G" horiz-adv-x="638" d="M63 221v993q0 230 232 230h53q227 0 227 -227v-259h-139v263q0 94 -92 94h-43q-94 0 -94 -94v-1008q0 -94 94 -94h45q49 0 71.5 23t22.5 71v405h-114v132h254v-529q0 -231 -232 -231h-53q-232 0 -232 231z" />
<glyph unicode="H" horiz-adv-x="651" d="M68 0v1434h141v-637h231v637h144v-1434h-144v664h-231v-664h-141z" />
<glyph unicode="I" horiz-adv-x="282" d="M70 0v1434h141v-1434h-141z" />
<glyph unicode="J" horiz-adv-x="405" d="M31 0v131h69q99 0 99 98v1205h141v-1203q0 -231 -231 -231h-78z" />
<glyph unicode="K" horiz-adv-x="608" d="M68 0v1434h141v-697l240 697h149l-248 -707l240 -727h-154l-227 707v-707h-141z" />
<glyph unicode="L" horiz-adv-x="473" d="M68 0v1434h141v-1303h229v-131h-370z" />
<glyph unicode="M" horiz-adv-x="897" d="M68 0v1434h223l158 -1135l159 1135h221v-1434h-139v494l2 708l-174 -1202h-145l-172 1188l2 -699v-489h-135z" />
<glyph unicode="N" horiz-adv-x="671" d="M68 0v1434h196l207 -1041l-2 139v902h135v-1434h-178l-225 1133l2 -215v-918h-135z" />
<glyph unicode="O" horiz-adv-x="643" d="M63 219v995q0 232 232 232h53q232 0 232 -232v-995q0 -231 -232 -231h-53q-232 0 -232 231zM207 213q0 -96 94 -96h43q94 0 94 96v1010q0 94 -94 94h-43q-94 0 -94 -94v-1010z" />
<glyph unicode="P" horiz-adv-x="593" d="M68 0v1434h247q120 0 175 -56t55 -176v-422q0 -231 -230 -231h-106v-549h-141zM209 678h100q94 0 94 94v438q0 95 -94 95h-100v-627z" />
<glyph unicode="Q" horiz-adv-x="643" d="M63 221v993q0 232 232 232h53q232 0 232 -232v-972q0 -159 -109 -209l139 -56l-69 -112l-205 125h-41q-232 0 -232 231zM207 213q0 -94 94 -94h43q94 0 94 94v1010q0 94 -94 94h-43q-94 0 -94 -94v-1010z" />
<glyph unicode="R" horiz-adv-x="628" d="M68 0v1434h264q121 0 176 -56.5t55 -175.5v-325q0 -82 -27 -127t-83 -68q59 -17 85.5 -56.5t26.5 -111.5v-514h-141v510q0 55 -26.5 80.5t-82.5 25.5h-106v-616h-141zM209 743h108q105 0 105 105v362q0 95 -94 95h-119v-562z" />
<glyph unicode="S" horiz-adv-x="618" d="M61 217v342h140v-348q0 -94 94 -94h29q94 0 94 94v266q0 52 -14 79.5t-50 53.5l-176 133q-66 49 -91.5 102t-25.5 136v233q0 230 232 230h37q227 0 227 -227v-312h-139v318q0 94 -94 94h-25q-94 0 -94 -94v-238q0 -50 14.5 -77.5t48.5 -53.5l172 -129q69 -52 94 -103.5 t25 -138.5v-262q0 -231 -229 -231h-39q-230 0 -230 227z" />
<glyph unicode="T" horiz-adv-x="536" d="M18 1303v131h502v-131h-180v-1303h-141v1303h-181z" />
<glyph unicode="U" horiz-adv-x="636" d="M66 221v1213h141v-1221q0 -94 96 -94h33q94 0 94 94v1221h141v-1213q0 -231 -229 -231h-45q-117 0 -174 57t-57 174z" />
<glyph unicode="V" horiz-adv-x="610" d="M31 1434h143l133 -1100l133 1100h142l-197 -1438h-158z" />
<glyph unicode="W" horiz-adv-x="964" d="M47 1434h141l109 -1221l115 1221h143l115 -1221l108 1221h140l-152 -1434h-184l-101 1022l-98 -1022h-186z" />
<glyph unicode="X" horiz-adv-x="608" d="M31 0l192 717l-188 717h141l131 -564l129 564h139l-188 -721l191 -713h-142l-133 563l-133 -563h-139z" />
<glyph unicode="Y" horiz-adv-x="573" d="M16 1434h146l127 -699l131 699h139l-201 -910v-524h-141v518z" />
<glyph unicode="Z" horiz-adv-x="499" d="M39 0v129l278 1176h-272v129h416v-129l-281 -1176h285v-129h-426z" />
<glyph unicode="[" horiz-adv-x="370" d="M78 -57v1548h278v-111h-151v-1327h151v-110h-278z" />
<glyph unicode="\" horiz-adv-x="366" d="M6 1491h119l233 -1548h-118z" />
<glyph unicode="]" horiz-adv-x="370" d="M14 53h152v1327h-152v111h279v-1548h-279v110z" />
<glyph unicode="^" horiz-adv-x="675" d="M109 1049l167 385h125l166 -385h-118l-111 260l-109 -260h-120z" />
<glyph unicode="_" horiz-adv-x="790" d="M-4 -39h799v-121h-799v121z" />
<glyph unicode="`" horiz-adv-x="888" d="M375 1403h137l63 -186h-90z" />
<glyph unicode="a" horiz-adv-x="567" d="M49 156v264q0 88 32.5 132t111.5 71l180 61v248q0 88 -84 88h-10q-86 0 -86 -88v-199h-134v193q0 219 220 219h14q215 0 215 -219v-926h-135v59q-71 -71 -164 -71q-160 0 -160 168zM184 184q0 -67 68 -67q61 0 121 43v399l-121 -41q-38 -15 -53 -37t-15 -63v-234z" />
<glyph unicode="b" horiz-adv-x="593" d="M61 0v1448h136v-377q74 74 165 74q84 0 128.5 -52t44.5 -141v-774q0 -88 -44.5 -139t-128.5 -51q-96 0 -165 69v-57h-136zM197 166q58 -49 125 -49q77 0 77 78v743q0 78 -77 78q-63 0 -125 -49v-801z" />
<glyph unicode="c" horiz-adv-x="577" d="M57 205v721q0 219 217 219h33q213 0 213 -215v-236h-133v238q0 86 -84 86h-24q-86 0 -86 -86v-733q0 -84 86 -84h26q84 0 84 84v272h133v-266q0 -217 -217 -217h-31q-217 0 -217 217z" />
<glyph unicode="d" horiz-adv-x="593" d="M57 178v774q0 89 44.5 141t129.5 52q94 0 166 -72v375h135v-1448h-135v61q-69 -73 -166 -73q-86 0 -130 50.5t-44 139.5zM193 195q0 -78 79 -78q67 0 125 49v801q-62 49 -125 49q-79 0 -79 -78v-743z" />
<glyph unicode="e" horiz-adv-x="573" d="M57 205v721q0 219 217 219h29q215 0 215 -219v-410h-325v-317q0 -84 86 -84h24q84 0 84 84v198h131v-192q0 -217 -215 -217h-29q-217 0 -217 217zM193 643h190v289q0 86 -84 86h-20q-86 0 -86 -86v-289z" />
<glyph unicode="f" horiz-adv-x="348" d="M37 1008v125h55v120q0 195 195 195h55v-125h-51q-64 0 -64 -63v-127h109v-125h-109v-1008h-135v1008h-55z" />
<glyph unicode="g" d="M57 289v663q0 89 44.5 141t129.5 52q94 0 166 -72v60h135v-1139q0 -106 -51.5 -156.5t-158.5 -50.5h-70q-97 0 -144 45t-47 141v62h127v-58q0 -73 70 -73h70q69 0 69 73v187q-73 -66 -166 -66q-86 0 -130 51t-44 140zM193 305q0 -80 79 -80q62 0 125 47v695 q-62 49 -125 49q-79 0 -79 -78v-633z" />
<glyph unicode="h" d="M61 0v1448h136v-377q82 74 172 74q82 0 122.5 -45t40.5 -129v-971h-135v942q0 74 -69 74q-62 0 -131 -49v-967h-136z" />
<glyph unicode="i" horiz-adv-x="270" d="M63 1237v149h144v-149h-144zM68 0v1133h135v-1133h-135z" />
<glyph unicode="j" horiz-adv-x="270" d="M0 -88h4q64 0 64 65v1156h135v-1164q0 -178 -183 -178h-20v121zM63 1237v149h144v-149h-144z" />
<glyph unicode="k" horiz-adv-x="550" d="M61 0v1448h136v-870l206 555h142l-219 -555l213 -578h-146l-196 565v-565h-136zM197 571h2h-2z" />
<glyph unicode="l" horiz-adv-x="270" d="M68 0v1448h135v-1448h-135z" />
<glyph unicode="m" horiz-adv-x="905" d="M61 0v1133h136v-62q82 74 165 74q104 0 140 -80q91 80 184 80q77 0 117.5 -45.5t40.5 -124.5v-975h-135v946q0 70 -64 70q-56 0 -125 -49v-967h-135v946q0 70 -63 70q-56 0 -125 -49v-967h-136z" />
<glyph unicode="n" d="M61 0v1133h136v-62q82 74 172 74q82 0 122.5 -45t40.5 -129v-971h-135v942q0 74 -69 74q-62 0 -131 -49v-967h-136z" />
<glyph unicode="o" horiz-adv-x="585" d="M57 205v721q0 219 217 219h39q217 0 217 -219v-721q0 -217 -217 -217h-39q-217 0 -217 217zM193 199q0 -84 86 -84h30q86 0 86 84v733q0 86 -86 86h-30q-86 0 -86 -86v-733z" />
<glyph unicode="p" horiz-adv-x="593" d="M61 -205v1338h136v-62q74 74 165 74q84 0 128.5 -52t44.5 -141v-774q0 -88 -44.5 -139t-128.5 -51q-96 0 -165 69v-262h-136zM197 166q58 -49 125 -49q77 0 77 78v743q0 78 -77 78q-63 0 -125 -49v-801z" />
<glyph unicode="q" horiz-adv-x="593" d="M57 178v774q0 89 44.5 141t129.5 52q94 0 166 -72v60h135v-1338h-135v266q-69 -73 -166 -73q-86 0 -130 50.5t-44 139.5zM193 195q0 -78 79 -78q67 0 125 49v801q-62 49 -125 49q-79 0 -79 -78v-743z" />
<glyph unicode="r" horiz-adv-x="376" d="M61 0v1133h136v-103q32 59 66.5 85t88.5 26v-154q-92 -5 -155 -59v-928h-136z" />
<glyph unicode="s" horiz-adv-x="565" d="M55 201v223h133v-231q0 -82 82 -82h27q82 0 82 82v163q0 38 -12 60.5t-43 44.5l-154 100q-63 43 -88 86t-25 117v162q0 219 217 219h23q213 0 213 -215v-215h-133v225q0 80 -82 80h-23q-82 0 -82 -80v-160q0 -38 11.5 -60t42.5 -44l155 -101q63 -41 88 -83t25 -117v-170 q0 -217 -217 -217h-27q-105 0 -159 54t-54 159z" />
<glyph unicode="t" horiz-adv-x="356" d="M33 1008v125h65v159h135v-159h99v-125h-99v-1008h-135v1008h-65z" />
<glyph unicode="u" d="M59 160v973h136v-945q0 -71 69 -71q65 0 131 47v969h135v-1133h-135v61q-73 -73 -170 -73q-166 0 -166 172z" />
<glyph unicode="v" horiz-adv-x="561" d="M33 1133h135l115 -881l114 881h133l-174 -1133h-149z" />
<glyph unicode="w" horiz-adv-x="827" d="M33 1133h133l84 -830l100 830h129l103 -830l82 830h129l-146 -1133h-139l-92 797l-99 -797h-137z" />
<glyph unicode="x" horiz-adv-x="526" d="M6 0l182 557l-178 576h142l112 -408l115 408h137l-178 -558l180 -575h-139l-117 410l-119 -410h-137z" />
<glyph unicode="y" horiz-adv-x="561" d="M29 1133h137l115 -807l118 807h133l-229 -1338h-133l45 228z" />
<glyph unicode="z" horiz-adv-x="458" d="M33 0v125l256 883h-250v125h387v-125l-260 -883h260v-125h-393z" />
<glyph unicode="{" horiz-adv-x="450" d="M25 672v92l59 12q34 6 48.5 19.5t14.5 44.5v202q0 128 16.5 200t56.5 128t130 139l88 -36q-108 -128 -133.5 -197.5t-25.5 -231.5v-141q0 -143 -107 -184q56 -17 81.5 -55t25.5 -105v-168q0 -162 25.5 -231t133.5 -197l-88 -37q-90 83 -130 139t-56.5 128t-16.5 200v203 q0 32 -14.5 44t-48.5 19z" />
<glyph unicode="|" horiz-adv-x="471" d="M178 -119v1663h115v-1663h-115z" />
<glyph unicode="}" horiz-adv-x="450" d="M12 -37q109 129 134.5 198t25.5 230v168q0 67 25.5 105t81.5 55q-107 41 -107 184v141q0 87 -4 133.5t-22.5 96.5t-46.5 90t-87 109l88 36q90 -83 130 -139t56.5 -128t16.5 -200v-202q0 -31 15 -44.5t49 -19.5l59 -12v-92l-59 -13q-34 -7 -49 -19.5t-15 -43.5v-203 q0 -128 -16.5 -200t-56.5 -128t-130 -139z" />
<glyph unicode="~" horiz-adv-x="675" d="M100 631v112q26 31 64 46.5t74 15.5h4q31 0 90 -19l35 -12q49 -18 84 -18h6q75 0 133 55v-113q-55 -61 -137 -61h-4q-44 0 -99 20l-22 9q-50 18 -88 18h-4q-80 0 -136 -53z" />
<glyph unicode="&#xa1;" horiz-adv-x="280" d="M72 0v303l39 758h59l39 -758v-303h-137zM74 1214v220h133v-220h-133z" />
<glyph unicode="&#xa2;" horiz-adv-x="573" d="M59 344v754q0 192 172 213v129h119v-129q164 -27 164 -213v-238h-131v242q0 86 -86 86h-18q-86 0 -86 -86v-764q0 -84 86 -84h20q86 0 86 84v274h131v-268q0 -191 -166 -215v-135h-119v135q-172 21 -172 215z" />
<glyph unicode="&#xa3;" horiz-adv-x="655" d="M43 0v131h74v459h-74v129h74v495q0 230 229 230h29q115 0 171 -56t56 -171v-295h-137v299q0 94 -92 94h-25q-90 0 -90 -94v-502h227v-129h-227v-459h348v-131h-563z" />
<glyph unicode="&#xa5;" horiz-adv-x="571" d="M20 1434h142l125 -676l131 676h135l-184 -822h149v-98h-162v-84h162v-98h-162v-332h-139v332h-164v98h164v84h-164v98h150z" />
<glyph unicode="&#xa7;" horiz-adv-x="620" d="M66 217v244h133v-250q0 -94 94 -94h24q95 0 95 94v238q0 33 -16 49t-50 28l-162 66q-68 29 -90 59t-22 90v23l350 -141q73 -30 100 -69t27 -122v-211q0 -231 -232 -231h-24q-115 0 -171 56t-56 171zM72 1001v213q0 232 231 232h25q227 0 227 -227v-246h-135v250 q0 94 -92 94h-25q-96 0 -96 -94v-238q0 -33 16.5 -49.5t50.5 -28.5l162 -65q68 -29 90.5 -59.5t22.5 -90.5v-22l-350 141q-75 30 -101 68t-26 122z" />
<glyph unicode="&#xa8;" horiz-adv-x="888" d="M287 1217v163h119v-163h-119zM489 1217v163h117v-163h-117z" />
<glyph unicode="&#xa9;" horiz-adv-x="882" d="M72 276v879q0 155 66.5 224t209.5 69h184q144 0 211.5 -69t67.5 -224v-879q0 -153 -67.5 -221.5t-211.5 -68.5h-184q-143 0 -209.5 68.5t-66.5 221.5zM117 276q0 -131 56 -189t175 -58h184q120 0 176 57.5t56 189.5v879q0 132 -56 191t-176 59h-184q-119 0 -175 -59 t-56 -191v-879zM262 322v792q0 83 41.5 122.5t128.5 39.5h23q87 0 128.5 -39.5t41.5 -122.5v-250h-109v242q0 31 -14.5 45t-46.5 14h-19q-34 0 -48.5 -14t-14.5 -45v-774q0 -34 14.5 -49t48.5 -15h21q32 0 46.5 15t14.5 49v264h109v-274q0 -164 -170 -164h-25 q-170 0 -170 164z" />
<glyph unicode="&#xaa;" horiz-adv-x="407" d="M59 946v113q0 46 19 71t61 39l121 37v111q0 49 -51 49h-10q-26 0 -37.5 -11.5t-11.5 -37.5v-88h-84v96q0 121 131 121h16q131 0 131 -121v-479h-84v39q-56 -43 -102 -43h-4q-95 0 -95 104zM145 965q0 -41 39 -41q41 0 76 30v176l-80 -24q-20 -7 -27.5 -18t-7.5 -33v-90z " />
<glyph unicode="&#xab;" horiz-adv-x="434" d="M14 573l107 314h106l-88 -314l88 -313h-102zM205 573l94 314h109l-76 -314l76 -313h-103z" />
<glyph unicode="&#xad;" horiz-adv-x="366" d="M29 522v129h309v-129h-309z" />
<glyph unicode="&#xae;" horiz-adv-x="526" d="M43 856v416q0 92 39.5 133t128.5 41h104q89 0 128.5 -41t39.5 -133v-416q0 -91 -39.5 -131.5t-128.5 -40.5h-104q-89 0 -128.5 40.5t-39.5 131.5zM78 856q0 -74 30.5 -105.5t102.5 -31.5h104q72 0 103 31.5t31 105.5v416q0 75 -31 107t-103 32h-104q-72 0 -102.5 -32 t-30.5 -107v-416zM156 797v538h118q105 0 105 -78v-145q0 -28 -12 -42.5t-39 -22.5q28 -6 39.5 -19t11.5 -39v-192h-68v184q0 20 -10.5 28.5t-36.5 8.5h-41v-221h-67zM223 1077h43q45 0 45 33v135q0 29 -39 29h-49v-197z" />
<glyph unicode="&#xaf;" horiz-adv-x="888" d="M274 1229v114h344v-114h-344z" />
<glyph unicode="&#xb0;" horiz-adv-x="456" d="M43 860v424q0 162 160 162h53q160 0 160 -162v-424q0 -162 -160 -162h-53q-160 0 -160 162zM154 874q0 -34 14 -49.5t47 -15.5h31q61 0 61 65v394q0 65 -61 65h-31q-33 0 -47 -15.5t-14 -49.5v-394z" />
<glyph unicode="&#xb1;" horiz-adv-x="557" d="M18 360v123h523v-123h-523zM20 778v123h197v201h127v-201h199v-123h-199v-200h-127v200h-197z" />
<glyph unicode="&#xb4;" horiz-adv-x="888" d="M352 1217l64 186h137l-111 -186h-90z" />
<glyph unicode="&#xb6;" horiz-adv-x="595" d="M63 305v823q0 306 291 306h174v-1434h-110v1309h-101v-1309h-4q-119 11 -184.5 82.5t-65.5 222.5z" />
<glyph unicode="&#xb7;" horiz-adv-x="229" d="M49 532v220h133v-220h-133z" />
<glyph unicode="&#xb8;" horiz-adv-x="888" d="M365 -180l79 180h82l-39 -180h-122z" />
<glyph unicode="&#xba;" horiz-adv-x="421" d="M59 975v338q0 133 134 133h38q129 0 129 -133v-338q0 -133 -129 -133h-38q-134 0 -134 133zM147 977q0 -55 52 -55h26q51 0 51 55v334q0 55 -51 55h-26q-52 0 -52 -55v-334z" />
<glyph unicode="&#xbb;" horiz-adv-x="434" d="M25 260l75 313l-75 314h108l94 -314l-100 -313h-102zM205 260l88 313l-88 314h106l107 -314l-111 -313h-102z" />
<glyph unicode="&#xbf;" horiz-adv-x="557" d="M37 221v266q0 64 17.5 100t72.5 101l70 84q16 20 23 39.5t8 33t1 48.5v178h121v-211q0 -67 -15.5 -100.5t-66.5 -91.5l-49 -62q-41 -49 -41 -104v-287q0 -94 90 -94h29q92 0 92 94v315h131v-309q0 -229 -231 -229h-23q-117 0 -173 56.5t-56 172.5zM223 1217v219h133v-219 h-133z" />
<glyph unicode="&#xc0;" horiz-adv-x="620" d="M31 0l190 1438h180l189 -1438h-139l-29 236h-225l-29 -236h-137zM147 1665h138l73 -152h-90zM211 362h195l-99 812z" />
<glyph unicode="&#xc1;" horiz-adv-x="620" d="M31 0l190 1438h180l189 -1438h-139l-29 236h-225l-29 -236h-137zM211 362h195l-99 812zM264 1513l74 152h137l-121 -152h-90z" />
<glyph unicode="&#xc2;" horiz-adv-x="620" d="M31 0l190 1438h180l189 -1438h-139l-29 236h-225l-29 -236h-137zM133 1513l121 166h119l121 -166h-95l-86 78l-86 -78h-94zM211 362h195l-99 812z" />
<glyph unicode="&#xc3;" horiz-adv-x="620" d="M31 0l190 1438h180l189 -1438h-139l-29 236h-225l-29 -236h-137zM127 1513v86q0 84 80 84h4q45 0 84 -24l61 -37q17 -10 31 -10h2q17 0 17 20v51h90v-86q0 -84 -80 -84h-4q-42 0 -84 23l-62 37q-17 12 -30 12h-3q-16 0 -16 -22v-50h-90zM211 362h195l-99 812z" />
<glyph unicode="&#xc4;" horiz-adv-x="620" d="M31 0l190 1438h180l189 -1438h-139l-29 236h-225l-29 -236h-137zM150 1513v129h120v-129h-120zM211 362h195l-99 812zM356 1513v129h121v-129h-121z" />
<glyph unicode="&#xc5;" horiz-adv-x="620" d="M31 0l178 1362q-68 15 -68 86v8q0 43 28 66.5t81 23.5h121q108 0 108 -90v-8q0 -68 -67 -86l178 -1362h-139l-29 236h-227l-27 -236h-137zM186 1446q0 -26 16.5 -37.5t53.5 -11.5h111q35 0 51 11.5t16 37.5v12q0 49 -67 49h-111q-70 0 -70 -49v-12zM211 362h197l-101 824 z" />
<glyph unicode="&#xc6;" horiz-adv-x="821" d="M33 0l248 1434h491v-131h-248v-508h240v-129h-240v-535h252v-131h-395v236h-170l-41 -236h-137zM231 362h150v941z" />
<glyph unicode="&#xc7;" horiz-adv-x="628" d="M63 219v995q0 232 232 232h47q227 0 227 -227v-314h-139v318q0 94 -94 94h-35q-94 0 -94 -94v-1010q0 -96 94 -96h39q94 0 94 96v352h137v-346q0 -217 -200 -229l-37 -170h-123l74 168q-113 3 -167.5 59.5t-54.5 171.5z" />
<glyph unicode="&#xc8;" horiz-adv-x="507" d="M68 0v1434h391v-131h-250v-508h242v-129h-242v-535h254v-131h-395zM102 1665h138l73 -152h-90z" />
<glyph unicode="&#xc9;" horiz-adv-x="507" d="M68 0v1434h391v-131h-250v-508h242v-129h-242v-535h254v-131h-395zM217 1513l74 152h137l-121 -152h-90z" />
<glyph unicode="&#xca;" horiz-adv-x="507" d="M68 0v1434h391v-131h-250v-508h242v-129h-242v-535h254v-131h-395zM86 1513l121 166h119l120 -166h-94l-86 78l-86 -78h-94z" />
<glyph unicode="&#xcb;" horiz-adv-x="507" d="M68 0v1434h391v-131h-250v-508h242v-129h-242v-535h254v-131h-395zM102 1513v129h121v-129h-121zM309 1513v129h121v-129h-121z" />
<glyph unicode="&#xcc;" horiz-adv-x="282" d="M-23 1665h138l73 -152h-90zM70 0v1434h141v-1434h-141z" />
<glyph unicode="&#xcd;" horiz-adv-x="282" d="M70 0v1434h141v-1434h-141zM94 1513l74 152h137l-121 -152h-90z" />
<glyph unicode="&#xce;" horiz-adv-x="282" d="M-39 1513l121 166h119l121 -166h-95l-86 78l-86 -78h-94zM70 0v1434h141v-1434h-141z" />
<glyph unicode="&#xcf;" horiz-adv-x="282" d="M-23 1513v129h121v-129h-121zM70 0v1434h141v-1434h-141zM184 1513v129h121v-129h-121z" />
<glyph unicode="&#xd0;" horiz-adv-x="663" d="M10 668v118h78v648h236q142 0 208 -67t66 -210v-881q0 -141 -67 -208.5t-207 -67.5h-236v668h-78zM229 129h86q142 0 142 145v885q0 146 -142 146h-86v-519h138v-118h-138v-539z" />
<glyph unicode="&#xd1;" horiz-adv-x="671" d="M68 0v1434h196l207 -1041l-2 139v902h135v-1434h-178l-225 1133l2 -215v-918h-135zM152 1513v86q0 84 79 84h5q44 0 83 -24l62 -37q18 -10 31 -10h2q10 0 13 4.5t3 15.5v51h90v-86q0 -84 -80 -84h-4q-42 0 -84 23l-61 37q-17 12 -31 12h-2q-16 0 -16 -22v-50h-90z" />
<glyph unicode="&#xd2;" horiz-adv-x="643" d="M63 219v995q0 232 232 232h53q232 0 232 -232v-995q0 -231 -232 -231h-53q-232 0 -232 231zM160 1665h137l74 -152h-90zM207 213q0 -96 94 -96h43q94 0 94 96v1010q0 94 -94 94h-43q-94 0 -94 -94v-1010z" />
<glyph unicode="&#xd3;" horiz-adv-x="643" d="M63 219v995q0 232 232 232h53q232 0 232 -232v-995q0 -231 -232 -231h-53q-232 0 -232 231zM207 213q0 -96 94 -96h43q94 0 94 96v1010q0 94 -94 94h-43q-94 0 -94 -94v-1010zM274 1513l74 152h137l-120 -152h-91z" />
<glyph unicode="&#xd4;" horiz-adv-x="643" d="M63 219v995q0 232 232 232h53q232 0 232 -232v-995q0 -231 -232 -231h-53q-232 0 -232 231zM143 1513l121 166h119l121 -166h-94l-86 78l-86 -78h-95zM207 213q0 -96 94 -96h43q94 0 94 96v1010q0 94 -94 94h-43q-94 0 -94 -94v-1010z" />
<glyph unicode="&#xd5;" horiz-adv-x="643" d="M63 219v995q0 232 232 232h53q232 0 232 -232v-995q0 -231 -232 -231h-53q-232 0 -232 231zM137 1513v86q0 84 80 84h4q45 0 84 -24l62 -37q18 -10 30 -10h2q17 0 17 20v51h90v-86q0 -84 -80 -84h-4q-42 0 -84 23l-62 37q-17 12 -30 12h-2q-17 0 -17 -22v-50h-90z M207 213q0 -96 94 -96h43q94 0 94 96v1010q0 94 -94 94h-43q-94 0 -94 -94v-1010z" />
<glyph unicode="&#xd6;" horiz-adv-x="643" d="M63 219v995q0 232 232 232h53q232 0 232 -232v-995q0 -231 -232 -231h-53q-232 0 -232 231zM158 1513v129h121v-129h-121zM207 213q0 -96 94 -96h43q94 0 94 96v1010q0 94 -94 94h-43q-94 0 -94 -94v-1010zM365 1513v129h120v-129h-120z" />
<glyph unicode="&#xd7;" horiz-adv-x="557" d="M39 571l154 154l-152 154l86 88l154 -154l153 154l86 -88l-153 -152l153 -154l-86 -88l-155 154l-154 -154z" />
<glyph unicode="&#xd8;" horiz-adv-x="643" d="M63 221v993q0 232 232 232h53q232 0 232 -232v-993q0 -231 -232 -231h-53q-232 0 -232 231zM201 365l213 929q-26 23 -70 23h-43q-94 0 -94 -94l-2 -285zM229 141q25 -22 72 -22h43q94 0 94 94v242l4 620z" />
<glyph unicode="&#xd9;" horiz-adv-x="636" d="M66 221v1213h141v-1221q0 -94 96 -94h33q94 0 94 94v1221h141v-1213q0 -231 -229 -231h-45q-117 0 -174 57t-57 174zM156 1665h137l74 -152h-91z" />
<glyph unicode="&#xda;" horiz-adv-x="636" d="M66 221v1213h141v-1221q0 -94 96 -94h33q94 0 94 94v1221h141v-1213q0 -231 -229 -231h-45q-117 0 -174 57t-57 174zM272 1513l74 152h137l-121 -152h-90z" />
<glyph unicode="&#xdb;" horiz-adv-x="636" d="M66 221v1213h141v-1221q0 -94 96 -94h33q94 0 94 94v1221h141v-1213q0 -231 -229 -231h-45q-117 0 -174 57t-57 174zM137 1513l121 166h119l121 -166h-95l-86 78l-86 -78h-94z" />
<glyph unicode="&#xdc;" horiz-adv-x="636" d="M66 221v1213h141v-1221q0 -94 96 -94h33q94 0 94 94v1221h141v-1213q0 -231 -229 -231h-45q-117 0 -174 57t-57 174zM156 1513v129h120v-129h-120zM362 1513v129h121v-129h-121z" />
<glyph unicode="&#xdd;" horiz-adv-x="573" d="M16 1434h146l127 -699l131 699h139l-201 -910v-524h-141v518zM242 1513l73 152h138l-121 -152h-90z" />
<glyph unicode="&#xde;" d="M68 0v1434h141v-265h104q232 0 232 -231v-432q0 -232 -232 -232h-104v-274h-141zM209 403h98q94 0 94 97v446q0 94 -94 94h-98v-637z" />
<glyph unicode="&#xdf;" horiz-adv-x="598" d="M61 0v1231q0 107 57.5 164t164.5 57h34q109 0 164.5 -56.5t55.5 -164.5v-297q0 -145 -103 -184q56 -17 81.5 -55t25.5 -105v-373q0 -217 -217 -217h-70v127h68q86 0 86 84v373q0 90 -91 90h-63v129h59q46 0 68 21.5t22 68.5v342q0 88 -88 88h-28q-90 0 -90 -88v-1235 h-136z" />
<glyph unicode="&#xe0;" horiz-adv-x="567" d="M49 156v264q0 88 32.5 132t111.5 71l180 61v248q0 88 -84 88h-10q-86 0 -86 -88v-199h-134v193q0 219 220 219h14q215 0 215 -219v-926h-135v59q-71 -71 -164 -71q-160 0 -160 168zM143 1403h138l63 -186h-90zM184 184q0 -67 68 -67q61 0 121 43v399l-121 -41 q-38 -15 -53 -37t-15 -63v-234z" />
<glyph unicode="&#xe1;" horiz-adv-x="567" d="M49 156v264q0 88 32.5 132t111.5 71l180 61v248q0 88 -84 88h-10q-86 0 -86 -88v-199h-134v193q0 219 220 219h14q215 0 215 -219v-926h-135v59q-71 -71 -164 -71q-160 0 -160 168zM184 184q0 -67 68 -67q61 0 121 43v399l-121 -41q-38 -15 -53 -37t-15 -63v-234z M248 1217l63 186h138l-111 -186h-90z" />
<glyph unicode="&#xe2;" horiz-adv-x="567" d="M49 156v264q0 88 32.5 132t111.5 71l180 61v248q0 88 -84 88h-10q-86 0 -86 -88v-199h-134v193q0 219 220 219h14q215 0 215 -219v-926h-135v59q-71 -71 -164 -71q-160 0 -160 168zM121 1217l115 186h120l113 -186h-94l-80 94l-80 -94h-94zM184 184q0 -67 68 -67 q61 0 121 43v399l-121 -41q-38 -15 -53 -37t-15 -63v-234z" />
<glyph unicode="&#xe3;" horiz-adv-x="567" d="M49 156v264q0 88 32.5 132t111.5 71l180 61v248q0 88 -84 88h-10q-86 0 -86 -88v-199h-134v193q0 219 220 219h14q215 0 215 -219v-926h-135v59q-71 -71 -164 -71q-160 0 -160 168zM111 1217v102q0 40 21 62t61 22h4q27 0 43.5 -6.5t44.5 -26.5l43 -33q30 -20 37 -20h2 q16 0 16 20v66h90v-105q0 -81 -82 -81h-4q-28 0 -46 6t-42 24l-43 33q-29 20 -37 20h-2q-10 0 -13 -4.5t-3 -15.5v-63h-90zM184 184q0 -67 68 -67q61 0 121 43v399l-121 -41q-38 -15 -53 -37t-15 -63v-234z" />
<glyph unicode="&#xe4;" horiz-adv-x="567" d="M49 156v264q0 88 32.5 132t111.5 71l180 61v248q0 88 -84 88h-10q-86 0 -86 -88v-199h-134v193q0 219 220 219h14q215 0 215 -219v-926h-135v59q-71 -71 -164 -71q-160 0 -160 168zM135 1217v163h119v-163h-119zM184 184q0 -67 68 -67q61 0 121 43v399l-121 -41 q-38 -15 -53 -37t-15 -63v-234zM338 1217v163h117v-163h-117z" />
<glyph unicode="&#xe5;" horiz-adv-x="567" d="M49 156v264q0 88 32.5 132t111.5 71l180 61v248q0 88 -84 88h-10q-86 0 -86 -88v-199h-134v193q0 219 220 219h14q215 0 215 -219v-926h-135v59q-71 -71 -164 -71q-160 0 -160 168zM147 1305v8q0 94 113 94h72q110 0 110 -94v-8q0 -95 -110 -95h-72q-113 0 -113 95z M184 184q0 -67 68 -67q61 0 121 43v399l-121 -41q-38 -15 -53 -37t-15 -63v-234zM193 1305q0 -56 75 -56h56q75 0 75 56v8q0 28 -17.5 41.5t-57.5 13.5h-58q-39 0 -56 -13.5t-17 -41.5v-8z" />
<glyph unicode="&#xe6;" horiz-adv-x="911" d="M70 156v272q0 88 32 132t111 71l180 61v240q0 88 -84 88h-10q-86 0 -86 -88v-199h-131v193q0 219 217 219h14q58 0 90.5 -15t57.5 -45q27 30 59 45t90 15h29q217 0 217 -219v-410h-328v-317q0 -84 86 -84h25q86 0 86 84v209h131v-203q0 -217 -217 -217h-29 q-132 0 -184 82q-67 -46 -107 -64t-90 -18q-159 0 -159 168zM207 184q0 -67 65 -67q61 0 121 43v407l-121 -41q-37 -13 -51 -35.5t-14 -64.5v-242zM528 643h193v289q0 86 -84 86h-23q-86 0 -86 -86v-289z" />
<glyph unicode="&#xe7;" horiz-adv-x="577" d="M57 205v721q0 219 217 219h33q213 0 213 -215v-236h-133v238q0 86 -84 86h-24q-86 0 -86 -86v-733q0 -84 86 -84h26q84 0 84 84v272h133v-266q0 -203 -190 -215l-37 -170h-123l74 170q-189 12 -189 215z" />
<glyph unicode="&#xe8;" horiz-adv-x="573" d="M57 205v721q0 219 217 219h29q215 0 215 -219v-410h-325v-317q0 -84 86 -84h24q84 0 84 84v198h131v-192q0 -217 -215 -217h-29q-217 0 -217 217zM137 1403h137l64 -186h-90zM193 643h190v289q0 86 -84 86h-20q-86 0 -86 -86v-289z" />
<glyph unicode="&#xe9;" horiz-adv-x="573" d="M57 205v721q0 219 217 219h29q215 0 215 -219v-410h-325v-317q0 -84 86 -84h24q84 0 84 84v198h131v-192q0 -217 -215 -217h-29q-217 0 -217 217zM193 643h190v289q0 86 -84 86h-20q-86 0 -86 -86v-289zM246 1217l63 186h137l-110 -186h-90z" />
<glyph unicode="&#xea;" horiz-adv-x="573" d="M57 205v721q0 219 217 219h29q215 0 215 -219v-410h-325v-317q0 -84 86 -84h24q84 0 84 84v198h131v-192q0 -217 -215 -217h-29q-217 0 -217 217zM115 1217l114 186h121l113 -186h-94l-80 94l-80 -94h-94zM193 643h190v289q0 86 -84 86h-20q-86 0 -86 -86v-289z" />
<glyph unicode="&#xeb;" horiz-adv-x="573" d="M57 205v721q0 219 217 219h29q215 0 215 -219v-410h-325v-317q0 -84 86 -84h24q84 0 84 84v198h131v-192q0 -217 -215 -217h-29q-217 0 -217 217zM129 1217v163h119v-163h-119zM193 643h190v289q0 86 -84 86h-20q-86 0 -86 -86v-289zM332 1217v163h117v-163h-117z" />
<glyph unicode="&#xec;" horiz-adv-x="270" d="M-18 1403h137l63 -186h-90zM68 0v1133h135v-1133h-135z" />
<glyph unicode="&#xed;" horiz-adv-x="270" d="M68 0v1133h135v-1133h-135zM90 1217l64 186h137l-111 -186h-90z" />
<glyph unicode="&#xee;" horiz-adv-x="270" d="M-39 1217l115 186h121l112 -186h-94l-80 94l-80 -94h-94zM68 0v1133h135v-1133h-135z" />
<glyph unicode="&#xef;" horiz-adv-x="270" d="M-25 1217v163h119v-163h-119zM68 0v1133h135v-1133h-135zM178 1217v163h117v-163h-117z" />
<glyph unicode="&#xf0;" horiz-adv-x="589" d="M57 207v743q0 89 43.5 140t128.5 51q96 0 172 -60v60q0 41 -15.5 61.5t-61.5 40.5l-185 82l60 115l153 -70l43 78h127l-73 -123q44 -29 62.5 -68t18.5 -98v-952q0 -217 -217 -217h-39q-217 0 -217 217zM193 201q0 -86 86 -86h30q86 0 86 86v733q0 84 -86 84h-30 q-86 0 -86 -84v-733z" />
<glyph unicode="&#xf1;" d="M61 0v1133h136v-62q82 74 172 74q82 0 122.5 -45t40.5 -129v-971h-135v942q0 74 -69 74q-62 0 -131 -49v-967h-136zM119 1217v102q0 40 21 62t61 22h4q27 0 43.5 -6.5t44.5 -26.5l43 -33q30 -20 37 -20h2q16 0 16 20v66h90v-105q0 -81 -82 -81h-4q-28 0 -46 6t-42 24 l-43 33q-29 20 -37 20h-2q-10 0 -13 -4.5t-3 -15.5v-63h-90z" />
<glyph unicode="&#xf2;" horiz-adv-x="585" d="M57 205v721q0 219 217 219h39q217 0 217 -219v-721q0 -217 -217 -217h-39q-217 0 -217 217zM139 1403h137l64 -186h-90zM193 199q0 -84 86 -84h30q86 0 86 84v733q0 86 -86 86h-30q-86 0 -86 -86v-733z" />
<glyph unicode="&#xf3;" horiz-adv-x="585" d="M57 205v721q0 219 217 219h39q217 0 217 -219v-721q0 -217 -217 -217h-39q-217 0 -217 217zM193 199q0 -84 86 -84h30q86 0 86 84v733q0 86 -86 86h-30q-86 0 -86 -86v-733zM252 1217l63 186h138l-111 -186h-90z" />
<glyph unicode="&#xf4;" horiz-adv-x="585" d="M57 205v721q0 219 217 219h39q217 0 217 -219v-721q0 -217 -217 -217h-39q-217 0 -217 217zM121 1217l115 186h120l113 -186h-94l-80 94l-80 -94h-94zM193 199q0 -84 86 -84h30q86 0 86 84v733q0 86 -86 86h-30q-86 0 -86 -86v-733z" />
<glyph unicode="&#xf5;" horiz-adv-x="585" d="M57 205v721q0 219 217 219h39q217 0 217 -219v-721q0 -217 -217 -217h-39q-217 0 -217 217zM115 1217v102q0 40 21 62t61 22h4q27 0 43.5 -6.5t44.5 -26.5l43 -33q30 -20 37 -20h2q16 0 16 20v66h90v-105q0 -81 -82 -81h-4q-28 0 -46 6t-42 24l-43 33q-29 20 -37 20h-2 q-10 0 -13 -4.5t-3 -15.5v-63h-90zM193 199q0 -84 86 -84h30q86 0 86 84v733q0 86 -86 86h-30q-86 0 -86 -86v-733z" />
<glyph unicode="&#xf6;" horiz-adv-x="585" d="M57 205v721q0 219 217 219h39q217 0 217 -219v-721q0 -217 -217 -217h-39q-217 0 -217 217zM135 1217v163h119v-163h-119zM193 199q0 -84 86 -84h30q86 0 86 84v733q0 86 -86 86h-30q-86 0 -86 -86v-733zM338 1217v163h117v-163h-117z" />
<glyph unicode="&#xf7;" horiz-adv-x="557" d="M18 664v120h523v-120h-523zM211 434v144h137v-144h-137zM211 870v144h137v-144h-137z" />
<glyph unicode="&#xf8;" horiz-adv-x="585" d="M57 205v721q0 219 217 219h39q217 0 217 -219v-721q0 -217 -217 -217h-39q-217 0 -217 217zM186 270l179 734q-25 14 -56 14h-30q-86 0 -86 -86v-105zM221 129q20 -14 58 -14h30q86 0 86 84v112l6 557z" />
<glyph unicode="&#xf9;" d="M59 160v973h136v-945q0 -71 69 -71q65 0 131 47v969h135v-1133h-135v61q-73 -73 -170 -73q-166 0 -166 172zM143 1403h138l63 -186h-90z" />
<glyph unicode="&#xfa;" d="M59 160v973h136v-945q0 -71 69 -71q65 0 131 47v969h135v-1133h-135v61q-73 -73 -170 -73q-166 0 -166 172zM254 1217l63 186h138l-111 -186h-90z" />
<glyph unicode="&#xfb;" d="M59 160v973h136v-945q0 -71 69 -71q65 0 131 47v969h135v-1133h-135v61q-73 -73 -170 -73q-166 0 -166 172zM123 1217l115 186h120l113 -186h-94l-80 94l-80 -94h-94z" />
<glyph unicode="&#xfc;" d="M59 160v973h136v-945q0 -71 69 -71q65 0 131 47v969h135v-1133h-135v61q-73 -73 -170 -73q-166 0 -166 172zM137 1217v163h119v-163h-119zM340 1217v163h117v-163h-117z" />
<glyph unicode="&#xfd;" horiz-adv-x="561" d="M29 1133h137l115 -807l118 807h133l-229 -1338h-133l45 228zM242 1217l63 186h137l-110 -186h-90z" />
<glyph unicode="&#xfe;" horiz-adv-x="593" d="M61 -205v1653h136v-377q74 74 165 74q84 0 128.5 -52t44.5 -141v-774q0 -88 -44.5 -139t-128.5 -51q-100 0 -165 73v-266h-136zM197 166q58 -49 125 -49q77 0 77 78v743q0 78 -77 78q-63 0 -125 -49v-801z" />
<glyph unicode="&#xff;" horiz-adv-x="561" d="M29 1133h137l115 -807l118 807h133l-229 -1338h-133l45 228zM125 1217v163h119v-163h-119zM328 1217v163h116v-163h-116z" />
<glyph unicode="&#x152;" horiz-adv-x="872" d="M63 276v881q0 141 68.5 209t208.5 68h483v-131h-250v-508h242v-129h-242v-535h254v-131h-487q-140 0 -208.5 68t-68.5 208zM207 274q0 -145 139 -145h86v1176h-86q-139 0 -139 -146v-885z" />
<glyph unicode="&#x153;" horiz-adv-x="911" d="M57 205v721q0 219 217 219h39q104 0 150 -60q23 30 55 45t92 15h29q217 0 217 -219v-410h-326v-317q0 -84 84 -84h25q86 0 86 84v198h131v-192q0 -217 -217 -217h-29q-60 0 -92.5 14t-54.5 43q-44 -57 -150 -57h-39q-217 0 -217 217zM193 197q0 -82 81 -82h39q82 0 82 82 v737q0 82 -82 82h-39q-81 0 -81 -82v-737zM530 643h193v289q0 86 -86 86h-23q-84 0 -84 -86v-289z" />
<glyph unicode="&#x178;" horiz-adv-x="573" d="M16 1434h146l127 -699l131 699h139l-201 -910v-524h-141v518zM125 1513v129h121v-129h-121zM332 1513v129h121v-129h-121z" />
<glyph unicode="&#x2c6;" horiz-adv-x="888" d="M272 1217l115 186h121l113 -186h-95l-80 94l-79 -94h-95z" />
<glyph unicode="&#x2dc;" horiz-adv-x="888" d="M266 1217v102q0 40 21 62t61 22h4q27 0 43.5 -6.5t44.5 -26.5l43 -33q30 -20 37 -20h2q17 0 17 20v66h90v-105q0 -81 -82 -81h-4q-28 0 -46 6t-42 24l-43 33q-29 20 -37 20h-2q-17 0 -17 -20v-63h-90z" />
<glyph unicode="&#x2000;" horiz-adv-x="841" />
<glyph unicode="&#x2001;" horiz-adv-x="1683" />
<glyph unicode="&#x2002;" horiz-adv-x="841" />
<glyph unicode="&#x2003;" horiz-adv-x="1683" />
<glyph unicode="&#x2004;" horiz-adv-x="561" />
<glyph unicode="&#x2005;" horiz-adv-x="420" />
<glyph unicode="&#x2006;" horiz-adv-x="280" />
<glyph unicode="&#x2007;" horiz-adv-x="280" />
<glyph unicode="&#x2008;" horiz-adv-x="210" />
<glyph unicode="&#x2009;" horiz-adv-x="336" />
<glyph unicode="&#x200a;" horiz-adv-x="93" />
<glyph unicode="&#x2010;" horiz-adv-x="366" d="M29 522v129h309v-129h-309z" />
<glyph unicode="&#x2011;" horiz-adv-x="366" d="M29 522v129h309v-129h-309z" />
<glyph unicode="&#x2012;" horiz-adv-x="366" d="M29 522v129h309v-129h-309z" />
<glyph unicode="&#x2013;" horiz-adv-x="651" d="M29 526v121h594v-121h-594z" />
<glyph unicode="&#x2014;" horiz-adv-x="1015" d="M29 526v121h932v-121h-932z" />
<glyph unicode="&#x2018;" horiz-adv-x="235" d="M47 1028v154q0 64 11 107t40 97l31 54l53 -15l-16 -45q-28 -73 -35 -133h47v-219h-131z" />
<glyph unicode="&#x2019;" horiz-adv-x="235" d="M51 1036l17 45q29 74 32 133h-45v220h131v-154q0 -64 -11 -107.5t-40 -97.5l-31 -53z" />
<glyph unicode="&#x201a;" horiz-adv-x="231" d="M49 -176l17 45q29 73 32 133h-45v219h131v-153q0 -64 -11 -107.5t-40 -97.5l-31 -53z" />
<glyph unicode="&#x201c;" horiz-adv-x="444" d="M47 1028v154q0 64 11 107t40 97l31 54l53 -15l-16 -45q-28 -73 -35 -133h47v-219h-131zM258 1028v154q0 64 11 107t40 97l31 54l53 -15l-16 -45q-28 -73 -35 -133h47v-219h-131z" />
<glyph unicode="&#x201d;" horiz-adv-x="444" d="M51 1036l17 45q29 74 32 133h-45v220h131v-154q0 -64 -11 -107.5t-40 -97.5l-31 -53zM262 1036l17 45q29 74 32 133h-45v220h131v-154q0 -64 -11 -107.5t-40 -97.5l-31 -53z" />
<glyph unicode="&#x201e;" horiz-adv-x="442" d="M49 -176l17 45q29 73 32 133h-45v219h131v-153q0 -64 -11 -107.5t-40 -97.5l-31 -53zM260 -176l16 45q30 76 33 133h-45v219h131v-153q0 -64 -11 -107.5t-40 -97.5l-31 -53z" />
<glyph unicode="&#x2022;" horiz-adv-x="423" d="M98 651v142q0 81 90 81h45q93 0 93 -81v-142q0 -82 -93 -82h-45q-90 0 -90 82z" />
<glyph unicode="&#x2026;" horiz-adv-x="696" d="M49 0v219h133v-219h-133zM281 0v219h133v-219h-133zM514 0v219h133v-219h-133z" />
<glyph unicode="&#x202f;" horiz-adv-x="336" />
<glyph unicode="&#x2039;" horiz-adv-x="286" d="M14 573l127 314h121l-110 -314l110 -313h-115z" />
<glyph unicode="&#x203a;" horiz-adv-x="286" d="M25 260l110 313l-110 314h120l127 -314l-133 -313h-114z" />
<glyph unicode="&#x205f;" horiz-adv-x="420" />
<glyph unicode="&#x20ac;" horiz-adv-x="641" d="M39 586v98h65v82h-65v98h65v350q0 230 232 230h33q114 0 169.5 -56t55.5 -171v-242h-137v246q0 94 -90 94h-29q-92 0 -92 -94v-357h262v-98h-262v-82h262v-98h-262v-373q0 -94 92 -94h33q90 0 90 94v258h137v-250q0 -231 -229 -231h-33q-232 0 -232 231v365h-65z" />
<glyph unicode="&#x2122;" horiz-adv-x="778" d="M20 1356v78h271v-78h-92v-547h-86v547h-93zM334 809v625h117l69 -486l74 486h111v-625h-76v465l-72 -465h-78l-69 461v-461h-76z" />
<glyph unicode="&#x25fc;" horiz-adv-x="1136" d="M0 0v1137h1137v-1137h-1137z" />
<glyph unicode="&#xfb01;" horiz-adv-x="618" d="M37 1008v125h55v120q0 195 195 195h55v-125h-51q-64 0 -64 -63v-127h109v-125h-109v-1008h-135v1008h-55zM412 1237v149h143v-149h-143zM416 0v1133h135v-1133h-135z" />
<glyph unicode="&#xfb02;" horiz-adv-x="618" d="M37 1008v125h55v120q0 195 195 195h55v-125h-51q-64 0 -64 -63v-127h109v-125h-109v-1008h-135v1008h-55zM416 0v1448h135v-1448h-135z" />
<glyph unicode="&#xfb03;" horiz-adv-x="966" d="M37 1008v125h55v120q0 195 195 195h55v-125h-51q-64 0 -64 -63v-127h109v-125h-109v-1008h-135v1008h-55zM385 1008v125h55v120q0 195 195 195h55v-125h-51q-64 0 -64 -63v-127h109v-125h-109v-1008h-135v1008h-55zM760 1237v149h143v-149h-143zM764 0v1133h135v-1133 h-135z" />
<glyph unicode="&#xfb04;" horiz-adv-x="966" d="M37 1008v125h55v120q0 195 195 195h55v-125h-51q-64 0 -64 -63v-127h109v-125h-109v-1008h-135v1008h-55zM385 1008v125h55v120q0 195 195 195h55v-125h-51q-64 0 -64 -63v-127h109v-125h-109v-1008h-135v1008h-55zM764 0v1448h135v-1448h-135z" />
</font>
</defs>
</svg>
