<?xml version="1.0" standalone="no"?>
<!DOCTYPE svg PUBLIC "-//W3C//DTD SVG 1.1//EN" "http://www.w3.org/Graphics/SVG/1.1/DTD/svg11.dtd" >
<svg xmlns="http://www.w3.org/2000/svg">
<metadata></metadata>
<defs>
<font id="tungstenmedium" horiz-adv-x="681" >
<font-face units-per-em="2048" ascent="1638" descent="-410" />
<missing-glyph horiz-adv-x="245" />
<glyph horiz-adv-x="2048" />
<glyph horiz-adv-x="2048" />
<glyph unicode="&#xd;" horiz-adv-x="2048" />
<glyph unicode=" "  horiz-adv-x="245" />
<glyph unicode="&#x09;" horiz-adv-x="245" />
<glyph unicode="&#xa0;" horiz-adv-x="245" />
<glyph unicode="!" horiz-adv-x="323" d="M82 0v238h160v-238h-160zM82 1104v330h160v-330l-52 -703h-57z" />
<glyph unicode="&#x22;" horiz-adv-x="487" d="M43 899l31 535h151l-82 -535h-100zM276 899l31 535h152l-82 -535h-101z" />
<glyph unicode="#" horiz-adv-x="741" d="M37 250v170l108 29v430l-108 -29v170l108 29v389h148v-348l156 40v308h147v-267l109 29v-170l-109 -31v-430l109 31v-170l-109 -29v-405h-147v364l-156 -41v-323h-148v283zM293 487l156 43v431l-156 -43v-431z" />
<glyph unicode="$" horiz-adv-x="712" d="M72 256v295h159v-301q0 -109 109 -109h33q108 0 108 109v209q0 51 -16.5 80t-54.5 57l-201 145q-77 55 -107 115.5t-30 151.5v166q0 243 219 264v145h131v-145q219 -21 219 -260v-252h-160v258q0 56 -26.5 82t-81.5 26h-29q-56 0 -82 -26t-26 -82v-174q0 -51 17 -80 t56 -58l199 -143q78 -57 107.5 -115t29.5 -151v-203q0 -246 -223 -264v-154h-131v154q-219 21 -219 260z" />
<glyph unicode="%" horiz-adv-x="933" d="M57 784v461q0 201 201 201h37q201 0 201 -201v-295l145 488h129l-192 -594q27 6 61 6h37q201 0 201 -201v-461q0 -200 -201 -200h-37q-201 0 -201 200v293l-145 -485h-129l192 594q-27 -6 -61 -6h-37q-201 0 -201 200zM193 793q0 -80 77 -80h19q76 0 76 80v440 q0 80 -78 80h-17q-77 0 -77 -80v-440zM569 201q0 -80 78 -80h17q77 0 77 80v440q0 80 -77 80h-19q-76 0 -76 -80v-440z" />
<glyph unicode="&#x26;" horiz-adv-x="841" d="M45 238v288q0 158 96 242l80 70l-47 86q-30 57 -39.5 100.5t-9.5 110.5v61q0 250 250 250h37q245 0 245 -246v-211h-157v209q0 98 -99 98h-16q-98 0 -98 -98v-63q0 -32 0.5 -47t7 -42t20.5 -53l248 -469l101 326h151l-153 -485l200 -365h-176l-98 176 q-25 -71 -54.5 -109.5t-81 -58.5t-135.5 -20h-22q-250 0 -250 250zM203 236q0 -99 98 -99h47q45 0 66 24t43 89l30 94l-194 358l-29 -26q-34 -29 -47.5 -61.5t-13.5 -82.5v-296z" />
<glyph unicode="'" horiz-adv-x="258" d="M43 899l31 535h155l-82 -535h-104z" />
<glyph unicode="(" horiz-adv-x="425" d="M74 563v307q0 178 19.5 284t67 187.5t144.5 178.5l103 -43q-61 -85 -92 -136.5t-55.5 -121.5t-32 -147.5t-7.5 -199.5v-311q0 -122 7.5 -199.5t32 -147t55.5 -121t92 -136.5l-103 -43q-98 98 -145 178.5t-66.5 186.5t-19.5 284z" />
<glyph unicode=")" horiz-adv-x="425" d="M18 -43q61 85 92 136.5t55.5 121t32 147t7.5 199.5v311q0 122 -7.5 199.5t-32 147.5t-55.5 121.5t-92 136.5l103 43q97 -97 144.5 -178.5t67 -187.5t19.5 -284v-307q0 -178 -19.5 -284t-66.5 -186.5t-145 -178.5z" />
<glyph unicode="*" horiz-adv-x="546" d="M29 944v121l155 80l-155 80v121h6l188 -111l-4 203h109l-6 -203l190 111h6v-121l-158 -80l158 -80v-121h-6l-190 109l6 -201h-109l4 201l-188 -109h-6z" />
<glyph unicode="+" horiz-adv-x="638" d="M20 657v142h228v233h147v-233h228v-142h-228v-233h-147v233h-228z" />
<glyph unicode="," horiz-adv-x="282" d="M59 -160l25 54q27 65 33 106h-56v238h160v-158q0 -65 -9.5 -100.5t-43.5 -90.5l-43 -67z" />
<glyph unicode="-" horiz-adv-x="421" d="M33 500v147h356v-147h-356z" />
<glyph unicode="." horiz-adv-x="282" d="M61 0v238h160v-238h-160z" />
<glyph unicode="/" horiz-adv-x="421" d="M8 -66l266 1565h140l-267 -1565h-139z" />
<glyph unicode="0" horiz-adv-x="733" d="M74 254v926q0 266 266 266h53q266 0 266 -266v-926q0 -266 -266 -266h-53q-266 0 -266 266zM236 246q0 -109 108 -109h45q109 0 109 109v942q0 108 -109 108h-45q-56 0 -82 -26t-26 -82v-942z" />
<glyph unicode="1" horiz-adv-x="405" d="M16 1178v127l17 2q58 7 94 29.5t72 70.5l24 33h84v-1440h-155v1178h-136z" />
<glyph unicode="2" horiz-adv-x="692" d="M61 0v246q0 78 24 139t87 139l231 291q37 46 50.5 79t13.5 77v217q0 108 -105 108h-32q-105 0 -105 -108v-270h-159v262q0 266 262 266h41q262 0 262 -266v-185q0 -78 -22.5 -140t-84.5 -138l-231 -291q-41 -51 -54.5 -88.5t-13.5 -101.5v-84h406v-152h-570z" />
<glyph unicode="3" horiz-adv-x="710" d="M57 250v227h160v-231q0 -109 109 -109h41q108 0 108 109v299q0 108 -104 108h-166v152h162q104 0 104 108v275q0 108 -104 108h-41q-105 0 -105 -108v-205h-160v197q0 266 267 266h41q266 0 266 -266v-226q0 -168 -119 -213q65 -19 94 -62.5t29 -121.5v-303 q0 -266 -266 -266h-54q-262 0 -262 262z" />
<glyph unicode="4" horiz-adv-x="679" d="M35 270v148l327 1016h203v-1020h101v-144h-101v-270h-147v270h-383zM178 414h240v760z" />
<glyph unicode="5" horiz-adv-x="702" d="M74 250v248h159v-252q0 -109 105 -109h29q104 0 104 109v389q0 59 -22.5 87t-71.5 28q-79 0 -158 -82h-137v766h532v-152h-381l-4 -448q84 67 185 67q100 0 160.5 -63t60.5 -172v-412q0 -266 -262 -266h-41q-258 0 -258 262z" />
<glyph unicode="6" horiz-adv-x="716" d="M74 254v926q0 266 266 266h43q133 0 195.5 -62t62.5 -196v-199h-158v199q0 108 -104 108h-39q-104 0 -104 -108v-383q82 45 170 45h10q107 0 169 -65.5t62 -172.5v-358q0 -266 -266 -266h-41q-266 0 -266 266zM236 246q0 -109 104 -109h43q104 0 104 109v336 q0 61 -27 88.5t-83 27.5q-79 0 -141 -30v-422z" />
<glyph unicode="7" horiz-adv-x="571" d="M27 1282v152h501v-148l-282 -1286h-156l283 1282h-346z" />
<glyph unicode="8" horiz-adv-x="716" d="M72 254v307q0 78 29 121.5t94 62.5q-119 45 -119 213v222q0 266 266 266h33q266 0 266 -266v-222q0 -168 -119 -213q65 -19 94 -62.5t29 -121.5v-307q0 -266 -266 -266h-41q-266 0 -266 266zM229 244q0 -109 109 -109h41q108 0 108 109v307q0 55 -26.5 81.5t-81.5 26.5 h-41q-109 0 -109 -108v-307zM231 913q0 -108 109 -108h37q55 0 81.5 26.5t26.5 81.5v277q0 56 -26.5 82t-81.5 26h-37q-109 0 -109 -108v-277z" />
<glyph unicode="9" horiz-adv-x="712" d="M70 805v375q0 266 266 266h37q266 0 266 -266v-926q0 -266 -266 -266h-39q-136 0 -199 62t-63 196v182h157v-182q0 -109 105 -109h39q104 0 104 109v364q-78 -43 -170 -43h-6q-107 0 -169 65.5t-62 172.5zM229 836q0 -117 109 -117q75 0 139 31v438q0 108 -104 108h-39 q-105 0 -105 -108v-352z" />
<glyph unicode=":" horiz-adv-x="282" d="M61 0v238h160v-238h-160zM61 868v238h160v-238h-160z" />
<glyph unicode=";" horiz-adv-x="282" d="M59 -160l25 54q27 65 33 106h-56v238h160v-158q0 -65 -9.5 -100.5t-43.5 -90.5l-43 -67zM61 868v238h160v-238h-160z" />
<glyph unicode="&#x3c;" horiz-adv-x="643" d="M31 629v200l557 193v-156l-430 -135l430 -131v-160z" />
<glyph unicode="=" horiz-adv-x="643" d="M31 506v141h581v-141h-581zM31 809v141h581v-141h-581z" />
<glyph unicode="&#x3e;" horiz-adv-x="643" d="M55 440v160l430 131l-430 135v156l557 -193v-200z" />
<glyph unicode="?" horiz-adv-x="641" d="M41 926v254q0 266 266 266h27q266 0 266 -266v-199q0 -38 -4.5 -63t-23 -54.5t-32.5 -46.5t-57 -65l-75 -86q-16 -19 -23 -39t-7.5 -33t-0.5 -51v-154h-139v203q0 54 11.5 88.5t26 52.5t62.5 70l49 53q27 30 38 55t11 58v219q0 108 -104 108h-35q-104 0 -104 -108v-262 h-152zM227 0v238h160v-238h-160z" />
<glyph unicode="@" horiz-adv-x="1015" d="M82 182v746q0 187 72.5 261.5t246.5 74.5h213q174 0 247 -74.5t73 -261.5v-697q0 -88 -35 -126.5t-108 -38.5h-50q-61 0 -90 19.5t-41 66.5q-34 -43 -80 -66t-92 -23q-71 0 -109 42.5t-38 115.5v219q0 76 26.5 114.5t94.5 61.5l180 62v164q0 82 -76 82h-8q-80 0 -80 -82 v-117h-127v123q0 201 199 201h22q199 0 199 -201v-655q0 -58 53 -58h17q69 0 69 101v692q0 152 -54.5 209t-191.5 57h-213q-137 0 -191 -57t-54 -209v-746q0 -152 54 -209t191 -57h476v-70h-476q-179 0 -249 72t-70 264zM420 254q0 -68 59 -68q46 0 113 45v322l-117 -41 q-31 -10 -43 -28.5t-12 -53.5v-176z" />
<glyph unicode="A" horiz-adv-x="720" d="M35 0l221 1438h209l221 -1438h-162l-35 240h-264l-32 -240h-158zM246 387h223l-113 795z" />
<glyph unicode="B" horiz-adv-x="718" d="M78 0v1434h299q266 0 266 -267v-211q0 -93 -31 -146t-94 -77q65 -26 97 -79t32 -146v-242q0 -266 -266 -266h-303zM240 147h137q108 0 108 109v283q0 61 -29.5 90.5t-90.5 29.5h-125v-512zM240 805h120q121 0 121 121v252q0 56 -26.5 82t-81.5 26h-133v-481z" />
<glyph unicode="C" horiz-adv-x="724" d="M74 254v926q0 266 266 266h53q262 0 262 -262v-258h-159v262q0 108 -109 108h-41q-56 0 -82 -26t-26 -82v-942q0 -109 108 -109h45q109 0 109 109v305h159v-297q0 -266 -266 -266h-53q-266 0 -266 266z" />
<glyph unicode="D" horiz-adv-x="739" d="M78 0v1434h270q161 0 239.5 -78.5t78.5 -239.5v-799q0 -161 -78.5 -239t-239.5 -78h-270zM242 150h98q83 0 122.5 40.5t39.5 124.5v803q0 166 -162 166h-98v-1134z" />
<glyph unicode="E" horiz-adv-x="589" d="M78 0v1434h450v-152h-286v-475h276v-150h-276v-505h290v-152h-454z" />
<glyph unicode="F" horiz-adv-x="571" d="M78 0v1434h440v-152h-276v-479h266v-150h-266v-653h-164z" />
<glyph unicode="G" horiz-adv-x="737" d="M74 254v926q0 266 266 266h61q263 0 263 -262v-197h-160v201q0 108 -109 108h-49q-56 0 -82 -26t-26 -82v-942q0 -109 108 -109h53q109 0 109 109v366h-133v150h293v-508q0 -266 -267 -266h-61q-266 0 -266 266z" />
<glyph unicode="H" horiz-adv-x="749" d="M78 0v1434h164v-625h266v625h164v-1434h-164v655h-266v-655h-164z" />
<glyph unicode="I" horiz-adv-x="323" d="M80 0v1434h164v-1434h-164z" />
<glyph unicode="J" horiz-adv-x="479" d="M37 0v152h90q113 0 113 112v1170h163v-1168q0 -266 -266 -266h-100z" />
<glyph unicode="K" horiz-adv-x="708" d="M78 0v1434h164v-695l282 695h174l-295 -705l287 -729h-180l-268 705v-705h-164z" />
<glyph unicode="L" horiz-adv-x="555" d="M78 0v1434h164v-1282h270v-152h-434z" />
<glyph unicode="M" horiz-adv-x="1032" d="M78 0v1434h258l182 -1131l182 1131h254v-1434h-159v1186l-197 -1186h-168l-197 1186v-1186h-155z" />
<glyph unicode="N" horiz-adv-x="774" d="M78 0v1434h225l238 -1035v1035h155v-1434h-204l-259 1122v-1122h-155z" />
<glyph unicode="O" horiz-adv-x="741" d="M74 254v926q0 266 266 266h61q267 0 267 -266v-926q0 -266 -267 -266h-61q-266 0 -266 266zM238 246q0 -109 108 -109h49q109 0 109 109v942q0 108 -109 108h-49q-56 0 -82 -26t-26 -82v-942z" />
<glyph unicode="P" d="M78 0v1434h282q267 0 267 -267v-362q0 -266 -267 -266h-118v-539h-164zM242 688h112q109 0 109 109v379q0 108 -109 108h-112v-596z" />
<glyph unicode="Q" horiz-adv-x="741" d="M74 254v926q0 266 266 266h61q267 0 267 -266v-901q0 -184 -125 -242l162 -64l-82 -129l-236 144h-47q-266 0 -266 266zM238 246q0 -109 108 -109h49q109 0 109 109v942q0 108 -109 108h-49q-56 0 -82 -26t-26 -82v-942z" />
<glyph unicode="R" horiz-adv-x="724" d="M78 0v1434h305q266 0 266 -267v-266q0 -94 -31.5 -146.5t-95.5 -78.5q68 -19 98.5 -64.5t30.5 -128.5v-483h-164v477q0 65 -30.5 95t-94.5 30h-120v-602h-164zM242 748h123q61 0 90.5 29t29.5 91v308q0 56 -26.5 82t-81.5 26h-135v-536z" />
<glyph unicode="S" horiz-adv-x="712" d="M72 250v301h159v-307q0 -109 109 -109h33q108 0 108 109v215q0 51 -16.5 80t-54.5 57l-201 145q-77 55 -107 115.5t-30 151.5v172q0 266 266 266h41q262 0 262 -262v-258h-160v264q0 56 -26.5 82t-81.5 26h-29q-56 0 -82 -26t-26 -82v-180q0 -51 17 -80t56 -58l199 -143 q78 -57 107.5 -115t29.5 -151v-209q0 -266 -266 -266h-45q-262 0 -262 262z" />
<glyph unicode="T" horiz-adv-x="634" d="M20 1282v152h594v-152h-215v-1282h-163v1282h-216z" />
<glyph unicode="U" horiz-adv-x="735" d="M76 254v1180h164v-1188q0 -109 108 -109h39q109 0 109 109v1188h163v-1180q0 -266 -266 -266h-51q-266 0 -266 266z" />
<glyph unicode="V" horiz-adv-x="704" d="M35 1434h166l151 -1096l156 1096h162l-228 -1438h-180z" />
<glyph unicode="W" horiz-adv-x="1110" d="M53 1434h164l123 -1221l135 1221h164l131 -1221l127 1221h160l-174 -1434h-213l-117 1028l-113 -1028h-213z" />
<glyph unicode="X" horiz-adv-x="708" d="M39 0l217 715l-213 719h164l149 -560l150 560h160l-213 -717l217 -717h-164l-154 557l-153 -557h-160z" />
<glyph unicode="Y" horiz-adv-x="661" d="M18 1434h168l146 -703l151 703h162l-231 -932v-502h-164v489z" />
<glyph unicode="Z" horiz-adv-x="583" d="M45 0v150l332 1134h-322v150h486v-150l-332 -1134h332v-150h-496z" />
<glyph unicode="[" horiz-adv-x="428" d="M90 -66v1565h320v-127h-172v-1311h172v-127h-320z" />
<glyph unicode="\" horiz-adv-x="421" d="M8 1499h139l267 -1565h-140z" />
<glyph unicode="]" horiz-adv-x="428" d="M18 61h172v1311h-172v127h320v-1565h-320v127z" />
<glyph unicode="^" horiz-adv-x="819" d="M152 1014l186 420h143l187 -420h-138l-120 278l-121 -278h-137z" />
<glyph unicode="_" horiz-adv-x="911" d="M-4 -45h919v-139h-919v139z" />
<glyph unicode="`" horiz-adv-x="1024" d="M428 1413h158l73 -215h-104z" />
<glyph unicode="a" horiz-adv-x="653" d="M57 182v203q0 101 36.5 151.5t127.5 81.5l209 72v184q0 101 -98 101h-13q-98 0 -98 -101v-137h-151v131q0 250 249 250h17q250 0 250 -250v-868h-156v70q-86 -82 -190 -82q-183 0 -183 194zM213 215q0 -80 76 -80q67 0 141 51v361l-141 -49q-43 -17 -59.5 -42.5 t-16.5 -72.5v-168z" />
<glyph unicode="b" horiz-adv-x="684" d="M72 0v1454h155v-420q80 84 191 84q97 0 147.5 -59t50.5 -160v-692q0 -101 -50.5 -160t-147.5 -59q-111 0 -191 80v-68h-155zM227 193q67 -58 144 -58q90 0 90 90v656q0 90 -90 90q-77 0 -144 -58v-720z" />
<glyph unicode="c" horiz-adv-x="665" d="M66 238v630q0 250 249 250h39q246 0 246 -246v-180h-154v182q0 99 -98 99h-29q-98 0 -98 -99v-643q0 -98 98 -98h31q99 0 99 98v220h153v-213q0 -250 -250 -250h-37q-249 0 -249 250z" />
<glyph unicode="d" horiz-adv-x="684" d="M68 207v692q0 101 50.5 160t147.5 59q111 0 191 -80v416h155v-1454h-155v72q-80 -84 -191 -84q-97 0 -147.5 59t-50.5 160zM223 225q0 -90 90 -90q77 0 144 58v720q-67 58 -144 58q-90 0 -90 -90v-656z" />
<glyph unicode="e" horiz-adv-x="661" d="M66 238v630q0 250 249 250h33q250 0 250 -250v-372h-377v-265q0 -98 98 -98h29q98 0 98 98v127h152v-120q0 -250 -250 -250h-33q-249 0 -249 250zM221 643h221v231q0 99 -98 99h-25q-98 0 -98 -99v-231z" />
<glyph unicode="f" horiz-adv-x="401" d="M43 963v143h63v125q0 223 224 223h63v-143h-57q-74 0 -74 -74v-131h125v-143h-125v-963h-156v963h-63z" />
<glyph unicode="g" horiz-adv-x="684" d="M68 332v567q0 101 50.5 160t147.5 59q111 0 191 -80v68h155v-1100q0 -123 -59 -181t-182 -58h-82q-111 0 -164 52.5t-53 162.5v59h145v-53q0 -86 80 -86h80q80 0 80 86v200q-82 -75 -191 -75q-97 0 -147.5 59t-50.5 160zM223 350q0 -90 90 -90q75 0 144 53v600 q-67 58 -144 58q-90 0 -90 -90v-531z" />
<glyph unicode="h" d="M72 0v1454h155v-420q88 84 197 84q188 0 188 -198v-920h-155v887q0 84 -80 84q-71 0 -150 -56v-915h-155z" />
<glyph unicode="i" horiz-adv-x="311" d="M74 1219v174h164v-174h-164zM78 0v1106h155v-1106h-155z" />
<glyph unicode="j" horiz-adv-x="311" d="M0 -90h4q35 0 54.5 19.5t19.5 54.5v1122h155v-1129q0 -206 -206 -206h-27v139zM74 1219v174h164v-174h-164z" />
<glyph unicode="k" horiz-adv-x="643" d="M72 0v1454h155v-885l242 537h166l-258 -541l250 -565h-170l-230 549v-549h-155z" />
<glyph unicode="l" horiz-adv-x="311" d="M78 0v1454h155v-1454h-155z" />
<glyph unicode="m" horiz-adv-x="1042" d="M72 0v1106h155v-72q88 84 191 84q116 0 162 -90q105 90 211 90q89 0 135.5 -51t46.5 -143v-924h-156v891q0 80 -74 80q-64 0 -143 -56v-915h-156v891q0 80 -73 80q-65 0 -144 -56v-915h-155z" />
<glyph unicode="n" d="M72 0v1106h155v-72q88 84 197 84q188 0 188 -198v-920h-155v887q0 84 -80 84q-71 0 -150 -56v-915h-155z" />
<glyph unicode="o" horiz-adv-x="675" d="M66 238v630q0 250 249 250h45q250 0 250 -250v-630q0 -250 -250 -250h-45q-249 0 -249 250zM221 231q0 -98 98 -98h37q99 0 99 98v643q0 99 -99 99h-37q-98 0 -98 -99v-643z" />
<glyph unicode="p" horiz-adv-x="684" d="M72 -225v1331h155v-72q80 84 191 84q97 0 147.5 -59t50.5 -160v-692q0 -101 -50.5 -160t-147.5 -59q-111 0 -191 80v-293h-155zM227 193q67 -58 144 -58q90 0 90 90v656q0 90 -90 90q-77 0 -144 -58v-720z" />
<glyph unicode="q" horiz-adv-x="684" d="M68 207v692q0 101 50.5 160t147.5 59q111 0 191 -80v68h155v-1331h-155v297q-80 -84 -191 -84q-97 0 -147.5 59t-50.5 160zM223 225q0 -90 90 -90q77 0 144 58v720q-67 58 -144 58q-90 0 -90 -90v-656z" />
<glyph unicode="r" horiz-adv-x="434" d="M72 0v1106h155v-117q37 67 77.5 97t101.5 30v-176q-111 -8 -179 -70v-870h-155z" />
<glyph unicode="s" horiz-adv-x="651" d="M63 233v164h154v-174q0 -94 94 -94h31q94 0 94 94v105q0 66 -57 104l-184 115q-70 45 -99.5 92t-29.5 127v102q0 250 249 250h27q246 0 246 -246v-155h-154v166q0 94 -94 94h-27q-94 0 -94 -94v-97q0 -37 12.5 -60.5t44.5 -43.5l185 -115q70 -45 99.5 -92t29.5 -127v-110 q0 -250 -250 -250h-31q-246 0 -246 245z" />
<glyph unicode="t" horiz-adv-x="409" d="M39 963v143h74v184h155v-184h113v-143h-113v-963h-155v963h-74z" />
<glyph unicode="u" d="M70 186v920h155v-887q0 -84 80 -84q72 0 150 55v916h155v-1106h-155v72q-88 -84 -197 -84q-188 0 -188 198z" />
<glyph unicode="v" horiz-adv-x="647" d="M37 1106h158l131 -864l131 864h153l-200 -1106h-172z" />
<glyph unicode="w" horiz-adv-x="952" d="M39 1106h154l96 -809l114 809h150l117 -809l94 809h149l-168 -1106h-159l-107 778l-112 -778h-160z" />
<glyph unicode="x" horiz-adv-x="606" d="M8 0l205 541l-201 565h164l129 -389l129 389h160l-203 -541l207 -565h-164l-133 391l-133 -391h-160z" />
<glyph unicode="y" horiz-adv-x="647" d="M33 1106h157l136 -793l135 793h153l-264 -1331h-153l51 239z" />
<glyph unicode="z" horiz-adv-x="532" d="M37 0v143l299 820h-289v143h449v-143l-303 -820h303v-143h-459z" />
<glyph unicode="{" horiz-adv-x="524" d="M29 666v106l69 12q39 8 56.5 23.5t17.5 50.5v156q0 106 7 167.5t34.5 120t68.5 103t121 115.5l103 -43q-69 -79 -102 -123t-53.5 -98t-24.5 -100.5t-4 -139.5v-84q0 -166 -123 -213q65 -19 94 -62.5t29 -121.5v-117q0 -93 4 -139.5t24.5 -100.5t53.5 -98t102 -123 l-103 -43q-80 71 -121 115.5t-68.5 103t-34.5 120t-7 167.5v158q0 36 -17 50.5t-57 22.5z" />
<glyph unicode="|" horiz-adv-x="552" d="M211 -137v1700h131v-1700h-131z" />
<glyph unicode="}" horiz-adv-x="524" d="M18 -43q91 104 126.5 162t47 118t11.5 181v117q0 78 29 121.5t94 62.5q-123 47 -123 213v84q0 121 -11.5 181t-47 118t-126.5 162l103 43q80 -71 121 -115.5t68.5 -103t34.5 -120t7 -167.5v-156q0 -35 17.5 -50.5t56.5 -23.5l70 -12v-106l-70 -15q-40 -8 -57 -22.5 t-17 -50.5v-158q0 -106 -7 -167.5t-34.5 -120t-68.5 -103t-121 -115.5z" />
<glyph unicode="~" horiz-adv-x="819" d="M141 614v131q28 33 71.5 51.5t84.5 18.5h6q39 0 103 -22l34 -13q62 -20 99 -20h8q90 0 151 61v-129q-28 -33 -70 -51t-85 -18h-4q-50 0 -117 24l-16 6q-71 23 -105 23h-4q-97 0 -156 -62z" />
<glyph unicode="&#xa1;" horiz-adv-x="323" d="M82 0v330l51 702h57l52 -702v-330h-160zM82 1196v238h160v-238h-160z" />
<glyph unicode="&#xa2;" horiz-adv-x="661" d="M70 397v647q0 222 196 246v150h135v-150q191 -27 191 -246v-170h-152v177q0 98 -98 98h-20q-99 0 -99 -98v-660q0 -98 99 -98h22q98 0 98 98v213h152v-207q0 -218 -193 -245v-158h-135v156q-196 24 -196 247z" />
<glyph unicode="&#xa3;" horiz-adv-x="755" d="M49 0v152h84v419h-84v148h84v461q0 266 266 266h33q262 0 262 -262v-238h-159v242q0 108 -105 108h-29q-104 0 -104 -108v-469h262v-148h-262v-419h401v-152h-649z" />
<glyph unicode="&#xa5;" horiz-adv-x="659" d="M23 1434h163l144 -674l149 674h158l-215 -838h176v-113h-188v-96h188v-113h-188v-274h-160v274h-189v113h189v96h-189v113h175z" />
<glyph unicode="&#xa7;" horiz-adv-x="714" d="M76 250v176h153v-182q0 -109 109 -109h29q108 0 108 109v168q0 37 -18.5 56t-57.5 34l-186 76q-78 32 -104.5 67.5t-26.5 104.5v26l403 -164q86 -34 117 -79t31 -140v-139q0 -266 -266 -266h-29q-262 0 -262 262zM82 1040v140q0 266 266 266h29q262 0 262 -262v-176h-154 v182q0 56 -26.5 82t-81.5 26h-29q-56 0 -82 -26t-26 -82v-168q0 -37 18 -56t57 -34l187 -76q78 -32 104.5 -67.5t26.5 -104.5v-27l-404 164q-86 34 -116.5 78.5t-30.5 140.5z" />
<glyph unicode="&#xa8;" horiz-adv-x="1024" d="M328 1198v191h135v-191h-135zM561 1198v191h135v-191h-135z" />
<glyph unicode="&#xa9;" horiz-adv-x="1015" d="M82 324v786q0 178 77 257t242 79h213q165 0 242.5 -79t77.5 -257v-786q0 -178 -77.5 -257t-242.5 -79h-213q-165 0 -242 79t-77 257zM135 324q0 -152 64.5 -219.5t201.5 -67.5h213q137 0 202 67.5t65 219.5v786q0 152 -65 219.5t-202 67.5h-213q-137 0 -201.5 -67.5 t-64.5 -219.5v-786zM301 371v694q0 95 48.5 140.5t148.5 45.5h26q99 0 147 -45.5t48 -140.5v-186h-125v176q0 37 -16.5 53t-53.5 16h-22q-38 0 -55 -16t-17 -53v-672q0 -38 17 -55t55 -17h24q37 0 54.5 17t17.5 55v205h125v-217q0 -95 -48.5 -141t-148.5 -46h-28 q-100 0 -148.5 46t-48.5 141z" />
<glyph unicode="&#xaa;" horiz-adv-x="468" d="M70 965v84q0 53 21 82.5t69 44.5l139 43v79q0 58 -57 58h-13q-57 0 -57 -58v-55h-96v66q0 137 151 137h19q74 0 112.5 -35t38.5 -102v-459h-98v43q-62 -49 -117 -49h-4q-108 0 -108 121zM168 985q0 -47 45 -47q44 0 86 37v153l-90 -26q-23 -9 -32 -22t-9 -38v-57z" />
<glyph unicode="&#xab;" horiz-adv-x="493" d="M10 573l119 318h129l-100 -318l100 -317h-123zM231 573l105 318h129l-86 -318l86 -317h-123z" />
<glyph unicode="&#xad;" horiz-adv-x="421" d="M33 500v147h356v-147h-356z" />
<glyph unicode="&#xae;" horiz-adv-x="606" d="M49 885v362q0 106 46 152.5t149 46.5h118q103 0 149 -46.5t46 -152.5v-362q0 -106 -46 -152.5t-149 -46.5h-118q-103 0 -149 46.5t-46 152.5zM90 885q0 -86 35.5 -123t118.5 -37h118q83 0 118.5 37t35.5 123v362q0 87 -35 123.5t-119 36.5h-118q-83 0 -118.5 -37 t-35.5 -123v-362zM180 815v504h137q119 0 119 -90v-109q0 -33 -13.5 -50t-43.5 -26q31 -8 44 -22t13 -43v-164h-78v154q0 23 -12 33t-41 10h-47v-197h-78zM258 1079h49q27 0 39 9t12 30v96q0 19 -10 27t-33 8h-57v-170z" />
<glyph unicode="&#xaf;" horiz-adv-x="1024" d="M313 1212v136h398v-136h-398z" />
<glyph unicode="&#xb0;" horiz-adv-x="526" d="M49 885v375q0 186 184 186h62q182 0 182 -186v-375q0 -187 -182 -187h-62q-184 0 -184 187zM176 901q0 -76 72 -76h35q71 0 71 76v340q0 76 -71 76h-35q-72 0 -72 -76v-340z" />
<glyph unicode="&#xb1;" horiz-adv-x="643" d="M20 305v141h603v-141h-603zM23 786v142h227v231h147v-231h228v-142h-228v-231h-147v231h-227z" />
<glyph unicode="&#xb4;" horiz-adv-x="1024" d="M406 1198l73 215h158l-127 -215h-104z" />
<glyph unicode="&#xb6;" horiz-adv-x="686" d="M74 350v731q0 179 87 266t265 87h182v-1434h-127v1290h-114v-1290q-293 28 -293 350z" />
<glyph unicode="&#xb7;" horiz-adv-x="282" d="M61 485v238h160v-238h-160z" />
<glyph unicode="&#xb8;" horiz-adv-x="1024" d="M424 -193l84 193h96l-39 -193h-141z" />
<glyph unicode="&#xba;" horiz-adv-x="485" d="M70 997v295q0 154 151 154h45q150 0 150 -154v-295q0 -153 -150 -153h-45q-151 0 -151 153zM170 999q0 -63 59 -63h29q59 0 59 63v291q0 64 -59 64h-29q-59 0 -59 -64v-291z" />
<glyph unicode="&#xbb;" horiz-adv-x="493" d="M29 256l86 317l-86 318h129l104 -318l-110 -317h-123zM236 256l100 317l-100 318h129l118 -318l-125 -317h-122z" />
<glyph unicode="&#xbf;" horiz-adv-x="641" d="M41 254v199q0 38 4.5 63t23 54.5t32.5 46.5t57 65l75 86q16 19 23 39t7.5 33t0.5 51v153h139v-202q0 -54 -11.5 -88.5t-26 -52.5t-62.5 -70l-49 -53q-27 -30 -38 -55t-11 -58v-219q0 -109 104 -109h35q105 0 105 109v262h151v-254q0 -266 -266 -266h-27q-266 0 -266 266z M254 1196v238h160v-238h-160z" />
<glyph unicode="&#xc0;" horiz-adv-x="720" d="M35 0l221 1438h209l221 -1438h-162l-35 240h-264l-32 -240h-158zM172 1700h158l86 -174h-105zM246 387h223l-113 795z" />
<glyph unicode="&#xc1;" horiz-adv-x="720" d="M35 0l221 1438h209l221 -1438h-162l-35 240h-264l-32 -240h-158zM246 387h223l-113 795zM305 1526l86 174h158l-139 -174h-105z" />
<glyph unicode="&#xc2;" horiz-adv-x="720" d="M35 0l221 1438h209l221 -1438h-162l-35 240h-264l-32 -240h-158zM152 1526l139 190h139l139 -190h-108l-101 90l-100 -90h-108zM246 387h223l-113 795z" />
<glyph unicode="&#xc3;" horiz-adv-x="720" d="M35 0l221 1438h209l221 -1438h-162l-35 240h-264l-32 -240h-158zM147 1526v98q0 46 24 71t69 25h6q53 0 96 -26l70 -43q21 -13 37 -13h2q11 0 14.5 6t3.5 19v57h104v-98q0 -96 -92 -96h-6q-53 0 -96 26l-70 43q-21 13 -37 13h-2q-11 0 -14.5 -6t-3.5 -19v-57h-105z M246 387h223l-113 795z" />
<glyph unicode="&#xc4;" horiz-adv-x="720" d="M35 0l221 1438h209l221 -1438h-162l-35 240h-264l-32 -240h-158zM172 1526v149h139v-149h-139zM246 387h223l-113 795zM410 1526v149h139v-149h-139z" />
<glyph unicode="&#xc5;" horiz-adv-x="720" d="M35 0l207 1348q-76 22 -76 100v10q0 50 32 77.5t93 27.5h139q61 0 93 -27.5t32 -77.5v-10q0 -79 -78 -100l209 -1348h-162l-35 240h-264l-32 -240h-158zM217 1446q0 -57 80 -57h127q80 0 80 57v14q0 58 -80 58h-127q-80 0 -80 -58v-14zM246 387h223l-113 803z" />
<glyph unicode="&#xc6;" horiz-adv-x="952" d="M39 0l293 1434h559v-152h-287v-475h277v-150h-277v-505h291v-152h-455v240h-198l-45 -240h-158zM268 387h172v913z" />
<glyph unicode="&#xc7;" horiz-adv-x="724" d="M74 254v926q0 266 266 266h53q262 0 262 -262v-258h-159v262q0 108 -109 108h-41q-56 0 -82 -26t-26 -82v-942q0 -109 108 -109h45q109 0 109 109v305h159v-297q0 -249 -229 -264l-37 -183h-141l78 181q-129 3 -192.5 68.5t-63.5 197.5z" />
<glyph unicode="&#xc8;" horiz-adv-x="589" d="M78 0v1434h450v-152h-286v-475h276v-150h-276v-505h290v-152h-454zM117 1700h157l86 -174h-104z" />
<glyph unicode="&#xc9;" horiz-adv-x="589" d="M78 0v1434h450v-152h-286v-475h276v-150h-276v-505h290v-152h-454zM250 1526l86 174h158l-140 -174h-104z" />
<glyph unicode="&#xca;" horiz-adv-x="589" d="M78 0v1434h450v-152h-286v-475h276v-150h-276v-505h290v-152h-454zM96 1526l140 190h139l139 -190h-108l-101 90l-100 -90h-109z" />
<glyph unicode="&#xcb;" horiz-adv-x="589" d="M78 0v1434h450v-152h-286v-475h276v-150h-276v-505h290v-152h-454zM117 1526v149h139v-149h-139zM354 1526v149h140v-149h-140z" />
<glyph unicode="&#xcc;" horiz-adv-x="323" d="M-27 1700h158l86 -174h-104zM80 0v1434h164v-1434h-164z" />
<glyph unicode="&#xcd;" horiz-adv-x="323" d="M80 0v1434h164v-1434h-164zM106 1526l87 174h157l-139 -174h-105z" />
<glyph unicode="&#xce;" horiz-adv-x="323" d="M-47 1526l139 190h139l140 -190h-109l-100 90l-101 -90h-108zM80 0v1434h164v-1434h-164z" />
<glyph unicode="&#xcf;" horiz-adv-x="323" d="M-27 1526v149h140v-149h-140zM80 0v1434h164v-1434h-164zM211 1526v149h139v-149h-139z" />
<glyph unicode="&#xd0;" horiz-adv-x="768" d="M8 657v140h98v637h271q161 0 239 -78.5t78 -239.5v-799q0 -161 -78 -239t-239 -78h-271v657h-98zM270 150h99q83 0 122 40.5t39 124.5v803q0 84 -39 125t-122 41h-99v-487h156v-140h-156v-507z" />
<glyph unicode="&#xd1;" horiz-adv-x="774" d="M78 0v1434h225l238 -1035v1035h155v-1434h-204l-259 1122v-1122h-155zM174 1526v98q0 96 92 96h6q54 0 97 -26l69 -43q21 -13 37 -13h2q19 0 19 25v57h104v-98q0 -96 -92 -96h-6q-53 0 -96 26l-70 43q-21 13 -37 13h-2q-11 0 -14.5 -6t-3.5 -19v-57h-105z" />
<glyph unicode="&#xd2;" horiz-adv-x="741" d="M74 254v926q0 266 266 266h61q267 0 267 -266v-926q0 -266 -267 -266h-61q-266 0 -266 266zM182 1700h158l86 -174h-104zM238 246q0 -109 108 -109h49q109 0 109 109v942q0 108 -109 108h-49q-56 0 -82 -26t-26 -82v-942z" />
<glyph unicode="&#xd3;" horiz-adv-x="741" d="M74 254v926q0 266 266 266h61q267 0 267 -266v-926q0 -266 -267 -266h-61q-266 0 -266 266zM238 246q0 -109 108 -109h49q109 0 109 109v942q0 108 -109 108h-49q-56 0 -82 -26t-26 -82v-942zM315 1526l86 174h158l-139 -174h-105z" />
<glyph unicode="&#xd4;" horiz-adv-x="741" d="M74 254v926q0 266 266 266h61q267 0 267 -266v-926q0 -266 -267 -266h-61q-266 0 -266 266zM162 1526l139 190h139l140 -190h-109l-100 90l-101 -90h-108zM238 246q0 -109 108 -109h49q109 0 109 109v942q0 108 -109 108h-49q-56 0 -82 -26t-26 -82v-942z" />
<glyph unicode="&#xd5;" horiz-adv-x="741" d="M74 254v926q0 266 266 266h61q267 0 267 -266v-926q0 -266 -267 -266h-61q-266 0 -266 266zM158 1526v98q0 96 92 96h6q53 0 96 -26l70 -43q21 -13 37 -13h2q11 0 14.5 6t3.5 19v57h105v-98q0 -96 -92 -96h-7q-53 0 -96 26l-70 43q-21 13 -36 13h-2q-19 0 -19 -25v-57 h-104zM238 246q0 -109 108 -109h49q109 0 109 109v942q0 108 -109 108h-49q-56 0 -82 -26t-26 -82v-942z" />
<glyph unicode="&#xd6;" horiz-adv-x="741" d="M74 254v926q0 266 266 266h61q267 0 267 -266v-926q0 -266 -267 -266h-61q-266 0 -266 266zM182 1526v149h140v-149h-140zM238 246q0 -109 108 -109h49q109 0 109 109v942q0 108 -109 108h-49q-56 0 -82 -26t-26 -82v-942zM420 1526v149h139v-149h-139z" />
<glyph unicode="&#xd7;" horiz-adv-x="643" d="M45 551l176 176l-176 176l102 103l177 -177l176 177l100 -101l-176 -176l176 -176l-102 -102l-176 176l-177 -176z" />
<glyph unicode="&#xd8;" horiz-adv-x="741" d="M74 254v926q0 266 266 266h61q267 0 267 -266v-926q0 -266 -267 -266h-61q-266 0 -266 266zM233 387l242 885q-27 24 -80 24h-49q-56 0 -82 -26t-26 -82l-2 -285zM266 162q25 -25 80 -25h49q109 0 109 109l2 221l2 580z" />
<glyph unicode="&#xd9;" horiz-adv-x="735" d="M76 254v1180h164v-1188q0 -109 108 -109h39q109 0 109 109v1188h163v-1180q0 -266 -266 -266h-51q-266 0 -266 266zM178 1700h158l86 -174h-105z" />
<glyph unicode="&#xda;" horiz-adv-x="735" d="M76 254v1180h164v-1188q0 -109 108 -109h39q109 0 109 109v1188h163v-1180q0 -266 -266 -266h-51q-266 0 -266 266zM311 1526l86 174h158l-139 -174h-105z" />
<glyph unicode="&#xdb;" horiz-adv-x="735" d="M76 254v1180h164v-1188q0 -109 108 -109h39q109 0 109 109v1188h163v-1180q0 -266 -266 -266h-51q-266 0 -266 266zM158 1526l139 190h139l139 -190h-108l-100 90l-101 -90h-108z" />
<glyph unicode="&#xdc;" horiz-adv-x="735" d="M76 254v1180h164v-1188q0 -109 108 -109h39q109 0 109 109v1188h163v-1180q0 -266 -266 -266h-51q-266 0 -266 266zM178 1526v149h139v-149h-139zM416 1526v149h139v-149h-139z" />
<glyph unicode="&#xdd;" horiz-adv-x="661" d="M18 1434h168l146 -703l151 703h162l-231 -932v-502h-164v489zM276 1526l86 174h158l-139 -174h-105z" />
<glyph unicode="&#xde;" d="M78 0v1434h164v-265h118q267 0 267 -266v-362q0 -267 -267 -267h-118v-274h-164zM242 424h112q109 0 109 108v379q0 109 -109 109h-112v-596z" />
<glyph unicode="&#xdf;" horiz-adv-x="688" d="M72 0v1200q0 124 65 189t189 65h39q124 0 188.5 -64.5t64.5 -189.5v-233q0 -90 -29.5 -140t-88.5 -73q64 -19 93.5 -63t29.5 -122v-319q0 -250 -250 -250h-80v145h78q98 0 98 99v319q0 54 -25 79.5t-79 25.5h-72v147h67q54 0 79.5 25.5t25.5 79.5v284q0 103 -103 103h-32 q-103 0 -103 -103v-1204h-155z" />
<glyph unicode="&#xe0;" horiz-adv-x="653" d="M57 182v203q0 101 36.5 151.5t127.5 81.5l209 72v184q0 101 -98 101h-13q-98 0 -98 -101v-137h-151v131q0 250 249 250h17q250 0 250 -250v-868h-156v70q-86 -82 -190 -82q-183 0 -183 194zM164 1413h158l73 -215h-104zM213 215q0 -80 76 -80q67 0 141 51v361l-141 -49 q-43 -17 -59.5 -42.5t-16.5 -72.5v-168z" />
<glyph unicode="&#xe1;" horiz-adv-x="653" d="M57 182v203q0 101 36.5 151.5t127.5 81.5l209 72v184q0 101 -98 101h-13q-98 0 -98 -101v-137h-151v131q0 250 249 250h17q250 0 250 -250v-868h-156v70q-86 -82 -190 -82q-183 0 -183 194zM213 215q0 -80 76 -80q67 0 141 51v361l-141 -49q-43 -17 -59.5 -42.5 t-16.5 -72.5v-168zM285 1198l73 215h158l-127 -215h-104z" />
<glyph unicode="&#xe2;" horiz-adv-x="653" d="M57 182v203q0 101 36.5 151.5t127.5 81.5l209 72v184q0 101 -98 101h-13q-98 0 -98 -101v-137h-151v131q0 250 249 250h17q250 0 250 -250v-868h-156v70q-86 -82 -190 -82q-183 0 -183 194zM139 1198l131 215h140l131 -215h-109l-92 109l-92 -109h-109zM213 215 q0 -80 76 -80q67 0 141 51v361l-141 -49q-43 -17 -59.5 -42.5t-16.5 -72.5v-168z" />
<glyph unicode="&#xe3;" horiz-adv-x="653" d="M57 182v203q0 101 36.5 151.5t127.5 81.5l209 72v184q0 101 -98 101h-13q-98 0 -98 -101v-137h-151v131q0 250 249 250h17q250 0 250 -250v-868h-156v70q-86 -82 -190 -82q-183 0 -183 194zM131 1198v119q0 46 24 71t70 25h4q32 0 53 -7.5t50 -29.5l49 -37q34 -24 43 -24 h2q11 0 14.5 5.5t3.5 18.5v74h105v-119q0 -46 -24 -71t-70 -25h-4q-32 0 -53 7.5t-50 29.5l-49 37q-5 3 -12 8.5t-10 7t-7 4t-7 3.5t-7 1h-2q-11 0 -14.5 -5.5t-3.5 -18.5v-74h-105zM213 215q0 -80 76 -80q67 0 141 51v361l-141 -49q-43 -17 -59.5 -42.5t-16.5 -72.5v-168z " />
<glyph unicode="&#xe4;" horiz-adv-x="653" d="M57 182v203q0 101 36.5 151.5t127.5 81.5l209 72v184q0 101 -98 101h-13q-98 0 -98 -101v-137h-151v131q0 250 249 250h17q250 0 250 -250v-868h-156v70q-86 -82 -190 -82q-183 0 -183 194zM156 1198v191h135v-191h-135zM213 215q0 -80 76 -80q67 0 141 51v361l-141 -49 q-43 -17 -59.5 -42.5t-16.5 -72.5v-168zM389 1198v191h135v-191h-135z" />
<glyph unicode="&#xe5;" horiz-adv-x="653" d="M57 182v203q0 101 36.5 151.5t127.5 81.5l209 72v184q0 101 -98 101h-13q-98 0 -98 -101v-137h-151v131q0 250 249 250h17q250 0 250 -250v-868h-156v70q-86 -82 -190 -82q-183 0 -183 194zM170 1300v11q0 108 129 108h82q129 0 129 -108v-11q0 -108 -129 -108h-82 q-129 0 -129 108zM213 215q0 -80 76 -80q67 0 141 51v361l-141 -49q-43 -17 -59.5 -42.5t-16.5 -72.5v-168zM221 1300q0 -32 20 -47.5t68 -15.5h64q86 0 86 63v11q0 63 -86 63h-66q-86 0 -86 -63v-11z" />
<glyph unicode="&#xe6;" horiz-adv-x="1056" d="M88 182v215q0 101 36.5 152t127.5 82l209 71v172q0 101 -99 101h-12q-98 0 -98 -101v-137h-152v131q0 250 250 250h17q69 0 106 -16.5t66 -50.5q29 34 66 50.5t106 16.5h32q250 0 250 -250v-372h-377v-265q0 -98 99 -98h28q99 0 99 98v144h151v-137q0 -250 -250 -250h-32 q-152 0 -213 94q-79 -53 -125 -73.5t-103 -20.5q-182 0 -182 194zM244 215q0 -80 75 -80q68 0 142 51v373l-142 -49q-42 -15 -58.5 -41t-16.5 -74v-180zM616 643h222v231q0 99 -99 99h-24q-99 0 -99 -99v-231z" />
<glyph unicode="&#xe7;" horiz-adv-x="665" d="M66 238v630q0 250 249 250h39q246 0 246 -246v-180h-154v182q0 99 -98 99h-29q-98 0 -98 -99v-643q0 -98 98 -98h31q99 0 99 98v220h153v-213q0 -115 -54.5 -177.5t-160.5 -70.5l-37 -183h-141l78 183q-221 12 -221 248z" />
<glyph unicode="&#xe8;" horiz-adv-x="661" d="M66 238v630q0 250 249 250h33q250 0 250 -250v-372h-377v-265q0 -98 98 -98h29q98 0 98 98v127h152v-120q0 -250 -250 -250h-33q-249 0 -249 250zM156 1413h157l74 -215h-104zM221 643h221v231q0 99 -98 99h-25q-98 0 -98 -99v-231z" />
<glyph unicode="&#xe9;" horiz-adv-x="661" d="M66 238v630q0 250 249 250h33q250 0 250 -250v-372h-377v-265q0 -98 98 -98h29q98 0 98 98v127h152v-120q0 -250 -250 -250h-33q-249 0 -249 250zM221 643h221v231q0 99 -98 99h-25q-98 0 -98 -99v-231zM276 1198l74 215h158l-127 -215h-105z" />
<glyph unicode="&#xea;" horiz-adv-x="661" d="M66 238v630q0 250 249 250h33q250 0 250 -250v-372h-377v-265q0 -98 98 -98h29q98 0 98 98v127h152v-120q0 -250 -250 -250h-33q-249 0 -249 250zM131 1198l131 215h139l131 -215h-108l-92 109l-92 -109h-109zM221 643h221v231q0 99 -98 99h-25q-98 0 -98 -99v-231z" />
<glyph unicode="&#xeb;" horiz-adv-x="661" d="M66 238v630q0 250 249 250h33q250 0 250 -250v-372h-377v-265q0 -98 98 -98h29q98 0 98 98v127h152v-120q0 -250 -250 -250h-33q-249 0 -249 250zM147 1198v191h136v-191h-136zM221 643h221v231q0 99 -98 99h-25q-98 0 -98 -99v-231zM381 1198v191h135v-191h-135z" />
<glyph unicode="&#xec;" horiz-adv-x="311" d="M-20 1413h157l74 -215h-105zM78 0v1106h155v-1106h-155z" />
<glyph unicode="&#xed;" horiz-adv-x="311" d="M78 0v1106h155v-1106h-155zM100 1198l74 215h158l-127 -215h-105z" />
<glyph unicode="&#xee;" horiz-adv-x="311" d="M-45 1198l131 215h139l131 -215h-108l-92 109l-93 -109h-108zM78 0v1106h155v-1106h-155z" />
<glyph unicode="&#xef;" horiz-adv-x="311" d="M-29 1198v191h135v-191h-135zM78 0v1106h155v-1106h-155zM205 1198v191h135v-191h-135z" />
<glyph unicode="&#xf0;" horiz-adv-x="679" d="M66 238v657q0 101 50.5 160t147.5 59q52 0 105.5 -19t93.5 -51v62q0 47 -18 70t-70 45l-199 88l70 133l162 -74l49 86h147l-86 -139q50 -32 71 -76.5t21 -112.5v-888q0 -250 -250 -250h-45q-249 0 -249 250zM221 231q0 -98 98 -98h37q99 0 99 98v643q0 99 -99 99h-37 q-98 0 -98 -99v-643z" />
<glyph unicode="&#xf1;" d="M72 0v1106h155v-72q88 84 197 84q188 0 188 -198v-920h-155v887q0 84 -80 84q-71 0 -150 -56v-915h-155zM133 1198v119q0 46 24 71t70 25h4q32 0 53 -7.5t50 -29.5l49 -37q34 -24 43 -24h2q11 0 14.5 5.5t3.5 18.5v74h105v-119q0 -46 -24 -71t-70 -25h-4q-32 0 -53 7.5 t-50 29.5l-49 37q-5 3 -12 8.5t-10 7t-7 4t-7 3.5t-7 1h-2q-11 0 -14.5 -5.5t-3.5 -18.5v-74h-105z" />
<glyph unicode="&#xf2;" horiz-adv-x="675" d="M66 238v630q0 250 249 250h45q250 0 250 -250v-630q0 -250 -250 -250h-45q-249 0 -249 250zM162 1413h157l74 -215h-104zM221 231q0 -98 98 -98h37q99 0 99 98v643q0 99 -99 99h-37q-98 0 -98 -99v-643z" />
<glyph unicode="&#xf3;" horiz-adv-x="675" d="M66 238v630q0 250 249 250h45q250 0 250 -250v-630q0 -250 -250 -250h-45q-249 0 -249 250zM221 231q0 -98 98 -98h37q99 0 99 98v643q0 99 -99 99h-37q-98 0 -98 -99v-643zM283 1198l73 215h158l-127 -215h-104z" />
<glyph unicode="&#xf4;" horiz-adv-x="675" d="M66 238v630q0 250 249 250h45q250 0 250 -250v-630q0 -250 -250 -250h-45q-249 0 -249 250zM137 1198l131 215h140l131 -215h-109l-92 109l-92 -109h-109zM221 231q0 -98 98 -98h37q99 0 99 98v643q0 99 -99 99h-37q-98 0 -98 -99v-643z" />
<glyph unicode="&#xf5;" horiz-adv-x="675" d="M66 238v630q0 250 249 250h45q250 0 250 -250v-630q0 -250 -250 -250h-45q-249 0 -249 250zM129 1198v119q0 46 24 71t70 25h4q32 0 53 -7.5t50 -29.5l49 -37q5 -3 12 -8.5t10 -7t7 -4t7 -3.5t7 -1h2q11 0 14.5 5.5t3.5 18.5v74h105v-119q0 -46 -24 -71t-70 -25h-4 q-32 0 -53 7.5t-50 29.5l-49 37q-34 24 -43 24h-2q-19 0 -19 -24v-74h-104zM221 231q0 -98 98 -98h37q99 0 99 98v643q0 99 -99 99h-37q-98 0 -98 -99v-643z" />
<glyph unicode="&#xf6;" horiz-adv-x="675" d="M66 238v630q0 250 249 250h45q250 0 250 -250v-630q0 -250 -250 -250h-45q-249 0 -249 250zM154 1198v191h135v-191h-135zM221 231q0 -98 98 -98h37q99 0 99 98v643q0 99 -99 99h-37q-98 0 -98 -99v-643zM387 1198v191h135v-191h-135z" />
<glyph unicode="&#xf7;" horiz-adv-x="643" d="M20 657v142h603v-142h-603zM244 399v160h155v-160h-155zM244 897v160h155v-160h-155z" />
<glyph unicode="&#xf8;" horiz-adv-x="675" d="M66 238v630q0 250 249 250h45q250 0 250 -250v-630q0 -250 -250 -250h-45q-249 0 -249 250zM217 276l201 682q-24 15 -62 15h-37q-98 0 -98 -99v-65zM258 147q20 -14 61 -14h37q99 0 99 98v76l4 522z" />
<glyph unicode="&#xf9;" d="M70 186v920h155v-887q0 -84 80 -84q72 0 150 55v916h155v-1106h-155v72q-88 -84 -197 -84q-188 0 -188 198zM164 1413h158l73 -215h-104z" />
<glyph unicode="&#xfa;" d="M70 186v920h155v-887q0 -84 80 -84q72 0 150 55v916h155v-1106h-155v72q-88 -84 -197 -84q-188 0 -188 198zM285 1198l73 215h158l-127 -215h-104z" />
<glyph unicode="&#xfb;" d="M70 186v920h155v-887q0 -84 80 -84q72 0 150 55v916h155v-1106h-155v72q-88 -84 -197 -84q-188 0 -188 198zM139 1198l131 215h140l131 -215h-109l-92 109l-92 -109h-109z" />
<glyph unicode="&#xfc;" d="M70 186v920h155v-887q0 -84 80 -84q72 0 150 55v916h155v-1106h-155v72q-88 -84 -197 -84q-188 0 -188 198zM156 1198v191h135v-191h-135zM389 1198v191h135v-191h-135z" />
<glyph unicode="&#xfd;" horiz-adv-x="647" d="M33 1106h157l136 -793l135 793h153l-264 -1331h-153l51 239zM272 1198l74 215h158l-127 -215h-105z" />
<glyph unicode="&#xfe;" horiz-adv-x="684" d="M72 -225v1679h155v-420q80 84 191 84q97 0 147.5 -59t50.5 -160v-692q0 -101 -50.5 -160t-147.5 -59q-115 0 -191 84v-297h-155zM227 193q67 -58 144 -58q90 0 90 90v656q0 90 -90 90q-77 0 -144 -58v-720z" />
<glyph unicode="&#xff;" horiz-adv-x="647" d="M33 1106h157l136 -793l135 793h153l-264 -1331h-153l51 239zM143 1198v191h136v-191h-136zM377 1198v191h135v-191h-135z" />
<glyph unicode="&#x152;" horiz-adv-x="1009" d="M74 317v799q0 161 78 239.5t239 78.5h557v-152h-286v-475h276v-150h-276v-505h290v-152h-561q-161 0 -239 78t-78 239zM238 315q0 -84 39 -124.5t122 -40.5h99v1134h-99q-83 0 -122 -41t-39 -125v-803z" />
<glyph unicode="&#x153;" horiz-adv-x="1050" d="M66 238v630q0 250 249 250h45q69 0 108 -17t64 -50q25 34 64 50.5t109 16.5h32q250 0 250 -250v-372h-377v-265q0 -98 99 -98h28q99 0 99 98v127h151v-120q0 -250 -250 -250h-32q-70 0 -108.5 16.5t-64.5 48.5q-26 -32 -64.5 -48.5t-107.5 -16.5h-45q-249 0 -249 250z M221 229q0 -94 94 -94h45q95 0 95 94v648q0 94 -95 94h-45q-94 0 -94 -94v-648zM610 643h221v231q0 99 -98 99h-24q-99 0 -99 -99v-231z" />
<glyph unicode="&#x178;" horiz-adv-x="661" d="M18 1434h168l146 -703l151 703h162l-231 -932v-502h-164v489zM143 1526v149h140v-149h-140zM381 1526v149h139v-149h-139z" />
<glyph unicode="&#x2c6;" horiz-adv-x="1024" d="M311 1198l131 215h140l131 -215h-109l-92 109l-92 -109h-109z" />
<glyph unicode="&#x2dc;" horiz-adv-x="1024" d="M303 1198v119q0 46 24 71t70 25h4q32 0 53 -7.5t50 -29.5l49 -37q5 -3 12 -8.5t10 -7t7 -4t7 -3.5t7 -1h2q11 0 14.5 5.5t3.5 18.5v74h105v-119q0 -46 -24 -71t-70 -25h-4q-32 0 -53 7.5t-50 29.5l-49 37q-34 24 -43 24h-2q-11 0 -14.5 -5.5t-3.5 -18.5v-74h-105z" />
<glyph unicode="&#x2000;" horiz-adv-x="860" />
<glyph unicode="&#x2001;" horiz-adv-x="1720" />
<glyph unicode="&#x2002;" horiz-adv-x="860" />
<glyph unicode="&#x2003;" horiz-adv-x="1720" />
<glyph unicode="&#x2004;" horiz-adv-x="573" />
<glyph unicode="&#x2005;" horiz-adv-x="430" />
<glyph unicode="&#x2006;" horiz-adv-x="286" />
<glyph unicode="&#x2007;" horiz-adv-x="286" />
<glyph unicode="&#x2008;" horiz-adv-x="215" />
<glyph unicode="&#x2009;" horiz-adv-x="344" />
<glyph unicode="&#x200a;" horiz-adv-x="95" />
<glyph unicode="&#x2010;" horiz-adv-x="421" d="M33 500v147h356v-147h-356z" />
<glyph unicode="&#x2011;" horiz-adv-x="421" d="M33 500v147h356v-147h-356z" />
<glyph unicode="&#x2012;" horiz-adv-x="421" d="M33 500v147h356v-147h-356z" />
<glyph unicode="&#x2013;" horiz-adv-x="749" d="M33 504v139h684v-139h-684z" />
<glyph unicode="&#x2014;" horiz-adv-x="1171" d="M33 504v139h1073v-139h-1073z" />
<glyph unicode="&#x2018;" horiz-adv-x="282" d="M61 1001v158q0 72 10 110.5t44 100.5l43 76l65 -19l-24 -61q-29 -74 -35 -127h57v-238h-160z" />
<glyph unicode="&#x2019;" horiz-adv-x="282" d="M59 1008l25 61q29 74 35 127h-58v238h160v-158q0 -72 -9.5 -111t-43.5 -100l-43 -76z" />
<glyph unicode="&#x201a;" horiz-adv-x="282" d="M59 -188l25 61q29 74 35 127h-58v238h160v-158q0 -72 -9.5 -111t-43.5 -100l-43 -76z" />
<glyph unicode="&#x201c;" horiz-adv-x="536" d="M61 1001v158q0 72 10 110.5t44 100.5l43 76l65 -19l-24 -61q-29 -74 -35 -127h57v-238h-160zM315 1001v158q0 72 10 110.5t44 100.5l43 76l65 -19l-24 -61q-29 -74 -35 -127h57v-238h-160z" />
<glyph unicode="&#x201d;" horiz-adv-x="536" d="M59 1008l25 61q29 74 35 127h-58v238h160v-158q0 -72 -9.5 -111t-43.5 -100l-43 -76zM313 1008l25 61q29 74 35 127h-58v238h160v-158q0 -72 -9.5 -111t-43.5 -100l-43 -76z" />
<glyph unicode="&#x201e;" horiz-adv-x="536" d="M59 -188l25 61q29 74 35 127h-58v238h160v-158q0 -72 -9.5 -111t-43.5 -100l-43 -76zM313 -188l25 61q29 74 35 127h-58v238h160v-158q0 -72 -9.5 -111t-43.5 -100l-43 -76z" />
<glyph unicode="&#x2022;" horiz-adv-x="487" d="M113 639v164q0 94 104 94h51q107 0 107 -94v-164q0 -94 -107 -94h-51q-104 0 -104 94z" />
<glyph unicode="&#x2026;" horiz-adv-x="847" d="M61 0v238h160v-238h-160zM344 0v238h160v-238h-160zM627 0v238h159v-238h-159z" />
<glyph unicode="&#x202f;" horiz-adv-x="344" />
<glyph unicode="&#x2039;" horiz-adv-x="325" d="M10 573l146 318h141l-127 -318l127 -317h-135z" />
<glyph unicode="&#x203a;" horiz-adv-x="325" d="M29 256l127 317l-127 318h141l145 -318l-151 -317h-135z" />
<glyph unicode="&#x205f;" horiz-adv-x="430" />
<glyph unicode="&#x20ac;" horiz-adv-x="739" d="M45 565v113h76v96h-76v113h76v293q0 266 266 266h37q262 0 262 -262v-176h-160v180q0 108 -104 108h-33q-104 0 -104 -108v-301h301v-113h-301v-96h301v-113h-301v-319q0 -109 104 -109h37q104 0 104 109v194h160v-186q0 -266 -266 -266h-37q-266 0 -266 266v311h-76z " />
<glyph unicode="&#x2122;" horiz-adv-x="897" d="M25 1343v91h311v-91h-107v-534h-98v534h-106zM385 809v625h133l82 -473l84 473h127v-625h-86v457l-84 -457h-88l-82 455v-455h-86z" />
<glyph unicode="&#x25fc;" horiz-adv-x="1105" d="M0 0v1106h1106v-1106h-1106z" />
<glyph unicode="&#xfb01;" horiz-adv-x="712" d="M43 963v143h63v125q0 223 224 223h63v-143h-57q-74 0 -74 -74v-131h125v-143h-125v-963h-156v963h-63zM475 1219v174h164v-174h-164zM479 0v1106h156v-1106h-156z" />
<glyph unicode="&#xfb02;" horiz-adv-x="712" d="M43 963v143h63v125q0 223 224 223h63v-143h-57q-74 0 -74 -74v-131h125v-143h-125v-963h-156v963h-63zM479 0v1454h156v-1454h-156z" />
<glyph unicode="&#xfb03;" horiz-adv-x="1114" d="M43 963v143h63v125q0 223 224 223h63v-143h-57q-74 0 -74 -74v-131h125v-143h-125v-963h-156v963h-63zM444 963v143h64v125q0 223 223 223h64v-143h-58q-73 0 -73 -74v-131h124v-143h-124v-963h-156v963h-64zM877 1219v174h163v-174h-163zM881 0v1106h155v-1106h-155z " />
<glyph unicode="&#xfb04;" horiz-adv-x="1114" d="M43 963v143h63v125q0 223 224 223h63v-143h-57q-74 0 -74 -74v-131h125v-143h-125v-963h-156v963h-63zM444 963v143h64v125q0 223 223 223h64v-143h-58q-73 0 -73 -74v-131h124v-143h-124v-963h-156v963h-64zM881 0v1454h155v-1454h-155z" />
</font>
</defs>
</svg>
