<?xml version="1.0" standalone="no"?>
<!DOCTYPE svg PUBLIC "-//W3C//DTD SVG 1.1//EN" "http://www.w3.org/Graphics/SVG/1.1/DTD/svg11.dtd" >
<svg xmlns="http://www.w3.org/2000/svg">
<metadata></metadata>
<defs>
<font id="tungsten_narrowextra_light" horiz-adv-x="557" >
<font-face units-per-em="2048" ascent="1638" descent="-410" />
<missing-glyph horiz-adv-x="212" />
<glyph horiz-adv-x="2048" />
<glyph horiz-adv-x="2048" />
<glyph unicode="&#xd;" horiz-adv-x="2048" />
<glyph unicode=" "  horiz-adv-x="212" />
<glyph unicode="&#x09;" horiz-adv-x="212" />
<glyph unicode="&#xa0;" horiz-adv-x="212" />
<glyph unicode="!" horiz-adv-x="262" d="M106 0v137h48v-137h-48zM109 748v686h45v-686l-11 -453h-26z" />
<glyph unicode="&#x22;" horiz-adv-x="333" d="M72 1053l20 381h43l-33 -381h-30zM209 1053l20 381h43l-34 -381h-29z" />
<glyph unicode="#" horiz-adv-x="675" d="M49 338v43l137 41v518l-137 -41v45l137 39v453h43v-441l220 62v379h43v-367l137 41v-43l-137 -41v-518l137 39v-43l-137 -41v-467h-43v455l-220 -62v-393h-43v381zM229 434l220 62v518l-220 -62v-518z" />
<glyph unicode="$" horiz-adv-x="618" d="M90 180v338h45v-338q0 -143 152 -143h2v680l-96 76q-55 42 -79 91t-24 122v247q0 91 49.5 139t147.5 48v104h41v-104q188 -6 188 -187v-301h-45v301q0 138 -143 144v-649l88 -68q56 -43 80 -92t24 -123v-285q0 -90 -49 -137t-143 -49v-111h-41v111h-2q-96 0 -145.5 47.5 t-49.5 138.5zM137 1008q0 -61 20 -101.5t64 -75.5l68 -53v619h-2q-150 0 -150 -144v-245zM328 37q145 3 145 143v283q0 61 -20 101t-66 75l-59 47v-649z" />
<glyph unicode="%" horiz-adv-x="823" d="M80 932v358q0 82 27.5 117t99.5 35h37q71 0 98 -35t27 -117v-358q0 -82 -27 -117t-98 -35h-37q-73 0 -100 35t-27 117zM121 934q0 -65 17 -90t69 -25h37q52 0 69 25t17 90v354q0 65 -17.5 90t-70.5 25h-35q-52 0 -69 -25t-17 -90v-354zM184 -2l213 733l203 703h39 l-213 -727l-203 -709h-39zM455 143v357q0 82 27 117.5t98 35.5h36q72 0 99.5 -35.5t27.5 -117.5v-357q0 -81 -28 -116t-99 -35h-36q-71 0 -98 35t-27 116zM494 145q0 -64 17.5 -89t70.5 -25h32q53 0 70.5 25t17.5 89v353q0 66 -16.5 90t-71.5 24h-32q-54 0 -71 -24t-17 -90 v-353z" />
<glyph unicode="&#x26;" horiz-adv-x="688" d="M76 152v411q0 65 13.5 103.5t53.5 72.5l88 76l-41 88q-26 54 -34.5 97t-8.5 106v162q0 86 45.5 131t133.5 45h36q88 0 133.5 -44.5t45.5 -129.5v-273h-45v271q0 65 -35 99t-101 34h-32q-66 0 -100.5 -34t-34.5 -99v-162q0 -57 7.5 -95.5t30.5 -88.5l244 -531l111 416h45 l-129 -469l162 -338h-50l-131 279l-37 -142q-22 -76 -63 -110.5t-117 -34.5h-26q-80 0 -122 41t-42 119zM121 150q0 -57 31 -87t88 -30h32q54 0 85 28t49 86l49 185l-205 444l-76 -67q-32 -27 -42.5 -57.5t-10.5 -88.5v-413z" />
<glyph unicode="'" horiz-adv-x="198" d="M72 1053l20 381h43l-33 -381h-30z" />
<glyph unicode="(" horiz-adv-x="352" d="M119 317v799q0 111 11.5 169.5t40 103.5t97.5 116l31 -14q-65 -72 -91.5 -117.5t-36 -99t-9.5 -158.5v-799q0 -105 9.5 -158.5t36 -98t91.5 -117.5l-31 -15q-69 71 -97.5 116.5t-40 104t-11.5 168.5z" />
<glyph unicode=")" horiz-adv-x="368" d="M61 -57q92 104 115 165.5t23 208.5v799q0 148 -23 209.5t-115 165.5l29 14q70 -72 98.5 -116t41 -103.5t12.5 -169.5v-799q0 -109 -12.5 -168.5t-41.5 -104t-98 -116.5z" />
<glyph unicode="*" horiz-adv-x="468" d="M31 1026v37l178 115l-178 114v37h2l186 -125l-2 230h35l-2 -230l186 125h2v-37l-178 -114l178 -115v-37h-2l-186 121l2 -229h-35l2 231l-186 -123h-2z" />
<glyph unicode="+" horiz-adv-x="559" d="M49 705v40h211v216h43v-216h211v-40h-211v-216h-43v216h-211z" />
<glyph unicode="," horiz-adv-x="167" d="M37 -141l12 30q26 64 31 111h-19v137h48v-94q0 -89 -35 -160l-17 -30z" />
<glyph unicode="-" horiz-adv-x="317" d="M33 555v43h252v-43h-252z" />
<glyph unicode="." horiz-adv-x="165" d="M59 0v137h47v-137h-47z" />
<glyph unicode="/" horiz-adv-x="389" d="M57 -57l234 1548h39l-232 -1548h-41z" />
<glyph unicode="0" horiz-adv-x="634" d="M92 182v1069q0 94 49.5 143.5t147.5 49.5h57q98 0 147.5 -49.5t49.5 -143.5v-1069q0 -192 -197 -192h-57q-197 0 -197 192zM137 180q0 -147 152 -147h57q152 0 152 147v1073q0 72 -38.5 110t-113.5 38h-57q-75 0 -113.5 -38t-38.5 -110v-1073z" />
<glyph unicode="1" horiz-adv-x="313" d="M33 1325v31l45 8q40 7 55.5 19t26.5 42l6 17h27v-1442h-46v1331z" />
<glyph unicode="2" horiz-adv-x="591" d="M88 0v240q0 81 18 136.5t68 121.5l232 303q65 85 65 184v279q0 67 -37 102t-108 35h-41q-146 0 -146 -137v-324h-47v322q0 88 48.5 135t140.5 47h47q93 0 140.5 -46.5t47.5 -135.5v-271q0 -118 -76 -217l-231 -307q-44 -57 -60 -106.5t-16 -127.5v-190h389v-43h-434z" />
<glyph unicode="3" horiz-adv-x="614" d="M86 182v297h45v-299q0 -147 154 -147h55q152 0 152 147v363q0 170 -173 170h-112v43h110q170 0 170 170v327q0 148 -151 148h-51q-73 0 -111.5 -38t-38.5 -110v-276h-47v274q0 94 50.5 143.5t146.5 49.5h51q196 0 196 -193v-319q0 -164 -126 -197q131 -30 131 -190v-363 q0 -192 -197 -192h-57q-97 0 -147 49t-50 143z" />
<glyph unicode="4" horiz-adv-x="591" d="M33 281v43l356 1110h62v-1112h124v-41h-124v-281h-43v281h-375zM76 322h332v1040z" />
<glyph unicode="5" horiz-adv-x="604" d="M92 182v316h47v-318q0 -147 150 -147h39q151 0 151 147v494q0 73 -37 111t-108 38q-57 0 -100.5 -22t-96.5 -70h-37l2 703h414v-43h-369l-4 -605q48 39 92 59.5t105 20.5q88 0 136 -49t48 -139v-496q0 -94 -50 -143t-146 -49h-39q-97 0 -147 49t-50 143z" />
<glyph unicode="6" horiz-adv-x="622" d="M92 182v1069q0 94 50.5 143.5t146.5 49.5h49q194 0 194 -191v-254h-45v254q0 148 -149 148h-49q-75 0 -113.5 -38t-38.5 -110v-497q104 57 197 59h12q97 0 144 -49.5t47 -128.5v-455q0 -94 -50 -143t-147 -49h-51q-97 0 -147 49t-50 143zM137 180q0 -147 152 -147h51 q152 0 152 147v451q0 141 -158 141q-93 0 -197 -59v-533z" />
<glyph unicode="7" horiz-adv-x="483" d="M31 1391v43h399v-41l-276 -1393h-45l278 1391h-356z" />
<glyph unicode="8" horiz-adv-x="618" d="M76 182v373q0 154 127 186q-56 14 -88.5 62.5t-32.5 132.5v313q0 94 51.5 144.5t147.5 50.5h57q95 0 147 -50.5t52 -144.5v-313q0 -84 -33.5 -132.5t-89.5 -62.5q129 -32 129 -186v-373q0 -94 -50 -143t-147 -49h-74q-196 0 -196 192zM121 180q0 -147 151 -147h74 q73 0 111.5 37.5t38.5 109.5v375q0 162 -168 162h-37q-170 0 -170 -162v-375zM127 930q0 -170 164 -170h35q163 0 163 170v321q0 73 -38.5 111.5t-112.5 38.5h-59q-74 0 -113 -38.5t-39 -111.5v-321z" />
<glyph unicode="9" horiz-adv-x="620" d="M84 780v471q0 94 50.5 143.5t146.5 49.5h51q96 0 146 -49.5t50 -143.5v-1069q0 -94 -50 -143t-146 -49h-49q-197 0 -197 192v250h45v-250q0 -149 152 -149h49q149 0 149 149v477q-90 -54 -190 -57h-15q-98 0 -145 49t-47 129zM131 786q0 -141 158 -141q95 0 192 57v549 q0 150 -149 150h-51q-150 0 -150 -150v-465z" />
<glyph unicode=":" horiz-adv-x="165" d="M59 0v137h47v-137h-47zM59 977v137h47v-137h-47z" />
<glyph unicode=";" horiz-adv-x="172" d="M37 -141l12 30q26 64 31 111h-19v137h48v-94q0 -89 -35 -160l-17 -30zM61 977v137h48v-137h-48z" />
<glyph unicode="&#x3c;" horiz-adv-x="540" d="M23 700v52l473 186v-47l-426 -166l426 -158v-47z" />
<glyph unicode="=" horiz-adv-x="563" d="M57 573v43h447v-43h-447zM57 838v43h447v-43h-447z" />
<glyph unicode="&#x3e;" horiz-adv-x="540" d="M43 520v47l426 158l-426 166v47l473 -186v-52z" />
<glyph unicode="?" horiz-adv-x="536" d="M63 938v324q0 182 189 182h31q93 0 140.5 -48t47.5 -139v-284q0 -56 -15.5 -91.5t-60.5 -90.5l-57 -74q-31 -41 -40 -67t-9 -72v-285h-43v291q0 55 12.5 87t52.5 83l56 67q33 43 46 74.5t13 75.5v289q0 141 -145 141h-29q-143 0 -143 -137v-326h-46zM244 0v137h47v-137 h-47z" />
<glyph unicode="@" horiz-adv-x="903" d="M102 176v807q0 159 58 225t205 66h172q148 0 205 -65.5t57 -225.5v-803q0 -63 -25 -87.5t-78 -24.5h-28q-53 0 -75.5 17t-23.5 58q-86 -73 -153 -73q-125 0 -125 120v261q0 61 22.5 93t85.5 58l164 64v268q0 54 -23 79t-79 25h-10q-117 0 -117 -104v-180h-39v182 q0 141 154 141h12q74 0 107.5 -35t33.5 -106v-770q0 -42 14.5 -56t57.5 -14h22q38 0 56 18t18 66v803q0 147 -50 205.5t-183 58.5h-172q-133 0 -183.5 -58.5t-50.5 -205.5v-807q0 -147 50.5 -205.5t183.5 -58.5h413v-29h-413q-147 0 -205 66.5t-58 226.5zM330 197 q0 -46 23 -67t71 -21q54 0 139 67v451l-149 -60q-50 -21 -67 -46t-17 -70v-254z" />
<glyph unicode="A" horiz-adv-x="624" d="M61 0l226 1442h51l225 -1442h-43l-51 326h-313l-50 -326h-45zM162 371h301l-152 983z" />
<glyph unicode="B" horiz-adv-x="626" d="M104 0v1434h230q196 0 196 -193v-317q0 -164 -131 -197q136 -34 136 -197v-337q0 -94 -50.5 -143.5t-148.5 -49.5h-232zM150 43h186q151 0 151 147v345q0 172 -176 172h-161v-664zM150 750h159q176 0 176 170v323q0 148 -151 148h-184v-641z" />
<glyph unicode="C" horiz-adv-x="622" d="M92 182v1069q0 94 50.5 143.5t148.5 49.5h49q96 0 146.5 -49.5t50.5 -143.5v-333h-48v335q0 148 -149 148h-49q-75 0 -113.5 -38t-38.5 -110v-1073q0 -147 152 -147h51q150 0 150 147v361h47v-359q0 -94 -50 -143t-147 -49h-51q-98 0 -148.5 49t-50.5 143z" />
<glyph unicode="D" horiz-adv-x="636" d="M104 0v1434h191q248 0 248 -248v-938q0 -248 -248 -248h-191zM152 45h143q203 0 203 203v938q0 203 -203 203h-143v-1344z" />
<glyph unicode="E" horiz-adv-x="528" d="M104 0v1434h347v-43h-299v-641h290v-45h-290v-662h303v-43h-351z" />
<glyph unicode="F" horiz-adv-x="497" d="M104 0v1434h340v-43h-292v-641h284v-45h-284v-705h-48z" />
<glyph unicode="G" horiz-adv-x="636" d="M92 182v1069q0 94 50.5 143.5t148.5 49.5h57q96 0 145.5 -49.5t49.5 -143.5v-301h-45v301q0 150 -150 150h-57q-152 0 -152 -150v-1069q0 -149 152 -149h57q150 0 150 149v494h-185v43h232v-537q0 -94 -50 -143t-147 -49h-57q-98 0 -148.5 49t-50.5 143z" />
<glyph unicode="H" horiz-adv-x="649" d="M104 0v1434h48v-684h348v684h47v-1434h-47v707h-348v-707h-48z" />
<glyph unicode="I" horiz-adv-x="262" d="M109 0v1434h45v-1434h-45z" />
<glyph unicode="J" horiz-adv-x="376" d="M49 0v45h21q89 0 124 37.5t35 128.5v1223h45v-1223q0 -110 -46.5 -160.5t-155.5 -50.5h-23z" />
<glyph unicode="K" horiz-adv-x="561" d="M104 0v1434h48v-707l331 707h47l-333 -711l327 -723h-51l-321 713v-713h-48z" />
<glyph unicode="L" horiz-adv-x="473" d="M104 0v1434h48v-1391h284v-43h-332z" />
<glyph unicode="M" horiz-adv-x="862" d="M104 0v1434h60l266 -1338l268 1338h60v-1434h-47v326l4 981l-262 -1307h-45l-265 1317l7 -998v-319h-46z" />
<glyph unicode="N" horiz-adv-x="659" d="M104 0v1434h56l354 -1325l-2 655v670h43v-1434h-53l-357 1317l5 -653l-3 -664h-43z" />
<glyph unicode="O" horiz-adv-x="645" d="M92 182v1069q0 94 50.5 143.5t148.5 49.5h63q98 0 147.5 -49.5t49.5 -143.5v-1069q0 -192 -197 -192h-63q-98 0 -148.5 49t-50.5 143zM139 180q0 -147 152 -147h63q152 0 152 147v1073q0 72 -38.5 110t-113.5 38h-63q-75 0 -113.5 -38t-38.5 -110v-1073z" />
<glyph unicode="P" horiz-adv-x="575" d="M104 0v1434h197q99 0 153 -50t54 -143v-426q0 -104 -54.5 -158.5t-160.5 -54.5h-141v-602h-48zM152 645h139q172 0 172 170v428q0 71 -44 109.5t-120 38.5h-147v-746z" />
<glyph unicode="Q" horiz-adv-x="645" d="M92 182v1069q0 94 50.5 143.5t148.5 49.5h63q98 0 147.5 -49.5t49.5 -143.5v-1065q0 -85 -41 -133.5t-117 -54.5l174 -94l-26 -39l-205 125h-45q-98 0 -148.5 49t-50.5 143zM139 182q0 -149 152 -149h63q152 0 152 149v1071q0 72 -38.5 110t-113.5 38h-63 q-75 0 -113.5 -38t-38.5 -110v-1071z" />
<glyph unicode="R" horiz-adv-x="628" d="M104 0v1434h224q194 0 194 -193v-344q0 -157 -129 -199q131 -30 131 -190v-508h-45v506q0 172 -174 172h-153v-678h-48zM152 721h151q174 0 174 172v350q0 148 -151 148h-174v-670z" />
<glyph unicode="S" horiz-adv-x="604" d="M90 178v340h45v-342q0 -69 38.5 -106t113.5 -37h35q151 0 151 143v287q0 61 -20 101t-66 75l-194 154q-55 42 -79 91t-24 122v249q0 189 197 189h32q197 0 197 -189v-303h-45v305q0 70 -39 107t-113 37h-32q-74 0 -112 -37t-38 -107v-249q0 -61 20 -101.5t64 -75.5 l195 -151q56 -43 80 -92t24 -123v-287q0 -92 -49.5 -140t-146.5 -48h-39q-195 0 -195 188z" />
<glyph unicode="T" horiz-adv-x="516" d="M29 1391v43h460v-43h-208v-1391h-45v1391h-207z" />
<glyph unicode="U" horiz-adv-x="647" d="M100 186v1248h45v-1250q0 -151 154 -151h47q154 0 154 151v1250h47v-1248q0 -196 -199 -196h-49q-199 0 -199 196z" />
<glyph unicode="V" horiz-adv-x="598" d="M57 1434h47l195 -1342l197 1342h45l-215 -1440h-54z" />
<glyph unicode="W" horiz-adv-x="942" d="M63 1434h48l168 -1344l167 1344h50l168 -1346l170 1346h43l-185 -1434h-55l-168 1311l-164 -1311h-53z" />
<glyph unicode="X" horiz-adv-x="561" d="M53 0l201 721l-197 713h47l177 -652l180 652h45l-201 -713l203 -721h-47l-180 666l-183 -666h-45z" />
<glyph unicode="Y" horiz-adv-x="542" d="M35 1434h47l190 -836l191 836h43l-211 -914v-520h-45v518z" />
<glyph unicode="Z" horiz-adv-x="497" d="M61 1391v43h373v-43l-325 -1348h340v-43h-386v43l326 1348h-328z" />
<glyph unicode="[" horiz-adv-x="372" d="M125 -59v1552h233v-37h-192v-1479h192v-36h-233z" />
<glyph unicode="\" horiz-adv-x="389" d="M57 1491h41l234 -1548h-41z" />
<glyph unicode="]" horiz-adv-x="372" d="M12 -23h193v1479h-193v37h234v-1552h-234v36z" />
<glyph unicode="^" horiz-adv-x="579" d="M66 985l202 449h37l211 -449h-43l-186 397l-178 -397h-43z" />
<glyph unicode="_" horiz-adv-x="792" d="M25 -78h741v-39h-741v39z" />
<glyph unicode="`" horiz-adv-x="888" d="M383 1391h51l80 -170h-33z" />
<glyph unicode="a" d="M80 135v262q0 72 31 113t108 72l203 80v292q0 129 -135 129h-15q-68 0 -103.5 -33t-35.5 -96v-209h-45v209q0 84 47 128t137 44h15q180 0 180 -172v-954h-45v68q-57 -42 -97 -60t-87 -18h-9q-149 0 -149 145zM125 141q0 -56 28.5 -82t86.5 -26h6q39 0 79 17t97 59v509 l-186 -75q-62 -25 -86.5 -56.5t-24.5 -89.5v-256z" />
<glyph unicode="b" horiz-adv-x="581" d="M94 0v1448h45v-404q59 44 99 63t90 19h10q158 0 158 -147v-842q0 -147 -158 -147h-10q-50 0 -90 19t-99 63v-72h-45zM139 117q57 -46 96.5 -65t81.5 -19h13q123 0 123 108v832q0 110 -123 110h-13q-42 0 -79.5 -18t-98.5 -64v-884z" />
<glyph unicode="c" horiz-adv-x="573" d="M84 178v760q0 188 188 188h27q188 0 188 -188v-227h-45v227q0 145 -143 145h-27q-143 0 -143 -145v-760q0 -145 143 -145h29q143 0 143 145v244h45v-244q0 -188 -188 -188h-29q-188 0 -188 188z" />
<glyph unicode="d" horiz-adv-x="581" d="M84 137v842q0 147 158 147h12q49 0 88 -18.5t100 -63.5v404h43v-1448h-43v72q-61 -45 -100 -63.5t-88 -18.5h-12q-158 0 -158 147zM129 141q0 -56 30.5 -82t92.5 -26h10q42 0 79.5 18t100.5 64v884q-62 47 -100 65.5t-80 18.5h-10q-63 0 -93 -26t-30 -84v-832z" />
<glyph unicode="e" horiz-adv-x="567" d="M84 180v756q0 190 190 190h19q190 0 190 -190v-399h-354v-357q0 -147 147 -147h17q145 0 145 147v197h45v-197q0 -190 -190 -190h-19q-190 0 -190 190zM129 580h309v356q0 147 -145 147h-17q-147 0 -147 -147v-356z" />
<glyph unicode="f" horiz-adv-x="325" d="M47 1075v41h76v187q0 145 135 145h55v-43h-55q-47 0 -68.5 -24.5t-21.5 -75.5v-189h139v-41h-139v-1075h-45v1075h-76z" />
<glyph unicode="g" horiz-adv-x="575" d="M84 215v764q0 147 158 147h12q50 0 89.5 -18t94.5 -61v69h45v-1169q0 -158 -172 -158h-51q-170 0 -170 154v34h45v-34q0 -113 127 -113h51q125 0 125 113v202q-55 -42 -95 -59.5t-89 -17.5h-12q-158 0 -158 147zM129 219q0 -56 30.5 -82t92.5 -26h10q44 0 82 17t94 60 v813q-57 46 -95 64t-81 18h-10q-63 0 -93 -26t-30 -84v-754z" />
<glyph unicode="h" horiz-adv-x="583" d="M94 0v1448h45v-404q60 44 100 63t87 19h12q154 0 154 -145v-981h-43v975q0 108 -119 108h-11q-44 0 -82.5 -17t-97.5 -62v-1004h-45z" />
<glyph unicode="i" horiz-adv-x="241" d="M96 1257v115h49v-115h-49zM98 0v1116h45v-1116h-45z" />
<glyph unicode="j" horiz-adv-x="256" d="M31 -166h6q44 0 60 21.5t16 74.5v1186h45v-1188q0 -70 -26 -102.5t-91 -32.5h-10v41zM111 1257v115h49v-115h-49z" />
<glyph unicode="k" horiz-adv-x="503" d="M94 0v1448h45v-883l293 549h49l-297 -549l289 -565h-51l-283 557v-557h-45zM139 561l4 2l-4 2v-4z" />
<glyph unicode="l" horiz-adv-x="241" d="M98 0v1448h45v-1448h-45z" />
<glyph unicode="m" horiz-adv-x="909" d="M94 0v1116h45v-72q60 44 100 63t87 19h6q110 0 137 -82q58 45 99.5 63.5t90.5 18.5h7q75 0 114 -36.5t39 -104.5v-985h-45v979q0 104 -117 104h-8q-39 0 -77.5 -15t-94.5 -58q2 -8 2 -25v-985h-45v979q0 104 -110 104h-7q-42 0 -80.5 -17t-97.5 -62v-1004h-45z" />
<glyph unicode="n" horiz-adv-x="583" d="M94 0v1116h45v-72q60 44 100 63t87 19h12q154 0 154 -145v-981h-43v975q0 108 -119 108h-13q-42 0 -80.5 -17t-97.5 -62v-1004h-45z" />
<glyph unicode="o" horiz-adv-x="579" d="M84 178v760q0 188 188 188h35q189 0 189 -188v-760q0 -188 -189 -188h-35q-188 0 -188 188zM129 178q0 -145 143 -145h35q144 0 144 145v760q0 145 -144 145h-35q-143 0 -143 -145v-760z" />
<glyph unicode="p" horiz-adv-x="581" d="M94 -205v1321h45v-72q59 44 99 63t90 19h10q158 0 158 -147v-842q0 -147 -158 -147h-10q-50 0 -90 19t-99 63v-277h-45zM139 117q60 -46 98.5 -65t79.5 -19h13q123 0 123 108v832q0 110 -123 110h-13q-42 0 -79.5 -18t-98.5 -64v-884z" />
<glyph unicode="q" horiz-adv-x="581" d="M84 137v842q0 147 158 147h12q49 0 88 -18.5t100 -63.5v72h43v-1321h-43v277q-61 -45 -100 -63.5t-88 -18.5h-12q-158 0 -158 147zM129 141q0 -56 30.5 -82t92.5 -26h10q42 0 79.5 18t100.5 64v884q-64 47 -101.5 65.5t-78.5 18.5h-10q-63 0 -93 -26t-30 -84v-832z" />
<glyph unicode="r" horiz-adv-x="346" d="M94 0v1116h45v-84q77 87 176 92v-51q-57 -5 -96.5 -23.5t-79.5 -62.5v-987h-45z" />
<glyph unicode="s" d="M84 160v239h45v-241q0 -125 133 -125h33q133 0 133 125v184q0 53 -19 88t-61 62l-162 106q-54 36 -78 78t-24 106v172q0 83 45.5 127.5t134.5 44.5h29q89 0 132.5 -44t43.5 -126v-231h-43v233q0 125 -135 125h-27q-135 0 -135 -125v-172q0 -51 19.5 -84.5t60.5 -62.5 l164 -107q52 -35 76 -77t24 -107v-188q0 -81 -44.5 -125.5t-133.5 -44.5h-33q-89 0 -133.5 44.5t-44.5 125.5z" />
<glyph unicode="t" horiz-adv-x="319" d="M45 1075v41h80v160h45v-160h133v-41h-133v-1075h-45v1075h-80z" />
<glyph unicode="u" horiz-adv-x="583" d="M90 135v981h47v-975q0 -56 29 -82t90 -26h10q42 0 81.5 17.5t96.5 62.5v1003h45v-1116h-45v72q-59 -45 -98.5 -63.5t-87.5 -18.5h-12q-156 0 -156 145z" />
<glyph unicode="v" horiz-adv-x="538" d="M51 1116h45l174 -1038l172 1038h45l-194 -1124h-47z" />
<glyph unicode="w" horiz-adv-x="796" d="M43 1116h43l145 -1030l146 1030h45l143 -1030l144 1030h43l-162 -1124h-47l-144 1016l-143 -1016h-47z" />
<glyph unicode="x" horiz-adv-x="499" d="M41 0l184 559l-182 557h45l162 -504l162 504h45l-183 -553l185 -563h-45l-164 512l-166 -512h-43z" />
<glyph unicode="y" horiz-adv-x="534" d="M45 1116h45l180 -1020l176 1020h43l-235 -1321h-43l39 203z" />
<glyph unicode="z" horiz-adv-x="421" d="M41 1073v43h332v-39l-285 -1034h293v-43h-338v39l285 1034h-287z" />
<glyph unicode="{" horiz-adv-x="421" d="M68 700v35l20 2q60 12 79 38t19 93v269q0 104 12 159t40.5 96.5t99.5 112.5l29 -16q-67 -72 -93 -113.5t-35.5 -90.5t-9.5 -148v-256q0 -80 -22.5 -115t-79.5 -49q58 -12 80 -45.5t22 -112.5v-262q0 -138 22 -194.5t116 -157.5l-29 -17q-71 73 -99.5 114t-40.5 96 t-12 159v268q0 68 -18.5 93.5t-79.5 37.5z" />
<glyph unicode="|" horiz-adv-x="479" d="M219 -119v1663h41v-1663h-41z" />
<glyph unicode="}" horiz-adv-x="421" d="M53 -55q66 71 92.5 114t35.5 91.5t9 146.5v262q0 78 22.5 112t80.5 46q-57 14 -80 49t-23 115v256q0 140 -21.5 195.5t-115.5 156.5l29 16q54 -54 79.5 -84.5t44 -73t23 -87t4.5 -123.5v-269q0 -67 19 -93t80 -38l20 -2v-35l-20 -4q-61 -12 -80 -37.5t-19 -93.5v-268 q0 -104 -12 -159t-40 -96.5t-99 -113.5z" />
<glyph unicode="~" horiz-adv-x="579" d="M59 670v45q63 63 125 63h4q41 0 84 -22l50 -23q41 -20 71 -20h4q55 0 125 67v-45q-63 -63 -125 -63h-4q-38 0 -86 22l-45 23q-41 20 -74 20h-4q-55 0 -125 -67z" />
<glyph unicode="&#xa1;" horiz-adv-x="262" d="M106 1296v138h48v-138h-48zM109 0v686l8 453h26l11 -453v-686h-45z" />
<glyph unicode="&#xa2;" horiz-adv-x="571" d="M86 354v733q0 185 180 191v160h41v-160q88 -3 133 -51.5t45 -139.5v-231h-45v231q0 142 -133 148v-1028q135 3 135 147v258h45v-258q0 -187 -180 -190v-168h-41v168q-180 3 -180 190zM131 354q0 -144 135 -147v1028q-70 -3 -102.5 -40t-32.5 -108v-733z" />
<glyph unicode="&#xa3;" horiz-adv-x="651" d="M70 0v43h82v588h-82v43h82v577q0 94 47.5 143.5t136.5 49.5h47q88 0 136 -50t48 -143v-321h-47v321q0 73 -35.5 111.5t-101.5 38.5h-47q-68 0 -103.5 -38.5t-35.5 -111.5v-577h256v-43h-256v-588h378v-43h-505z" />
<glyph unicode="&#xa5;" horiz-adv-x="595" d="M63 1434h46l190 -799l190 799h43l-208 -856h184v-39h-186v-138h186v-36h-186v-365h-46v365h-190v36h190v138h-190v39h186z" />
<glyph unicode="&#xa7;" horiz-adv-x="600" d="M86 176v236h43v-236q0 -143 152 -143h32q150 0 150 143v242q0 54 -17.5 79t-66.5 50l-234 115q-27 12 -36 25t-9 40v6l306 -149q57 -27 79.5 -62.5t22.5 -107.5v-238q0 -91 -49.5 -138.5t-145.5 -47.5h-32q-195 0 -195 186zM92 1020v237q0 91 49.5 139t145.5 48h32 q195 0 195 -187v-235h-45v235q0 144 -150 144h-32q-150 0 -150 -144v-241q0 -54 17.5 -79t64.5 -50l234 -115q29 -13 38 -26.5t9 -38.5v-7l-305 150q-57 27 -80 63t-23 107z" />
<glyph unicode="&#xa8;" horiz-adv-x="888" d="M334 1221v122h41v-122h-41zM516 1221v122h39v-122h-39z" />
<glyph unicode="&#xa9;" horiz-adv-x="886" d="M102 283v870q0 157 58.5 224t204.5 67h155q147 0 205.5 -66.5t58.5 -224.5v-870q0 -159 -58.5 -226t-205.5 -67h-155q-146 0 -204.5 67t-58.5 226zM129 283q0 -147 51.5 -208t184.5 -61h155q133 0 185.5 61t52.5 208v870q0 146 -52 206t-186 60h-155q-133 0 -184.5 -59.5 t-51.5 -206.5v-870zM291 317v801q0 137 141 137h29q72 0 104.5 -35t32.5 -102v-237h-39v235q0 101 -98 101h-29q-102 0 -102 -101v-797q0 -102 102 -102h29q54 0 77 26t23 76v236h39v-238q0 -69 -32.5 -104t-106.5 -35h-29q-74 0 -107.5 35.5t-33.5 103.5z" />
<glyph unicode="&#xaa;" horiz-adv-x="403" d="M74 944v100q0 45 19 69.5t67 43.5l125 47v133q0 74 -80 74h-10q-84 0 -84 -74v-88h-33v90q0 51 30.5 78t84.5 27h12q112 0 112 -105v-483h-32v45q-37 -27 -61 -38t-52 -11h-4q-47 0 -70.5 21.5t-23.5 70.5zM109 946q0 -63 63 -63q28 0 51.5 11.5t61.5 39.5v240l-111 -46 q-38 -15 -51.5 -33t-13.5 -53v-96z" />
<glyph unicode="&#xab;" horiz-adv-x="389" d="M57 573l95 301h34l-82 -301l82 -301h-32zM211 573l86 301h33l-72 -301l72 -301h-33z" />
<glyph unicode="&#xad;" horiz-adv-x="317" d="M33 555v43h252v-43h-252z" />
<glyph unicode="&#xae;" horiz-adv-x="561" d="M74 866v402q0 97 32 136.5t121 39.5h99q91 0 126 -40t35 -136v-402q0 -97 -31.5 -137.5t-119.5 -40.5h-109q-89 0 -121 40t-32 138zM96 866q0 -86 27 -120.5t104 -34.5h109q76 0 102.5 34.5t26.5 120.5v402q0 85 -30.5 120t-108.5 35h-99q-77 0 -104 -34.5t-27 -120.5 v-402zM190 805v526h68q66 0 94.5 -18.5t28.5 -67.5v-96q0 -47 -17 -67t-49 -27q34 -5 50 -24t16 -66v-160h-31v158q0 48 -18.5 62.5t-71.5 14.5h-41v-235h-29zM219 1067h41q51 0 70.5 17.5t19.5 64.5v92q0 37 -22 50.5t-70 13.5h-39v-238z" />
<glyph unicode="&#xaf;" horiz-adv-x="888" d="M301 1272v39h287v-39h-287z" />
<glyph unicode="&#xb0;" horiz-adv-x="473" d="M80 924v381q0 139 127 139h65q64 0 93.5 -34t29.5 -105v-381q0 -138 -127 -138h-61q-127 0 -127 138zM119 926q0 -53 21.5 -78t68.5 -25h55q92 0 92 103v377q0 55 -19.5 78.5t-66.5 23.5h-61q-47 0 -68.5 -24t-21.5 -78v-377z" />
<glyph unicode="&#xb1;" horiz-adv-x="563" d="M49 819v41h211v215h43v-215h211v-41h-211v-215h-43v215h-211zM53 397v41h457v-41h-457z" />
<glyph unicode="&#xb4;" horiz-adv-x="888" d="M414 1221l80 170h49l-97 -170h-32z" />
<glyph unicode="&#xb6;" horiz-adv-x="661" d="M98 272v889q0 128 61 200.5t177 72.5h231v-1434h-43v1391h-123v-1391h-65q-118 0 -178 71.5t-60 200.5zM139 272q0 -107 50 -168t145 -61h24v1348h-24q-95 0 -145 -61t-50 -169v-889z" />
<glyph unicode="&#xb7;" horiz-adv-x="165" d="M59 571v138h47v-138h-47z" />
<glyph unicode="&#xb8;" horiz-adv-x="888" d="M395 -168l68 168h33l-56 -168h-45z" />
<glyph unicode="&#xba;" horiz-adv-x="417" d="M78 971v356q0 117 117 117h26q117 0 117 -117v-356q0 -119 -117 -119h-26q-117 0 -117 119zM111 971q0 -88 86 -88h22q86 0 86 88v356q0 86 -86 86h-22q-86 0 -86 -86v-356z" />
<glyph unicode="&#xbb;" horiz-adv-x="389" d="M57 272l72 301l-72 301h33l86 -301l-86 -301h-33zM201 272l82 301l-82 301h35l94 -301l-97 -301h-32z" />
<glyph unicode="&#xbf;" horiz-adv-x="536" d="M63 180v285q0 56 15.5 91.5t60.5 90.5l58 74q31 41 40 67t9 72v285h43v-291q0 -55 -13 -86.5t-53 -83.5l-55 -68q-34 -43 -46.5 -74t-12.5 -75v-289q0 -141 145 -141h29q143 0 143 137v326h45v-324q0 -182 -188 -182h-31q-93 0 -141 47.5t-48 138.5zM244 1300v138h47 v-138h-47z" />
<glyph unicode="&#xc0;" horiz-adv-x="624" d="M61 0l226 1442h51l225 -1442h-43l-51 326h-313l-50 -326h-45zM162 371h301l-152 983zM188 1647h52l90 -134h-35z" />
<glyph unicode="&#xc1;" horiz-adv-x="624" d="M61 0l226 1442h51l225 -1442h-43l-51 326h-313l-50 -326h-45zM162 371h301l-152 983zM299 1513l92 134h49l-106 -134h-35z" />
<glyph unicode="&#xc2;" horiz-adv-x="624" d="M61 0l226 1442h51l225 -1442h-43l-51 326h-313l-50 -326h-45zM162 371h301l-152 983zM180 1513l111 148h47l108 -148h-32l-101 115l-100 -115h-33z" />
<glyph unicode="&#xc3;" horiz-adv-x="624" d="M61 0l226 1442h51l225 -1442h-43l-51 326h-313l-50 -326h-45zM158 1513v99q0 24 13.5 37.5t37.5 13.5h8q26 0 62 -27l83 -69q27 -21 41 -21h9q14 0 19 6.5t5 24.5v84h33v-98q0 -25 -13.5 -38.5t-37.5 -13.5h-10q-26 0 -60 27l-86 70q-23 20 -39 20h-8q-14 0 -19.5 -6.5 t-5.5 -24.5v-84h-32zM162 371h301l-152 983z" />
<glyph unicode="&#xc4;" horiz-adv-x="624" d="M61 0l226 1442h51l225 -1442h-43l-51 326h-313l-50 -326h-45zM162 371h301l-152 983zM207 1513v107h39v-107h-39zM383 1513v107h39v-107h-39z" />
<glyph unicode="&#xc5;" horiz-adv-x="620" d="M59 0l215 1346h-14q-56 0 -81 20t-25 64v6q0 44 25 64t81 20h100q55 0 81 -20t26 -64v-6q0 -44 -26 -64t-81 -20h-14l215 -1346h-45l-51 326h-311l-52 -326h-43zM160 369h299l-150 950zM178 1430q0 -34 19 -47t65 -13h96q46 0 65 13t19 47v6q0 33 -19.5 46t-64.5 13h-96 q-45 0 -64.5 -13t-19.5 -46v-6z" />
<glyph unicode="&#xc6;" horiz-adv-x="825" d="M47 0l320 1434h381v-43h-302v-641h293v-43h-293v-664h306v-43h-351v326h-237l-72 -326h-45zM172 369h229v1036z" />
<glyph unicode="&#xc7;" horiz-adv-x="622" d="M92 182v1069q0 94 50.5 143.5t148.5 49.5h49q96 0 146.5 -49.5t50.5 -143.5v-333h-48v335q0 148 -149 148h-49q-75 0 -113.5 -38t-38.5 -110v-1073q0 -147 152 -147h51q150 0 150 147v361h47v-359q0 -94 -50 -143t-147 -49h-2l-51 -158h-45l63 158h-16q-98 0 -148.5 49 t-50.5 143z" />
<glyph unicode="&#xc8;" horiz-adv-x="528" d="M104 0v1434h347v-43h-299v-641h290v-45h-290v-662h303v-43h-351zM156 1647h51l90 -134h-35z" />
<glyph unicode="&#xc9;" horiz-adv-x="528" d="M104 0v1434h347v-43h-299v-641h290v-45h-290v-662h303v-43h-351zM266 1513l92 134h50l-107 -134h-35z" />
<glyph unicode="&#xca;" horiz-adv-x="528" d="M104 0v1434h347v-43h-299v-641h290v-45h-290v-662h303v-43h-351zM147 1513l111 148h47l109 -148h-33l-100 115l-101 -115h-33z" />
<glyph unicode="&#xcb;" horiz-adv-x="528" d="M104 0v1434h347v-43h-299v-641h290v-45h-290v-662h303v-43h-351zM172 1513v107h39v-107h-39zM348 1513v107h39v-107h-39z" />
<glyph unicode="&#xcc;" horiz-adv-x="262" d="M6 1647h51l90 -134h-34zM109 0v1434h45v-1434h-45z" />
<glyph unicode="&#xcd;" horiz-adv-x="262" d="M109 0v1434h45v-1434h-45zM117 1513l92 134h49l-106 -134h-35z" />
<glyph unicode="&#xce;" horiz-adv-x="262" d="M0 1513l111 148h47l108 -148h-33l-100 115l-100 -115h-33zM109 0v1434h45v-1434h-45z" />
<glyph unicode="&#xcf;" horiz-adv-x="262" d="M25 1513v107h38v-107h-38zM109 0v1434h45v-1434h-45zM201 1513v107h39v-107h-39z" />
<glyph unicode="&#xd0;" horiz-adv-x="659" d="M39 705v43h88v686h190q248 0 248 -248v-938q0 -248 -248 -248h-190v705h-88zM174 45h143q203 0 203 203v938q0 203 -203 203h-143v-641h168v-43h-168v-660z" />
<glyph unicode="&#xd1;" horiz-adv-x="659" d="M104 0v1434h56l354 -1325l-2 655v670h43v-1434h-53l-357 1317l5 -653l-3 -664h-43zM174 1513v99q0 24 13.5 37.5t37.5 13.5h8q26 0 62 -27l84 -69q27 -21 41 -21h8q14 0 19.5 6.5t5.5 24.5v84h32v-98q0 -25 -13.5 -38.5t-37.5 -13.5h-10q-25 0 -59 27l-86 70 q-23 20 -39 20h-9q-14 0 -19 -6.5t-5 -24.5v-84h-33z" />
<glyph unicode="&#xd2;" horiz-adv-x="645" d="M92 182v1069q0 94 50.5 143.5t148.5 49.5h63q98 0 147.5 -49.5t49.5 -143.5v-1069q0 -192 -197 -192h-63q-98 0 -148.5 49t-50.5 143zM139 180q0 -147 152 -147h63q152 0 152 147v1073q0 72 -38.5 110t-113.5 38h-63q-75 0 -113.5 -38t-38.5 -110v-1073zM197 1647h51 l90 -134h-35z" />
<glyph unicode="&#xd3;" horiz-adv-x="645" d="M92 182v1069q0 94 50.5 143.5t148.5 49.5h63q98 0 147.5 -49.5t49.5 -143.5v-1069q0 -192 -197 -192h-63q-98 0 -148.5 49t-50.5 143zM139 180q0 -147 152 -147h63q152 0 152 147v1073q0 72 -38.5 110t-113.5 38h-63q-75 0 -113.5 -38t-38.5 -110v-1073zM309 1513l92 134 h50l-107 -134h-35z" />
<glyph unicode="&#xd4;" horiz-adv-x="645" d="M92 182v1069q0 94 50.5 143.5t148.5 49.5h63q98 0 147.5 -49.5t49.5 -143.5v-1069q0 -192 -197 -192h-63q-98 0 -148.5 49t-50.5 143zM139 180q0 -147 152 -147h63q152 0 152 147v1073q0 72 -38.5 110t-113.5 38h-63q-75 0 -113.5 -38t-38.5 -110v-1073zM190 1513 l111 148h47l109 -148h-33l-100 115l-101 -115h-33z" />
<glyph unicode="&#xd5;" horiz-adv-x="645" d="M92 182v1069q0 94 50.5 143.5t148.5 49.5h63q98 0 147.5 -49.5t49.5 -143.5v-1069q0 -192 -197 -192h-63q-98 0 -148.5 49t-50.5 143zM139 180q0 -147 152 -147h63q152 0 152 147v1073q0 72 -38.5 110t-113.5 38h-63q-75 0 -113.5 -38t-38.5 -110v-1073zM166 1513v99 q0 24 13.5 37.5t37.5 13.5h8q26 0 62 -27l84 -69q27 -21 41 -21h8q14 0 19 6.5t5 24.5v84h33v-98q0 -25 -13.5 -38.5t-37.5 -13.5h-10q-26 0 -60 27l-86 70q-23 20 -39 20h-8q-14 0 -19 -6.5t-5 -24.5v-84h-33z" />
<glyph unicode="&#xd6;" horiz-adv-x="645" d="M92 182v1069q0 94 50.5 143.5t148.5 49.5h63q98 0 147.5 -49.5t49.5 -143.5v-1069q0 -192 -197 -192h-63q-98 0 -148.5 49t-50.5 143zM139 180q0 -147 152 -147h63q152 0 152 147v1073q0 72 -38.5 110t-113.5 38h-63q-75 0 -113.5 -38t-38.5 -110v-1073zM215 1513v107h39 v-107h-39zM391 1513v107h39v-107h-39z" />
<glyph unicode="&#xd7;" d="M88 557l164 168l-162 166l31 31l160 -166l159 166l31 -31l-162 -164l162 -168l-31 -29l-161 166l-160 -170z" />
<glyph unicode="&#xd8;" horiz-adv-x="643" d="M92 182v1069q0 94 50.5 143.5t148.5 49.5h63q96 0 146.5 -49.5t50.5 -143.5v-1069q0 -94 -50 -143t-147 -49h-63q-98 0 -148.5 49t-50.5 143zM139 182q0 -41 8 -65l324 1243q-41 41 -119 41h-61q-75 0 -113.5 -38t-38.5 -110v-1071zM172 76q40 -43 119 -43h61 q154 0 154 149v1071q0 35 -10 68z" />
<glyph unicode="&#xd9;" horiz-adv-x="647" d="M100 186v1248h45v-1250q0 -151 154 -151h47q154 0 154 151v1250h47v-1248q0 -196 -199 -196h-49q-199 0 -199 196zM199 1647h51l90 -134h-35z" />
<glyph unicode="&#xda;" horiz-adv-x="647" d="M100 186v1248h45v-1250q0 -151 154 -151h47q154 0 154 151v1250h47v-1248q0 -196 -199 -196h-49q-199 0 -199 196zM311 1513l92 134h50l-107 -134h-35z" />
<glyph unicode="&#xdb;" horiz-adv-x="647" d="M100 186v1248h45v-1250q0 -151 154 -151h47q154 0 154 151v1250h47v-1248q0 -196 -199 -196h-49q-199 0 -199 196zM190 1513l111 148h47l109 -148h-33l-100 115l-101 -115h-33z" />
<glyph unicode="&#xdc;" horiz-adv-x="647" d="M100 186v1248h45v-1250q0 -151 154 -151h47q154 0 154 151v1250h47v-1248q0 -196 -199 -196h-49q-199 0 -199 196zM217 1513v107h39v-107h-39zM393 1513v107h39v-107h-39z" />
<glyph unicode="&#xdd;" horiz-adv-x="542" d="M35 1434h47l190 -836l191 836h43l-211 -914v-520h-45v518zM258 1513l92 134h49l-106 -134h-35z" />
<glyph unicode="&#xde;" horiz-adv-x="567" d="M104 0v1434h46v-306h141q99 0 154 -50t55 -144v-406q0 -65 -20.5 -109.5t-55 -65.5t-68 -29.5t-71.5 -8.5h-135v-315h-46zM150 356h133q170 0 170 170v410q0 72 -43 110.5t-119 38.5h-141v-729z" />
<glyph unicode="&#xdf;" horiz-adv-x="589" d="M98 0v1260q0 190 193 190h18q193 0 193 -190v-320q0 -165 -123 -197q125 -28 125 -190v-363q0 -190 -193 -190h-94v43h94q148 0 148 147v363q0 85 -38.5 126.5t-123.5 41.5h-76v43h72q86 0 125 41.5t39 126.5v328q0 149 -148 149h-18q-148 0 -148 -149v-1260h-45z" />
<glyph unicode="&#xe0;" d="M80 135v262q0 72 31 113t108 72l203 80v292q0 129 -135 129h-15q-68 0 -103.5 -33t-35.5 -96v-209h-45v209q0 84 47 128t137 44h15q180 0 180 -172v-954h-45v68q-57 -42 -97 -60t-87 -18h-9q-149 0 -149 145zM125 141q0 -56 28.5 -82t86.5 -26h6q39 0 79 17t97 59v509 l-186 -75q-62 -25 -86.5 -56.5t-24.5 -89.5v-256zM170 1391h51l80 -170h-33z" />
<glyph unicode="&#xe1;" d="M80 135v262q0 72 31 113t108 72l203 80v292q0 129 -135 129h-15q-68 0 -103.5 -33t-35.5 -96v-209h-45v209q0 84 47 128t137 44h15q180 0 180 -172v-954h-45v68q-57 -42 -97 -60t-87 -18h-9q-149 0 -149 145zM125 141q0 -56 28.5 -82t86.5 -26h6q39 0 79 17t97 59v509 l-186 -75q-62 -25 -86.5 -56.5t-24.5 -89.5v-256zM268 1221l80 170h49l-96 -170h-33z" />
<glyph unicode="&#xe2;" d="M80 135v262q0 72 31 113t108 72l203 80v292q0 129 -135 129h-15q-68 0 -103.5 -33t-35.5 -96v-209h-45v209q0 84 47 128t137 44h15q180 0 180 -172v-954h-45v68q-57 -42 -97 -60t-87 -18h-9q-149 0 -149 145zM125 141q0 -56 28.5 -82t86.5 -26h6q39 0 79 17t97 59v509 l-186 -75q-62 -25 -86.5 -56.5t-24.5 -89.5v-256zM160 1221l102 170h47l103 -170h-33l-94 133l-92 -133h-33z" />
<glyph unicode="&#xe3;" d="M80 135v262q0 72 31 113t108 72l203 80v292q0 129 -135 129h-15q-68 0 -103.5 -33t-35.5 -96v-209h-45v209q0 84 47 128t137 44h15q180 0 180 -172v-954h-45v68q-57 -42 -97 -60t-87 -18h-9q-149 0 -149 145zM125 141q0 -56 28.5 -82t86.5 -26h6q39 0 79 17t97 59v509 l-186 -75q-62 -25 -86.5 -56.5t-24.5 -89.5v-256zM141 1221v88q0 55 49 55h9q28 0 59 -25l76 -69q20 -17 35 -17h6q22 0 22 31v80h33v-90q0 -53 -49 -53h-10q-30 0 -58 24l-75 70q-21 16 -35 16h-6q-23 0 -23 -31v-79h-33z" />
<glyph unicode="&#xe4;" d="M80 135v262q0 72 31 113t108 72l203 80v292q0 129 -135 129h-15q-68 0 -103.5 -33t-35.5 -96v-209h-45v209q0 84 47 128t137 44h15q180 0 180 -172v-954h-45v68q-57 -42 -97 -60t-87 -18h-9q-149 0 -149 145zM125 141q0 -56 28.5 -82t86.5 -26h6q39 0 79 17t97 59v509 l-186 -75q-62 -25 -86.5 -56.5t-24.5 -89.5v-256zM174 1221v122h41v-122h-41zM356 1221v122h39v-122h-39z" />
<glyph unicode="&#xe5;" d="M80 135v262q0 72 31 113t108 72l203 80v292q0 129 -135 129h-15q-68 0 -103.5 -33t-35.5 -96v-209h-45v209q0 84 47 128t137 44h15q180 0 180 -172v-954h-45v68q-57 -42 -97 -60t-87 -18h-9q-149 0 -149 145zM125 141q0 -56 28.5 -82t86.5 -26h6q39 0 79 17t97 59v509 l-186 -75q-62 -25 -86.5 -56.5t-24.5 -89.5v-256zM152 1311v4q0 46 24 67t80 21h59q55 0 80 -21t25 -67v-4q0 -45 -25 -66.5t-80 -21.5h-59q-56 0 -80 21.5t-24 66.5zM174 1311q0 -34 19.5 -49t64.5 -15h55q44 0 63 15t19 49v4q0 35 -19 50t-63 15h-55q-45 0 -64.5 -15 t-19.5 -50v-4z" />
<glyph unicode="&#xe6;" horiz-adv-x="907" d="M82 135v273q0 69 31 108t108 70l203 80v288q0 129 -135 129h-15q-68 0 -103.5 -33t-35.5 -96v-215h-45v215q0 84 47 128t137 44h15q128 0 160 -94q38 94 165 94h19q190 0 190 -192v-397h-354v-357q0 -147 147 -147h17q145 0 145 147v203h45v-203q0 -190 -190 -190h-19 q-130 0 -170 90q-71 -52 -114 -71t-90 -19h-9q-149 0 -149 145zM127 141q0 -56 28.5 -82t86.5 -26h6q73 0 182 80q-6 27 -6 63v447l-184 -76q-61 -26 -87 -56t-26 -85v-265zM469 580h309v356q0 147 -145 147h-17q-147 0 -147 -147v-356z" />
<glyph unicode="&#xe7;" horiz-adv-x="573" d="M84 178v760q0 188 188 188h27q188 0 188 -188v-227h-45v227q0 145 -143 145h-27q-143 0 -143 -145v-760q0 -145 143 -145h29q143 0 143 145v244h45v-244q0 -185 -182 -188l-51 -158h-45l63 158h-2q-188 0 -188 188z" />
<glyph unicode="&#xe8;" horiz-adv-x="567" d="M84 180v756q0 190 190 190h19q190 0 190 -190v-399h-354v-357q0 -147 147 -147h17q145 0 145 147v197h45v-197q0 -190 -190 -190h-19q-190 0 -190 190zM129 580h309v356q0 147 -145 147h-17q-147 0 -147 -147v-356zM168 1391h51l80 -170h-33z" />
<glyph unicode="&#xe9;" horiz-adv-x="567" d="M84 180v756q0 190 190 190h19q190 0 190 -190v-399h-354v-357q0 -147 147 -147h17q145 0 145 147v197h45v-197q0 -190 -190 -190h-19q-190 0 -190 190zM129 580h309v356q0 147 -145 147h-17q-147 0 -147 -147v-356zM270 1221l80 170h49l-96 -170h-33z" />
<glyph unicode="&#xea;" horiz-adv-x="567" d="M84 180v756q0 190 190 190h19q190 0 190 -190v-399h-354v-357q0 -147 147 -147h17q145 0 145 147v197h45v-197q0 -190 -190 -190h-19q-190 0 -190 190zM129 580h309v356q0 147 -145 147h-17q-147 0 -147 -147v-356zM160 1221l102 170h47l103 -170h-33l-94 133l-92 -133 h-33z" />
<glyph unicode="&#xeb;" horiz-adv-x="567" d="M84 180v756q0 190 190 190h19q190 0 190 -190v-399h-354v-357q0 -147 147 -147h17q145 0 145 147v197h45v-197q0 -190 -190 -190h-19q-190 0 -190 190zM129 580h309v356q0 147 -145 147h-17q-147 0 -147 -147v-356zM174 1221v122h41v-122h-41zM356 1221v122h39v-122h-39z " />
<glyph unicode="&#xec;" horiz-adv-x="241" d="M6 1391h51l80 -170h-33zM98 0v1116h45v-1116h-45z" />
<glyph unicode="&#xed;" horiz-adv-x="241" d="M98 0v1116h45v-1116h-45zM106 1221l80 170h50l-97 -170h-33z" />
<glyph unicode="&#xee;" horiz-adv-x="241" d="M-4 1221l102 170h47l103 -170h-33l-94 133l-92 -133h-33zM98 0v1116h45v-1116h-45z" />
<glyph unicode="&#xef;" horiz-adv-x="241" d="M10 1221v122h41v-122h-41zM98 0v1116h45v-1116h-45zM193 1221v122h38v-122h-38z" />
<glyph unicode="&#xf0;" horiz-adv-x="583" d="M82 178v760q0 92 44 139t140 47h8q129 0 177 -73v73q0 80 -19.5 112t-91.5 67l-41 18l-47 -80h-43l57 96l-121 60l21 39l121 -62l47 78h43l-55 -94l40 -19q84 -42 108 -80t24 -133v-948q0 -188 -187 -188h-37q-188 0 -188 188zM127 178q0 -145 143 -145h35q144 0 144 145 v762q0 141 -146 141h-31q-145 0 -145 -145v-758z" />
<glyph unicode="&#xf1;" horiz-adv-x="583" d="M94 0v1116h45v-72q60 44 100 63t87 19h12q154 0 154 -145v-981h-43v975q0 108 -119 108h-13q-42 0 -80.5 -17t-97.5 -62v-1004h-45zM147 1221v88q0 55 50 55h8q28 0 59 -25l76 -69q20 -17 35 -17h6q22 0 22 31v80h33v-90q0 -53 -49 -53h-10q-30 0 -58 24l-75 70 q-21 16 -35 16h-6q-23 0 -23 -31v-79h-33z" />
<glyph unicode="&#xf2;" horiz-adv-x="579" d="M84 178v760q0 188 188 188h35q189 0 189 -188v-760q0 -188 -189 -188h-35q-188 0 -188 188zM129 178q0 -145 143 -145h35q144 0 144 145v760q0 145 -144 145h-35q-143 0 -143 -145v-760zM174 1391h51l80 -170h-33z" />
<glyph unicode="&#xf3;" horiz-adv-x="579" d="M84 178v760q0 188 188 188h35q189 0 189 -188v-760q0 -188 -189 -188h-35q-188 0 -188 188zM129 178q0 -145 143 -145h35q144 0 144 145v760q0 145 -144 145h-35q-143 0 -143 -145v-760zM274 1221l80 170h49l-96 -170h-33z" />
<glyph unicode="&#xf4;" horiz-adv-x="579" d="M84 178v760q0 188 188 188h35q189 0 189 -188v-760q0 -188 -189 -188h-35q-188 0 -188 188zM129 178q0 -145 143 -145h35q144 0 144 145v760q0 145 -144 145h-35q-143 0 -143 -145v-760zM166 1221l102 170h47l103 -170h-33l-94 133l-92 -133h-33z" />
<glyph unicode="&#xf5;" horiz-adv-x="579" d="M84 178v760q0 188 188 188h35q189 0 189 -188v-760q0 -188 -189 -188h-35q-188 0 -188 188zM129 178q0 -145 143 -145h35q144 0 144 145v760q0 145 -144 145h-35q-143 0 -143 -145v-760zM147 1221v88q0 55 50 55h8q28 0 59 -25l76 -69q20 -17 35 -17h6q22 0 22 31v80h33 v-90q0 -53 -49 -53h-10q-30 0 -58 24l-75 70q-21 16 -35 16h-6q-23 0 -23 -31v-79h-33z" />
<glyph unicode="&#xf6;" horiz-adv-x="579" d="M84 178v760q0 188 188 188h35q189 0 189 -188v-760q0 -188 -189 -188h-35q-188 0 -188 188zM129 178q0 -145 143 -145h35q144 0 144 145v760q0 145 -144 145h-35q-143 0 -143 -145v-760zM180 1221v122h41v-122h-41zM362 1221v122h39v-122h-39z" />
<glyph unicode="&#xf7;" horiz-adv-x="563" d="M49 705v40h465v-40h-465zM258 457v114h47v-114h-47zM258 879v114h47v-114h-47z" />
<glyph unicode="&#xf8;" horiz-adv-x="579" d="M84 178v760q0 188 188 188h35q189 0 189 -188v-760q0 -188 -189 -188h-35q-188 0 -188 188zM129 178q0 -55 16 -86l263 961q-34 30 -101 30h-35q-143 0 -143 -145v-760zM170 61q35 -28 102 -28h35q144 0 144 145v760q0 48 -19 84z" />
<glyph unicode="&#xf9;" horiz-adv-x="583" d="M90 135v981h47v-975q0 -56 29 -82t90 -26h10q42 0 81.5 17.5t96.5 62.5v1003h45v-1116h-45v72q-59 -45 -98.5 -63.5t-87.5 -18.5h-12q-156 0 -156 145zM174 1391h51l80 -170h-33z" />
<glyph unicode="&#xfa;" horiz-adv-x="583" d="M90 135v981h47v-975q0 -56 29 -82t90 -26h10q42 0 81.5 17.5t96.5 62.5v1003h45v-1116h-45v72q-59 -45 -98.5 -63.5t-87.5 -18.5h-12q-156 0 -156 145zM274 1221l80 170h49l-96 -170h-33z" />
<glyph unicode="&#xfb;" horiz-adv-x="583" d="M90 135v981h47v-975q0 -56 29 -82t90 -26h10q42 0 81.5 17.5t96.5 62.5v1003h45v-1116h-45v72q-59 -45 -98.5 -63.5t-87.5 -18.5h-12q-156 0 -156 145zM164 1221l102 170h47l103 -170h-33l-94 133l-92 -133h-33z" />
<glyph unicode="&#xfc;" horiz-adv-x="583" d="M90 135v981h47v-975q0 -56 29 -82t90 -26h10q42 0 81.5 17.5t96.5 62.5v1003h45v-1116h-45v72q-59 -45 -98.5 -63.5t-87.5 -18.5h-12q-156 0 -156 145zM178 1221v122h41v-122h-41zM360 1221v122h39v-122h-39z" />
<glyph unicode="&#xfd;" horiz-adv-x="534" d="M45 1116h45l180 -1020l176 1020h43l-235 -1321h-43l39 201v2zM256 1221l80 170h49l-96 -170h-33z" />
<glyph unicode="&#xfe;" horiz-adv-x="581" d="M94 -205v1651h45v-402q58 44 99 63t90 19h10q160 0 160 -147v-842q0 -147 -160 -147h-10q-49 0 -90 19t-99 63v-277h-45zM139 117q60 -47 100 -65.5t87 -18.5q65 0 96 26t31 82v832q0 58 -31 84t-96 26q-48 0 -88 -18t-99 -64v-884z" />
<glyph unicode="&#xff;" horiz-adv-x="534" d="M45 1116h45l180 -1020l176 1020h43l-235 -1321h-43l39 203zM160 1221v122h41v-122h-41zM342 1221v122h39v-122h-39z" />
<glyph unicode="&#x152;" horiz-adv-x="892" d="M92 215v1004q0 97 66 156t170 59h487v-43h-299v-641h291v-43h-291v-664h303v-43h-491q-104 0 -170 59t-66 156zM139 215q0 -76 54 -124t135 -48h141v1348h-141q-81 0 -135 -48t-54 -124v-1004z" />
<glyph unicode="&#x153;" horiz-adv-x="933" d="M84 176v760q0 188 188 188h35q132 0 166 -98q36 98 168 98h18q191 0 191 -190v-397h-354v-359q0 -145 145 -145h18q146 0 146 145v205h45v-203q0 -190 -191 -190h-18q-138 0 -168 98q-31 -98 -166 -98h-35q-188 0 -188 186zM129 176q0 -143 143 -143h35q144 0 144 143 v762q0 143 -144 143h-35q-143 0 -143 -143v-762zM496 578h309v356q0 147 -146 147h-18q-145 0 -145 -147v-356z" />
<glyph unicode="&#x178;" horiz-adv-x="542" d="M35 1434h47l190 -836l191 836h43l-211 -914v-520h-45v518zM164 1513v107h39v-107h-39zM340 1513v107h39v-107h-39z" />
<glyph unicode="&#x2c6;" horiz-adv-x="888" d="M319 1221l103 170h47l102 -170h-32l-95 133l-92 -133h-33z" />
<glyph unicode="&#x2dc;" horiz-adv-x="888" d="M301 1221v88q0 55 49 55h8q29 0 60 -25l76 -69q20 -17 34 -17h7q22 0 22 31v80h33v-90q0 -53 -49 -53h-11q-29 0 -57 24l-76 70q-21 16 -35 16h-6q-22 0 -22 -31v-79h-33z" />
<glyph unicode="&#x2000;" horiz-adv-x="831" />
<glyph unicode="&#x2001;" horiz-adv-x="1663" />
<glyph unicode="&#x2002;" horiz-adv-x="831" />
<glyph unicode="&#x2003;" horiz-adv-x="1663" />
<glyph unicode="&#x2004;" horiz-adv-x="554" />
<glyph unicode="&#x2005;" horiz-adv-x="415" />
<glyph unicode="&#x2006;" horiz-adv-x="277" />
<glyph unicode="&#x2007;" horiz-adv-x="277" />
<glyph unicode="&#x2008;" horiz-adv-x="207" />
<glyph unicode="&#x2009;" horiz-adv-x="332" />
<glyph unicode="&#x200a;" horiz-adv-x="92" />
<glyph unicode="&#x2010;" horiz-adv-x="317" d="M33 555v43h252v-43h-252z" />
<glyph unicode="&#x2011;" horiz-adv-x="317" d="M33 555v43h252v-43h-252z" />
<glyph unicode="&#x2012;" horiz-adv-x="317" d="M33 555v43h252v-43h-252z" />
<glyph unicode="&#x2013;" horiz-adv-x="651" d="M57 553v39h537v-39h-537z" />
<glyph unicode="&#x2014;" horiz-adv-x="997" d="M59 553v39h875v-39h-875z" />
<glyph unicode="&#x2018;" horiz-adv-x="174" d="M53 1137v104q0 51 8 85.5t29 78.5l16 33l21 -6l-14 -33q-27 -75 -29 -115h16v-147h-47z" />
<glyph unicode="&#x2019;" horiz-adv-x="172" d="M43 1139l14 32q24 62 29 115h-16v148h47v-105q0 -51 -8 -85.5t-29 -78.5l-17 -32z" />
<glyph unicode="&#x201a;" horiz-adv-x="169" d="M37 -156l14 33q24 66 29 115h-17v147h48v-104q0 -51 -8 -85.5t-29 -78.5l-17 -33z" />
<glyph unicode="&#x201c;" horiz-adv-x="301" d="M53 1137v104q0 84 35 164l18 33l19 -6l-12 -33q-27 -75 -29 -115h16v-147h-47zM182 1137v104q0 51 8 85.5t29 78.5l17 33l20 -6l-14 -33q-27 -75 -29 -115h16v-147h-47z" />
<glyph unicode="&#x201d;" horiz-adv-x="301" d="M43 1139l14 32q27 71 29 115h-16v148h47v-105q0 -51 -8 -85.5t-29 -78.5l-17 -32zM174 1139l12 32q27 71 29 115h-16v148h47v-105q0 -84 -35 -164l-18 -32z" />
<glyph unicode="&#x201e;" horiz-adv-x="299" d="M37 -156l14 33q27 75 29 115h-17v147h48v-104q0 -51 -8 -85.5t-29 -78.5l-17 -33zM168 -156l12 33q27 75 29 115h-16v147h47v-104q0 -84 -35 -164l-19 -33z" />
<glyph unicode="&#x2022;" horiz-adv-x="327" d="M102 662v122q0 28 9 39t34 11h35q24 0 34.5 -11.5t10.5 -38.5v-122q0 -50 -45 -50h-35q-23 0 -33 12t-10 38z" />
<glyph unicode="&#x2026;" horiz-adv-x="499" d="M59 0v137h47v-137h-47zM225 0v137h47v-137h-47zM391 0v137h47v-137h-47z" />
<glyph unicode="&#x202f;" horiz-adv-x="332" />
<glyph unicode="&#x2039;" horiz-adv-x="245" d="M55 573l92 301h37l-80 -301l82 -301h-34z" />
<glyph unicode="&#x203a;" horiz-adv-x="245" d="M57 272l82 301l-80 301h37l92 -301l-96 -301h-35z" />
<glyph unicode="&#x205f;" horiz-adv-x="415" />
<glyph unicode="&#x20ac;" horiz-adv-x="638" d="M57 616v39h78v142h-78v39h78v415q0 94 49 143.5t144 49.5h47q95 0 143.5 -49.5t48.5 -143.5v-256h-45v256q0 73 -37.5 111.5t-109.5 38.5h-45q-74 0 -112 -38.5t-38 -111.5v-415h291v-39h-291v-142h291v-39h-291v-434q0 -149 150 -149h47q147 0 147 149v271h45v-271 q0 -94 -48.5 -143t-143.5 -49h-49q-95 0 -144 49t-49 143v434h-78z" />
<glyph unicode="&#x2122;" horiz-adv-x="700" d="M39 1403v29h221v-29h-94v-596h-33v596h-94zM315 807v625h47l105 -560l104 560h47v-625h-30v559l-107 -559h-28l-107 559v-559h-31z" />
<glyph unicode="&#x25fc;" horiz-adv-x="1116" d="M0 0v1116h1116v-1116h-1116z" />
<glyph unicode="&#xfb01;" horiz-adv-x="567" d="M47 1075v41h76v187q0 145 135 145h55v-43h-55q-47 0 -68.5 -24.5t-21.5 -75.5v-189h139v-41h-139v-1075h-45v1075h-76zM422 1257v115h49v-115h-49zM424 0v1116h45v-1116h-45z" />
<glyph unicode="&#xfb02;" horiz-adv-x="567" d="M47 1075v41h76v187q0 145 135 145h55v-43h-55q-47 0 -68.5 -24.5t-21.5 -75.5v-189h139v-41h-139v-1075h-45v1075h-76zM424 0v1448h45v-1448h-45z" />
<glyph unicode="&#xfb03;" horiz-adv-x="892" d="M47 1075v41h76v187q0 145 135 145h55v-43h-55q-47 0 -68.5 -24.5t-21.5 -75.5v-189h139v-41h-139v-1075h-45v1075h-76zM373 1075v41h76v187q0 145 135 145h55v-43h-55q-47 0 -68.5 -24.5t-21.5 -75.5v-189h139v-41h-139v-1075h-45v1075h-76zM748 1257v115h49v-115h-49z M750 0v1116h45v-1116h-45z" />
<glyph unicode="&#xfb04;" horiz-adv-x="892" d="M47 1075v41h76v187q0 145 135 145h55v-43h-55q-47 0 -68.5 -24.5t-21.5 -75.5v-189h139v-41h-139v-1075h-45v1075h-76zM373 1075v41h76v187q0 145 135 145h55v-43h-55q-47 0 -68.5 -24.5t-21.5 -75.5v-189h139v-41h-139v-1075h-45v1075h-76zM750 0v1448h45v-1448h-45z " />
</font>
</defs>
</svg>
