<?xml version="1.0" standalone="no"?>
<!DOCTYPE svg PUBLIC "-//W3C//DTD SVG 1.1//EN" "http://www.w3.org/Graphics/SVG/1.1/DTD/svg11.dtd" >
<svg xmlns="http://www.w3.org/2000/svg">
<metadata></metadata>
<defs>
<font id="tungsten_condensedbold" horiz-adv-x="544" >
<font-face units-per-em="2048" ascent="1638" descent="-410" />
<missing-glyph horiz-adv-x="174" />
<glyph horiz-adv-x="2048" />
<glyph horiz-adv-x="2048" />
<glyph unicode="&#xd;" horiz-adv-x="2048" />
<glyph unicode=" "  horiz-adv-x="174" />
<glyph unicode="&#x09;" horiz-adv-x="174" />
<glyph unicode="&#xa0;" horiz-adv-x="174" />
<glyph unicode="!" horiz-adv-x="278" d="M39 932v502h201v-502l-43 -619h-115zM55 0v231h168v-231h-168z" />
<glyph unicode="&#x22;" horiz-adv-x="436" d="M23 983l18 451h168l-57 -451h-129zM236 983l18 451h170l-59 -451h-129z" />
<glyph unicode="#" horiz-adv-x="507" d="M18 272v217l62 21v305l-62 -20v217l62 20v404h135v-359l78 27v332h135v-287l61 20v-217l-61 -20v-303l61 20v-217l-61 -20v-414h-135v367l-78 -27v-340h-135v295zM215 555l78 27v305l-78 -27v-305z" />
<glyph unicode="$" horiz-adv-x="557" d="M31 188v396h205v-371q0 -37 34 -37h17q37 0 37 37v285q0 35 -10.5 55.5t-39.5 42.5l-147 121q-54 43 -75 89t-21 120v317q0 189 186 195v98h121v-98q188 -3 188 -195v-364h-204v344q0 19 -7.5 28t-27.5 9h-17q-18 0 -25 -8.5t-7 -28.5v-262q0 -34 9.5 -56t35.5 -43 l149 -121q55 -43 76.5 -88.5t21.5 -120.5v-344q0 -189 -190 -192v-102h-121v102q-97 1 -142.5 48t-45.5 144z" />
<glyph unicode="%" horiz-adv-x="694" d="M37 713v620q0 51 28.5 82t77.5 31h111q49 0 77.5 -31t28.5 -82v-127l-4 -260l107 494h119l-150 -609q9 3 21 3h98q49 0 77.5 -31t28.5 -82v-621q0 -51 -28.5 -81.5t-77.5 -30.5h-111q-49 0 -77.5 30.5t-28.5 81.5v127l2 267l-105 -500h-118l147 606h-18h-99 q-49 0 -77.5 31t-28.5 82zM166 750q0 -10 5 -17.5t11 -7.5h37q14 0 14 25v544q0 25 -14 25h-37q-6 0 -11 -7.5t-5 -17.5v-544zM459 139q0 -10 5 -17t13 -7h35q16 0 16 24v547q0 25 -16 25h-35q-7 0 -12.5 -8t-5.5 -17v-547z" />
<glyph unicode="&#x26;" horiz-adv-x="710" d="M27 170v408q0 117 69 178l54 47l-31 71q-35 74 -35 154v223q0 195 195 195h98q194 0 194 -195v-313h-192v293q0 37 -39 37h-21q-38 0 -38 -37v-205q0 -40 24 -100l135 -324l52 213h192l-125 -455l164 -360h-207l-49 113q-26 -74 -64.5 -99.5t-121.5 -25.5h-72 q-182 0 -182 182zM221 195q0 -33 33 -33h20q34 0 45 33l37 135l-123 284q-12 -21 -12 -51v-368z" />
<glyph unicode="'" horiz-adv-x="225" d="M23 983l18 451h172l-59 -451h-131z" />
<glyph unicode="(" horiz-adv-x="296" d="M35 389v653q0 190 33 281t137 195l90 -37q-74 -105 -96.5 -185.5t-22.5 -251.5v-655q0 -173 22.5 -251.5t96.5 -184.5l-90 -39q-104 104 -137 195t-33 280z" />
<glyph unicode=")" horiz-adv-x="296" d="M2 -47q74 106 96.5 184.5t22.5 251.5v655q0 171 -22.5 251.5t-96.5 185.5l90 37q104 -104 137 -195t33 -281v-653q0 -189 -33 -280t-137 -195z" />
<glyph unicode="*" horiz-adv-x="409" d="M27 1067v100l102 52l-102 53v100h4l129 -76l-2 140h94l-4 -140l133 76h2v-100l-102 -53l102 -52v-100h-2l-133 76l4 -137h-94l2 137l-129 -76h-4z" />
<glyph unicode="+" horiz-adv-x="481" d="M20 655v136h150v151h141v-151h150v-136h-150v-151h-141v151h-150z" />
<glyph unicode="," horiz-adv-x="221" d="M12 -211q25 165 25 354v88h160v-59q0 -71 -9.5 -144t-20 -117t-30.5 -122h-125z" />
<glyph unicode="-" horiz-adv-x="339" d="M16 492v178h308v-178h-308z" />
<glyph unicode="." horiz-adv-x="221" d="M25 0v231h172v-231h-172z" />
<glyph unicode="/" horiz-adv-x="331" d="M4 -66l197 1565h129l-195 -1565h-131z" />
<glyph unicode="0" horiz-adv-x="587" d="M35 182v1069q0 195 194 195h129q195 0 195 -195v-1069q0 -194 -195 -194h-129q-194 0 -194 194zM242 205q0 -37 39 -37h26q37 0 37 37v1024q0 37 -37 37h-26q-39 0 -39 -37v-1024z" />
<glyph unicode="1" horiz-adv-x="350" d="M10 1194v145l13 2q63 8 110 72l21 25h151v-1438h-205v1194h-90z" />
<glyph unicode="2" horiz-adv-x="546" d="M25 0v313q0 62 16 110t59 112l183 296q32 47 32 101v291q0 37 -36 37h-13q-39 0 -39 -37v-351h-198v373q0 195 194 195h105q196 0 196 -195v-295q0 -67 -17 -120t-61 -119l-182 -295q-33 -48 -33 -103v-125h291v-188h-497z" />
<glyph unicode="3" horiz-adv-x="559" d="M25 182v350h198v-327q0 -37 37 -37h23q36 0 36 37v389q0 21 -8 30t-28 9h-158v184h156q36 0 36 37v375q0 37 -36 37h-17q-37 0 -37 -37v-307h-198v329q0 195 194 195h109q194 0 194 -195v-360q0 -125 -86 -156q90 -27 90 -135v-418q0 -194 -196 -194h-115 q-194 0 -194 194z" />
<glyph unicode="4" horiz-adv-x="557" d="M16 227v211l174 996h285v-1024h78v-183h-78v-227h-188v227h-271zM172 410h115l2 526v176z" />
<glyph unicode="5" horiz-adv-x="565" d="M33 182v350h203v-327q0 -37 36 -37h21q37 0 37 37v465q0 43 -37 43q-30 0 -64 -43h-190v764h483v-187h-289l-4 -401q37 30 68 43.5t78 13.5h2q74 0 117 -45t43 -123v-553q0 -194 -195 -194h-115q-194 0 -194 194z" />
<glyph unicode="6" horiz-adv-x="575" d="M35 182v1069q0 195 194 195h115q197 0 197 -195v-313h-203v291q0 37 -39 37h-18q-39 0 -39 -37v-404q67 29 125 29h8q79 0 124.5 -47.5t45.5 -126.5v-498q0 -194 -195 -194h-121q-194 0 -194 194zM242 205q0 -37 39 -37h18q39 0 39 37v432q0 19 -8 27t-31 8q-33 0 -57 -8 v-459z" />
<glyph unicode="7" horiz-adv-x="477" d="M16 1247v187h443v-217l-183 -1217h-210l190 1247h-240z" />
<glyph unicode="8" horiz-adv-x="569" d="M31 182v420q0 58 21.5 89.5t68.5 45.5q-88 37 -88 158v356q0 195 194 195h115q195 0 195 -195v-356q0 -122 -86 -158q46 -14 68 -45.5t22 -89.5v-420q0 -194 -197 -194h-119q-194 0 -194 194zM236 203q0 -37 36 -37h25q37 0 37 37v401q0 37 -37 37h-25q-36 0 -36 -37 v-401zM238 854q0 -20 8.5 -28.5t27.5 -8.5h21q37 0 37 37v377q0 37 -37 37h-21q-19 0 -27.5 -8.5t-8.5 -28.5v-377z" />
<glyph unicode="9" horiz-adv-x="575" d="M33 762v487q0 195 194 195h119q197 0 197 -195v-1063q0 -196 -197 -196h-117q-194 0 -194 196v303h203v-282q0 -37 36 -37h21q37 0 37 37v409q-58 -28 -123 -28h-6q-78 0 -124 48t-46 126zM240 805q0 -19 7.5 -27t28.5 -8q36 0 56 10v447q0 37 -37 37h-19q-36 0 -36 -37 v-422z" />
<glyph unicode=":" horiz-adv-x="221" d="M25 0v231h172v-231h-172zM25 950v232h172v-232h-172z" />
<glyph unicode=";" horiz-adv-x="221" d="M12 -211q25 165 25 354v88h160v-59q0 -71 -9.5 -144t-20 -117t-30.5 -122h-125zM25 950v232h172v-232h-172z" />
<glyph unicode="&#x3c;" horiz-adv-x="489" d="M31 635v176l422 143v-147l-301 -82l301 -86v-150z" />
<glyph unicode="=" horiz-adv-x="487" d="M31 551v133h426v-133h-426zM31 762v133h426v-133h-426z" />
<glyph unicode="&#x3e;" horiz-adv-x="489" d="M35 489v150l301 86l-301 82v147l422 -143v-176z" />
<glyph unicode="?" horiz-adv-x="530" d="M25 879v370q0 195 194 195h94q195 0 195 -195v-342q0 -100 -57 -172l-101 -143q-24 -33 -24 -96v-189h-154v273q0 54 8.5 85t34.5 66l64 94q26 36 26 90v312q0 37 -37 37h-14q-37 0 -37 -37v-348h-192zM166 0v231h166v-231h-166z" />
<glyph unicode="@" horiz-adv-x="780" d="M55 121v934q0 130 57 187.5t177 57.5h200q122 0 179 -57.5t57 -187.5v-881q0 -127 -117 -127h-69q-77 0 -111 55q-32 -30 -58 -42.5t-63 -12.5q-49 0 -77.5 31t-28.5 90v324q0 66 21 100.5t75 54.5l121 39v281q0 24 -23 24h-12q-25 0 -25 -24v-226h-151v252 q0 135 145 135h80q143 0 143 -135v-864q0 -17 7 -24t24 -7h4q30 0 45 17.5t15 58.5v881q0 104 -43.5 149t-137.5 45h-200q-94 0 -136 -45t-42 -149v-934q0 -105 42.5 -150t135.5 -45h379v-51h-379q-120 0 -177 58t-57 188zM350 221q0 -28 35 -28q3 0 33 6v350l-39 -17 q-29 -14 -29 -51v-260z" />
<glyph unicode="A" horiz-adv-x="575" d="M8 0l137 1434h285l137 -1434h-205l-16 207h-135l-14 -207h-189zM225 391h107l-53 694z" />
<glyph unicode="B" horiz-adv-x="573" d="M37 0v1434h309q197 0 197 -195v-348q0 -124 -88 -156q47 -13 68.5 -45.5t21.5 -89.5v-405q0 -195 -195 -195h-313zM246 180h51q39 0 39 37v383q0 37 -39 37h-51v-457zM246 813h49q37 0 37 37v367q0 36 -37 36h-49v-440z" />
<glyph unicode="C" horiz-adv-x="585" d="M35 182v1069q0 195 194 195h125q195 0 195 -195v-428h-207v406q0 37 -37 37h-22q-39 0 -39 -37v-1024q0 -37 39 -37h26q37 0 37 37v436h207v-459q0 -194 -195 -194h-129q-194 0 -194 194z" />
<glyph unicode="D" horiz-adv-x="591" d="M37 0v1434h295q115 0 170 -55.5t55 -170.5v-983q0 -114 -55 -169.5t-170 -55.5h-295zM248 180h41q31 0 45 13.5t14 44.5v958q0 30 -14 43.5t-45 13.5h-41v-1073z" />
<glyph unicode="E" horiz-adv-x="456" d="M37 0v1434h391v-187h-180v-428h172v-188h-172v-443h182v-188h-393z" />
<glyph unicode="F" horiz-adv-x="440" d="M37 0v1434h383v-187h-172v-438h164v-188h-164v-621h-211z" />
<glyph unicode="G" horiz-adv-x="593" d="M35 182v1069q0 195 194 195h133q195 0 195 -195v-383h-207v361q0 37 -39 37h-28q-39 0 -39 -37v-1024q0 -37 39 -37h34q37 0 37 37v391h-67v174h272v-588q0 -194 -194 -194h-136q-194 0 -194 194z" />
<glyph unicode="H" horiz-adv-x="600" d="M37 0v1434h211v-615h104v615h211v-1434h-211v631h-104v-631h-211z" />
<glyph unicode="I" horiz-adv-x="288" d="M39 0v1434h211v-1434h-211z" />
<glyph unicode="J" horiz-adv-x="378" d="M20 0v188h76q20 0 28.5 8.5t8.5 28.5v1209h209v-1239q0 -195 -195 -195h-127z" />
<glyph unicode="K" horiz-adv-x="579" d="M37 0v1434h211v-668l117 668h217l-140 -707l133 -727h-221l-106 670v-670h-211z" />
<glyph unicode="L" horiz-adv-x="417" d="M37 0v1434h211v-1246h151v-188h-362z" />
<glyph unicode="M" horiz-adv-x="806" d="M37 0v1434h303l61 -867l64 867h305v-1434h-207v338l6 686l-86 -1024h-198l-86 1042l6 -706v-336h-168z" />
<glyph unicode="N" horiz-adv-x="587" d="M37 0v1434h215l133 -785l-12 408l-4 377h182v-1434h-205l-143 842l12 -418l4 -424h-182z" />
<glyph unicode="O" horiz-adv-x="593" d="M35 186v1065q0 195 194 195h136q194 0 194 -195v-1065q0 -198 -194 -198h-136q-194 0 -194 198zM244 207q0 -37 39 -37h28q39 0 39 37v1022q0 37 -39 37h-28q-39 0 -39 -37v-1022z" />
<glyph unicode="P" horiz-adv-x="561" d="M37 0v1434h307q197 0 197 -195v-506q0 -196 -197 -196h-96v-537h-211zM248 717h45q37 0 37 39v461q0 36 -37 36h-45v-536z" />
<glyph unicode="Q" horiz-adv-x="593" d="M35 186v1065q0 195 194 195h136q194 0 194 -195v-1050q0 -112 -63 -152l90 -39l-99 -155l-221 135h-37q-194 0 -194 196zM244 207q0 -37 39 -37h28q39 0 39 37v1022q0 37 -39 37h-28q-39 0 -39 -37v-1022z" />
<glyph unicode="R" horiz-adv-x="579" d="M37 0v1434h313q195 0 195 -195v-405q0 -124 -90 -156q49 -13 70.5 -45t21.5 -90v-543h-209v541q0 37 -39 37h-51v-578h-211zM248 756h49q39 0 39 39v419q0 37 -39 37h-49v-495z" />
<glyph unicode="S" horiz-adv-x="565" d="M31 182v402h207v-377q0 -37 36 -37h19q37 0 37 37v287q0 36 -10 56.5t-39 43.5l-154 123q-54 44 -75 90.5t-21 122.5v321q0 195 196 195h113q195 0 195 -195v-370h-207v350q0 19 -7.5 28t-27.5 9h-19q-34 0 -34 -37v-266q0 -36 10 -57t39 -44l153 -123q55 -44 76 -90 t21 -123v-346q0 -194 -197 -194h-117q-194 0 -194 194z" />
<glyph unicode="T" horiz-adv-x="495" d="M14 1247v187h465v-187h-127v-1247h-209v1247h-129z" />
<glyph unicode="U" horiz-adv-x="587" d="M35 186v1248h211v-1227q0 -37 37 -37h22q37 0 37 37v1227h211v-1248q0 -196 -195 -196h-129q-194 0 -194 196z" />
<glyph unicode="V" horiz-adv-x="571" d="M8 1434h211l76 -1020l76 1020h194l-141 -1434h-277z" />
<glyph unicode="W" horiz-adv-x="845" d="M10 1434h213l53 -820l62 820h197l59 -820l55 820h187l-129 -1434h-230l-55 649l-53 -649h-232z" />
<glyph unicode="X" horiz-adv-x="569" d="M10 0l133 698l-131 736h217l60 -453l69 453h199l-131 -699l135 -735h-219l-61 457l-74 -457h-197z" />
<glyph unicode="Y" horiz-adv-x="555" d="M-4 1434h219l72 -582l73 582h201l-178 -953v-481h-209v475z" />
<glyph unicode="Z" horiz-adv-x="468" d="M25 0v217l221 1030h-213v187h413v-217l-221 -1029h221v-188h-421z" />
<glyph unicode="[" horiz-adv-x="301" d="M45 -66v1565h242v-96h-109v-1372h109v-97h-242z" />
<glyph unicode="\" horiz-adv-x="331" d="M4 1499h131l195 -1565h-129z" />
<glyph unicode="]" horiz-adv-x="301" d="M14 31h109v1372h-109v96h242v-1565h-242v97z" />
<glyph unicode="^" horiz-adv-x="520" d="M39 1126l168 308h104l166 -308h-131l-88 168l-88 -168h-131z" />
<glyph unicode="_" horiz-adv-x="712" d="M-2 -33h717v-135h-717v135z" />
<glyph unicode="`" horiz-adv-x="749" d="M264 1421h193l59 -172h-143z" />
<glyph unicode="a" horiz-adv-x="526" d="M27 125v377q0 69 24 103.5t86 56.5l162 55v278q0 33 -33 33h-12q-35 0 -35 -33v-235h-184v252q0 182 184 182h92q185 0 185 -182v-1012h-193v53q-40 -33 -72 -49t-73 -16h-2q-62 0 -95.5 35.5t-33.5 101.5zM215 193q0 -33 37 -33q31 0 47 8v387l-55 -20q-29 -15 -29 -48 v-294z" />
<glyph unicode="b" d="M33 0v1440h196v-314q78 68 146 68h2q67 0 103 -37t36 -108v-914q0 -73 -36 -110t-103 -37h-2q-72 0 -148 59v-47h-194zM229 172q30 -10 50 -10q21 0 29.5 7.5t8.5 25.5v792q0 18 -8.5 25.5t-29.5 7.5q-26 0 -50 -8v-840z" />
<glyph unicode="c" horiz-adv-x="530" d="M31 172v840q0 182 182 182h106q183 0 183 -182v-342h-193v317q0 33 -35 33h-14q-33 0 -33 -33v-792q0 -33 33 -33h16q33 0 33 33v331h195v-354q0 -184 -185 -184h-106q-182 0 -182 184z" />
<glyph unicode="d" d="M31 135v914q0 71 35 108t102 37h2q73 0 145 -59v305h197v-1440h-195v55q-74 -67 -147 -67h-2q-137 0 -137 147zM227 195q0 -18 9 -25.5t30 -7.5q19 0 49 10v840q-24 8 -49 8q-21 0 -30 -7.5t-9 -25.5v-792z" />
<glyph unicode="e" horiz-adv-x="528" d="M31 172v840q0 182 182 182h102q183 0 183 -182v-494h-273v-325q0 -33 33 -33h16q35 0 35 33v233h189v-254q0 -184 -183 -184h-102q-182 0 -182 184zM225 672h80v321q0 33 -33 33h-14q-33 0 -33 -33v-321z" />
<glyph unicode="f" horiz-adv-x="356" d="M12 1018v164h47v96q0 162 164 162h131v-162h-67q-29 0 -29 -29v-67h92v-164h-92v-1018h-199v1018h-47z" />
<glyph unicode="g" d="M31 211v838q0 71 35 108t102 37h2q75 0 147 -59v47h195v-1198q0 -89 -43 -131.5t-133 -42.5h-146q-82 0 -119.5 37t-37.5 120v60h174v-37q0 -35 35 -35h43q32 0 32 35v135q-72 -59 -147 -59h-2q-67 0 -102 37t-35 108zM227 264q0 -18 9 -25.5t30 -7.5q27 0 49 11v770 q-24 8 -49 8q-21 0 -30 -7.5t-9 -25.5v-723z" />
<glyph unicode="h" horiz-adv-x="542" d="M33 0v1440h196v-310q39 32 71 48t73 16h14q125 0 125 -135v-1059h-197v987q0 18 -9 25.5t-32 7.5q-21 0 -45 -8v-1012h-196z" />
<glyph unicode="i" horiz-adv-x="266" d="M33 1237v174h203v-174h-203zM35 0v1182h196v-1182h-196z" />
<glyph unicode="j" horiz-adv-x="270" d="M-16 -31h26q27 0 27 31v1182h199v-1207q0 -83 -40.5 -123t-123.5 -40h-88v157zM35 1237v174h203v-174h-203z" />
<glyph unicode="k" horiz-adv-x="528" d="M33 0v1440h196v-828l93 570h206l-114 -582l108 -600h-209l-84 584v-584h-196z" />
<glyph unicode="l" horiz-adv-x="266" d="M35 0v1440h196v-1440h-196z" />
<glyph unicode="m" horiz-adv-x="823" d="M33 0v1182h194v-52q78 64 146 64h12q89 0 117 -72q72 72 151 72h13q61 0 94 -34t33 -101v-1059h-199v987q0 33 -37 33q-25 0 -45 -8v-1012h-199v987q0 18 -8 25.5t-29 7.5q-23 0 -47 -8v-1012h-196z" />
<glyph unicode="n" d="M33 0v1182h194v-52q78 64 146 64h14q125 0 125 -135v-1059h-197v987q0 18 -9 25.5t-32 7.5q-21 0 -45 -8v-1012h-196z" />
<glyph unicode="o" horiz-adv-x="542" d="M31 172v840q0 182 182 182h117q182 0 182 -182v-840q0 -184 -182 -184h-117q-182 0 -182 184zM227 195q0 -33 33 -33h23q32 0 32 33v792q0 33 -32 33h-23q-33 0 -33 -33v-792z" />
<glyph unicode="p" d="M33 -186v1368h194v-56q78 68 148 68h2q67 0 103 -37t36 -108v-914q0 -73 -36 -110t-103 -37h-2q-70 0 -146 59v-233h-196zM229 172q30 -10 50 -10q21 0 29.5 7.5t8.5 25.5v792q0 18 -8.5 25.5t-29.5 7.5q-26 0 -50 -8v-840z" />
<glyph unicode="q" d="M31 135v914q0 71 35 108t102 37h2q75 0 147 -59v47h195v-1368h-197v241q-74 -67 -145 -67h-2q-137 0 -137 147zM227 195q0 -18 9 -25.5t30 -7.5q19 0 49 10v840q-24 8 -49 8q-21 0 -30 -7.5t-9 -25.5v-792z" />
<glyph unicode="r" horiz-adv-x="364" d="M33 0v1182h194v-88q25 52 53 75t70 23v-213q-80 -9 -121 -45v-934h-196z" />
<glyph unicode="s" horiz-adv-x="516" d="M29 172v289h188v-268q0 -33 33 -33h18q31 0 31 33v198q0 35 -8 52t-33 34l-121 82q-63 44 -85.5 87.5t-22.5 119.5v246q0 182 184 182h90q184 0 184 -182v-279h-188v258q0 33 -33 33h-14q-33 0 -33 -33v-194q0 -35 8 -51t35 -35l121 -82q62 -43 85.5 -87t23.5 -120v-250 q0 -184 -187 -184h-90q-186 0 -186 184z" />
<glyph unicode="t" horiz-adv-x="350" d="M10 1018v164h56v164h196v-164h78v-164h-78v-1018h-196v1018h-56z" />
<glyph unicode="u" d="M33 125v1057h196v-987q0 -18 9 -25.5t30 -7.5q15 0 45 10v1010h199v-1182h-195v53q-75 -65 -145 -65h-14q-125 0 -125 137z" />
<glyph unicode="v" horiz-adv-x="516" d="M4 1182h197l61 -756l66 756h184l-127 -1182h-254z" />
<glyph unicode="w" horiz-adv-x="759" d="M6 1182h195l43 -664l59 664h170l57 -664l45 664h179l-117 -1182h-199l-57 565l-57 -565h-199z" />
<glyph unicode="x" horiz-adv-x="507" d="M2 0l123 573l-121 609h203l49 -363l59 363h187l-121 -568l125 -614h-205l-51 365l-60 -365h-188z" />
<glyph unicode="y" horiz-adv-x="514" d="M2 1182h197l55 -621l74 621h188l-213 -1368h-188l43 223z" />
<glyph unicode="z" horiz-adv-x="442" d="M16 0v166l203 846h-196v170h401v-164l-205 -848h205v-170h-408z" />
<glyph unicode="{" horiz-adv-x="382" d="M16 641v102l52 11q29 5 41 15.5t12 37.5v317q0 102 13.5 158t46.5 99.5t110 111.5l90 -37q-82 -102 -100.5 -153.5t-18.5 -176.5v-278q0 -123 -90 -156q90 -23 90 -135v-299q0 -125 18.5 -177.5t100.5 -152.5l-90 -39q-77 69 -110 113t-46.5 100t-13.5 158v318 q0 26 -12 36t-41 17z" />
<glyph unicode="|" horiz-adv-x="331" d="M100 -137v1700h129v-1700h-129z" />
<glyph unicode="}" horiz-adv-x="382" d="M2 -72q82 100 100.5 152.5t18.5 177.5v299q0 112 90 135q-90 33 -90 156v278q0 125 -18.5 176.5t-100.5 153.5l90 37q77 -68 110 -111.5t46.5 -99.5t13.5 -158v-317q0 -27 12 -37.5t41 -15.5l52 -11v-102l-52 -10q-29 -7 -41 -17t-12 -36v-318q0 -102 -13.5 -158 t-46.5 -100t-110 -113z" />
<glyph unicode="~" horiz-adv-x="509" d="M51 618v150q47 55 113 55h6q28 0 74 -16l24 -8q47 -17 80 -17h4q58 0 109 49v-147q-52 -57 -113 -57h-4q-30 0 -82 18l-24 8q-41 15 -74 15h-4q-57 0 -109 -50z" />
<glyph unicode="&#xa1;" horiz-adv-x="278" d="M39 0v502l43 618h115l43 -618v-502h-201zM55 1202v232h168v-232h-168z" />
<glyph unicode="&#xa2;" horiz-adv-x="522" d="M33 272v895q0 177 172 183v88h119v-88q165 -9 165 -183v-374h-186v354q0 33 -33 33h-16q-33 0 -33 -33v-856q0 -33 33 -33h18q33 0 33 33v383h187v-402q0 -178 -166 -184v-92h-121v92q-172 3 -172 184z" />
<glyph unicode="&#xa3;" horiz-adv-x="593" d="M16 0v188h62v390h-62v184h62v487q0 195 194 195h101q194 0 194 -195v-346h-196v324q0 37 -39 37h-13q-36 0 -36 -37v-465h186v-184h-186v-390h288v-188h-555z" />
<glyph unicode="&#xa5;" horiz-adv-x="548" d="M-2 1434h213l68 -566l75 566h197l-164 -830h131v-104h-141v-58h141v-104h-141v-338h-205v338h-139v104h139v58h-139v104h125z" />
<glyph unicode="&#xa7;" horiz-adv-x="579" d="M47 182v295h197v-278q0 -37 39 -37h16q37 0 37 37v260q0 41 -33 57l-168 88q-57 28 -72.5 60t-15.5 104v35l379 -189q61 -31 85 -65.5t24 -102.5v-264q0 -194 -195 -194h-98q-195 0 -195 194zM47 985v266q0 195 195 195h98q195 0 195 -195v-295h-199v279q0 37 -37 37h-16 q-39 0 -39 -37v-264q0 -40 35 -58l167 -86q57 -28 73 -60.5t16 -102.5v-37l-379 188q-60 30 -84.5 66.5t-24.5 103.5z" />
<glyph unicode="&#xa8;" horiz-adv-x="749" d="M197 1249v172h153v-172h-153zM399 1249v172h154v-172h-154z" />
<glyph unicode="&#xa9;" horiz-adv-x="763" d="M55 225v983q0 129 57 186.5t177 57.5h186q121 0 177.5 -57.5t56.5 -186.5v-983q0 -129 -56.5 -186t-177.5 -57h-186q-120 0 -177 57t-57 186zM94 225q0 -111 47.5 -160t147.5 -49h186q101 0 148 49t47 160v983q0 111 -47 160t-148 49h-186q-100 0 -147.5 -49t-47.5 -160 v-983zM199 266v901q0 136 141 136h82q145 0 145 -136v-385h-153v359q0 24 -23 24h-14q-25 0 -25 -24v-848q0 -23 25 -23h14q27 0 27 23v379h151v-404q0 -135 -141 -135h-88q-141 0 -141 133z" />
<glyph unicode="&#xaa;" horiz-adv-x="344" d="M35 922v161q0 39 14 61t47 32l105 32v125q0 23 -23 23h-12q-11 0 -18 -6.5t-7 -16.5v-104h-100v119q0 98 96 98h74q96 0 96 -98v-498h-104v37q-2 -2 -8.5 -8t-8 -7.5t-7 -6t-8.5 -6t-8.5 -4.5t-10 -4t-10.5 -2.5t-13.5 -2t-15.5 -0.5h-2q-34 0 -55 20t-21 56zM141 961 q0 -21 25 -21q11 0 35 8v174l-45 -16q-15 -6 -15 -33v-112z" />
<glyph unicode="&#xab;" horiz-adv-x="448" d="M14 580l99 317h135l-78 -317l78 -318h-135zM213 580l88 317h135l-67 -317l67 -318h-135z" />
<glyph unicode="&#xad;" horiz-adv-x="339" d="M16 492v178h308v-178h-308z" />
<glyph unicode="&#xae;" horiz-adv-x="462" d="M37 831v472q0 75 35.5 108t111.5 33h95q76 0 111.5 -33t35.5 -108v-472q0 -80 -35 -112.5t-112 -32.5h-95q-77 0 -112 32.5t-35 112.5zM68 831q0 -63 27.5 -89.5t88.5 -26.5h95q61 0 89.5 26.5t28.5 89.5v472q0 60 -28.5 86t-89.5 26h-95q-61 0 -88.5 -25.5t-27.5 -86.5 v-472zM125 780v570h141q80 0 80 -68v-174q0 -42 -37 -55q37 -8 37 -47v-226h-90v217q0 13 -14 13h-27v-230h-90zM215 1085h27q14 0 14 13v166q0 14 -14 14h-27v-193z" />
<glyph unicode="&#xaf;" horiz-adv-x="749" d="M199 1260v131h352v-131h-352z" />
<glyph unicode="&#xb0;" horiz-adv-x="393" d="M27 813v520q0 50 29.5 81.5t78.5 31.5h125q47 0 77 -31.5t30 -81.5v-520q0 -50 -30 -82.5t-77 -32.5h-125q-49 0 -78.5 32.5t-29.5 82.5zM158 844q0 -11 6.5 -19t15.5 -8h35q9 0 16 8t7 19v456q0 11 -7 19t-16 8h-35q-9 0 -15.5 -8t-6.5 -19v-456z" />
<glyph unicode="&#xb1;" horiz-adv-x="481" d="M20 412v131h441v-131h-441zM20 748v133h150v153h141v-153h150v-133h-150v-152h-141v152h-150z" />
<glyph unicode="&#xb4;" horiz-adv-x="749" d="M262 1249l60 172h192l-108 -172h-144z" />
<glyph unicode="&#xb6;" horiz-adv-x="538" d="M35 258v918q0 130 63.5 194t194.5 64h207v-1434h-113v1329h-84v-1329h-10q-131 0 -194.5 64t-63.5 194z" />
<glyph unicode="&#xb7;" horiz-adv-x="221" d="M25 575v232h172v-232h-172z" />
<glyph unicode="&#xb8;" horiz-adv-x="749" d="M279 -188l92 188h118l-43 -188h-167z" />
<glyph unicode="&#xba;" horiz-adv-x="354" d="M37 944v402q0 47 26.5 73.5t73.5 26.5h80q47 0 73.5 -26.5t26.5 -73.5v-402q0 -47 -26.5 -73.5t-73.5 -26.5h-80q-47 0 -73.5 26.5t-26.5 73.5zM145 961q0 -21 19 -21h26q19 0 19 21v368q0 21 -19 21h-26q-19 0 -19 -21v-368z" />
<glyph unicode="&#xbb;" horiz-adv-x="448" d="M12 262l68 318l-68 317h135l89 -317l-89 -318h-135zM201 262l78 318l-78 317h135l98 -317l-98 -318h-135z" />
<glyph unicode="&#xbf;" horiz-adv-x="530" d="M20 184v342q0 99 58 172l100 144q25 35 25 96v188h153v-272q0 -54 -8.5 -86t-34.5 -66l-63 -94q-27 -38 -27 -90v-311q0 -37 37 -37h14q37 0 37 37v348h193v-371q0 -194 -195 -194h-94q-195 0 -195 194zM197 1202v232h165v-232h-165z" />
<glyph unicode="&#xc0;" horiz-adv-x="575" d="M8 0l137 1434h285l137 -1434h-205l-16 207h-135l-14 -207h-189zM94 1632h199l72 -141h-150zM225 391h107l-53 694z" />
<glyph unicode="&#xc1;" horiz-adv-x="575" d="M8 0l137 1434h285l137 -1434h-205l-16 207h-135l-14 -207h-189zM217 1491l68 141h192l-117 -141h-143zM225 391h107l-53 694z" />
<glyph unicode="&#xc2;" horiz-adv-x="575" d="M8 0l137 1434h285l137 -1434h-205l-16 207h-135l-14 -207h-189zM106 1491l107 154h152l106 -154h-121l-61 49l-62 -49h-121zM225 391h107l-53 694z" />
<glyph unicode="&#xc3;" horiz-adv-x="575" d="M8 0l137 1434h285l137 -1434h-205l-16 207h-135l-14 -207h-189zM106 1491v74q0 43 18 62.5t56 19.5h25q41 0 71 -17l43 -22q23 -13 39 -13q15 0 15 19v33h104v-74q0 -82 -76 -82h-24q-41 0 -70 16l-45 23q-22 12 -39 12q-9 0 -11.5 -3.5t-2.5 -12.5v-35h-103zM225 391 h107l-53 694z" />
<glyph unicode="&#xc4;" horiz-adv-x="575" d="M8 0l137 1434h285l137 -1434h-205l-16 207h-135l-14 -207h-189zM109 1491v141h155v-141h-155zM225 391h107l-53 694zM313 1491v141h156v-141h-156z" />
<glyph unicode="&#xc5;" horiz-adv-x="573" d="M6 -2l135 1378q-16 22 -16 54v8q0 82 102 82h117q52 0 78.5 -22t26.5 -60v-8q0 -32 -19 -54l137 -1376h-207l-16 207h-133l-14 -207zM164 1430q0 -48 63 -48h117q64 0 64 48v8q0 47 -64 47h-117q-63 0 -63 -47v-8zM225 391h105l-54 707z" />
<glyph unicode="&#xc6;" horiz-adv-x="737" d="M8 0l170 1434h531v-187h-181v-428h172v-188h-172v-443h183v-188h-392v207h-98l-22 -207h-191zM240 391h79v871z" />
<glyph unicode="&#xc7;" horiz-adv-x="585" d="M35 182v1069q0 195 194 195h125q195 0 195 -195v-428h-207v406q0 37 -37 37h-22q-39 0 -39 -37v-1024q0 -37 39 -37h26q37 0 37 37v436h207v-459q0 -194 -195 -194h-2l-39 -176h-167l86 176h-7q-194 0 -194 194z" />
<glyph unicode="&#xc8;" horiz-adv-x="456" d="M37 0v1434h391v-187h-180v-428h172v-188h-172v-443h182v-188h-393zM39 1632h199l71 -141h-149z" />
<glyph unicode="&#xc9;" horiz-adv-x="456" d="M37 0v1434h391v-187h-180v-428h172v-188h-172v-443h182v-188h-393zM160 1491l67 141h193l-117 -141h-143z" />
<glyph unicode="&#xca;" horiz-adv-x="456" d="M37 0v1434h391v-187h-180v-428h172v-188h-172v-443h182v-188h-393zM51 1491l107 154h151l107 -154h-121l-62 49l-61 -49h-121z" />
<glyph unicode="&#xcb;" horiz-adv-x="456" d="M37 0v1434h391v-187h-180v-428h172v-188h-172v-443h182v-188h-393zM53 1491v141h156v-141h-156zM258 1491v141h156v-141h-156z" />
<glyph unicode="&#xcc;" horiz-adv-x="288" d="M-49 1632h199l71 -141h-149zM39 0v1434h211v-1434h-211z" />
<glyph unicode="&#xcd;" horiz-adv-x="286" d="M39 0v1434h211v-1434h-211zM72 1491l67 141h193l-117 -141h-143z" />
<glyph unicode="&#xce;" horiz-adv-x="288" d="M-37 1491l107 154h151l107 -154h-121l-62 49l-61 -49h-121zM39 0v1434h211v-1434h-211z" />
<glyph unicode="&#xcf;" horiz-adv-x="288" d="M-37 1491v141h156v-141h-156zM39 0v1434h211v-1434h-211zM168 1491v141h156v-141h-156z" />
<glyph unicode="&#xd0;" horiz-adv-x="606" d="M0 645v160h49v629h295q115 0 170 -55.5t55 -170.5v-983q0 -114 -55 -169.5t-170 -55.5h-295v645h-49zM260 180h41q31 0 45 13.5t14 44.5v958q0 30 -14 43.5t-45 13.5h-41v-448h64v-160h-64v-465z" />
<glyph unicode="&#xd1;" horiz-adv-x="587" d="M37 0v1434h215l133 -785l-12 408l-4 377h182v-1434h-205l-143 842l12 -418l4 -424h-182zM117 1491v74q0 44 18 63t55 19h25q42 0 72 -17l43 -22q23 -13 39 -13q14 0 14 19v33h104v-74q0 -82 -75 -82h-25q-41 0 -70 16l-45 23q-22 12 -39 12q-9 0 -11.5 -3.5t-2.5 -12.5 v-35h-102z" />
<glyph unicode="&#xd2;" horiz-adv-x="593" d="M35 186v1065q0 195 194 195h136q194 0 194 -195v-1065q0 -198 -194 -198h-136q-194 0 -194 198zM102 1632h199l72 -141h-150zM244 207q0 -37 39 -37h28q39 0 39 37v1022q0 37 -39 37h-28q-39 0 -39 -37v-1022z" />
<glyph unicode="&#xd3;" horiz-adv-x="593" d="M35 186v1065q0 195 194 195h136q194 0 194 -195v-1065q0 -198 -194 -198h-136q-194 0 -194 198zM223 1491l68 141h192l-116 -141h-144zM244 207q0 -37 39 -37h28q39 0 39 37v1022q0 37 -39 37h-28q-39 0 -39 -37v-1022z" />
<glyph unicode="&#xd4;" horiz-adv-x="593" d="M35 186v1065q0 195 194 195h136q194 0 194 -195v-1065q0 -198 -194 -198h-136q-194 0 -194 198zM117 1491l106 154h152l106 -154h-121l-61 49l-61 -49h-121zM244 207q0 -37 39 -37h28q39 0 39 37v1022q0 37 -39 37h-28q-39 0 -39 -37v-1022z" />
<glyph unicode="&#xd5;" horiz-adv-x="593" d="M35 186v1065q0 195 194 195h136q194 0 194 -195v-1065q0 -198 -194 -198h-136q-194 0 -194 198zM113 1491v74q0 44 18 63t55 19h25q42 0 72 -17l43 -22q23 -13 39 -13q14 0 14 19v33h104v-74q0 -82 -75 -82h-25q-41 0 -70 16l-45 23q-22 12 -39 12q-9 0 -11.5 -3.5 t-2.5 -12.5v-35h-102zM244 207q0 -37 39 -37h28q39 0 39 37v1022q0 37 -39 37h-28q-39 0 -39 -37v-1022z" />
<glyph unicode="&#xd6;" horiz-adv-x="593" d="M35 186v1065q0 195 194 195h136q194 0 194 -195v-1065q0 -198 -194 -198h-136q-194 0 -194 198zM119 1491v141h155v-141h-155zM244 207q0 -37 39 -37h28q39 0 39 37v1022q0 37 -39 37h-28q-39 0 -39 -37v-1022zM324 1491v141h155v-141h-155z" />
<glyph unicode="&#xd7;" horiz-adv-x="483" d="M27 602l116 119l-116 119l100 98l117 -119l118 119l95 -94l-119 -119l119 -117l-99 -100l-118 119l-119 -119z" />
<glyph unicode="&#xd8;" horiz-adv-x="593" d="M35 182v1069q0 195 194 195h136q194 0 194 -195v-1069q0 -194 -194 -194h-136q-194 0 -194 194zM240 594l112 596v37q0 39 -41 39h-26q-43 0 -43 -39v-156zM242 207q0 -39 41 -39h26q43 0 43 39v201v421l-110 -589v-33z" />
<glyph unicode="&#xd9;" horiz-adv-x="587" d="M35 186v1248h211v-1227q0 -37 37 -37h22q37 0 37 37v1227h211v-1248q0 -196 -195 -196h-129q-194 0 -194 196zM102 1632h199l72 -141h-150z" />
<glyph unicode="&#xda;" horiz-adv-x="587" d="M35 186v1248h211v-1227q0 -37 37 -37h22q37 0 37 37v1227h211v-1248q0 -196 -195 -196h-129q-194 0 -194 196zM225 1491l68 141h192l-116 -141h-144z" />
<glyph unicode="&#xdb;" horiz-adv-x="587" d="M35 186v1248h211v-1227q0 -37 37 -37h22q37 0 37 37v1227h211v-1248q0 -196 -195 -196h-129q-194 0 -194 196zM113 1491l106 154h152l106 -154h-121l-61 49l-62 -49h-120z" />
<glyph unicode="&#xdc;" horiz-adv-x="587" d="M35 186v1248h211v-1227q0 -37 37 -37h22q37 0 37 37v1227h211v-1248q0 -196 -195 -196h-129q-194 0 -194 196zM115 1491v141h155v-141h-155zM319 1491v141h156v-141h-156z" />
<glyph unicode="&#xdd;" horiz-adv-x="555" d="M-4 1434h219l72 -582l73 582h201l-178 -953v-481h-209v475zM215 1491l68 141h192l-117 -141h-143z" />
<glyph unicode="&#xde;" horiz-adv-x="561" d="M37 0v1434h211v-244h96q197 0 197 -195v-546q0 -195 -197 -195h-96v-254h-211zM248 434h45q37 0 37 37v502q0 37 -37 37h-45v-576z" />
<glyph unicode="&#xdf;" horiz-adv-x="548" d="M33 0v1253q0 195 194 195h92q199 0 199 -195v-344q0 -123 -88 -155q47 -13 68.5 -46t21.5 -90v-436q0 -182 -182 -182h-68v174h21q33 0 33 33v414q0 19 -8 26.5t-27 7.5h-19v176h15q19 0 26.5 8t7.5 27v371q0 20 -7.5 28.5t-26.5 8.5h-17q-39 0 -39 -37v-1237h-196z" />
<glyph unicode="&#xe0;" horiz-adv-x="526" d="M27 125v377q0 69 24 103.5t86 56.5l162 55v278q0 33 -33 33h-12q-35 0 -35 -33v-235h-184v252q0 182 184 182h92q185 0 185 -182v-1012h-193v53q-40 -33 -72 -49t-73 -16h-2q-62 0 -95.5 35.5t-33.5 101.5zM66 1421h192l59 -172h-143zM215 193q0 -33 37 -33q31 0 47 8 v387l-55 -20q-29 -15 -29 -48v-294z" />
<glyph unicode="&#xe1;" horiz-adv-x="526" d="M27 125v377q0 69 24 103.5t86 56.5l162 55v278q0 33 -33 33h-12q-35 0 -35 -33v-235h-184v252q0 182 184 182h92q185 0 185 -182v-1012h-193v53q-40 -33 -72 -49t-73 -16h-2q-62 0 -95.5 35.5t-33.5 101.5zM188 1249l60 172h192l-108 -172h-144zM215 193q0 -33 37 -33 q31 0 47 8v387l-55 -20q-29 -15 -29 -48v-294z" />
<glyph unicode="&#xe2;" horiz-adv-x="526" d="M27 125v377q0 69 24 103.5t86 56.5l162 55v278q0 33 -33 33h-12q-35 0 -35 -33v-235h-184v252q0 182 184 182h92q185 0 185 -182v-1012h-193v53q-40 -33 -72 -49t-73 -16h-2q-62 0 -95.5 35.5t-33.5 101.5zM90 1249l103 172h151l102 -172h-122l-56 64l-55 -64h-123z M215 193q0 -33 37 -33q31 0 47 8v387l-55 -20q-29 -15 -29 -48v-294z" />
<glyph unicode="&#xe3;" horiz-adv-x="526" d="M27 125v377q0 69 24 103.5t86 56.5l162 55v278q0 33 -33 33h-12q-35 0 -35 -33v-235h-184v252q0 182 184 182h92q185 0 185 -182v-1012h-193v53q-40 -33 -72 -49t-73 -16h-2q-62 0 -95.5 35.5t-33.5 101.5zM86 1249v90q0 82 76 82h20q44 0 70 -16l47 -31q19 -14 35 -14 q14 0 14 18v43h103v-90q0 -82 -76 -82h-21q-39 0 -67 17l-49 30q-3 2 -8 5t-7 4.5t-5.5 3t-6.5 2t-8 0.5q-15 0 -15 -19v-43h-102zM215 193q0 -33 37 -33q31 0 47 8v387l-55 -20q-29 -15 -29 -48v-294z" />
<glyph unicode="&#xe4;" horiz-adv-x="526" d="M27 125v377q0 69 24 103.5t86 56.5l162 55v278q0 33 -33 33h-12q-35 0 -35 -33v-235h-184v252q0 182 184 182h92q185 0 185 -182v-1012h-193v53q-40 -33 -72 -49t-73 -16h-2q-62 0 -95.5 35.5t-33.5 101.5zM90 1249v172h154v-172h-154zM215 193q0 -33 37 -33q31 0 47 8 v387l-55 -20q-29 -15 -29 -48v-294zM293 1249v172h153v-172h-153z" />
<glyph unicode="&#xe5;" horiz-adv-x="526" d="M27 125v377q0 69 24 103.5t86 56.5l162 55v278q0 33 -33 33h-12q-35 0 -35 -33v-235h-184v252q0 182 184 182h92q185 0 185 -182v-1012h-193v53q-40 -33 -72 -49t-73 -16h-2q-62 0 -95.5 35.5t-33.5 101.5zM135 1329v12q0 38 25 61t76 23h65q51 0 75.5 -23t24.5 -61v-12 q0 -39 -24.5 -62.5t-75.5 -23.5h-65q-51 0 -76 23.5t-25 62.5zM172 1329q0 -53 64 -53h65q64 0 64 53v12q0 52 -64 52h-65q-64 0 -64 -52v-12zM215 193q0 -33 37 -33q31 0 47 8v387l-55 -20q-29 -15 -29 -48v-294z" />
<glyph unicode="&#xe6;" horiz-adv-x="796" d="M27 125v377q0 69 24 103.5t86 56.5l162 55v278q0 33 -33 33h-12q-35 0 -35 -33v-235h-184v252q0 182 184 182h62q81 0 114 -49q36 49 117 49h72q184 0 184 -182v-494h-272v-325q0 -33 32 -33h17q35 0 35 33v233h188v-254q0 -184 -184 -184h-101q-114 0 -157 71 q-54 -39 -90 -55t-78 -16h-2q-62 0 -95.5 35.5t-33.5 101.5zM215 193q0 -33 37 -33q31 0 47 8v391l-55 -24q-29 -15 -29 -48v-294zM496 672h79v321q0 33 -32 33h-15q-32 0 -32 -33v-321z" />
<glyph unicode="&#xe7;" horiz-adv-x="530" d="M31 172v840q0 182 182 182h106q183 0 183 -182v-342h-193v317q0 33 -35 33h-14q-33 0 -33 -33v-792q0 -33 33 -33h16q33 0 33 33v331h195v-354q0 -178 -172 -184l-39 -176h-168l86 176q-180 3 -180 184z" />
<glyph unicode="&#xe8;" horiz-adv-x="528" d="M31 172v840q0 182 182 182h102q183 0 183 -182v-494h-273v-325q0 -33 33 -33h16q35 0 35 33v233h189v-254q0 -184 -183 -184h-102q-182 0 -182 184zM86 1421h193l59 -172h-143zM225 672h80v321q0 33 -33 33h-14q-33 0 -33 -33v-321z" />
<glyph unicode="&#xe9;" horiz-adv-x="528" d="M31 172v840q0 182 182 182h102q183 0 183 -182v-494h-273v-325q0 -33 33 -33h16q35 0 35 33v233h189v-254q0 -184 -183 -184h-102q-182 0 -182 184zM193 1249l59 172h192l-108 -172h-143zM225 672h80v321q0 33 -33 33h-14q-33 0 -33 -33v-321z" />
<glyph unicode="&#xea;" horiz-adv-x="528" d="M31 172v840q0 182 182 182h102q183 0 183 -182v-494h-273v-325q0 -33 33 -33h16q35 0 35 33v233h189v-254q0 -184 -183 -184h-102q-182 0 -182 184zM88 1249l102 172h152l102 -172h-122l-56 64l-55 -64h-123zM225 672h80v321q0 33 -33 33h-14q-33 0 -33 -33v-321z" />
<glyph unicode="&#xeb;" horiz-adv-x="528" d="M31 172v840q0 182 182 182h102q183 0 183 -182v-494h-273v-325q0 -33 33 -33h16q35 0 35 33v233h189v-254q0 -184 -183 -184h-102q-182 0 -182 184zM88 1249v172h154v-172h-154zM225 672h80v321q0 33 -33 33h-14q-33 0 -33 -33v-321zM291 1249v172h153v-172h-153z" />
<glyph unicode="&#xec;" horiz-adv-x="266" d="M-43 1421h193l59 -172h-143zM35 0v1182h196v-1182h-196z" />
<glyph unicode="&#xed;" horiz-adv-x="266" d="M35 0v1182h196v-1182h-196zM61 1249l60 172h192l-108 -172h-144z" />
<glyph unicode="&#xee;" horiz-adv-x="266" d="M-45 1249l102 172h152l102 -172h-123l-55 64l-55 -64h-123zM35 0v1182h196v-1182h-196z" />
<glyph unicode="&#xef;" horiz-adv-x="266" d="M-43 1249v172h154v-172h-154zM35 0v1182h196v-1182h-196zM160 1249v172h153v-172h-153z" />
<glyph unicode="&#xf0;" horiz-adv-x="542" d="M31 170v877q0 70 35.5 106.5t101.5 36.5h2q90 0 158 -68v33q0 29 -10.5 43t-38.5 25l-181 71l68 148l170 -68l35 66h135l-64 -113q70 -45 70 -141v-1016q0 -182 -182 -182h-117q-182 0 -182 182zM227 195q0 -33 33 -33h23q32 0 32 33v794q0 35 -32 35h-23q-33 0 -33 -35 v-794z" />
<glyph unicode="&#xf1;" d="M33 0v1182h194v-52q78 64 146 64h14q125 0 125 -135v-1059h-197v987q0 18 -9 25.5t-32 7.5q-21 0 -45 -8v-1012h-196zM92 1249v90q0 82 76 82h20q44 0 70 -16l47 -31q19 -14 35 -14q14 0 14 18v43h103v-90q0 -82 -76 -82h-21q-39 0 -67 17l-49 30q-3 2 -8 5t-7 4.5 t-5.5 3t-6.5 2t-8 0.5q-14 0 -14 -19v-43h-103z" />
<glyph unicode="&#xf2;" horiz-adv-x="542" d="M31 172v840q0 182 182 182h117q182 0 182 -182v-840q0 -184 -182 -184h-117q-182 0 -182 184zM94 1421h193l59 -172h-143zM227 195q0 -33 33 -33h23q32 0 32 33v792q0 33 -32 33h-23q-33 0 -33 -33v-792z" />
<glyph unicode="&#xf3;" horiz-adv-x="542" d="M31 172v840q0 182 182 182h117q182 0 182 -182v-840q0 -184 -182 -184h-117q-182 0 -182 184zM199 1249l59 172h193l-109 -172h-143zM227 195q0 -33 33 -33h23q32 0 32 33v792q0 33 -32 33h-23q-33 0 -33 -33v-792z" />
<glyph unicode="&#xf4;" horiz-adv-x="542" d="M31 172v840q0 182 182 182h117q182 0 182 -182v-840q0 -184 -182 -184h-117q-182 0 -182 184zM94 1249l103 172h151l103 -172h-123l-56 64l-55 -64h-123zM227 195q0 -33 33 -33h23q32 0 32 33v792q0 33 -32 33h-23q-33 0 -33 -33v-792z" />
<glyph unicode="&#xf5;" horiz-adv-x="542" d="M31 172v840q0 182 182 182h117q182 0 182 -182v-840q0 -184 -182 -184h-117q-182 0 -182 184zM90 1249v90q0 82 76 82h20q44 0 70 -16l47 -31q19 -14 35 -14q14 0 14 18v43h103v-90q0 -82 -76 -82h-21q-39 0 -67 17l-49 30q-3 2 -8 5t-7 4.5t-5.5 3t-6.5 2t-8 0.5 q-14 0 -14 -19v-43h-103zM227 195q0 -33 33 -33h23q32 0 32 33v792q0 33 -32 33h-23q-33 0 -33 -33v-792z" />
<glyph unicode="&#xf6;" horiz-adv-x="542" d="M31 172v840q0 182 182 182h117q182 0 182 -182v-840q0 -184 -182 -184h-117q-182 0 -182 184zM94 1249v172h154v-172h-154zM227 195q0 -33 33 -33h23q32 0 32 33v792q0 33 -32 33h-23q-33 0 -33 -33v-792zM297 1249v172h154v-172h-154z" />
<glyph unicode="&#xf7;" horiz-adv-x="481" d="M20 655v136h441v-136h-441zM170 473v137h141v-137h-141zM170 836v137h141v-137h-141z" />
<glyph unicode="&#xf8;" horiz-adv-x="542" d="M31 170v842q0 182 182 182h117q182 0 182 -182v-842q0 -182 -182 -182h-117q-182 0 -182 182zM225 504l90 440l2 43q0 33 -34 33h-23q-33 0 -33 -33v-102zM227 195q0 -33 33 -33h23q34 0 34 33v483l-90 -438v-45z" />
<glyph unicode="&#xf9;" d="M33 125v1057h196v-987q0 -18 9 -25.5t30 -7.5q15 0 45 10v1010h199v-1182h-195v53q-75 -65 -145 -65h-14q-125 0 -125 137zM94 1421h193l59 -172h-143z" />
<glyph unicode="&#xfa;" d="M33 125v1057h196v-987q0 -18 9 -25.5t30 -7.5q15 0 45 10v1010h199v-1182h-195v53q-75 -65 -145 -65h-14q-125 0 -125 137zM199 1249l59 172h193l-109 -172h-143z" />
<glyph unicode="&#xfb;" d="M33 125v1057h196v-987q0 -18 9 -25.5t30 -7.5q15 0 45 10v1010h199v-1182h-195v53q-75 -65 -145 -65h-14q-125 0 -125 137zM94 1249l103 172h151l103 -172h-123l-56 64l-55 -64h-123z" />
<glyph unicode="&#xfc;" d="M33 125v1057h196v-987q0 -18 9 -25.5t30 -7.5q15 0 45 10v1010h199v-1182h-195v53q-75 -65 -145 -65h-14q-125 0 -125 137zM92 1249v172h154v-172h-154zM295 1249v172h154v-172h-154z" />
<glyph unicode="&#xfd;" horiz-adv-x="514" d="M2 1182h197l55 -621l74 621h188l-213 -1368h-188l43 223zM186 1249l60 172h192l-108 -172h-144z" />
<glyph unicode="&#xfe;" d="M33 -186v1626h196v-314q78 68 146 68h2q67 0 103 -37t36 -108v-916q0 -71 -36 -109t-103 -38h-2q-70 0 -146 59v-231h-196zM229 170q24 -8 50 -8q38 0 38 31v794q0 18 -8.5 25.5t-29.5 7.5q-26 0 -50 -8v-842z" />
<glyph unicode="&#xff;" horiz-adv-x="514" d="M2 1182h197l55 -621l74 621h188l-213 -1368h-188l43 223zM82 1249v172h154v-172h-154zM285 1249v172h153v-172h-153z" />
<glyph unicode="&#x152;" horiz-adv-x="763" d="M35 225v983q0 226 225 226h475v-187h-178v-389h170v-186h-170v-484h182v-188h-479q-114 0 -169.5 55.5t-55.5 169.5zM244 238q0 -31 14 -44.5t45 -13.5h41v1073h-41q-31 0 -45 -13.5t-14 -43.5v-958z" />
<glyph unicode="&#x153;" horiz-adv-x="813" d="M31 172v840q0 182 182 182h86q45 0 70.5 -8.5t44.5 -30.5q19 22 43.5 30.5t70.5 8.5h72q182 0 182 -182v-494h-272v-325q0 -33 33 -33h18q33 0 33 33v233h188v-254q0 -184 -182 -184h-72q-78 0 -114 39q-36 -39 -115 -39h-86q-182 0 -182 184zM227 195q0 -33 33 -33h23 q29 0 32 31v794q0 33 -32 33h-23q-33 0 -33 -33v-792zM510 672h80v321q0 33 -33 33h-14q-33 0 -33 -33v-321z" />
<glyph unicode="&#x178;" horiz-adv-x="555" d="M-4 1434h219l72 -582l73 582h201l-178 -953v-481h-209v475zM106 1491v141h156v-141h-156zM311 1491v141h156v-141h-156z" />
<glyph unicode="&#x2c6;" horiz-adv-x="749" d="M197 1249l102 172h152l102 -172h-123l-55 64l-56 -64h-122z" />
<glyph unicode="&#x2dc;" horiz-adv-x="749" d="M193 1249v90q0 82 75 82h21q43 0 69 -16l48 -31q19 -14 34 -14t15 18v43h102v-90q0 -82 -76 -82h-20q-40 0 -68 17l-49 30q-3 2 -8 5t-7 4.5t-5.5 3t-6.5 2t-8 0.5q-14 0 -14 -19v-43h-102z" />
<glyph unicode="&#x2000;" horiz-adv-x="823" />
<glyph unicode="&#x2001;" horiz-adv-x="1647" />
<glyph unicode="&#x2002;" horiz-adv-x="823" />
<glyph unicode="&#x2003;" horiz-adv-x="1647" />
<glyph unicode="&#x2004;" horiz-adv-x="549" />
<glyph unicode="&#x2005;" horiz-adv-x="411" />
<glyph unicode="&#x2006;" horiz-adv-x="274" />
<glyph unicode="&#x2007;" horiz-adv-x="274" />
<glyph unicode="&#x2008;" horiz-adv-x="205" />
<glyph unicode="&#x2009;" horiz-adv-x="329" />
<glyph unicode="&#x200a;" horiz-adv-x="91" />
<glyph unicode="&#x2010;" horiz-adv-x="339" d="M16 492v178h308v-178h-308z" />
<glyph unicode="&#x2011;" horiz-adv-x="339" d="M16 492v178h308v-178h-308z" />
<glyph unicode="&#x2012;" horiz-adv-x="339" d="M16 492v178h308v-178h-308z" />
<glyph unicode="&#x2013;" horiz-adv-x="581" d="M16 508v143h547v-143h-547z" />
<glyph unicode="&#x2014;" horiz-adv-x="866" d="M16 508v143h832v-143h-832z" />
<glyph unicode="&#x2018;" horiz-adv-x="245" d="M27 977v72q0 185 61 385h127q-27 -173 -27 -355v-102h-161z" />
<glyph unicode="&#x2019;" horiz-adv-x="245" d="M29 977q26 166 26 354v103h162v-72q0 -185 -61 -385h-127z" />
<glyph unicode="&#x201a;" horiz-adv-x="221" d="M10 -223q27 173 27 354v102h162v-71q0 -182 -62 -385h-127z" />
<glyph unicode="&#x201c;" horiz-adv-x="456" d="M29 977v72q0 182 59 385h129q-29 -176 -29 -355v-102h-159zM244 977v72q0 191 51 385h129q-11 -74 -16 -136t-6 -101t-1 -118v-102h-157z" />
<glyph unicode="&#x201d;" horiz-adv-x="456" d="M33 977q11 73 16 137t5.5 98.5t0.5 118.5v103h158v-72q0 -191 -51 -385h-129zM240 977q28 170 28 354v103h160v-72q0 -182 -59 -385h-129z" />
<glyph unicode="&#x201e;" horiz-adv-x="432" d="M14 -223q11 74 16 136t6 100.5t1 117.5v102h158v-71q0 -187 -52 -385h-129zM221 -223q29 176 29 354v102h160v-71q0 -179 -60 -385h-129z" />
<glyph unicode="&#x2022;" horiz-adv-x="385" d="M55 651v144q0 100 111 100h55q109 0 109 -100v-144q0 -100 -109 -100h-55q-111 0 -111 100z" />
<glyph unicode="&#x2026;" horiz-adv-x="659" d="M25 0v231h172v-231h-172zM244 0v231h172v-231h-172zM463 0v231h172v-231h-172z" />
<glyph unicode="&#x202f;" horiz-adv-x="329" />
<glyph unicode="&#x2039;" horiz-adv-x="305" d="M14 580l121 317h158l-100 -317l100 -318h-158z" />
<glyph unicode="&#x203a;" horiz-adv-x="305" d="M12 262l101 318l-101 317h158l121 -317l-121 -318h-158z" />
<glyph unicode="&#x205f;" horiz-adv-x="411" />
<glyph unicode="&#x20ac;" horiz-adv-x="589" d="M12 594v104h58v52h-58v104h58v397q0 195 194 195h101q196 0 196 -195v-329h-199v307q0 37 -38 37h-13q-37 0 -37 -37v-375h213v-104h-213v-52h213v-104h-213v-389q0 -37 37 -37h17q37 0 37 37v317h200v-340q0 -194 -196 -194h-105q-194 0 -194 194v412h-58z" />
<glyph unicode="&#x2122;" horiz-adv-x="700" d="M33 1346v88h235v-88h-69v-537h-97v537h-69zM297 809v625h135l35 -449l33 449h137v-625h-98v457l-39 -457h-86l-39 475v-475h-78z" />
<glyph unicode="&#x25fc;" horiz-adv-x="1177" d="M0 0v1178h1178v-1178h-1178z" />
<glyph unicode="&#xfb01;" horiz-adv-x="622" d="M12 1018v164h47v96q0 162 164 162h131v-162h-67q-29 0 -29 -29v-67h92v-164h-92v-1018h-199v1018h-47zM389 1237v174h203v-174h-203zM391 0v1182h197v-1182h-197z" />
<glyph unicode="&#xfb02;" horiz-adv-x="622" d="M12 1018v164h47v96q0 162 164 162h131v-162h-67q-29 0 -29 -29v-67h92v-164h-92v-1018h-199v1018h-47zM391 0v1440h197v-1440h-197z" />
<glyph unicode="&#xfb03;" horiz-adv-x="978" d="M12 1018v164h47v96q0 162 164 162h131v-162h-67q-29 0 -29 -29v-67h92v-164h-92v-1018h-199v1018h-47zM369 1018v164h47v96q0 162 164 162h131v-162h-68q-29 0 -29 -29v-67h93v-164h-93v-1018h-198v1018h-47zM745 1237v174h203v-174h-203zM748 0v1182h196v-1182h-196z " />
<glyph unicode="&#xfb04;" horiz-adv-x="978" d="M12 1018v164h47v96q0 162 164 162h131v-162h-67q-29 0 -29 -29v-67h92v-164h-92v-1018h-199v1018h-47zM369 1018v164h47v96q0 162 164 162h131v-162h-68q-29 0 -29 -29v-67h93v-164h-93v-1018h-198v1018h-47zM748 0v1440h196v-1440h-196z" />
</font>
</defs>
</svg>
